<svg width="40" height="40" viewBox="0 0 40 40" fill="none" xmlns="http://www.w3.org/2000/svg">
<path d="M4.98668 27.2368C5.23175 27.855 5.28631 28.5324 5.14335 29.1818L3.36835 34.6651C3.31115 34.9432 3.32594 35.2313 3.41131 35.5021C3.49667 35.7728 3.64978 36.0173 3.85613 36.2123C4.06247 36.4073 4.3152 36.5463 4.59035 36.6162C4.8655 36.6861 5.15395 36.6846 5.42835 36.6118L11.1167 34.9485C11.7295 34.8269 12.3642 34.88 12.9483 35.1018C16.5073 36.7638 20.539 37.1155 24.3319 36.0947C28.1249 35.0739 31.4355 32.7462 33.6795 29.5224C35.9236 26.2986 36.9569 22.3858 36.5972 18.4744C36.2375 14.563 34.5078 10.9043 31.7135 8.1438C28.9191 5.38335 25.2395 3.69854 21.324 3.38664C17.4085 3.07473 13.5086 4.15578 10.3124 6.43904C7.11626 8.7223 4.82923 12.061 3.85484 15.8662C2.88044 19.6714 3.2813 23.6984 4.98668 27.2368Z" stroke="#35AB4E" stroke-width="3.33333" stroke-linecap="round" stroke-linejoin="round"/>
</svg>
