<svg width="40" height="40" viewBox="0 0 40 40" fill="none" xmlns="http://www.w3.org/2000/svg">
<path d="M27.0784 12.9346C28.95 14.8094 30.0012 17.3504 30.0012 19.9996C30.0012 22.6488 28.95 25.1897 27.0784 27.0646" stroke="#FFB84D" stroke-width="3.33333" stroke-linecap="round" stroke-linejoin="round"/>
<path d="M31.7917 8.22168C34.9132 11.3467 36.6665 15.5831 36.6665 20C36.6665 24.417 34.9132 28.6533 31.7917 31.7783" stroke="#FFB84D" stroke-width="3.33333" stroke-linecap="round" stroke-linejoin="round"/>
<path d="M8.20827 31.7783C5.08681 28.6533 3.3335 24.417 3.3335 20C3.3335 15.5831 5.08681 11.3467 8.20827 8.22168" stroke="#FFB84D" stroke-width="3.33333" stroke-linecap="round" stroke-linejoin="round"/>
<path d="M12.9216 27.0646C11.05 25.1897 9.99878 22.6488 9.99878 19.9996C9.99878 17.3504 11.05 14.8094 12.9216 12.9346" stroke="#FFB84D" stroke-width="3.33333" stroke-linecap="round" stroke-linejoin="round"/>
<path d="M20.0001 23.3337C21.841 23.3337 23.3334 21.8413 23.3334 20.0003C23.3334 18.1594 21.841 16.667 20.0001 16.667C18.1591 16.667 16.6667 18.1594 16.6667 20.0003C16.6667 21.8413 18.1591 23.3337 20.0001 23.3337Z" stroke="#FFB84D" stroke-width="3.33333" stroke-linecap="round" stroke-linejoin="round"/>
</svg>
