<svg width="193" height="207" viewBox="0 0 193 207" fill="none" xmlns="http://www.w3.org/2000/svg">
<path d="M36.0184 21.6161V40.3292L14.5186 28.6581V9.94507" fill="white" fill-opacity="0.795918"/>
<path d="M36.0184 21.6161V40.3292L14.5186 28.6581V9.94507" stroke="#333333" stroke-width="3.16712" stroke-linecap="round" stroke-linejoin="round"/>
<path d="M40.5773 50.2583C40.5773 50.2583 22.1511 62.6529 23.5532 71.66C32.2715 127.668 164.853 166.266 164.853 166.266C164.853 166.266 114.568 75.2365 102.351 47.5831C94.0214 28.7307 40.5773 50.2583 40.5773 50.2583Z" fill="#058BF4"/>
<path d="M57.0018 73.5728C67.0627 35.7905 100.705 37.0048 107.863 50.2431L166.891 159.419C128.723 140.292 40.9463 133.866 57.0018 73.5728Z" fill="#5FB8FB"/>
<path d="M56.0849 42.3878C51.668 41.1565 49.0988 39.1961 47.4149 35.7723C46.2935 33.4922 46.2829 33.424 46.3036 28.65C46.3231 24.1417 46.3922 23.6511 47.3704 21.0664C49.0548 16.6155 51.1338 13.9198 54.3321 12.0393C58.4433 9.62213 66.0523 12.4444 70.7823 18.1409C71.828 19.4003 73.467 22.0557 74.5059 24.1738C76.7878 28.8259 77.8232 32.8927 77.6815 36.6478L77.5811 39.3071L76.0205 40.0823C75.1622 40.5086 72.9179 41.2618 71.0334 41.7561C66.6547 42.9045 59.0856 43.2244 56.0849 42.3878Z" fill="white" stroke="white" stroke-width="1.29993" stroke-linecap="square"/>
<path d="M55.8114 44.4257C52.8595 44.0238 50.1246 42.9783 48.4322 41.6046C45.8536 39.5116 44.5935 35.649 44.976 31.0101C45.0429 30.1988 45.1617 28.1077 45.2399 26.3634C45.3995 22.8034 45.5928 21.5919 46.3647 19.3124C48.0821 14.2414 51.3941 10.9775 55.7314 10.0816C58.7586 9.45631 60.8188 9.49599 63.3954 10.2293C64.9714 10.6779 67.8688 12.1074 69.2228 13.1045C70.7908 14.2591 73.3708 16.9531 74.4351 18.5471C77.8013 23.5882 79.735 30.7574 79.0224 35.5548C78.8351 36.8163 78.3251 38.7521 78.1105 39.0164C77.8316 39.3598 78.1235 39.3815 78.6183 39.0541C79.0596 38.7622 79.0499 38.783 78.5162 39.2721C76.9556 40.7026 72.8859 42.4383 68.854 43.3931C63.9561 44.553 59.3972 44.9139 55.8114 44.4257ZM67.4117 42.7588C70.6561 42.1774 74.6975 41.0213 76.7717 40.0812C77.6641 39.6767 77.685 39.6539 77.8043 38.9534C77.8714 38.5601 77.9203 37.1762 77.9132 35.8781C77.8981 33.1314 77.629 31.6094 76.6119 28.5191C74.2176 21.2448 70.1304 15.7928 64.9545 12.9693C62.6139 11.6925 60.5718 11.0586 58.3564 10.9212C56.6821 10.8174 55.988 10.9596 54.4444 11.7228C52.0505 12.9065 49.9052 15.1342 48.4426 17.955C47.56 19.6573 46.72 21.994 46.3745 23.7081C45.7302 26.9048 45.6898 31.3245 46.2846 33.5179C46.9966 36.1431 48.5279 38.5461 50.4226 40.0115C52.3425 41.4964 54.7361 42.4203 58.0662 42.9618C59.9884 43.2744 65.1611 43.162 67.4117 42.7588Z" fill="black"/>
<path d="M59.2663 40.6459C65.5619 40.6459 70.6655 34.6569 70.6655 27.2691C70.6655 19.8813 65.5619 13.8923 59.2663 13.8923C52.9707 13.8923 47.8672 19.8813 47.8672 27.2691C47.8672 34.6569 52.9707 40.6459 59.2663 40.6459Z" fill="black"/>
<path d="M66.3726 31.4375C70.8386 31.4375 74.4591 29.4231 74.4591 26.9382C74.4591 24.4533 70.8386 22.439 66.3726 22.439C61.9066 22.439 58.2861 24.4533 58.2861 26.9382C58.2861 29.4231 61.9066 31.4375 66.3726 31.4375Z" fill="white"/>
<path d="M40.7793 35.5237C41.427 37.4718 43.6807 39.4199 42.0828 41.3681C30.9069 50.5726 14.4192 42.8102 8.79297 49.7111L10.8566 40.8547L40.7793 35.5237Z" fill="#C37B11"/>
<path d="M40.7794 35.5238C28.284 31.6494 32.3668 16.6608 23.7545 18.1548C18.3539 19.3497 1.98294 30.7592 0.882465 34.148C-1.32532 40.9468 0.389621 50.9834 8.53513 56.3321C8.11726 29.709 32.1937 46.0643 40.7794 35.5238Z" fill="#EC991F"/>
<path d="M30.3224 13.1382C30.3224 13.1382 36.226 16.7322 45.3697 6.86125C54.3279 -2.80928 63.1963 0.655479 73.7447 9.44081C73.8836 9.5565 54.5009 4.04054 49.4553 11.2998C44.9961 17.7154 27.8174 24.22 30.3224 13.1382Z" fill="#058BF4"/>
<path d="M177.74 176.467C145.691 143.16 129.749 108.033 122.713 81.6995Z" fill="#5FB8FB"/>
<path d="M123.258 81.5381L123.246 81.5911C128.139 108.782 145.498 142.996 177.621 176.381L177.715 176.439C147.938 143.343 130.6 106.902 123.258 81.5381Z" fill="#058BF4"/>
<path d="M177.766 176.519C139.138 152.174 115.749 122.035 102.99 98.2119Z" fill="#5FB8FB"/>
<path d="M103.483 97.9189L103.483 97.9733C114.354 123.165 138.914 152.064 177.632 176.465L177.736 176.498C141.363 151.791 116.322 120.724 103.483 97.9189Z" fill="#058BF4"/>
<path d="M177.803 176.565C134.707 162.897 105.046 139.689 87.1562 119.87Z" fill="#5FB8FB"/>
<path d="M87.5663 119.459L87.5792 119.512C103.954 141.144 134.464 162.848 177.66 176.547L177.769 176.552C136.775 161.953 105.297 138.27 87.5663 119.459Z" fill="#058BF4"/>
<path d="M40.5777 50.2583C40.5777 50.2583 10.0843 63.7738 11.5157 76.8191C18.713 142.415 178.718 187.404 179.643 187.246C179.643 187.246 114.569 75.2365 102.351 47.5831C94.0217 28.7307 40.5777 50.2583 40.5777 50.2583Z" fill="url(#paint0_linear_55385_10511)"/>
<g opacity="0.75">
<mask id="mask0_55385_10511" style="mask-type:luminance" maskUnits="userSpaceOnUse" x="11" y="39" width="169" height="149">
<path d="M40.5789 50.2582C40.5789 50.2582 10.0855 63.7737 11.5169 76.8191C18.7143 142.415 178.719 187.404 179.645 187.246C179.645 187.246 114.57 75.2364 102.352 47.583C94.023 28.7306 40.5789 50.2582 40.5789 50.2582Z" fill="white"/>
</mask>
<g mask="url(#mask0_55385_10511)">
<g opacity="0.0973598">
<path d="M55.9107 76.6088C66.5173 80.1919 62.1747 90.8355 62.3106 98.4543C62.3977 103.335 65.3833 109.719 65.3833 109.719C62.9943 109.542 44.7973 94.5528 53.4301 92.683C56.0554 92.1144 47.8984 94.6461 52.8244 101.281C43.2298 100.359 46.9155 87.2251 49.281 83.6127L55.9107 76.6088Z" fill="url(#paint1_linear_55385_10511)"/>
<path d="M47.9396 84.7333C47.164 86.2211 43.3552 97.7862 51.1597 106.456C42.2838 98.7185 39.6672 109.908 40.3779 118.331C38.366 117.031 29.5837 95.1521 38.056 97.6502C40.6325 98.41 32.2603 96.7208 33.4022 104.905C23.8303 94.109 39.578 87.1702 47.9396 84.7333Z" fill="url(#paint2_linear_55385_10511)"/>
<path d="M18.6452 91.1879C19.1966 91.9855 22.2098 98.3446 18.3556 103.876C22.891 98.8025 25.1935 105.032 25.3897 109.913C26.4502 109.023 29.9183 95.847 25.2389 97.8868C23.8158 98.5072 28.4959 96.9384 28.4276 101.714C33.1429 94.8364 23.6149 91.9861 18.6452 91.1879Z" fill="url(#paint3_linear_55385_10511)"/>
</g>
</g>
<mask id="mask1_55385_10511" style="mask-type:luminance" maskUnits="userSpaceOnUse" x="11" y="39" width="169" height="149">
<path d="M40.5772 50.2581C40.5772 50.2581 10.0838 63.7735 11.5152 76.8189C18.7125 142.415 178.718 187.404 179.643 187.246C179.643 187.246 114.568 75.2362 102.35 47.5828C94.0212 28.7305 40.5772 50.2581 40.5772 50.2581Z" fill="white"/>
</mask>
<g mask="url(#mask1_55385_10511)">
<g opacity="0.29703">
<path d="M14.6414 73.2061C6.19554 80.5549 14.2608 88.7461 17.0335 95.8438C18.8099 100.391 18.4774 107.43 18.4774 107.43C20.6196 106.358 31.7457 85.5728 23.0507 87.1279C20.4065 87.6009 28.9133 86.839 26.8818 94.8488C35.4044 90.3465 26.9991 79.602 23.4372 77.1612L14.6414 73.2061Z" fill="url(#paint4_linear_55385_10511)"/>
<path d="M25.104 77.6873C26.3874 78.7682 34.3096 88.0146 30.3901 99.0015C35.6551 88.4693 42.3318 97.8218 44.8791 105.882C46.245 103.914 46.0434 80.3394 39.1586 85.8729C37.0648 87.5557 44.1649 82.8085 46.2224 90.8117C50.9673 77.1859 33.764 76.7599 25.104 77.6873Z" fill="url(#paint5_linear_55385_10511)"/>
<path d="M57.8619 66.7708C64.3203 67.1578 63.5154 73.7523 64.7483 77.9799C65.5382 80.6884 68.1726 83.7945 68.1726 83.7945C66.8136 84.0588 54.3903 78.4643 58.92 76.1106C60.2976 75.3948 56.1336 78.0454 59.8881 80.9967C54.3981 81.9401 54.4585 74.0566 55.2289 71.6831L57.8619 66.7708Z" fill="url(#paint6_linear_55385_10511)"/>
<path d="M54.6512 72.5117C54.4447 73.4591 54.0773 80.4863 59.7459 84.1352C53.6216 81.169 53.8619 87.8056 55.5376 92.3947C54.2182 91.9751 45.9982 81.1092 51.1018 81.2154C52.6539 81.2477 47.729 81.5774 49.6087 85.9675C42.6317 81.4013 50.3589 75.1405 54.6512 72.5117Z" fill="url(#paint7_linear_55385_10511)"/>
</g>
</g>
<path d="M55.6675 75.6361C66.2741 79.2192 61.9316 89.8628 62.0675 97.4817C62.1545 102.363 65.1402 108.746 65.1402 108.746C62.7511 108.57 44.5541 93.5801 53.1869 91.7104C55.8123 91.1418 47.6552 93.6735 52.5813 100.308C42.9866 99.3867 46.6723 86.2524 49.0378 82.6401L55.6675 75.6361Z" fill="url(#paint8_linear_55385_10511)"/>
<path d="M47.6965 83.7606C46.9208 85.2485 43.112 96.8135 50.9166 105.483C42.0406 97.7459 39.424 108.935 40.1348 117.359C38.1229 116.058 29.3405 94.1794 37.8128 96.6776C40.3894 97.4373 32.0171 95.7482 33.1591 103.932C23.5871 93.1363 39.3348 86.1976 47.6965 83.7606Z" fill="url(#paint9_linear_55385_10511)"/>
<path d="M18.402 90.2153C18.9535 91.0129 21.9666 97.3719 18.1124 102.903C22.6478 97.8298 24.9504 104.059 25.1465 108.94C26.207 108.05 29.6752 94.8743 24.9957 96.9142C23.5726 97.5345 28.2527 95.9658 28.1844 100.741C32.8997 93.8638 23.3717 91.0134 18.402 90.2153Z" fill="url(#paint10_linear_55385_10511)"/>
<path d="M14.6414 71.0903C6.19554 78.4392 14.2608 86.6304 17.0335 93.728C18.8099 98.2752 18.4774 105.315 18.4774 105.315C20.6196 104.242 31.7457 83.4571 23.0507 85.0122C20.4065 85.4851 28.9133 84.7232 26.8818 92.7331C35.4044 88.2308 26.9991 77.4863 23.4372 75.0455L14.6414 71.0903Z" fill="url(#paint11_linear_55385_10511)"/>
<path d="M25.104 75.5716C26.3874 76.6524 34.3096 85.8989 30.3901 96.8858C35.6551 86.3535 42.3318 95.7061 44.8791 103.767C46.245 101.799 46.0434 78.2237 39.1586 83.7571C37.0648 85.44 44.1649 80.6927 46.2224 88.696C50.9673 75.0702 33.764 74.6442 25.104 75.5716Z" fill="url(#paint12_linear_55385_10511)"/>
<path d="M57.8619 64.6553C64.3203 65.0424 63.5154 71.6368 64.7483 75.8645C65.5382 78.5729 68.1726 81.679 68.1726 81.679C66.8136 81.9434 54.3903 76.3488 58.92 73.9951C60.2976 73.2793 56.1336 75.9299 59.8881 78.8813C54.3981 79.8246 54.4585 71.9412 55.2289 69.5676L57.8619 64.6553Z" fill="url(#paint13_linear_55385_10511)"/>
<path d="M54.6512 70.3962C54.4447 71.3437 54.0773 78.3709 59.7459 82.0198C53.6216 79.0535 53.8619 85.6901 55.5376 90.2792C54.2182 89.8596 45.9982 78.9937 51.1018 79.0999C52.6539 79.1322 47.729 79.4619 49.6087 83.852C42.6317 79.2858 50.3589 73.025 54.6512 70.3962Z" fill="url(#paint14_linear_55385_10511)"/>
</g>
<mask id="mask2_55385_10511" style="mask-type:luminance" maskUnits="userSpaceOnUse" x="11" y="39" width="169" height="149">
<path d="M40.5772 50.2581C40.5772 50.2581 10.0838 63.7735 11.5152 76.8189C18.7125 142.415 178.718 187.404 179.643 187.246C179.643 187.246 114.568 75.2362 102.35 47.5828C94.0212 28.7305 40.5772 50.2581 40.5772 50.2581Z" fill="white"/>
</mask>
<g mask="url(#mask2_55385_10511)">
<g opacity="0.324841" filter="url(#filter0_f_55385_10511)">
<path d="M55.6226 77.4004C64.5769 39.3406 98.1114 39.6484 105.781 52.5966L180.2 178.227C141.491 160.223 41.3332 138.137 55.6226 77.4004Z" fill="#333333"/>
</g>
</g>
<path d="M57.0018 73.5729C67.0628 35.7906 100.574 37.0768 107.863 50.2432L178.585 177.992C140.417 158.865 40.9464 133.866 57.0018 73.5729Z" fill="url(#paint15_radial_55385_10511)"/>
<mask id="mask3_55385_10511" style="mask-type:luminance" maskUnits="userSpaceOnUse" x="11" y="39" width="169" height="149">
<path d="M40.5767 50.2581C40.5767 50.2581 10.0833 63.7735 11.5147 76.8189C18.712 142.415 178.717 187.404 179.642 187.246C179.642 187.246 114.568 75.2362 102.35 47.5828C94.0208 28.7305 40.5767 50.2581 40.5767 50.2581Z" fill="white"/>
<path d="M57.0008 73.5729C67.0618 35.7906 100.573 37.0768 107.862 50.2432L178.584 177.992C140.416 158.865 40.9454 133.866 57.0008 73.5729Z" fill="white"/>
</mask>
<g mask="url(#mask3_55385_10511)">
<g opacity="0.113861" filter="url(#filter1_f_55385_10511)">
<path d="M36.136 47.3851L24.958 19.87C32.0241 3.47047 79.0116 -12.8893 103.032 33.1117C108.131 38.7945 111.713 39.1132 115.93 39.4745L105.44 42.2261C118.316 55.3458 104.323 70.8904 101.828 80.2314C100.09 77.3339 100.322 65.9225 89.9626 58.5632C90.4675 80.0967 80.548 84.036 66.4027 91.9253C78.7082 75.1382 78.3429 67.5662 75.6891 61.6586C76.0337 72.3879 68.6383 74.2124 68.6383 74.2124C71.5813 65.1653 68.9959 62.1493 67.0906 58.3912C60.3095 67.81 61.7944 73.1373 65.8868 75.7602C51.2087 73.1474 49.0641 61.638 46.1103 53.92C40.7305 56.3849 42.6447 58.8498 44.9065 61.3147C40.4047 61.4417 37.957 60.1466 39.4034 56.1556L29.7731 59.9389C36.5432 56.1763 36.136 47.3851 36.136 47.3851Z" fill="#333333"/>
</g>
</g>
<path d="M36.1361 45.326L24.958 17.8109C32.0241 1.41136 79.0116 -14.9483 103.032 31.0526C108.131 36.7354 111.713 37.0541 115.93 37.4154L105.44 40.167C118.316 53.2867 104.323 68.8313 101.828 78.1723C100.09 75.2748 100.322 63.8634 89.9626 56.5041C90.4675 78.0376 80.5481 81.977 66.4027 89.8662C78.7082 73.0791 78.3429 65.5072 75.6891 59.5996C76.0337 70.3288 68.6383 72.1534 68.6383 72.1534C71.5814 63.1062 68.9959 60.0902 67.0906 56.3321C60.3095 65.7509 61.7944 71.0782 65.8868 73.7011C51.2087 71.0883 49.0642 59.579 46.1103 51.8609C40.7305 54.3258 42.6447 56.7907 44.9065 59.2556C40.4047 59.3827 37.957 58.0876 39.4035 54.0965L29.7732 57.8799C36.5432 54.1173 36.1361 45.326 36.1361 45.326Z" fill="url(#paint16_linear_55385_10511)"/>
<path d="M36.1361 45.326L24.958 17.8109C32.0241 1.41136 79.0116 -14.9483 103.032 31.0526C108.131 36.7354 111.713 37.0541 115.93 37.4154L105.44 40.167C118.316 53.2867 104.323 68.8313 101.828 78.1723C100.09 75.2748 100.322 63.8634 89.9626 56.5041C90.4675 78.0376 80.5481 81.977 66.4027 89.8662C78.7082 73.0791 78.3429 65.5072 75.6891 59.5996C76.0337 70.3288 68.6383 72.1534 68.6383 72.1534C71.5814 63.1062 68.9959 60.0902 67.0906 56.3321C60.3095 65.7509 61.7944 71.0782 65.8868 73.7011C51.2087 71.0883 49.0642 59.579 46.1103 51.8609C40.7305 54.3258 42.6447 56.7907 44.9065 59.2556C40.4047 59.3827 37.957 58.0876 39.4035 54.0965L29.7732 57.8799C36.5432 54.1173 36.1361 45.326 36.1361 45.326Z" fill="url(#paint17_radial_55385_10511)"/>
<path d="M55.8579 42.9777C51.2714 41.6991 48.6037 39.6634 46.8552 36.1082C45.6907 33.7406 45.6797 33.6699 45.7012 28.7126C45.7215 24.0313 45.7932 23.5219 46.8089 20.838C48.5579 16.2164 50.7168 13.4171 54.0378 11.4645C58.3068 8.95452 66.2077 11.8851 71.1192 17.8002C72.2051 19.108 73.9071 21.8653 74.9859 24.0647C77.3553 28.8953 78.4304 33.1182 78.2832 37.0173L78.179 39.7788L76.5585 40.5836C75.6672 41.0263 73.3369 41.8084 71.38 42.3217C66.8334 43.5142 58.9737 43.8463 55.8579 42.9777Z" fill="url(#paint18_linear_55385_10511)"/>
<path d="M55.8114 44.4257C52.8595 44.0238 50.1246 42.9783 48.4322 41.6046C45.8536 39.5116 44.5935 35.649 44.976 31.0101C45.0429 30.1988 45.1617 28.1077 45.2399 26.3634C45.3995 22.8034 45.5928 21.5919 46.3647 19.3124C48.0821 14.2414 51.3941 10.9775 55.7314 10.0816C58.7586 9.45631 60.8188 9.49599 63.3954 10.2293C64.9714 10.6779 67.8688 12.1074 69.2228 13.1045C70.7908 14.2591 73.3708 16.9531 74.4351 18.5471C77.8013 23.5882 79.735 30.7574 79.0224 35.5548C78.8351 36.8163 78.3251 38.7521 78.1105 39.0164C77.8316 39.3598 78.1235 39.3815 78.6183 39.0541C79.0596 38.7622 79.0499 38.783 78.5162 39.2721C76.9556 40.7026 72.8859 42.4383 68.854 43.3931C63.9561 44.553 59.3972 44.9139 55.8114 44.4257ZM67.4117 42.7588C70.6561 42.1774 74.6975 41.0213 76.7717 40.0812C77.6641 39.6767 77.685 39.6539 77.8043 38.9534C77.8714 38.5601 77.9203 37.1762 77.9132 35.8781C77.8981 33.1314 77.629 31.6094 76.6119 28.5191C74.2176 21.2448 70.1304 15.7928 64.9545 12.9693C62.6139 11.6925 60.5718 11.0586 58.3564 10.9212C56.6821 10.8174 55.988 10.9596 54.4444 11.7228C52.0505 12.9065 49.9052 15.1342 48.4426 17.955C47.56 19.6573 46.72 21.994 46.3745 23.7081C45.7302 26.9048 45.6898 31.3245 46.2846 33.5179C46.9966 36.1431 48.5279 38.5461 50.4226 40.0115C52.3425 41.4964 54.7361 42.4203 58.0662 42.9618C59.9884 43.2744 65.1611 43.162 67.4117 42.7588Z" fill="black"/>
<path d="M56.8586 40.3019C63.1542 40.3019 68.2578 34.3129 68.2578 26.9251C68.2578 19.5373 63.1542 13.5483 56.8586 13.5483C50.5631 13.5483 45.4595 19.5373 45.4595 26.9251C45.4595 34.3129 50.5631 40.3019 56.8586 40.3019Z" fill="url(#paint19_radial_55385_10511)"/>
<path d="M65.5988 29.1494C68.9232 29.1494 71.6181 27.135 71.6181 24.6501C71.6181 22.1653 68.9232 20.1509 65.5988 20.1509C62.2745 20.1509 59.5796 22.1653 59.5796 24.6501C59.5796 27.135 62.2745 29.1494 65.5988 29.1494Z" fill="white"/>
<g opacity="0.113861" filter="url(#filter2_f_55385_10511)">
<path d="M44.2189 39.479C40.7099 29.6361 24.3127 11.0913 24.7863 20.1324C5.60848 25.2898 16.1878 41.2847 16.1878 41.2847C16.1878 41.2847 35.6332 50.0195 44.2189 39.479Z" fill="#333333"/>
</g>
<mask id="mask4_55385_10511" style="mask-type:luminance" maskUnits="userSpaceOnUse" x="11" y="1" width="169" height="187">
<path d="M40.5767 50.2581C40.5767 50.2581 10.0833 63.7735 11.5147 76.8189C18.712 142.415 178.717 187.404 179.642 187.246C179.642 187.246 114.568 75.2362 102.35 47.5828C94.0208 28.7305 40.5767 50.2581 40.5767 50.2581Z" fill="white"/>
<path d="M36.1355 45.3261L24.9575 17.8109C32.0236 1.41139 79.0111 -14.9483 103.032 31.0526C108.13 36.7354 111.713 37.0541 115.929 37.4155L105.439 40.167C118.316 53.2867 104.322 68.8313 101.828 78.1723C100.089 75.2748 100.321 63.8634 89.9621 56.5041C90.467 78.0376 80.5476 81.9769 66.4022 89.8662C78.7077 73.0791 78.3424 65.5071 75.6886 59.5995C76.0332 70.3288 68.6378 72.1533 68.6378 72.1533C71.5809 63.1062 68.9954 60.0902 67.0901 56.3321C60.309 65.7509 61.7939 71.0782 65.8863 73.7011C51.2082 71.0883 49.0636 59.5789 46.1098 51.8609C40.73 54.3258 42.6442 56.7907 44.906 59.2556C40.4042 59.3826 37.9565 58.0876 39.403 54.0965L29.7727 57.8799C36.5427 54.1172 36.1355 45.3261 36.1355 45.3261Z" fill="white"/>
</mask>
<g mask="url(#mask4_55385_10511)">
<g opacity="0.10231" filter="url(#filter3_f_55385_10511)">
<path d="M42.3946 59.7866C52.229 58.8625 34.0747 32.4475 34.3925 41.656C15.2147 46.8134 35.5221 45.5409 35.5221 45.5409C-9.66047 75.1484 14.3193 84.6194 42.3946 59.7866Z" fill="#333333"/>
</g>
</g>
<path d="M40.7793 35.5237C41.427 37.4718 43.6807 39.4199 42.0828 41.3681C30.9069 50.5726 14.4192 42.8102 8.79297 49.7111L10.8566 40.8547L40.7793 35.5237Z" fill="url(#paint20_linear_55385_10511)"/>
<path d="M40.7794 35.5238C28.284 31.6494 32.3668 16.6608 23.7545 18.1548C18.3539 19.3497 1.98294 30.7592 0.882465 34.148C-1.32532 40.9468 0.389621 50.9834 8.53513 56.3321C8.11726 29.709 32.1937 46.0643 40.7794 35.5238Z" fill="url(#paint21_linear_55385_10511)"/>
<path d="M31.3515 17.3463C31.3515 17.3463 37.8492 19.7022 44.8608 8.21823C51.73 -3.03257 61.1084 -1.38973 73.1856 5.13656C73.3446 5.22255 53.2539 3.64783 49.7432 11.7614C46.6406 18.932 31.087 28.7047 31.3515 17.3463Z" fill="url(#paint22_linear_55385_10511)"/>
<g opacity="0.781316" filter="url(#filter4_f_55385_10511)">
<path d="M101.832 99.5249L101.833 99.5793C113.241 124.532 138.415 152.898 177.646 176.464L177.751 176.495C140.858 152.572 115.156 122.05 101.832 99.5249Z" fill="url(#paint23_linear_55385_10511)"/>
</g>
<g opacity="0.781316" filter="url(#filter5_f_55385_10511)">
<path d="M117.525 86.6321L117.515 86.6857C124.024 113.34 143.411 145.935 177.507 176.463L177.604 176.513C145.871 146.076 126.373 111.262 117.525 86.6321Z" fill="url(#paint24_linear_55385_10511)"/>
</g>
<path d="M119.367 85.6724L119.355 85.7253C124.248 112.916 145.498 142.996 177.622 176.381L177.716 176.439C147.939 143.343 126.709 111.037 119.367 85.6724Z" fill="#058BF4"/>
<g opacity="0.781316" filter="url(#filter6_f_55385_10511)">
<path d="M85.5598 120.258L85.574 120.31C102.713 141.735 134.035 163.119 177.823 176.427L177.932 176.431C136.325 162.209 103.967 138.861 85.5598 120.258Z" fill="url(#paint25_linear_55385_10511)"/>
</g>
<path d="M103.483 97.9189L103.483 97.9733C114.353 123.165 138.914 152.064 177.631 176.465L177.735 176.498C141.363 151.791 116.321 120.724 103.483 97.9189Z" fill="#058BF4"/>
<path d="M87.5662 119.459L87.579 119.512C103.954 141.144 134.463 162.848 177.66 176.548L177.769 176.553C136.775 161.953 105.297 138.271 87.5662 119.459Z" fill="#058BF4"/>
<g opacity="0.246285" filter="url(#filter7_f_55385_10511)">
<path d="M29.1037 56.3628C20.6224 61.5166 10.6839 69.2378 11.5157 76.8191C11.8321 79.7027 12.4494 82.5454 13.3299 85.3472C17.2806 87.0917 21.9258 88.0236 26.6783 88.025C33.0524 88.025 39.1653 86.3528 43.6725 83.3762C48.1796 80.3997 50.7117 76.3626 50.7117 72.1532C50.7116 68.2211 48.5013 64.4291 44.5092 61.5118C40.5171 58.5945 35.0274 56.7597 29.1037 56.3628Z" fill="white" fill-opacity="0.941043"/>
</g>
<path d="M58.5468 29.3549V48.0679L37.0469 36.3968V17.6838" fill="white" fill-opacity="0.795918"/>
<path d="M58.5468 29.3549V48.0679L37.0469 36.3968V17.6838" stroke="#333333" stroke-width="3.16712" stroke-linecap="round" stroke-linejoin="round"/>
<path d="M20.6189 19.2128C22.3146 17.1582 33.4615 15.5274 37.2781 29.052L36.7365 29.9303C32.7302 22.2965 20.7845 18.8185 20.5933 19.2741L20.6189 19.2128Z" fill="#333333"/>
<path d="M94.0214 27.1832L59.6836 36.4087C58.3056 36.779 57.5011 38.1928 57.8868 39.5665C58.2725 40.9403 59.7023 41.7538 61.0803 41.3836L95.4181 32.1581C96.7961 31.7878 97.6006 30.3741 97.2149 29.0003C96.8292 27.6265 95.3994 26.813 94.0214 27.1832Z" fill="#333333"/>
<path opacity="0.692144" d="M87.78 25.7566V23.7706L88.4881 25.2104L88.613 22.1321L90.1955 25.0615C90.1955 25.0615 90.5287 23.3733 90.6953 23.7209C90.8619 24.0685 94.3185 37.6726 94.3185 37.6726L91.6531 36.7789L89.7374 41.2475L87.4052 39.2614L86.2808 25.5083L87.4885 26.2034L87.78 25.7566Z" fill="#FFE6D5" fill-opacity="0.818594" stroke="#FFE6D5" stroke-width="0.794363" stroke-linecap="round" stroke-linejoin="round"/>
<defs>
<filter id="filter0_f_55385_10511" x="48.034" y="38.5142" width="138.37" height="145.917" filterUnits="userSpaceOnUse" color-interpolation-filters="sRGB">
<feFlood flood-opacity="0" result="BackgroundImageFix"/>
<feBlend mode="normal" in="SourceGraphic" in2="BackgroundImageFix" result="shape"/>
<feGaussianBlur stdDeviation="3.10214" result="effect1_foregroundBlur_55385_10511"/>
</filter>
<filter id="filter1_f_55385_10511" x="23.0187" y="1.13687" width="94.8508" height="92.7277" filterUnits="userSpaceOnUse" color-interpolation-filters="sRGB">
<feFlood flood-opacity="0" result="BackgroundImageFix"/>
<feBlend mode="normal" in="SourceGraphic" in2="BackgroundImageFix" result="shape"/>
<feGaussianBlur stdDeviation="0.969651" result="effect1_foregroundBlur_55385_10511"/>
</filter>
<filter id="filter2_f_55385_10511" x="9.65204" y="14.0922" width="38.1915" height="34.215" filterUnits="userSpaceOnUse" color-interpolation-filters="sRGB">
<feFlood flood-opacity="0" result="BackgroundImageFix"/>
<feBlend mode="normal" in="SourceGraphic" in2="BackgroundImageFix" result="shape"/>
<feGaussianBlur stdDeviation="1.81241" result="effect1_foregroundBlur_55385_10511"/>
</filter>
<filter id="filter3_f_55385_10511" x="4.19988" y="33.5746" width="47.254" height="46.591" filterUnits="userSpaceOnUse" color-interpolation-filters="sRGB">
<feFlood flood-opacity="0" result="BackgroundImageFix"/>
<feBlend mode="normal" in="SourceGraphic" in2="BackgroundImageFix" result="shape"/>
<feGaussianBlur stdDeviation="3.06778" result="effect1_foregroundBlur_55385_10511"/>
</filter>
<filter id="filter4_f_55385_10511" x="100.591" y="98.2844" width="78.4" height="79.451" filterUnits="userSpaceOnUse" color-interpolation-filters="sRGB">
<feFlood flood-opacity="0" result="BackgroundImageFix"/>
<feBlend mode="normal" in="SourceGraphic" in2="BackgroundImageFix" result="shape"/>
<feGaussianBlur stdDeviation="0.620266" result="effect1_foregroundBlur_55385_10511"/>
</filter>
<filter id="filter5_f_55385_10511" x="116.275" y="85.3915" width="62.5694" height="92.3619" filterUnits="userSpaceOnUse" color-interpolation-filters="sRGB">
<feFlood flood-opacity="0" result="BackgroundImageFix"/>
<feBlend mode="normal" in="SourceGraphic" in2="BackgroundImageFix" result="shape"/>
<feGaussianBlur stdDeviation="0.620266" result="effect1_foregroundBlur_55385_10511"/>
</filter>
<filter id="filter6_f_55385_10511" x="84.3195" y="119.017" width="94.8531" height="58.6542" filterUnits="userSpaceOnUse" color-interpolation-filters="sRGB">
<feFlood flood-opacity="0" result="BackgroundImageFix"/>
<feBlend mode="normal" in="SourceGraphic" in2="BackgroundImageFix" result="shape"/>
<feGaussianBlur stdDeviation="0.620266" result="effect1_foregroundBlur_55385_10511"/>
</filter>
<filter id="filter7_f_55385_10511" x="4.42357" y="49.3196" width="53.3316" height="45.7488" filterUnits="userSpaceOnUse" color-interpolation-filters="sRGB">
<feFlood flood-opacity="0" result="BackgroundImageFix"/>
<feBlend mode="normal" in="SourceGraphic" in2="BackgroundImageFix" result="shape"/>
<feGaussianBlur stdDeviation="3.52161" result="effect1_foregroundBlur_55385_10511"/>
</filter>
<linearGradient id="paint0_linear_55385_10511" x1="11.4668" y1="113.546" x2="168.637" y2="184.054" gradientUnits="userSpaceOnUse">
<stop stop-color="#058BF4"/>
<stop offset="1" stop-color="#0575CD"/>
</linearGradient>
<linearGradient id="paint1_linear_55385_10511" x1="47.0314" y1="143.096" x2="40.7616" y2="99.9093" gradientUnits="userSpaceOnUse">
<stop/>
<stop offset="1" stop-opacity="0"/>
</linearGradient>
<linearGradient id="paint2_linear_55385_10511" x1="47.0312" y1="143.096" x2="40.7615" y2="99.9092" gradientUnits="userSpaceOnUse">
<stop/>
<stop offset="1" stop-opacity="0"/>
</linearGradient>
<linearGradient id="paint3_linear_55385_10511" x1="47.0312" y1="143.096" x2="40.7615" y2="99.9093" gradientUnits="userSpaceOnUse">
<stop/>
<stop offset="1" stop-opacity="0"/>
</linearGradient>
<linearGradient id="paint4_linear_55385_10511" x1="40.0744" y1="131.12" x2="39.2315" y2="85.6414" gradientUnits="userSpaceOnUse">
<stop stop-color="#333333"/>
<stop offset="1" stop-color="#333333" stop-opacity="0"/>
</linearGradient>
<linearGradient id="paint5_linear_55385_10511" x1="40.0745" y1="131.12" x2="39.2316" y2="85.6414" gradientUnits="userSpaceOnUse">
<stop stop-color="#333333"/>
<stop offset="1" stop-color="#333333" stop-opacity="0"/>
</linearGradient>
<linearGradient id="paint6_linear_55385_10511" x1="40.0745" y1="131.12" x2="39.2315" y2="85.6413" gradientUnits="userSpaceOnUse">
<stop stop-color="#333333"/>
<stop offset="1" stop-color="#333333" stop-opacity="0"/>
</linearGradient>
<linearGradient id="paint7_linear_55385_10511" x1="40.0745" y1="131.12" x2="39.2316" y2="85.6413" gradientUnits="userSpaceOnUse">
<stop stop-color="#333333"/>
<stop offset="1" stop-color="#333333" stop-opacity="0"/>
</linearGradient>
<linearGradient id="paint8_linear_55385_10511" x1="62.4989" y1="108.91" x2="56.0958" y2="90.158" gradientUnits="userSpaceOnUse">
<stop stop-color="#5FB8FB"/>
<stop offset="1" stop-color="#0A91FA" stop-opacity="0"/>
</linearGradient>
<linearGradient id="paint9_linear_55385_10511" x1="38.6176" y1="116.748" x2="43.534" y2="94.5675" gradientUnits="userSpaceOnUse">
<stop stop-color="#5FB8FB"/>
<stop offset="1" stop-color="#0A91FA" stop-opacity="0"/>
</linearGradient>
<linearGradient id="paint10_linear_55385_10511" x1="25.9728" y1="108.482" x2="21.5636" y2="96.1142" gradientUnits="userSpaceOnUse">
<stop stop-color="#5FB8FB"/>
<stop offset="1" stop-color="#0A91FA" stop-opacity="0"/>
</linearGradient>
<linearGradient id="paint11_linear_55385_10511" x1="17.1624" y1="99.8305" x2="19.77" y2="84.6832" gradientUnits="userSpaceOnUse">
<stop stop-color="#5FB8FB"/>
<stop offset="1" stop-color="#0A91FA" stop-opacity="0"/>
</linearGradient>
<linearGradient id="paint12_linear_55385_10511" x1="35.9038" y1="98.1537" x2="33.0648" y2="83.9823" gradientUnits="userSpaceOnUse">
<stop stop-color="#5FB8FB"/>
<stop offset="1" stop-color="#0A91FA" stop-opacity="0"/>
</linearGradient>
<linearGradient id="paint13_linear_55385_10511" x1="66.7247" y1="82.1716" x2="60.3062" y2="72.6877" gradientUnits="userSpaceOnUse">
<stop stop-color="#5FB8FB"/>
<stop offset="1" stop-color="#0A91FA" stop-opacity="0"/>
</linearGradient>
<linearGradient id="paint14_linear_55385_10511" x1="55.8027" y1="85.698" x2="53.9715" y2="77.0544" gradientUnits="userSpaceOnUse">
<stop stop-color="#5FB8FB"/>
<stop offset="1" stop-color="#0A91FA" stop-opacity="0"/>
</linearGradient>
<radialGradient id="paint15_radial_55385_10511" cx="0" cy="0" r="1" gradientUnits="userSpaceOnUse" gradientTransform="translate(81.4167 117.714) rotate(2.11595) scale(94.5081 91.9462)">
<stop stop-color="#7AC2FB"/>
<stop offset="1" stop-color="#29A1FA"/>
</radialGradient>
<linearGradient id="paint16_linear_55385_10511" x1="36.3885" y1="10.4206" x2="77.2609" y2="77.3011" gradientUnits="userSpaceOnUse">
<stop stop-color="#7FC6FC"/>
<stop offset="0.343689" stop-color="#5CB4FB"/>
<stop offset="1" stop-color="#94D0FC"/>
</linearGradient>
<radialGradient id="paint17_radial_55385_10511" cx="0" cy="0" r="1" gradientUnits="userSpaceOnUse" gradientTransform="translate(48.2599 52.4924) rotate(-1.05292) scale(120.877 107.171)">
<stop stop-color="#7FC6FC" stop-opacity="0"/>
<stop offset="0.343689" stop-color="#5CB4FB" stop-opacity="0"/>
<stop offset="1" stop-color="#01223C"/>
</radialGradient>
<linearGradient id="paint18_linear_55385_10511" x1="55.4788" y1="6.70591" x2="55.624" y2="31.1477" gradientUnits="userSpaceOnUse">
<stop stop-color="#848484"/>
<stop offset="1" stop-color="white"/>
</linearGradient>
<radialGradient id="paint19_radial_55385_10511" cx="0" cy="0" r="1" gradientUnits="userSpaceOnUse" gradientTransform="translate(55.9988 35.3908) rotate(87.0072) scale(18.9665 23.9872)">
<stop stop-color="#6D6D6D"/>
<stop offset="1"/>
</radialGradient>
<linearGradient id="paint20_linear_55385_10511" x1="27.7956" y1="43.6492" x2="26.9092" y2="37.1144" gradientUnits="userSpaceOnUse">
<stop stop-color="#C37B11"/>
<stop offset="1" stop-color="#88570C"/>
</linearGradient>
<linearGradient id="paint21_linear_55385_10511" x1="-2.57954" y1="23.5197" x2="46.1965" y2="31.8603" gradientUnits="userSpaceOnUse">
<stop stop-color="#FBE8CF"/>
<stop offset="0.388757" stop-color="#EC991F"/>
<stop offset="0.680707" stop-color="#EB9516"/>
<stop offset="1" stop-color="#AB6D10"/>
</linearGradient>
<linearGradient id="paint22_linear_55385_10511" x1="34.9518" y1="11.2282" x2="78.261" y2="-1.01594" gradientUnits="userSpaceOnUse">
<stop stop-color="#058BF4"/>
<stop offset="0.161362" stop-color="#047DD6"/>
<stop offset="0.294164" stop-color="#068EFA"/>
<stop offset="1" stop-color="#046CBC"/>
</linearGradient>
<linearGradient id="paint23_linear_55385_10511" x1="177.287" y1="177.112" x2="109.165" y2="114.413" gradientUnits="userSpaceOnUse">
<stop stop-color="#333333"/>
<stop offset="1" stop-color="#333333" stop-opacity="0"/>
</linearGradient>
<linearGradient id="paint24_linear_55385_10511" x1="177.032" y1="177.032" x2="121.925" y2="102.634" gradientUnits="userSpaceOnUse">
<stop stop-color="#333333"/>
<stop offset="1" stop-color="#333333" stop-opacity="0"/>
</linearGradient>
<linearGradient id="paint25_linear_55385_10511" x1="177.632" y1="177.143" x2="96.2968" y2="132.913" gradientUnits="userSpaceOnUse">
<stop stop-color="#333333"/>
<stop offset="1" stop-color="#333333" stop-opacity="0"/>
</linearGradient>
</defs>
</svg>
