<svg xmlns="http://www.w3.org/2000/svg" shape-rendering="geometricPrecision" text-rendering="geometricPrecision" image-rendering="optimizeQuality" fill-rule="evenodd" clip-rule="evenodd" viewBox="0 0 512 356.18"><path fill="#005430" fill-rule="nonzero" d="M28.137 0H483.86C499.337 0 512 12.663 512 28.14v299.9c0 15.477-12.663 28.14-28.14 28.14H28.137C12.663 356.18 0 343.517 0 328.04V28.14C0 12.663 12.663 0 28.137 0z"/><path fill="#fff" fill-rule="nonzero" d="M389.57 141.476c-.037-6.257-2.465-23.111-3.081-28.765-.615-5.654-1.234-10.784-1.085-11.985.147-1.159 1.93 1.612 2.874 1.836.487-.098.27-1.848-.617-3.342-.6-1.015-2.645-4.809-3.886-7.033-.584-1.052-.714-1.662-.995-1.792-.28-.129-2.539 4.428-2.291 4.933.616.926 1.039 1.368 1.135 3.003.098 1.636.943 13.314 2.021 22.166.811 6.678 2.592 21.065 2.655 30.01.019 2.918-.305 5.699-.694 6.861-.997 1.825-2.554 3.471-8.356 6.866-6.522 3.817-15.223 6.993-18.963 9.119-2.325 1.326-1.555 1.503.47.923 2.019-.58 12.462-2.44 17.535-4.583 4.763-2.018 7.854-5.393 10.2-10.317 2.898-6.087 3.119-11.252 3.078-17.9zm0 0zM369.379 93.947c.504-.195 4.678-.41 5.802-.178-.739 1.055-5.744 3.391-5.765 3.82.137.288 3.457-.534 4.505-.991.684-.412 1.141-1.05 1.648-1.578 1.197-1.378 2.617-3.932 2.259-4.252-.581-.517-6.27-.195-7.02-.089-.502.072-1.777 2.358-2.011 2.944-.23.586.078.52.582.324z"/><path fill="#fff" fill-rule="nonzero" d="M377.905 131.033a17.554 17.554 0 00-.099-10.284c-1.216-3.875-4.238-6.236-6.417-7.447l-.388 3.73s3.055 1.519 5.145 5.342c1.323 2.425 1.875 5.854.829 9.677-.174.948.504.425.93-1.018zM345.581 149.737a15.826 15.826 0 00-.088-9.26c-1.096-3.489-3.816-5.617-5.779-6.702l-.351 3.357s2.751 1.368 4.633 4.808c1.193 2.181 1.688 5.273.749 8.715-.156.85.454.381.836-.917v-.001zm0 0zM233.359 98.952c1.259 2.301 1.781 5.561.791 9.191-.166.901.474.406.883-.965a16.715 16.715 0 00-.098-9.77c-1.156-3.682-4.026-5.923-6.096-7.071l-.366 3.542s2.903 1.442 4.886 5.072v.001zm0 0zM157.603 100.143c1.057 2.477 1.128 5.822-.579 9.346-.332.886.476.466 1.154-.859 1.386-2.707 2.163-6.096 1.461-9.839-.721-3.848-3.612-6.472-5.776-7.893l-.982 3.517s3.055 1.822 4.722 5.727v.001zm0 0z"/><path fill="#fff" fill-rule="nonzero" d="M178.544 155.521c1.343-2.492 1.903-4.171 2.5-7.123.522-2.598.556-5.598.367-8.653 4.02-1.639 8.81-4.358 10.42-4.558-1.101 3.779 1.527 7.858 6.834 7.326.407 4.274.755 8.028.966 10.254.433 4.564.368 10.316.354 11.316-.017 1.004.71.814 1.456-1.423.995-2.994 1.302-10.815.941-15.986a244.818 244.818 0 00-.409-5.027c3.44-1.592 4.013-4.665 5.299-5.975 1.161 4.067 7.551 4.618 9.523 3.748 2.446-1.081 3.248-3.024 3.877-7.536.631-4.51-1.206-6.326-1.863-6.818-.066.546-1.666 5.847-1.666 5.847s1.518 1.603 1.594 2.39c-1.236 1.119-3.842 1.188-6.031.475-2.19-.712-2.862-2.023-2.732-2.903.127-.882.951-1.685.979-2.76.024-1.075-.491-.764-1.368.188-.876.953-1.442 1.81-2.655 3.856-.992 1.673-2.601 3.715-5.441 4.298-.468-4.913-1.003-10.14-1.361-13.423-.187-1.733-2.055-16.713-2.188-18.389-.116-1.46-.332-3.181-.296-3.99.035-.644.439-.388 1.063.285.626.672 1.72 1.845 1.909 1.753.638-.312-.014-2.259-.849-4.003-.832-1.748-3.675-8.646-4.271-8.93-.307-.144-2.226 4.101-2.34 4.937.297.523 1.074 1.346 1.102 3.685.01.652.43 6.804 1.012 12.621.509 5.136 1.184 10.01 1.249 10.577.463 3.921 1.026 9.447 1.56 14.88-3.081-.586-3.9-2.619-3.832-3.778.078-1.307.669-2.784.386-3.117-.594-.357-4.126 1.617-9.051 3.738a91.17 91.17 0 01-4.594 1.84c-.429-3.702-.995-7.223-1.222-9.916l-.028-.299c3.239-.209 5.891-1.844 7.098-3.402 1.507-1.947 2.561-5.953 2.663-9.023.103-3.073-2.377-8.691-2.967-10.477-.595-1.788-.903-3.026-.955-3.644-.054-.618 1.34.715 2.216.977.594.119.389-1.166-.336-2.049-.72-.88-4.616-6.792-4.889-6.378-.168.244-1.729 4.593-1.831 5.259.614.406 1.333 1.525 1.383 2.596.053 1.072.911 5.785 1.862 8.404.955 2.619 2.987 7.644 3.116 9.025-1.452 1.024-4.758 2.757-8.028 2.653-.559-4.582-1.268-9.904-1.647-13.673a32.788 32.788 0 01-.133-3.823c.018-.643.481-.554 1.119.107.64.661 1.622 1.624 1.824 1.555.439-.146.058-1.606-.812-3.339-.87-1.734-4.327-9.066-4.933-9.339-.307-.14-1.855 3.977-1.953 4.818.309.52 1.101 1.324 1.179 3.664.062 1.862.969 10.991 1.746 19.031-3.236-1.673-4.34-4.065-4.74-8.081-.279-2.799-.307-7.955-1.305-12.268-.563-2.439-1.748-4.916-3.153-6.232-.335.81-1.831 5.785-1.831 5.785.488 1.428 2.005 6.238 1.953 10.405-.051 4.167-.379 8.241-5.049 11.048-4.667 2.808-11.667 1.691-13.395-2.69-1.729-4.383 2.114-15.374 2.063-17.969-.052-2.595-.515-2.953-1.6-2.524-1.083.428-3.299 2.93-5.208 6.999-1.909 4.073-2.758 9.117-3.842 12.546-1.082 3.429-2.813 6.903-5.493 6.711-2.68-.19-4.122-2.642-4.947-6.188-.826-3.55-.32-8.223-.096-9.422.56-3-.736-2.386-1.53 2.326-.491 2.906-.979 7.547.75 12.404 1.725 4.858 4.666 6.669 7.244 6.048 2.579-.618 4.845-6.666 5.646-9.383.798-2.711 4.37-14.758 6.393-15.35.283 1.357-1.572 5.734-2.166 10.853-.592 5.119.789 11.995 7.287 13.184 6.497 1.191 10.905-3.023 12.504-5.949 1.6-2.93 2.346-6.001 2.526-7.548.209 3.927 2.888 10.059 8.093 11.807l.537.155c.32 3.214.842 7.41 1.322 11.817a49.274 49.274 0 01-3.054.838 10.1 10.1 0 00-.447-1.216c-1.588-3.417-4.218-6.566-7.862-6.349-3.722.221-7.78 5.188-7.603 8.816.117 2.44 1.46 4.442 6.344 4.955 2.232.236 4.601-.012 7.048-.545.344 1.008.563 2.011.587 2.925-1.548 1.81-14.357 11.471-23.947 12.399-9.591.928-12.516-4.099-12.612-9.146-.071-3.84 2.238-7.672 3.861-10.323 2.322-1.699 4.227-3.823 5.43-5.462.327.202.638.388.934.561 1.146.666 1.603 1.661 1.603 1.661.211-.325 1.197-2.099.812-2.966-.178-.214-1.045-.747-2.087-1.38 1.094-2.727 1.08-5.45-.338-6.056-1.585-.675-3.656 1.202-4.548 2.346a3.046 3.046 0 00-.644 1.837c-.006.729.337 1.387 1.185 1.974.846.577 1.632 1.1 2.37 1.572-2.096 2.201-7.049 5.426-10.08 7.32-.113-.278-.556.015-1.153.719l-.821.506c-2.418 1.48-8.217 4.729-9.357 5.524-1.141.797-.425.652 0 .475a90.931 90.931 0 013.049-1.541c1.682-.822 3.638-1.753 5.55-2.687a28.285 28.285 0 00-1.67 3.305c-2.282 5.386-5.969 16.55 2.008 23.267 7.633 6.429 20.752 3.984 31.631-2.699 10.882-6.684 13.232-9.033 14.932-11.463zm-35.473-26.555c-.378-.278-.43-.65-.122-.908.392-.334.892-.65 1.462-.756 1.206-.224 1.687 1.162 1.203 3.32-.917-.56-1.86-1.15-2.543-1.656zm24.956 9.106c-5.54.025-5.795-.981-5.691-1.624.103-.64 1.828-2.398 4.016-1.239.925.492 1.968 1.52 2.932 2.811a19.26 19.26 0 01-1.257.052zm-16.968 29.133c-10.467 2.856-20.677-1.569-21.294-10.332-.473-6.692 1.967-11.734 3.541-14.576a108.392 108.392 0 004.092-2.11c-2.74 4.413-4.343 10.322-3.272 15.328 1.213 5.671 6.146 9.109 14.499 8 8.27-1.097 19.453-8.962 22.624-11.928.965-1.071 1.603-2.036 2.471-4.002.358-.807.86-1.873 1.047-3.077a18.37 18.37 0 00.202-2.478c.971-.29 1.947-.615 2.929-.964.333 3.59.579 7.129.593 10.19-5.153 6.043-16.964 13.092-27.431 15.949h-.001zm0 0zM334.138 144.225c-.354-5.862-1.209-16.475-1.688-21.859-.422-4.791-1.253-11.357-1.861-17.138a30.963 30.963 0 01-.153-3.659c.018-.64.658-.394 1.299.265.641.658 1.643 1.485 1.831 1.384.626-.324-.124-1.93-1.003-3.658-.88-1.73-4.368-8.887-4.974-9.159-.309-.139-1.943 4.149-2.038 4.989.312.517 1.111 1.319 1.197 3.658.088 2.341 1.27 13.102 2.124 21.804.591 6.05 1.356 15.921 1.912 23.364-.028.012.525 7.077.585 7.87.342 4.57.165 10.321.131 11.319-.038 1.003.695.828 1.482-1.397.802-2.271 1.259-7.344 1.321-11.923l-.165-5.86zM304.419 123.7c-1.073.328-2.758-.807-2.629-3.187.117-2.149 1.037-4.163 1.392-5.433.487-1.753.491-3.443.078-2.485-.93 2.141-2.662 6.279-3.02 9.088-.359 2.808.552 4.618 1.789 5.236 1.541.774 2.652-.454 3.403-2.264.722-1.734.586-3.757.085-3.281-.42.498-.576 2.165-1.098 2.326zm0 0zM288.992 132.351c.569-1.512.702-2.995.264-2.181-.986 1.822-2.835 5.343-3.377 7.788-.54 2.446.116 4.102 1.157 4.729 1.297.784 2.366-.221 3.173-1.762.773-1.475.812-3.265.337-2.878-.41.409-.681 1.863-1.15 1.969-.974.216-2.362-.897-2.061-2.983.273-1.88 1.243-3.589 1.657-4.682zM244.067 164.256c.952-1.543 1.425-3.144.764-2.336-1.472 1.807-4.261 5.315-5.386 7.887-1.123 2.572-.765 4.504.235 5.383 1.248 1.098 2.638.196 3.852-1.336 1.166-1.469 1.602-3.417.992-3.085-.535.374-1.146 1.912-1.684 1.941-1.108.054-2.386-1.421-1.602-3.643.709-2.005 2.141-3.692 2.829-4.811zM322.83 119.199c-1.092.273-2.705-.949-2.435-3.319.246-2.14 1.288-4.102 1.716-5.35.595-1.727.697-3.412.228-2.48-1.054 2.093-3.032 6.134-3.56 8.921-.528 2.786.27 4.639 1.47 5.321 1.496.847 2.673-.319 3.535-2.09.824-1.693.811-3.72.28-3.269-.447.478-.703 2.134-1.234 2.266zM322.496 148.284c1.492.848 2.676-.319 3.535-2.09.822-1.693.811-3.719.282-3.268-.45.475-.705 2.133-1.237 2.265-1.091.273-2.707-.948-2.434-3.319.245-2.139 1.286-4.102 1.715-5.349.594-1.728.696-3.416.228-2.481-1.057 2.093-3.031 6.134-3.559 8.918-.529 2.789.27 4.643 1.47 5.323v.001zm0 0zM341.574 111.131c.719-2.089.842-4.129.273-3.001-1.278 2.532-3.668 7.421-4.309 10.796-.637 3.372.33 5.614 1.782 6.439 1.807 1.025 3.236-.386 4.279-2.527.993-2.049.978-4.504.337-3.956-.541.576-.851 2.579-1.496 2.74-1.316.331-3.273-1.147-2.943-4.016.298-2.588 1.558-4.962 2.077-6.475zm0 0z"/><path fill="#fff" fill-rule="nonzero" d="M189.108 147.275c1.175-2.546 1.601-5.096.736-3.739-1.936 3.038-5.584 8.921-6.829 13.088-1.248 4.169-.324 7.098 1.392 8.299 2.14 1.492 4.122-.126 5.711-2.698 1.52-2.467 1.822-5.557.946-4.939-.756.661-1.41 3.148-2.239 3.279-1.704.267-3.968-1.81-3.178-5.381.716-3.222 2.612-6.066 3.461-7.909zm0 0zM353.729 172.525c.9-.739 8.735-4.959 10.177-5.816 0 0 1.475-2.405 1.033-2.66-.444-.256-3.305 2.345-5.084 2.417-1.78.072-4.218-1.236-4.295-2.308.231-.809 2.372-2.023 3.146-2.073.774-.045.649 1.717.907 1.932.259.212 1.288-1.216 1.418-1.812.127-.594.021-3.08-1.395-2.724-2.242.567-5.624 4.725-6.01 6.033-.388 1.311 1.701 2.452 3.226 3.073-.13.048-1.268.595-1.988 1.308 0 0-.774.867-1.135 2.629v.001zm0 0zM327.015 177.752c.9-.738 8.735-4.955 10.177-5.816 0 0 1.478-2.405 1.033-2.66-.444-.256-3.304 2.345-5.083 2.417-1.781.072-4.218-1.236-4.296-2.308.23-.809 2.372-2.023 3.146-2.07.774-.048.649 1.713.907 1.926.259.215 1.288-1.213 1.418-1.809.127-.593.018-3.08-1.395-2.724-2.242.57-5.624 4.725-6.01 6.036-.388 1.308 1.701 2.449 3.223 3.07-.127.048-1.265.594-1.985 1.308 0 0-.774.867-1.135 2.629v.001zm0 0zM266.841 102.115c.703.816 5.304 6.663 8.909 10.339 3.604 3.678 9.781 9.632 14.319 13.712.878.791 1.81 1.647 2.758 2.539 1.145 8.789 2.468 19.972 3.024 24.596.548 4.554.63 10.304.641 11.306.01 1.003.732.798 1.418-1.453.92-3.02 1.026-10.84.538-16.006-.302-3.19-1.016-9.166-1.707-14.676 2.68 2.648 5.212 5.274 6.917 7.24 3.137 3.61 5.776 6.332 7.384 10.212 1.138 2.746 1.023 4.93 1.49 5.361.402.373.848-2.912.351-6.097-.807-5.173-1.913-7.367-8.553-14.752-2.534-2.824-5.516-5.775-8.431-8.533l-.308-2.338c-.231-1.728-2.481-16.662-2.658-18.335-.152-1.457-.417-3.172-.396-3.982.017-.645.426-.394 1.07.264.641.657 1.763 1.807 1.953 1.707.628-.325-.071-2.254-.951-3.984-.876-1.728-3.896-8.562-4.502-8.833-.308-.138-2.117 4.148-2.21 4.987.314.517 1.11 1.323 1.197 3.659.024.653.603 6.795 1.33 12.595.644 5.125 1.44 9.985 1.523 10.548l.004.043c-3.007-2.742-5.656-5.07-7.262-6.534-3.757-3.414-12.053-11.515-12.386-12.728-.074-.384.569-.148 1.753.042 1.189.191 2.245.595 2.055.012-.086-.275-.541-.955-1.675-1.655-1.135-.702-4.042-2.521-6.205-3.808-2.167-1.286-3.241-2.363-3.688-2.055-.221.152-.024 4.555.106 5.104.541.046 1.493.684 2.192 1.503zm0 0z"/><path fill="#fff" fill-rule="nonzero" d="M272.763 94.197c.889-.196 5.104-.089 6.634.233-.64.445-4.953 2.623-5.805 3.142-.847.52-1.061.82-.636.77 1.236-.343 4.022-.77 5.356-1.466 1.259-.589 3.404-3.464 4.238-4.536.829-1.072.829-1.607.618-1.894-.852-.463-6.345-.927-8.994-.271-.733.498-2.167 3.149-2.379 3.701-.211.554.078.517.968.321zm0 0zM296.204 93.852c.719-.158 4.116-.072 5.347.186-.516.359-3.989 2.115-4.675 2.536-.688.417-.858.66-.516.618.997-.274 3.243-.618 4.318-1.181 1.013-.475 2.741-2.792 3.413-3.654.668-.866.668-1.296.497-1.525-.682-.378-5.11-.751-7.245-.22-.592.4-1.745 2.536-1.916 2.981-.174.445.062.417.778.259h-.001zm0 0zM315.26 93.607c.716-.158 4.113-.072 5.343.186-.512.36-3.987 2.116-4.674 2.534-.685.419-.856.663-.513.62.997-.273 3.416-.62 4.492-1.181 1.014-.475 2.216-2.792 2.887-3.656.672-.863.672-1.296.498-1.523-.683-.378-4.763-.75-6.894-.223-.592.403-1.749 2.539-1.919 2.984-.171.445.062.417.78.259zM303.373 102.888c-1.129 1.777.286 3.211.802 4.647-.697.636-1.766.055-2.124-.503-.761-1.144-.506-3.475-1.402-3.835-.229.63-.379 1.329-.379 1.329s.681 1.595.511 2.651c-.109.637-.672 1.381-1.415 1.396-1.98.048-1.005-2.883-1.769-4.544-.156.406-.268.842-.45 1.222.139.433.216 1.04.239 1.391.045.696-.01 1.446.109 2.04.164.84.631 1.398 1.343 1.452 1.48.117 2.154-1.081 2.377-2.064.255 1.002 2.211 2.107 3.174.876 1.275-1.623.255-3.014-.398-4.541-.472-1.13-.336-1.871-.618-1.518v.001zm0 0zM247.785 98.175c.103.731.478 1.23 1.091 1.305 1.265.161 1.906-.845 2.145-1.681.167.874 1.803 1.902 2.693.883 1.175-1.349.361-2.587-.131-3.93-.351-.995-.2-1.627-.46-1.334-1.057 1.483.096 2.78.472 4.038-.631.518-1.524-.025-1.807-.517-.601-1.018-.273-3.015-1.024-3.363-.228.535-.389 1.129-.389 1.129s.509 1.403.311 2.303c-.122.546-.641 1.164-1.285 1.147-1.705-.037-.726-2.524-1.309-3.983-.151.341-.27.715-.447 1.031.102.381.14.905.14 1.21.013.601-.072 1.241 0 1.762zm0 0zM288.146 167.026c.19-.302.61-1.132.504-1.699-.106-.567-.8-2.932-2.148-3.524-1.34-.592-2.355.65-2.997 2.377l-.445-.01c-.106.255-.239.637-.345 1.327-.15.996-.433 1.638-2.141 3.19-1.438 1.299-6.095 4.418-9.113 5.884-3.021 1.469-5.195 2.736-5.996 3.121-.799.379-.566.52.232.281.797-.238 4.807-1.529 6.405-2.187 1.595-.663 3.546-1.753 5.898-3.279 2.614-1.696 4.177-3.392 4.702-4.895.374-1.072.47-1.5.47-1.5s.982.58 2.649.961c1.66.381 2.132.258 2.325-.047zm-2.254-3.36c.74.281 1.19 1.087 1.324 1.575-.849.02-2.412-.412-3.077-.712.4-.774 1.096-1.11 1.753-.863zm0 0z"/><path fill="#fff" fill-rule="nonzero" d="M270.448 168.689c-2.319-.322-8.162-1.21-9.591-4.602 1.2-1.75 6.727-3.966 13.651-6.039 6.923-2.069 14.158-4.753 16.102-6.049.427-.145 1.251-.101 1.251-.101.348-1.003 2.086-4.524 2.195-5.26-1.935.109-13.862.986-19.159 1.27-5.302.286-15.51.217-18.911.179 2.086-1.5 7.037-4.429 14.114-6.928a155.39 155.39 0 012.558-.882c.588 1.049 1.025 2.087 1.116 2.99.451-.463.789-1.998.675-3.573 4.126-1.317 6.251-1.753 7.168-2.001.579-.75 1.605-3.784 1.758-5.99-.617-1.123-2.547-2.521-4.264-3.722-2.366-1.652-4.917-3.092-7.463-2.462-3.482.854-4.179 7.249-3.368 8.605.259.428.872 1.188 1.595 2.124-2.543 1-5.203 2.176-7.548 3.411-5.223 2.752-11.054 5.761-12.754 8.655l-.488.238c-.137.273-1.213 4.752-1.369 5.235 1.086-.038 9.196-.023 14.845-.199 5.646-.18 10.583-.359 12.516-.359-2.864.678-10.368 3.467-12.526 5.107-2.157 1.645-3.513 4.145-3.549 8.431-2.012-.788-5.75-2.587-8.935-6.896-3.552-4.802-2.817-9.74-4.238-16.221-2.065-9.405-6.475-17.346-9.221-19.775-.926 3.319-1.044 5.821-1.044 5.821s3.441 7.607 5.182 12.463c1.742 4.857 3.229 9.642 3.156 10.714-1.434 3.145-9.923 9.733-16.998 13.589-6.709 3.656-12.62 4.05-14.714 1.446-.412-.508-.691-1.109-.849-1.791.91-.425 1.824-.853 2.761-1.282 6.033-2.748 16.746-8.533 19.257-11.568 2.709-3.679 2.672-8.858 1.083-11.822-1.582-2.963-4.063-6.394-4.257-7.607-.151-.573 1.612.233 2.652.287.504-.038.252-.716-.829-1.788-.865-.854-4.21-3.624-5.488-4.705-.32-.275-.559-.164-.624.126-.249 1.107-.758 3.476-.955 4.645l.137.59c.368.218.79.463.995 1.075.289.867 1.302 3.288 2.963 6.343 1.663 3.053 4.066 6.424 4.302 8.125-1.954 2.493-11.81 7.801-21.41 12.176.593-1.84 1.53-3.921 2.772-6.232.353-.39.675-.873.974-1.417.958-1.75 1.051-3.89.47-3.437-.498.48-.855 2.216-1.424 2.333-1.166.239-2.802-1.121-2.391-3.609.373-2.245 1.573-4.271 2.092-5.569.719-1.795.915-3.569.37-2.604-1.224 2.156-3.522 6.333-4.227 9.25-.703 2.914.043 4.906 1.274 5.677.461.293.901.385 1.321.328-.842 1.603-1.883 3.569-2.643 5.914-3.86 1.727-7.616 3.271-10.725 4.384-11.176 4-19.14 6.358-24.711 8.108l-.218.097c.41-1.324.355-2.455-.084-2.115-.498.483-.854 2.219-1.423 2.334-1.166.238-2.802-1.121-2.392-3.61.374-2.245 1.574-4.268 2.093-5.567.715-1.794.913-3.571.37-2.604-1.226 2.156-3.522 6.332-4.227 9.249-.705 2.915.042 4.907 1.271 5.68 1.532.961 2.837-.219 3.839-2.044l.351-.75c.348 0 .935-.081 1.812-.276 2.552-.575 8.934-1.501 17.71-2.645 6.498-.845 10.984-2.629 15.321-4.615a17.6 17.6 0 00-.003 1.472c.236 5.954 4.138 7.635 9.475 6.521 5.148-1.081 12.327-5.801 16.629-8.985 4.486-3.32 7.075-6.286 7.735-7.32 1.197-2.536 1.526-5.338 1.607-6.66.392 3.641.709 8.68 4.153 13.003 3.171 3.977 9.668 9.528 21.889 9.679.041-1.453-.541-5.992-.541-5.992l.001-.001zm-.808-36.898c1.749-1.964 5.482-.68 8.284 1.81-1.436.336-3.385.936-5.536 1.704-1.279-1.541-2.705-3.026-2.748-3.514zM200.931 104.871c.793-.362 3.221-1.453 5.837-2.978 2.612-1.514 5.066-3.348 6.266-4.567.46-.468.869-.833 1.131-1.267.784.324 1.324.661 1.66.794.506.195 1.181.476 1.62-.964.437-1.439-.143-2.368-.999-3.477-.723-.931-1.871-2.329-2.803-2.677-.79-.295-1.166 1.469-1.046 1.426h.529l.103.049c-1.088.549-1.93 2.257-2.015 2.856-.086.653.038 1.134 1.598 1.536l.628.185c-1.303 1.542-3.73 3.137-5.384 4.267-2.346 1.609-5.676 3.619-6.624 4.199-.948.578-.869.759-.501.618zm14.101-11.332l.084-.771c1.098 1.25 1.913 2.739 1.831 2.949-.504.041-1.131-.425-2.229-.894.122-.373.224-.785.314-1.284zm-3.151.001c-.007-.234.416-.886 1.31-1.243.893-.359 1.288.644 1.366 1.864l-.265.489-.805-.278c-.851-.25-1.427-.391-1.606-.832zm0 0z"/><path fill="#fff" fill-rule="nonzero" d="M259.45 128.417c1.288-.85 4.828-3.406 6.836-5.081 1.397-1.163 3.038-2.877 4.151-4.327.7.453 1.352.854 1.945 1.203 1.145.669 1.605 1.661 1.605 1.661.211-.324 1.197-2.102.812-2.966-.231-.283-1.64-1.105-3.078-1.986.729-1.639 1.734-4.472.296-5.465-1.231-.842-3.308.552-4.269 2.361-.794 1.497-.896 2.767.618 3.808.426.293.834.57 1.234.833-1.527 1.67-4.34 4.141-6.341 5.824-2.487 2.08-4.838 4.12-5.248 4.608l-.119.189c-.543-1.513-.395-2.446-.798-1.944-1.741 2.732.441 4.944 1.235 7.154-1.074.975-2.718.08-3.269-.772-1.174-1.765-.782-5.349-2.156-5.904-.355.968-.586 2.046-.586 2.046s1.046 2.455.781 4.076c-.164.98-1.032 2.127-2.172 2.147-3.051.077-1.547-4.435-2.724-6.991-.239.627-.409 1.297-.696 1.878.216.672.335 1.604.366 2.143.078 1.072-.01 2.222.171 3.142.252 1.293.971 2.153 2.068 2.233 2.275.185 3.314-1.664 3.658-3.172.392 1.542 3.405 3.238 4.887 1.347 1.962-2.5.392-4.641-.612-6.992l-.118-.305c.14.049.665-.181 1.523-.748zm8.898-14.077c.754-1.4 2.343-1.518 2.82-.785.379.583.409 1.721-.16 2.923-1.401-.88-2.652-1.741-2.66-2.138zm0 0z"/><path fill="#fff" fill-rule="nonzero" d="M209.791 119.517c-2.68-.189-4.122-2.644-4.947-6.19-.825-3.547-.32-8.224-.096-9.422.225-1.197-1.039-.579-1.53 2.327-.487 2.903-.978 7.545.75 12.406 1.725 4.854 4.667 6.665 7.244 6.045 2.577-.618 4.846-6.666 5.646-9.38.798-2.715 4.37-13.787 6.393-14.382.283 1.357-1.572 4.763-2.166 9.881-.59 5.119.438 11.833 6.936 13.024 6.497 1.192 10.905-3.023 12.504-5.953 1.6-2.926 2.346-6.002 2.526-7.547.209 3.928 2.888 10.061 8.093 11.81 5.029 1.69 8.872.143 10.57-2.047 1.507-1.946 2.735-5.952 2.84-9.025.103-3.07-2.551-8.688-3.144-10.477-.596-1.784-.903-3.023-.955-3.641-.05-.618 1.343.716 2.22.977.593.119.385-1.166-.337-2.049-.72-.88-4.619-6.792-4.893-6.38-.167.246-1.728 4.595-1.831 5.261.618.406 1.334 1.525 1.387 2.597.049 1.071 1.082 5.785 2.036 8.403.955 2.619 2.81 7.643 2.94 9.025-1.855 1.308-6.034 2.972-10.003 1.285-3.97-1.693-5.236-4.144-5.674-8.525-.279-2.799-.307-7.956-1.305-12.268-.563-2.437-1.748-4.914-3.157-6.229-.331.807-1.827 5.784-1.827 5.784.488 1.429 2.005 6.238 1.956 10.405-.054 4.165-.382 8.24-5.052 11.048-4.667 2.808-11.316 1.69-13.044-2.692-1.729-4.381 2.113-14.237 2.063-16.832-.052-2.594-.519-2.954-1.6-2.524-1.083.429-3.303 2.93-5.208 7-1.909 4.072-2.756 8.142-3.842 11.571-1.082 3.429-2.814 6.904-5.493 6.714zm0 0zM131.984 104.328c3.297-.239 6.084-2.739 6.805-3.404.722-.669 1.111-1.665.593-1.286-3.814 3.405-8.919 3.501-9.205 2.928.131-.571 1.473-1.5 3.433-2.808 1.19-.795 2.25-1.541 3.044-2.598l.216.038c1.452.318 3.129.953 3.641.445.834-.822.945-2.169.041-3.622-.765-1.232-2.547-2.38-4.095-3.208-1.544-.824-1.844.492-2.042.961-.19.437-.112.81.215.819a5.82 5.82 0 00-.982 2.273c-.085.466-.017.848.173 1.162.056.089.342.439.883.647l.672.209c-1.156 1.067-2.488 1.903-3.187 2.325-1.262.762-2.758 2.096-3.221 3.474-.466 1.383-.285 1.884 3.016 1.645zm5.829-9.727l.127-.704v-.45c1.046.76 2.717 2.2 2.615 3.063-.662-.15-1.924-.416-3.123-.724.153-.359.279-.754.381-1.185zm-3.099.22c-.769-.614-.02-1.225.662-1.619.88-.508 1.395-.089 1.845 1.245a5.385 5.385 0 01-.639 1.109c-.684-.212-1.649-.551-1.868-.735zm0 0zM141.877 141.57c-.948.822-1.316 3.498-1.122 3.659.192.161 3.154 1.16 3.618 1.377l.211-.806c1.412 1.268 2.976 7.591 3.324 7.609.348.016.852-.716 1.182-2.395.304-1.558.608-3.888.926-5.785.296-1.737.755-2.73 1.8-2.929 1.045-.195 1.819 1.144 2.089 2.055 0 0 .733-1.751.889-2.839-.173-.573-1.799-2.732-3.133-2.018-1.335.716-2.17 3.745-2.441 5.639-.271 1.891-.479 4.237-.808 4.612-.344-1.614-1.448-4.504-2.782-6.127-1.499-1.819-3.252-2.487-3.753-2.052zm0 0zM129.239 138.337c1.238-.34 4.023-.766 5.356-1.462 1.257-.59 3.402-3.464 4.235-4.536.83-1.072.832-1.61.621-1.894-.851-.466-6.345-.928-8.996-.271-.731.495-2.164 3.145-2.375 3.7-.215.552.078.517.966.322.889-.198 5.106-.092 6.631.23-.636.448-4.948 2.626-5.8 3.145-.849.517-1.064.821-.638.767v-.001zm0 0zM384.695 153.682c-.127-3.213-1.701-8.145-7.685-15.713-2.065-2.613-4.971-6.013-8.036-9.496a297.49 297.49 0 00-.245-3.205c-.402-4.795-1.763-14.576-2.348-20.357a33.924 33.924 0 01-.133-3.821c.021-.643.484-.557 1.122.104.637.66 1.619 1.624 1.824 1.558.436-.151.057-1.61-.813-3.341-.868-1.733-4.152-8.743-4.755-9.015-.31-.139-1.858 3.978-1.954 4.819.307.517 1.1 1.322 1.177 3.662.081 2.34 1.493 16.156 2.304 24.862l.044.485a757.833 757.833 0 00-10.673-11.672c-.308-.328-.646-.7-1.01-1.1a290.641 290.641 0 01-.74-6.381 31.448 31.448 0 01-.133-3.82c.015-.641.482-.554 1.119.107.64.66 1.619 1.624 1.824 1.554.436-.147.057-1.607-.814-3.34-.867-1.733-4.29-8.904-4.896-9.176-.308-.139-1.927 4.305-2.023 5.141.311.52 1.102 1.324 1.18 3.665.031.994.29 4.006.634 7.809-3.037-3.61-6.011-7.389-6.223-8.157-.074-.379.568-.146 1.756.046 1.185.189 2.295.546 2.105-.04-.09-.272-.542-.952-1.675-1.655-1.135-.703-4.042-2.522-6.205-3.806-2.168-1.285-3.241-2.366-3.688-2.058-.221.152-.025 4.558.102 5.104.545.05 1.552.454 2.192 1.311.647.857 4.791 6.666 8.067 10.594.943 1.131 2.42 2.883 4.148 4.907.338 3.619.692 7.358.985 10.482.666 7.126 3.056 25.919 3.078 32.027-1.764 1.655-5.372 3.964-9.084 4.012-3.712.047-5.748-.93-7.244-3.69-.462-.856-.891-1.715-1.317-2.494-1.012-1.851-3.269-2.89-5.444-2.38l-.332.088-.592.284c-1.473.772-2.996 2.065-4.486 4.07-2.575 3.479-4.221 7.252-6.127 10.52-1.985 3.404-3.509 5.688-6.992 5.142-2.452-.385-4.314-2.488-5.462-5.075 3.225-2.231 5.566-5.142 7.278-9.175 2.23-5.242 3.025-11.152 2.827-17.797-.191-6.254-3.041-20.967-3.794-26.606-.751-5.642-1.831-10.273-1.706-11.477.118-1.162 1.968 1.574 2.916 1.779.484-.109.224-1.854-.696-3.329-.625-1.002-2.602-5.564-3.896-7.763-.608-1.041-.755-1.643-1.038-1.767-.279-.128-2.434 4.474-2.174 4.975.638.911 1.074 1.345 1.207 2.978.137 1.632 1.613 13.617 2.904 22.443.972 6.66 3.12 18.758 3.397 27.7.091 2.917-.325 5.012-.686 6.181-.928 1.792-2.438 3.783-7.745 7.561-.82-5.339.071-9.676-.706-10.077-.877.095-1.016 2.583-1.116 5.652-.048 1.418.013 3.382.28 5.491-6.519 4.357-15.13 8.324-19.174 10.442-2.372 1.245-1.517 1.535.491.914 2.008-.624 13.044-3.518 18.935-6.616l.635-.352a18.988 18.988 0 001.107 2.972c1.982 4.12 4.814 6.566 7.883 6.327 2.58-.199 4.452-2.96 6.085-6.254 1.65-3.335 4.439-9.667 7.174-12.023 1.05-.908 2.136-1.626 3.193-2.058 0 0 1.868-.624 3.587.499a3.816 3.816 0 011.367 1.63c.678 1.484 1.48 3.372 3.119 4.954 2.888 2.781 7.532 2.206 11.015.589 3.478-1.619 5.254-4.145 6.028-7.145 1.32-5.135 1.109-10.395.856-15.067-.291-5.332-1.143-10.782-1.627-16.556-.156-1.857-.46-4.44-.81-7.241 3.392 3.915 6.914 7.888 9.051 10.061.736.75 1.514 1.583 2.312 2.462.637 8.741 1.25 19.678 1.574 24.267.32 4.573.114 10.322.077 11.322-.04 1 .517.829 1.315-1.39 1.07-2.979 1.742-10.789 1.507-15.967-.14-3.078-.447-8.688-.778-13.995a238.796 238.796 0 016.757 8.419c2.891 3.785 5.547 8.286 6.475 11.094.927 2.812 1.029 3.645 1.21 4.145.181.501.979-1.55.852-4.763zm0 0zM335.875 260.614c-.261-.747-1.061-1.295-2.017-1.295-.957 0-1.755.548-2.017 1.295h-9.056a8.116 8.116 0 01.282-2.997l18.696-.012.521.877a9.317 9.317 0 001.752 2.132h-8.161zm12.161-8.688h-22.251c1.726-1.246 2.632-3.064 2.389-4.904-.155-1.159-1.304-2.025-2.704-2.143h-.703c-1.704.166-2.94 1.395-2.76 2.743l.068.519.084.797a8.088 8.088 0 01-.28 2.988H155.814c2.466 3.588 6.962 5.788 11.817 5.785l151.538-.093c-1.734 1.247-2.642 3.069-2.398 4.912.18 1.348 1.704 2.309 3.408 2.143 1.702-.166 2.937-1.395 2.759-2.745l-.068-.517h8.905c.157.869 1.025 1.537 2.083 1.537 1.057 0 1.926-.668 2.084-1.537h9.059v-.021c1.891 1.342 4.295 2.113 6.838 2.113 2.392 0 4.331-1.661 4.331-3.713v-1.073c0-3.708-3.467-6.724-7.774-6.79l-.36-.001z"/></svg>