<svg width="100" height="93" viewBox="0 0 100 93" fill="none" xmlns="http://www.w3.org/2000/svg">
<path d="M9.52734 57.1141L11.3556 63.9704C15.611 79.9284 37.0135 88.0775 59.1595 82.1721C81.3054 76.2666 95.8086 58.5428 91.5533 42.5849L89.8556 36.2183L9.52734 57.1141Z" fill="#B69001"/>
<ellipse cx="49.3687" cy="45.4549" rx="41.5" ry="29" transform="rotate(-14.9311 49.3687 45.4549)" fill="#F0BD00"/>
<ellipse cx="49.7226" cy="44.8435" rx="38" ry="26.5" transform="rotate(-14.9311 49.7226 44.8435)" fill="#FFCB08"/>
<path d="M42.928 19.3628C37.7263 20.1988 32.2672 22.9404 30.0586 24.2641C25.3779 31.5742 12.4674 52.6159 13.3455 55.9087C14.4428 60.0238 18.8072 64.3864 20.9227 65.46L42.928 19.3628Z" fill="#FFD539"/>
<path d="M74.1041 21.7827C68.0814 16.6619 50.6755 16.4837 48.5217 17.8104C44.0075 25.2212 24.3929 66.7707 26.694 69.0957C29.7579 72.1915 46.4052 73.1542 53.7735 71.1893C53.7735 71.1893 56.8324 57.2284 60.8022 47.5811C64.772 37.9339 74.1041 21.7827 74.1041 21.7827Z" fill="#FFD539"/>
<g clip-path="url(#clip0_1044_5549)">
<g filter="url(#filter0_i_1044_5549)">
<path d="M70.6764 40.2507L64.3766 43.0269L64.0453 49.8458C64.0216 50.3395 63.8521 50.8151 63.5582 51.2126C63.2643 51.6101 62.8593 51.9115 62.3942 52.079C61.9232 52.2498 61.4122 52.2774 60.9256 52.1583C60.4389 52.0393 59.9984 51.7789 59.6594 51.41L54.9731 46.3097L48.2718 48.065C47.7871 48.1926 47.2755 48.1735 46.8017 48.0103C46.3278 47.847 45.9131 47.5468 45.6099 47.1478C45.3085 46.7557 45.1303 46.2829 45.0979 45.7894C45.0655 45.296 45.1804 44.804 45.4279 44.3758L48.8389 38.4621L45.0455 32.7174C44.7709 32.3011 44.6265 31.8125 44.6306 31.3138C44.6348 30.8151 44.7874 30.3289 45.069 29.9173C45.3506 29.5057 45.7484 29.1872 46.2117 29.0026C46.6749 28.818 47.1827 28.7755 47.6702 28.8806L54.4698 30.3084L58.8057 25.0046C59.1213 24.621 59.5427 24.3386 60.0176 24.1927C60.4924 24.0467 60.9996 24.0435 61.4762 24.1836C61.9528 24.3237 62.3777 24.6008 62.698 24.9805C63.0183 25.3602 63.22 25.8256 63.2778 26.319L64.0544 33.1254L70.5452 35.6038C71.012 35.7792 71.416 36.0897 71.7057 36.4957C71.9954 36.9016 72.1577 37.3846 72.1717 37.8832C72.1858 38.3817 72.0511 38.8731 71.7848 39.2948C71.5185 39.7164 71.1326 40.0492 70.6764 40.2507ZM42.7545 37.4203C42.6602 37.2473 42.5327 37.0945 42.3792 36.9707C42.2258 36.8469 42.0495 36.7546 41.8604 36.699C41.6713 36.6434 41.473 36.6257 41.277 36.6467C41.081 36.6678 40.8911 36.7273 40.7181 36.8218L27.1131 44.2461C26.7637 44.4367 26.5044 44.7584 26.3921 45.1403C26.2799 45.5222 26.3239 45.933 26.5146 46.2824C26.7053 46.6318 27.0269 46.8912 27.4088 47.0034C27.7907 47.1157 28.2016 47.0716 28.551 46.8809L42.156 39.4567C42.3291 39.3624 42.4819 39.2349 42.6057 39.0814C42.7294 38.928 42.8217 38.7517 42.8773 38.5626C42.9329 38.3735 42.9507 38.1752 42.9296 37.9792C42.9085 37.7832 42.849 37.5933 42.7545 37.4203ZM39.4293 48.4014L27.0305 55.1659C26.8575 55.2603 26.7048 55.3879 26.5811 55.5413C26.4574 55.6947 26.3651 55.871 26.3095 56.0601C26.2539 56.2492 26.2362 56.4474 26.2572 56.6434C26.2782 56.8393 26.3376 57.0293 26.432 57.2023C26.6227 57.5517 26.9443 57.811 27.3262 57.9233C27.5153 57.9788 27.7135 57.9966 27.9095 57.9756C28.1055 57.9546 28.2954 57.8952 28.4684 57.8008L40.8659 51.034C41.2043 50.8379 41.4528 50.5173 41.5583 50.1406C41.6638 49.7639 41.618 49.361 41.4306 49.0176C41.2432 48.6742 40.9291 48.4176 40.5552 48.3025C40.1814 48.1874 39.7774 48.2229 39.4293 48.4014ZM52.6142 52.0812L39.978 58.9753C39.805 59.0697 39.6523 59.1972 39.5286 59.3507C39.4049 59.5041 39.3126 59.6804 39.257 59.8695C39.2014 60.0586 39.1836 60.2568 39.2047 60.4527C39.2257 60.6487 39.2851 60.8386 39.3795 61.0116C39.5702 61.361 39.8918 61.6204 40.2737 61.7326C40.4628 61.7882 40.661 61.806 40.857 61.785C41.0529 61.764 41.2429 61.7046 41.4159 61.6101L54.0503 54.7156C54.3996 54.5251 54.659 54.2037 54.7713 53.8221C54.8837 53.4404 54.8398 53.0297 54.6494 52.6804C54.459 52.331 54.1376 52.0717 53.7559 51.9593C53.3742 51.8469 52.9635 51.8908 52.6142 52.0812Z" fill="#C77100"/>
</g>
<path d="M53.6146 52.4386C53.8691 52.5135 54.0831 52.6871 54.2101 52.92C54.337 53.1529 54.3667 53.4265 54.2918 53.6809C54.2169 53.9353 54.0441 54.1497 53.8113 54.2766L53.8104 54.2764L41.1766 61.1714C41.0613 61.2343 40.9342 61.2737 40.8035 61.2877C40.6729 61.3017 40.5408 61.2898 40.4147 61.2528C40.1601 61.1779 39.9452 61.0051 39.8181 60.7721C39.7552 60.6567 39.7158 60.5295 39.7018 60.3989C39.6878 60.2684 39.6996 60.1361 39.7366 60.0102C39.7737 59.8842 39.8352 59.7666 39.9177 59.6644C40.0001 59.5622 40.1019 59.4774 40.2171 59.4145L52.8537 52.5203C53.0865 52.3934 53.3602 52.3637 53.6146 52.4386ZM40.4082 48.7799C40.6574 48.8567 40.8668 49.028 40.9918 49.2568C41.1166 49.4857 41.1473 49.7545 41.077 50.0056C41.0079 50.2526 40.8461 50.4634 40.626 50.5947L28.2293 57.3619C28.114 57.4248 27.9869 57.4642 27.8562 57.4782C27.7256 57.4922 27.5935 57.4804 27.4674 57.4433C27.2128 57.3685 26.9979 57.1956 26.8708 56.9626C26.8079 56.8474 26.7682 56.7209 26.7542 56.5904C26.7402 56.4597 26.7523 56.3268 26.7893 56.2007C26.8264 56.0748 26.888 55.9571 26.9704 55.8549C27.0528 55.7528 27.1546 55.6679 27.2698 55.605L39.6578 48.8464C39.8898 48.7275 40.1591 48.7032 40.4082 48.7799ZM41.7191 37.1788C41.8451 37.2158 41.9627 37.2774 42.0649 37.3598C42.1672 37.4423 42.2529 37.5441 42.3158 37.6595L42.3155 37.6605C42.3784 37.7757 42.418 37.9021 42.4321 38.0327C42.4461 38.1633 42.4342 38.2953 42.3972 38.4214C42.3601 38.5475 42.2987 38.6649 42.2162 38.7672C42.1543 38.8439 42.082 38.9113 42.0008 38.9665L41.9165 39.0181L28.3119 46.442C28.079 46.5692 27.8047 46.5983 27.55 46.5235C27.2954 46.4486 27.0805 46.2758 26.9534 46.0428C26.8263 45.8098 26.7971 45.5355 26.872 45.2809C26.9468 45.0265 27.1197 44.8122 27.3524 44.6851L40.9582 37.2605C41.0734 37.1976 41.1998 37.158 41.3303 37.1439C41.4609 37.1299 41.5931 37.1418 41.7191 37.1788ZM61.3354 24.6634C61.7178 24.7758 62.0589 24.9981 62.316 25.3027C62.573 25.6074 62.7345 25.981 62.781 26.3769L63.5574 33.1826L63.592 33.4838L63.8756 33.5926L70.367 36.0706L70.3696 36.0723C70.7433 36.2128 71.0668 36.4612 71.2988 36.7862C71.5307 37.1113 71.6602 37.4981 71.6715 37.8973C71.6827 38.2965 71.5749 38.69 71.3616 39.0277C71.1484 39.3653 70.8394 39.6315 70.4741 39.7928L64.1747 42.5696L63.8918 42.6941L63.8775 43.0024L63.5457 49.8213C63.5267 50.2162 63.3911 50.597 63.1561 50.915C62.921 51.233 62.5967 51.4742 62.2246 51.6082L62.2233 51.6088C61.8452 51.7458 61.4349 51.768 61.0443 51.6725C60.6535 51.5769 60.3001 51.3676 60.028 51.0715L55.3413 45.9716L55.1377 45.75L54.8466 45.8262L48.1452 47.581L48.144 47.5817C47.7552 47.6839 47.3443 47.6682 46.9642 47.5372C46.584 47.4061 46.2515 47.1652 46.0082 46.845L46.0066 46.8435L45.921 46.7227C45.7319 46.4349 45.6199 46.1025 45.5971 45.7572C45.5712 45.3627 45.6625 44.9687 45.8603 44.6263L45.8615 44.6257L49.2721 38.7117L49.426 38.4444L49.2563 38.1869L45.4627 32.4416C45.2429 32.1083 45.127 31.7172 45.1303 31.3179C45.1337 30.9186 45.256 30.5293 45.4814 30.1997C45.7069 29.87 46.026 29.6151 46.397 29.4672C46.7679 29.3194 47.1743 29.2855 47.5647 29.3696L47.5677 29.3695L54.3667 30.7978L54.6649 30.86L54.8571 30.6254L59.1921 25.32C59.4453 25.0129 59.7843 24.7874 60.1648 24.6705C60.5458 24.5534 60.9529 24.551 61.3354 24.6634Z" stroke="#FFD539"/>
</g>
<defs>
<filter id="filter0_i_1044_5549" x="26.2485" y="24.0809" width="45.9243" height="41.7129" filterUnits="userSpaceOnUse" color-interpolation-filters="sRGB">
<feFlood flood-opacity="0" result="BackgroundImageFix"/>
<feBlend mode="normal" in="SourceGraphic" in2="BackgroundImageFix" result="shape"/>
<feColorMatrix in="SourceAlpha" type="matrix" values="0 0 0 0 0 0 0 0 0 0 0 0 0 0 0 0 0 0 127 0" result="hardAlpha"/>
<feOffset dy="4"/>
<feGaussianBlur stdDeviation="2"/>
<feComposite in2="hardAlpha" operator="arithmetic" k2="-1" k3="1"/>
<feColorMatrix type="matrix" values="0 0 0 0 0 0 0 0 0 0 0 0 0 0 0 0 0 0 0.25 0"/>
<feBlend mode="normal" in2="shape" result="effect1_innerShadow_1044_5549"/>
</filter>
<clipPath id="clip0_1044_5549">
<rect width="48" height="48" fill="white" transform="translate(32.8203 12.6336) rotate(16.3788)"/>
</clipPath>
</defs>
</svg>
