<svg width="24" height="24" viewBox="0 0 24 24" fill="none" xmlns="http://www.w3.org/2000/svg">
<path d="M7 18C7 18.7956 7.31607 19.5587 7.87868 20.1213C8.44129 20.6839 9.20435 21 10 21C10.7956 21 11.5587 20.6839 12.1213 20.1213C12.6839 19.5587 13 18.7956 13 18C13 17.2044 12.6839 16.4413 12.1213 15.8787C11.5587 15.3161 10.7956 15 10 15C9.20435 15 8.44129 15.3161 7.87868 15.8787C7.31607 16.4413 7 17.2044 7 18Z" fill="white"/>
<path d="M18.072 16.1765C18.138 15.4775 18.771 15.154 19.4015 15.463C19.9515 15.736 20.4872 16.0368 21.0065 16.3645C21.5265 16.6895 21.9135 16.966 22.2005 17.1945C22.7685 17.6455 22.7685 18.356 22.2005 18.8075C21.8185 19.1062 21.42 19.3833 21.007 19.6375C20.4877 19.965 19.952 20.2658 19.402 20.5385C18.771 20.8475 18.1375 20.5235 18.072 19.8245C18.0305 19.3845 18 18.792 18 18.001C18 17.2095 18.0305 16.617 18.072 16.1765ZM10 4.18503C10 3.56503 10.555 3.11003 11.155 3.26803C12.0335 3.49953 13.397 3.90753 15.1885 4.59103C15.8241 4.83098 16.4519 5.09111 17.071 5.37103C18.282 5.92453 18.282 7.07603 17.071 7.62953C16.576 7.85553 15.9585 8.11553 15.188 8.40953C11.853 9.68203 10 10 10 10V4.18503Z" fill="#2859C5"/>
<path d="M7 18C7 18.7957 7.31607 19.5587 7.87868 20.1213C8.44129 20.684 9.20435 21 10 21C10.7956 21 11.5587 20.684 12.1213 20.1213C12.6839 19.5587 13 18.7957 13 18M7 18C7 17.2044 7.31607 16.4413 7.87868 15.8787C8.44129 15.3161 9.20435 15 10 15M7 18H1.5M13 18C13 17.2044 12.6839 16.4413 12.1213 15.8787C11.5587 15.3161 10.7956 15 10 15M13 18H18M10 15V5.50003M18 18C18 18.791 18.03 19.3835 18.072 19.8235C18.1375 20.5225 18.771 20.8465 19.402 20.5375C19.952 20.2648 20.4877 19.964 21.007 19.6365C21.42 19.3823 21.8185 19.1052 22.2005 18.8065C22.7685 18.355 22.7685 17.6445 22.2005 17.1935C21.9135 16.965 21.5265 16.6885 21.0065 16.3635C20.4872 16.0358 19.9515 15.735 19.4015 15.462C18.771 15.153 18.138 15.4765 18.072 16.1755C18.0305 16.616 18 17.2085 18 18ZM10 4.18503C10 3.56503 10.555 3.11003 11.155 3.26803C12.0335 3.49953 13.397 3.90753 15.1885 4.59103C15.8241 4.83098 16.4519 5.09111 17.071 5.37103C18.282 5.92453 18.282 7.07603 17.071 7.62953C16.576 7.85553 15.9585 8.11553 15.188 8.40953C11.853 9.68203 10 10 10 10V4.18503Z" stroke="#06CCB5" stroke-width="1.5" stroke-linecap="round" stroke-linejoin="round"/>
</svg>
