<svg width="24" height="24" viewBox="0 0 24 24" fill="none" xmlns="http://www.w3.org/2000/svg">
<g clip-path="url(#clip0_4_559)">
<path fill-rule="evenodd" clip-rule="evenodd" d="M5.64847 0.490295C4.80847 0.490295 4.00104 0.603438 3.25704 0.725153C2.46847 0.857153 1.83761 1.37144 1.41247 1.99715C0.965081 2.68311 0.703406 3.47346 0.653039 4.29087C0.575896 5.36915 0.507324 6.49372 0.507324 7.64915C0.507324 8.80458 0.575896 9.92915 0.653039 11.0057C0.716467 11.8629 0.983896 12.6686 1.41247 13.2994C1.83761 13.9269 2.46675 14.4412 3.25704 14.5714C4.00104 14.6932 4.81018 14.8063 5.64847 14.8063C6.48847 14.8063 7.29761 14.6932 8.04161 14.5714C8.83018 14.4412 9.46104 13.9269 9.88618 13.2994C10.3337 12.6137 10.5948 11.8231 10.6439 11.0057C10.7228 9.92744 10.7913 8.80287 10.7913 7.64915C10.7913 6.49544 10.7228 5.36915 10.6439 4.29087C10.5948 3.47346 10.3337 2.68294 9.88618 1.99715C9.46104 1.36972 8.8319 0.855438 8.0399 0.725153C7.25047 0.581926 6.45067 0.503379 5.64847 0.490295ZM18.3428 23.5097C19.1828 23.5097 19.9953 23.3966 20.7393 23.2749C21.5296 23.1463 22.1605 22.632 22.5873 22.0063C23.0159 21.372 23.285 20.5697 23.3468 19.7109C23.4256 18.6343 23.4942 17.5097 23.4942 16.356C23.4942 15.2023 23.4256 14.0777 23.3468 13.0012C23.2979 12.1834 23.0361 11.3927 22.5873 10.7074C22.1588 10.08 21.5296 9.56572 20.7393 9.43715C19.9478 9.29655 19.1465 9.21802 18.3428 9.2023C17.5028 9.2023 16.6902 9.31544 15.9462 9.43715C15.1559 9.56572 14.525 10.08 14.0982 10.7057C13.6498 11.3918 13.388 12.183 13.3388 13.0012C13.249 14.1173 13.1999 15.2363 13.1913 16.356C13.1913 17.5097 13.2599 18.6343 13.3388 19.7109C13.4005 20.568 13.6679 21.3737 14.0982 22.0046C14.5268 22.632 15.1559 23.1463 15.9462 23.2749C16.7377 23.4155 17.539 23.494 18.3428 23.5097Z" fill="#2859C5"/>
<path fill-rule="evenodd" clip-rule="evenodd" d="M20.6502 6.67715C19.9113 6.72001 19.1365 6.75944 18.341 6.75944C17.5456 6.75944 16.7708 6.72001 16.0319 6.67715C15.4649 6.65062 14.9099 6.50457 14.4033 6.24858C13.9679 6.01887 13.4776 5.61087 13.3508 4.98515C13.2517 4.53796 13.1977 4.08197 13.1896 3.62401C13.1978 3.16663 13.2518 2.71121 13.3508 2.26458C13.4776 1.63715 13.9679 1.23087 14.4033 0.999438C14.8662 0.752581 15.437 0.608581 16.0319 0.572581C16.7708 0.529724 17.5456 0.490295 18.341 0.490295C19.1365 0.490295 19.9113 0.529724 20.6502 0.572581C21.2433 0.606867 21.8159 0.752581 22.2788 0.999438C22.7142 1.23087 23.2045 1.63715 23.3313 2.26458C23.4119 2.66572 23.4925 3.13201 23.4925 3.62401C23.4925 4.11601 23.4119 4.58401 23.3313 4.98515C23.2045 5.61087 22.7142 6.01887 22.2788 6.2503C21.8159 6.49544 21.2433 6.64115 20.6502 6.67715ZM3.34276 17.3229C4.0799 17.28 4.85304 17.2406 5.64676 17.2406C6.44047 17.2406 7.21361 17.28 7.95247 17.3229C8.54562 17.3589 9.11476 17.5046 9.57761 17.7514C10.013 17.9829 10.5033 18.3892 10.6285 19.0149C10.709 19.416 10.7896 19.8823 10.7896 20.376C10.7896 20.868 10.709 21.3343 10.6285 21.7354C10.5016 22.3612 10.013 22.7674 9.57761 23.0006C9.07286 23.258 8.51856 23.4036 7.95247 23.4274C7.21533 23.4703 6.44047 23.5097 5.64676 23.5097C4.85304 23.5097 4.0799 23.4703 3.34276 23.4274C2.77654 23.403 2.22223 23.2569 1.71762 22.9989C1.28047 22.7674 0.791901 22.3612 0.666758 21.7354C0.567833 21.2888 0.51385 20.8334 0.505615 20.376C0.505615 19.8823 0.586187 19.416 0.666758 19.0149C0.791901 18.3892 1.28047 17.9829 1.71762 17.7497C2.18047 17.5046 2.74962 17.3589 3.34276 17.3246" fill="#06CCB5"/>
</g>
<defs>
<clipPath id="clip0_4_559">
<rect width="24" height="24" fill="white"/>
</clipPath>
</defs>
</svg>
