<svg width="24" height="24" viewBox="0 0 24 24" fill="none" xmlns="http://www.w3.org/2000/svg">
<path d="M0 10.8125C0 4.841 4.841 0 10.8125 0C16.784 0 21.625 4.841 21.625 10.8125C21.625 11.2728 21.5967 11.7257 21.54 12.171C21.3253 12.082 21.0983 11.9887 20.859 11.891C19.263 11.243 18.099 10.821 17.367 10.571C16.357 10.226 15.267 10.226 14.257 10.571C13.525 10.821 12.361 11.243 10.7655 11.891C9.7705 12.2955 8.9895 12.6325 8.39 12.903C7.2835 13.402 6.561 14.47 6.561 15.682L6.562 15.767V20.7575C2.7035 19.1065 0 15.275 0 10.8125Z" fill="#2859C5"/>
<path d="M6.56243 17.6725C6.32765 16.7654 6.14733 15.8451 6.02243 14.9165H0.80643C0.6064 14.4292 0.442458 13.9278 0.31593 13.4165H5.85743C5.78511 12.5504 5.74924 11.6816 5.74993 10.8125C5.74993 9.92249 5.78693 9.05049 5.85793 8.20849H0.31543C0.44343 7.69249 0.606763 7.19249 0.80543 6.70849H6.02393C6.24893 5.07649 6.60543 3.59499 7.06293 2.35849C7.33943 1.61099 7.65943 0.934993 8.02243 0.363493C8.80743 0.154493 9.62743 0.0314932 10.4724 0.00549316C10.2454 0.0934932 9.98743 0.275993 9.70393 0.602493C9.26893 1.10349 8.84293 1.87049 8.46993 2.87849C8.07293 3.95199 7.75193 5.25449 7.53893 6.70849H14.0854C13.8724 5.25449 13.5519 3.95199 13.1544 2.87849C12.7814 1.87049 12.3554 1.10349 11.9204 0.602493C11.6369 0.275993 11.3789 0.0934932 11.1519 0.00549316C11.9969 0.0314932 12.8169 0.154493 13.6019 0.363493C13.9649 0.934993 14.2849 1.61099 14.5614 2.35849C15.0189 3.59499 15.3749 5.07649 15.6004 6.70849H20.8184C21.0174 7.19249 21.1809 7.69249 21.3089 8.20849H15.7664C15.8251 8.90861 15.86 9.61051 15.8709 10.313C15.3633 10.3067 14.8578 10.3809 14.3734 10.533C14.3665 9.75681 14.329 8.98121 14.2609 8.20799H7.36343C7.28722 9.07423 7.24935 9.94341 7.24993 10.813C7.24993 11.709 7.28893 12.5815 7.36293 13.4165H7.59193C7.2577 13.7081 6.99205 14.07 6.81399 14.4762C6.63593 14.8825 6.54986 15.3231 6.56193 15.7665V17.673L6.56243 17.6725Z" fill="#06CCB5"/>
<path d="M16.8825 11.7405C16.189 11.5028 15.4361 11.5028 14.7425 11.7405C14.038 11.9815 12.9005 12.393 11.3305 13.0305C10.5499 13.346 9.77528 13.6761 9.00702 14.0205C8.41402 14.288 8.06152 14.8365 8.06152 15.432L8.06252 15.486V21.463C8.06252 21.662 8.14154 21.8527 8.28219 21.9934C8.42285 22.134 8.61361 22.213 8.81252 22.213C9.01144 22.213 9.2022 22.134 9.34285 21.9934C9.48351 21.8527 9.56252 21.662 9.56252 21.463V17.09C10.0515 17.3035 10.6365 17.551 11.3305 17.833C12.9005 18.471 14.038 18.8825 14.743 19.123C15.4366 19.3608 16.1895 19.3608 16.883 19.123C17.5875 18.8825 18.725 18.471 20.295 17.833C21.0756 17.5176 21.8503 17.1875 22.6185 16.843C23.2115 16.576 23.5635 16.0275 23.5635 15.432C23.5635 14.8365 23.2115 14.288 22.6185 14.0205C21.8503 13.6761 21.0756 13.346 20.295 13.0305C18.725 12.393 17.5875 11.9815 16.8825 11.7405Z" fill="#06CCB5"/>
<path d="M10.8125 19.2416C12.3845 19.8796 13.5325 20.2951 14.2575 20.5426C15.2675 20.8876 16.3575 20.8876 17.3675 20.5426C18.0925 20.2951 19.2405 19.8796 20.8125 19.2421C20.8095 20.2136 20.759 20.8521 20.7045 21.2611C20.6688 21.5462 20.5643 21.8183 20.3999 22.0539C20.2355 22.2896 20.0162 22.4816 19.761 22.6136C19.0785 22.9661 17.798 23.4321 15.8125 23.4321C13.827 23.4321 12.546 22.9661 11.864 22.6136C11.6087 22.4817 11.3893 22.2896 11.2248 22.054C11.0604 21.8184 10.9557 21.5462 10.92 21.2611C10.8655 20.8516 10.815 20.2136 10.8125 19.2416Z" fill="#06CCB5"/>
</svg>
