<?xml version="1.0" encoding="UTF-8" standalone="no"?>
<!-- Created with Inkscape (http://www.inkscape.org/) -->

<svg
   width="334.07422mm"
   height="309.11261mm"
   viewBox="0 0 334.07422 309.11261"
   version="1.1"
   id="svg5"
   xml:space="preserve"
   sodipodi:docname="eagle mascot.svg"
   inkscape:version="1.2.1 (9c6d41e410, 2022-07-14)"
   xmlns:inkscape="http://www.inkscape.org/namespaces/inkscape"
   xmlns:sodipodi="http://sodipodi.sourceforge.net/DTD/sodipodi-0.dtd"
   xmlns:xlink="http://www.w3.org/1999/xlink"
   xmlns="http://www.w3.org/2000/svg"
   xmlns:svg="http://www.w3.org/2000/svg"><sodipodi:namedview
     id="namedview7"
     pagecolor="#ffffff"
     bordercolor="#000000"
     borderopacity="0.25"
     inkscape:showpageshadow="2"
     inkscape:pageopacity="0.0"
     inkscape:pagecheckerboard="0"
     inkscape:deskcolor="#d1d1d1"
     inkscape:document-units="mm"
     showgrid="false"
     inkscape:zoom="0.05087597"
     inkscape:cx="5886.8656"
     inkscape:cy="-1995.048"
     inkscape:window-width="1920"
     inkscape:window-height="1001"
     inkscape:window-x="-9"
     inkscape:window-y="-9"
     inkscape:window-maximized="1"
     inkscape:current-layer="layer1"
     showguides="true" /><defs
     id="defs2"><linearGradient
       inkscape:collect="always"
       id="linearGradient26607"><stop
         style="stop-color:#eea02c;stop-opacity:1;"
         offset="0"
         id="stop26603" /><stop
         style="stop-color:#c37b11;stop-opacity:1;"
         offset="1"
         id="stop26605" /></linearGradient><linearGradient
       inkscape:collect="always"
       id="linearGradient24318"><stop
         style="stop-color:#f3b964;stop-opacity:1;"
         offset="0"
         id="stop24314" /><stop
         style="stop-color:#ef950e;stop-opacity:1;"
         offset="1"
         id="stop24316" /></linearGradient><linearGradient
       inkscape:collect="always"
       id="linearGradient22042"><stop
         style="stop-color:#333333;stop-opacity:1;"
         offset="0"
         id="stop22038" /><stop
         style="stop-color:#333333;stop-opacity:0;"
         offset="1"
         id="stop22040" /></linearGradient><linearGradient
       inkscape:collect="always"
       id="wing"><stop
         style="stop-color:#7ac2fb;stop-opacity:1;"
         offset="0"
         id="stop21681" /><stop
         style="stop-color:#29a1fa;stop-opacity:1;"
         offset="1"
         id="stop21683" /></linearGradient><linearGradient
       inkscape:collect="always"
       id="body"><stop
         style="stop-color:#058bf4;stop-opacity:1;"
         offset="0"
         id="stop20915" /><stop
         style="stop-color:#0575cd;stop-opacity:1;"
         offset="1"
         id="stop20917" /></linearGradient><linearGradient
       inkscape:collect="always"
       id="linearGradient20398"><stop
         style="stop-color:#6d6d6d;stop-opacity:1;"
         offset="0"
         id="stop20394" /><stop
         style="stop-color:#000000;stop-opacity:1;"
         offset="1"
         id="stop20396" /></linearGradient><linearGradient
       inkscape:collect="always"
       id="linearGradient18886"><stop
         style="stop-color:#848484;stop-opacity:1;"
         offset="0"
         id="stop18882" /><stop
         style="stop-color:#ffffff;stop-opacity:1;"
         offset="1"
         id="stop18884" /></linearGradient><linearGradient
       inkscape:collect="always"
       id="linearGradient18856"><stop
         style="stop-color:#058bf4;stop-opacity:1;"
         offset="0"
         id="stop18852" /><stop
         style="stop-color:#047dd6;stop-opacity:1;"
         offset="0.16136241"
         id="stop18872" /><stop
         style="stop-color:#068efa;stop-opacity:1;"
         offset="0.29416448"
         id="stop18862" /><stop
         style="stop-color:#046cbc;stop-opacity:1;"
         offset="1"
         id="stop18854" /></linearGradient><linearGradient
       inkscape:collect="always"
       id="linearGradient18114"><stop
         style="stop-color:#7fc6fc;stop-opacity:0;"
         offset="0"
         id="stop18108" /><stop
         style="stop-color:#5cb4fb;stop-opacity:0;"
         offset="0.34368873"
         id="stop18110" /><stop
         style="stop-color:#01223c;stop-opacity:1;"
         offset="1"
         id="stop18112" /></linearGradient><linearGradient
       inkscape:collect="always"
       id="linearGradient15862"><stop
         style="stop-color:#c37b11;stop-opacity:1;"
         offset="0"
         id="stop15858" /><stop
         style="stop-color:#88570c;stop-opacity:1;"
         offset="1"
         id="stop15860" /></linearGradient><linearGradient
       inkscape:collect="always"
       id="linearGradient15834"><stop
         style="stop-color:#fbe8cf;stop-opacity:1;"
         offset="0"
         id="stop15830" /><stop
         style="stop-color:#ec991f;stop-opacity:1;"
         offset="0.38875693"
         id="stop15846" /><stop
         style="stop-color:#eb9516;stop-opacity:1;"
         offset="0.6807065"
         id="stop15856" /><stop
         style="stop-color:#ab6d10;stop-opacity:1;"
         offset="1"
         id="stop15832" /></linearGradient><linearGradient
       inkscape:collect="always"
       id="linearGradient14342"><stop
         style="stop-color:#7fc6fc;stop-opacity:1;"
         offset="0"
         id="stop14338" /><stop
         style="stop-color:#5cb4fb;stop-opacity:1;"
         offset="0.34368873"
         id="stop14346" /><stop
         style="stop-color:#94d0fc;stop-opacity:1;"
         offset="1"
         id="stop14340" /></linearGradient><linearGradient
       inkscape:collect="always"
       id="linearGradient11533"><stop
         style="stop-color:#000000;stop-opacity:1;"
         offset="0"
         id="stop11529" /><stop
         style="stop-color:#000000;stop-opacity:0;"
         offset="1"
         id="stop11531" /></linearGradient><linearGradient
       inkscape:collect="always"
       id="linearGradient11491"><stop
         style="stop-color:#333333;stop-opacity:1;"
         offset="0"
         id="stop11487" /><stop
         style="stop-color:#333333;stop-opacity:0;"
         offset="1"
         id="stop11489" /></linearGradient><linearGradient
       inkscape:collect="always"
       id="linearGradient10756"><stop
         style="stop-color:#5fb8fb;stop-opacity:1"
         offset="0"
         id="stop10752" /><stop
         style="stop-color:#0a91fa;stop-opacity:0;"
         offset="1"
         id="stop10754" /></linearGradient><clipPath
       clipPathUnits="userSpaceOnUse"
       id="clipPath11517"><path
         style="opacity:1;fill:#058bf4;fill-opacity:1;stroke:none;stroke-width:1;stroke-linecap:square;stroke-linejoin:miter;stroke-dasharray:none;stroke-opacity:1"
         d="m 272.74949,120.11683 c 0,0 -31.34734,13.89395 -29.87588,27.30467 7.39891,67.43285 171.88485,113.6819 172.83597,113.51925 0,0 -66.89703,-115.14626 -79.45683,-143.57408 -8.5625,-19.380331 -63.50326,2.75016 -63.50326,2.75016 z"
         id="path11519"
         sodipodi:nodetypes="cscsc" /></clipPath><clipPath
       clipPathUnits="userSpaceOnUse"
       id="clipPath11549"><path
         style="opacity:1;fill:#058bf4;fill-opacity:1;stroke:none;stroke-width:1;stroke-linecap:square;stroke-linejoin:miter;stroke-dasharray:none;stroke-opacity:1"
         d="m 250.35948,112.65899 c 0,0 34.27601,0.92355 38.01713,13.88567 18.81138,65.17718 -115.71151,170.52514 -116.65299,170.73656 0,0 18.06096,-131.93815 18.86135,-163.00661 0.54567,-21.18055 59.77451,-21.61562 59.77451,-21.61562 z"
         id="path11551"
         sodipodi:nodetypes="cscsc" /></clipPath><filter
       inkscape:collect="always"
       style="color-interpolation-filters:sRGB"
       id="filter14350"
       x="-0.02558109"
       y="-0.026192293"
       width="1.0511622"
       height="1.0523846"><feGaussianBlur
         inkscape:collect="always"
         stdDeviation="0.99680596"
         id="feGaussianBlur14352" /></filter><clipPath
       clipPathUnits="userSpaceOnUse"
       id="clipPath15088"><g
         id="g15094"><path
           style="opacity:1;fill:#058bf4;fill-opacity:1;stroke:none;stroke-width:1;stroke-linecap:square;stroke-linejoin:miter;stroke-dasharray:none;stroke-opacity:1"
           d="m 272.39593,121.04171 c 0,0 -31.34735,13.89396 -29.87589,27.30468 7.39891,67.43284 171.88485,113.6819 172.83598,113.51925 0,0 -66.89705,-115.14626 -79.45685,-143.57408 -8.5625,-19.380334 -63.50324,2.75015 -63.50324,2.75015 z"
           id="path15090"
           sodipodi:nodetypes="cscsc" /><path
           style="opacity:1;fill:#5fb8fb;fill-opacity:1;stroke:none;stroke-width:0.879101;stroke-linecap:square;stroke-linejoin:miter;stroke-dasharray:none;stroke-opacity:1"
           d="m 289.28009,145.00925 c 10.34271,-38.84038 44.7925,-37.5182 52.28556,-23.98307 l 72.70227,131.32618 C 375.03113,232.69024 272.77503,206.99131 289.28009,145.00925 Z"
           id="path15092"
           sodipodi:nodetypes="sscs" /></g></clipPath><filter
       inkscape:collect="always"
       style="color-interpolation-filters:sRGB"
       id="filter16594"
       x="-0.14057836"
       y="-0.16130969"
       width="1.2811567"
       height="1.3226194"><feGaussianBlur
         inkscape:collect="always"
         stdDeviation="1.8631655"
         id="feGaussianBlur16596" /></filter><clipPath
       clipPathUnits="userSpaceOnUse"
       id="clipPath16608"><g
         id="g16614"><path
           style="opacity:1;fill:#058bf4;fill-opacity:1;stroke:none;stroke-width:1;stroke-linecap:square;stroke-linejoin:miter;stroke-dasharray:none;stroke-opacity:1"
           d="m 272.39593,121.04171 c 0,0 -31.34735,13.89396 -29.87589,27.30468 7.39891,67.43284 171.88485,113.6819 172.83598,113.51925 0,0 -66.89705,-115.14626 -79.45685,-143.57408 -8.5625,-19.380334 -63.50324,2.75015 -63.50324,2.75015 z"
           id="path16610"
           sodipodi:nodetypes="cscsc" /><path
           style="opacity:1;fill:url(#linearGradient16616);fill-opacity:1;stroke:none;stroke-width:1;stroke-linecap:square;stroke-linejoin:miter;stroke-dasharray:none;stroke-opacity:1"
           d="M 267.83036,115.97142 256.33929,87.685712 c 7.264,-16.858781 55.5673,-33.67666 80.26071,13.612498 5.2415,5.84195 8.92433,6.16963 13.25893,6.54107 l -10.78392,2.82857 c 13.23689,13.48714 -1.14853,29.4671 -3.71251,39.06965 -1.78716,-2.9786 -1.54916,-14.70963 -12.19821,-22.27501 0.5191,22.13657 -9.67817,26.18621 -24.21965,34.29643 12.65009,-17.25721 12.27459,-25.04125 9.54643,-31.11428 0.35425,11.02971 -7.24821,12.90535 -7.24821,12.90535 3.02545,-9.30049 0.36757,-12.40099 -1.59107,-16.26428 -6.97099,9.68253 -5.44451,15.15906 -1.2375,17.85536 -15.08918,-2.68592 -17.29378,-14.51761 -20.33036,-22.45179 -5.53044,2.53393 -3.56267,5.06786 -1.2375,7.60179 -4.62789,0.13057 -7.14413,-1.20077 -5.65715,-5.30358 l -9.89999,3.88929 c 6.95962,-3.86798 6.54107,-12.90536 6.54107,-12.90536 z"
           id="path16612"
           sodipodi:nodetypes="ccccccccccccccccc" /></g></clipPath><linearGradient
       inkscape:collect="always"
       xlink:href="#linearGradient14342"
       id="linearGradient16616"
       gradientUnits="userSpaceOnUse"
       x1="268.08987"
       y1="80.088432"
       x2="310.10687"
       y2="148.84193" /><filter
       inkscape:collect="always"
       style="color-interpolation-filters:sRGB"
       id="filter16620"
       x="-0.21046525"
       y="-0.21453202"
       width="1.4209305"
       height="1.429064"><feGaussianBlur
         inkscape:collect="always"
         stdDeviation="3.1536948"
         id="feGaussianBlur16618" /></filter><filter
       inkscape:collect="always"
       style="color-interpolation-filters:sRGB"
       id="filter20792"
       x="-0.059106156"
       y="-0.055765111"
       width="1.1182123"
       height="1.1115302"><feGaussianBlur
         inkscape:collect="always"
         stdDeviation="3.1890147"
         id="feGaussianBlur20794" /></filter><clipPath
       clipPathUnits="userSpaceOnUse"
       id="clipPath20798"><path
         style="opacity:1;fill:#058bf4;fill-opacity:1;stroke:none;stroke-width:1;stroke-linecap:square;stroke-linejoin:miter;stroke-dasharray:none;stroke-opacity:1"
         d="m 272.39592,121.04171 c 0,0 -31.34734,13.89396 -29.87588,27.30468 7.39891,67.43284 171.88485,113.6819 172.83597,113.51925 0,0 -66.89703,-115.14626 -79.45683,-143.57408 -8.5625,-19.380335 -63.50326,2.75015 -63.50326,2.75015 z"
         id="path20800"
         sodipodi:nodetypes="cscsc" /></clipPath><filter
       inkscape:collect="always"
       style="color-interpolation-filters:sRGB"
       id="filter20908"
       x="-0.26501283"
       y="-0.21692698"
       width="1.5300257"
       height="1.4338539"><feGaussianBlur
         inkscape:collect="always"
         stdDeviation="1.7850622"
         id="feGaussianBlur20910" /></filter><filter
       inkscape:collect="always"
       style="color-interpolation-filters:sRGB"
       id="filter22046"
       x="-0.01960811"
       y="-0.019340539"
       width="1.0392162"
       height="1.0386811"><feGaussianBlur
         inkscape:collect="always"
         stdDeviation="0.6376365"
         id="feGaussianBlur22048" /></filter><filter
       inkscape:collect="always"
       style="color-interpolation-filters:sRGB"
       id="filter24262"
       x="-0.12982272"
       y="-0.6491136"
       width="1.2596453"
       height="2.2982273"><feGaussianBlur
         inkscape:collect="always"
         stdDeviation="0.87905281"
         id="feGaussianBlur24264" /></filter><clipPath
       clipPathUnits="userSpaceOnUse"
       id="clipPath24284"><g
         id="g24290"><path
           style="fill:#c37b11;fill-opacity:1;stroke:#c37b11;stroke-width:0.786143;stroke-linecap:square;stroke-linejoin:miter;stroke-dasharray:none;stroke-opacity:1"
           d="m 347.54161,250.09888 c 3.29662,0.21285 9.45928,1.88104 7.07099,5.02018 -5.13771,6.75292 -15.25994,2.73095 -18.1893,9.15567 -1.66774,4.72528 2.50161,3.47447 2.50161,3.47447 0,0 -4.03038,2.36264 -6.94894,1.25081 -2.91855,-1.11183 -15.56563,-12.78606 -11.8132,-15.42665 3.75243,-2.6406 18.19849,-4.06722 27.37884,-3.47448 z"
           id="path24286"
           sodipodi:nodetypes="ssccsss" /><path
           style="fill:#ec991f;fill-opacity:1;stroke:#ec991f;stroke-width:0.938093;stroke-linecap:square;stroke-linejoin:miter;stroke-dasharray:none;stroke-opacity:1"
           d="m 365.23079,257.09529 c 3.93381,0.25399 11.28762,2.24461 8.4377,5.9905 -6.13075,8.05816 -18.20946,3.25881 -21.70502,10.92532 -1.99009,5.63861 2.98513,4.14604 2.98513,4.14604 0,0 -4.80939,2.8193 -8.29206,1.49257 -3.48267,-1.32673 -18.57423,-15.25741 -14.09651,-18.4084 4.47771,-3.15098 21.71598,-4.85334 32.67076,-4.14603 z"
           id="path24288"
           sodipodi:nodetypes="ssccsss" /></g></clipPath><filter
       inkscape:collect="always"
       style="color-interpolation-filters:sRGB"
       id="filter26599"
       x="-0.092436574"
       y="-0.36454874"
       width="1.1848731"
       height="1.7290975"><feGaussianBlur
         inkscape:collect="always"
         stdDeviation="0.33017869"
         id="feGaussianBlur26601" /></filter><linearGradient
       inkscape:collect="always"
       xlink:href="#linearGradient14342"
       id="linearGradient28521"
       gradientUnits="userSpaceOnUse"
       gradientTransform="translate(-100.41428,-421.45712)"
       x1="268.08987"
       y1="80.088432"
       x2="310.10687"
       y2="148.84193" /><filter
       inkscape:collect="always"
       style="color-interpolation-filters:sRGB"
       id="filter33711"
       x="-0.023173226"
       y="-0.042424507"
       width="1.0463465"
       height="1.084849"><feGaussianBlur
         inkscape:collect="always"
         stdDeviation="0.93553624"
         id="feGaussianBlur33713" /></filter><filter
       inkscape:collect="always"
       style="color-interpolation-filters:sRGB"
       id="filter33715"
       x="-0.020453289"
       y="-0.074931398"
       width="1.0409065"
       height="1.1498628"><feGaussianBlur
         inkscape:collect="always"
         stdDeviation="0.93553624"
         id="feGaussianBlur33717" /></filter><filter
       inkscape:collect="always"
       style="color-interpolation-filters:sRGB"
       id="filter33719"
       x="-0.020102339"
       y="-0.16922423"
       width="1.0402046"
       height="1.3384485"><feGaussianBlur
         inkscape:collect="always"
         stdDeviation="0.93553624"
         id="feGaussianBlur33721" /></filter><linearGradient
       inkscape:collect="always"
       xlink:href="#linearGradient14342"
       id="linearGradient2981"
       gradientUnits="userSpaceOnUse"
       gradientTransform="translate(-2.806306,-4.8484015)"
       x1="268.08987"
       y1="80.088432"
       x2="310.10687"
       y2="148.84193" /><linearGradient
       inkscape:collect="always"
       xlink:href="#body"
       id="linearGradient10505"
       gradientUnits="userSpaceOnUse"
       x1="509.85828"
       y1="176.60284"
       x2="529.30237"
       y2="246.93213" /><linearGradient
       inkscape:collect="always"
       xlink:href="#body"
       id="linearGradient17917"
       gradientUnits="userSpaceOnUse"
       x1="509.85828"
       y1="176.60284"
       x2="529.30237"
       y2="246.93213" /><linearGradient
       inkscape:collect="always"
       xlink:href="#wing"
       id="linearGradient27229"
       gradientUnits="userSpaceOnUse"
       x1="709.93567"
       y1="137.3212"
       x2="666.64795"
       y2="226.4969" /><linearGradient
       inkscape:collect="always"
       xlink:href="#wing"
       id="linearGradient27243"
       gradientUnits="userSpaceOnUse"
       x1="593.25348"
       y1="136.48393"
       x2="662.01654"
       y2="192.10382" /><linearGradient
       inkscape:collect="always"
       xlink:href="#linearGradient18886"
       id="linearGradient5605"
       gradientUnits="userSpaceOnUse"
       gradientTransform="matrix(1.0383754,0,0,1.0383754,1252.1189,-786.14567)"
       x1="287.96222"
       y1="77.041405"
       x2="288.10596"
       y2="101.23909" /><linearGradient
       inkscape:collect="always"
       xlink:href="#body"
       id="linearGradient32810"
       gradientUnits="userSpaceOnUse"
       x1="1516.9742"
       y1="278.20926"
       x2="1686.757"
       y2="278.20926"
       gradientTransform="matrix(0.68821785,0,0.16707114,0.65501007,-622.24626,7.2558098)" /><linearGradient
       inkscape:collect="always"
       xlink:href="#body"
       id="linearGradient32832"
       gradientUnits="userSpaceOnUse"
       x1="1516.9742"
       y1="278.20926"
       x2="1686.757"
       y2="278.20926" /><linearGradient
       inkscape:collect="always"
       xlink:href="#wing"
       id="linearGradient32846"
       gradientUnits="userSpaceOnUse"
       x1="1347.4471"
       y1="252.72263"
       x2="1589.3208"
       y2="252.72263" /><radialGradient
       inkscape:collect="always"
       xlink:href="#wing"
       id="radialGradient111670"
       gradientUnits="userSpaceOnUse"
       gradientTransform="matrix(0.91625354,1.2286987,-1.1953904,0.89141516,433.14024,-824.92533)"
       cx="314.37875"
       cy="189.6337"
       fx="314.37875"
       fy="189.6337"
       r="63.387325" /><linearGradient
       inkscape:collect="always"
       xlink:href="#body"
       id="linearGradient111672"
       gradientUnits="userSpaceOnUse"
       gradientTransform="matrix(1.4475096,0,0,1.4475096,3009.3208,-1078.0607)"
       x1="242.4698"
       y1="186.10178"
       x2="404.04172"
       y2="258.58392" /><linearGradient
       inkscape:collect="always"
       xlink:href="#linearGradient11533"
       id="linearGradient111674"
       gradientUnits="userSpaceOnUse"
       x1="280.53165"
       y1="203.44458"
       x2="269.60239"
       y2="159.9346" /><linearGradient
       inkscape:collect="always"
       xlink:href="#linearGradient11533"
       id="linearGradient111676"
       gradientUnits="userSpaceOnUse"
       x1="280.53165"
       y1="203.44458"
       x2="269.60239"
       y2="159.9346" /><linearGradient
       inkscape:collect="always"
       xlink:href="#linearGradient11533"
       id="linearGradient111678"
       gradientUnits="userSpaceOnUse"
       x1="280.53165"
       y1="203.44458"
       x2="269.60239"
       y2="159.9346" /><linearGradient
       inkscape:collect="always"
       xlink:href="#linearGradient11533"
       id="linearGradient111680"
       gradientUnits="userSpaceOnUse"
       x1="280.53165"
       y1="203.44458"
       x2="269.60239"
       y2="159.9346" /><linearGradient
       inkscape:collect="always"
       xlink:href="#linearGradient11491"
       id="linearGradient111682"
       gradientUnits="userSpaceOnUse"
       x1="272.23264"
       y1="203.24329"
       x2="271.36612"
       y2="156.49091" /><linearGradient
       inkscape:collect="always"
       xlink:href="#linearGradient11491"
       id="linearGradient111684"
       gradientUnits="userSpaceOnUse"
       x1="272.23264"
       y1="203.24329"
       x2="271.36612"
       y2="156.49091" /><linearGradient
       inkscape:collect="always"
       xlink:href="#linearGradient11491"
       id="linearGradient111686"
       gradientUnits="userSpaceOnUse"
       x1="272.23264"
       y1="203.24329"
       x2="271.36612"
       y2="156.49091" /><linearGradient
       inkscape:collect="always"
       xlink:href="#linearGradient11491"
       id="linearGradient111688"
       gradientUnits="userSpaceOnUse"
       x1="272.23264"
       y1="203.24329"
       x2="271.36612"
       y2="156.49091" /><linearGradient
       inkscape:collect="always"
       xlink:href="#linearGradient11491"
       id="linearGradient111690"
       gradientUnits="userSpaceOnUse"
       x1="272.23264"
       y1="203.24329"
       x2="271.36612"
       y2="156.49091" /><linearGradient
       inkscape:collect="always"
       xlink:href="#linearGradient10756"
       id="linearGradient111692"
       gradientUnits="userSpaceOnUse"
       gradientTransform="rotate(-7.1006597,263.91709,152.85746)"
       x1="249.58325"
       y1="176.42188"
       x2="250.85974"
       y2="156.09152" /><linearGradient
       inkscape:collect="always"
       xlink:href="#linearGradient10756"
       id="linearGradient111694"
       gradientUnits="userSpaceOnUse"
       gradientTransform="matrix(-0.73966623,0.6729739,0.6729739,0.73966623,352.12851,-159.35194)"
       x1="280.31992"
       y1="198.50717"
       x2="277.29617"
       y2="175.34825" /><linearGradient
       inkscape:collect="always"
       xlink:href="#linearGradient10756"
       id="linearGradient111696"
       gradientUnits="userSpaceOnUse"
       gradientTransform="matrix(0.5759751,0.0473537,-0.0473537,0.5759751,135.10657,35.711044)"
       x1="280.31992"
       y1="198.50717"
       x2="277.29617"
       y2="175.34825" /><linearGradient
       inkscape:collect="always"
       xlink:href="#linearGradient10756"
       id="linearGradient111698"
       gradientUnits="userSpaceOnUse"
       gradientTransform="rotate(-7.1006597,263.91709,152.85746)"
       x1="246.27487"
       y1="171.21231"
       x2="250.85974"
       y2="156.09152" /><linearGradient
       inkscape:collect="always"
       xlink:href="#linearGradient10756"
       id="linearGradient111700"
       gradientUnits="userSpaceOnUse"
       gradientTransform="matrix(-0.73966623,0.6729739,0.6729739,0.73966623,352.12851,-159.35194)"
       x1="284.94162"
       y1="188.088"
       x2="277.29617"
       y2="175.34825" /><linearGradient
       inkscape:collect="always"
       xlink:href="#linearGradient10756"
       id="linearGradient111702"
       gradientUnits="userSpaceOnUse"
       gradientTransform="matrix(-0.49797,0.2932841,0.2932841,0.49797,372.17245,-5.9527688)"
       x1="249.58325"
       y1="176.42188"
       x2="250.85974"
       y2="156.09152" /><linearGradient
       inkscape:collect="always"
       xlink:href="#linearGradient10756"
       id="linearGradient111704"
       gradientUnits="userSpaceOnUse"
       gradientTransform="matrix(0.5759751,0.0473537,-0.0473537,0.5759751,135.10657,35.711044)"
       x1="281.80234"
       y1="190.40504"
       x2="277.29617"
       y2="175.34825" /><radialGradient
       inkscape:collect="always"
       xlink:href="#linearGradient26607"
       id="radialGradient111706"
       gradientUnits="userSpaceOnUse"
       gradientTransform="matrix(1.3712053,0.01271731,-0.00727424,0.78432309,3035.6596,-910.39796)"
       cx="321.08304"
       cy="252.77254"
       fx="321.08304"
       fy="252.77254"
       r="20.122107" /><radialGradient
       inkscape:collect="always"
       xlink:href="#wing"
       id="radialGradient111708"
       gradientUnits="userSpaceOnUse"
       gradientTransform="matrix(2.2171096,0.08191586,-0.07969525,2.1570069,2782.4878,-1237.2689)"
       cx="314.37875"
       cy="189.6337"
       fx="314.37875"
       fy="189.6337"
       r="63.387325" /><linearGradient
       inkscape:collect="always"
       xlink:href="#linearGradient14342"
       id="linearGradient111710"
       gradientUnits="userSpaceOnUse"
       gradientTransform="matrix(1.4475096,0,0,1.4475096,3009.3208,-1078.0607)"
       x1="268.08987"
       y1="80.088432"
       x2="310.10687"
       y2="148.84193" /><radialGradient
       inkscape:collect="always"
       xlink:href="#linearGradient18114"
       id="radialGradient111712"
       gradientUnits="userSpaceOnUse"
       gradientTransform="matrix(3.8460431,-0.07068651,0.06267117,3.4099319,2329.1671,-1297.3492)"
       cx="280.34158"
       cy="122.47706"
       fx="280.34158"
       fy="122.47706"
       r="46.759819" /><linearGradient
       inkscape:collect="always"
       xlink:href="#linearGradient18886"
       id="linearGradient111714"
       gradientUnits="userSpaceOnUse"
       gradientTransform="matrix(1.5030584,0,0,1.5030584,2992.9664,-1083.4572)"
       x1="287.96222"
       y1="77.041405"
       x2="288.10596"
       y2="101.23909" /><radialGradient
       inkscape:collect="always"
       xlink:href="#linearGradient24318"
       id="radialGradient111716"
       gradientUnits="userSpaceOnUse"
       gradientTransform="matrix(1.4475096,0,0,0.78435687,3009.3208,-899.71111)"
       cx="337.45746"
       cy="261.79041"
       fx="337.45746"
       fy="261.79041"
       r="24.01141" /><radialGradient
       inkscape:collect="always"
       xlink:href="#linearGradient20398"
       id="radialGradient111718"
       gradientUnits="userSpaceOnUse"
       gradientTransform="matrix(0.12574556,2.4051659,-3.0418387,0.15903176,3669.7212,-1649.8295)"
       cx="295.28143"
       cy="92.144058"
       fx="295.28143"
       fy="92.144058"
       r="11.718368" /><linearGradient
       inkscape:collect="always"
       xlink:href="#linearGradient15862"
       id="linearGradient111720"
       gradientUnits="userSpaceOnUse"
       gradientTransform="matrix(1.4475096,0,0,1.4475096,3009.3208,-1078.0607)"
       x1="259.25626"
       y1="114.24776"
       x2="258.34494"
       y2="107.52991" /><linearGradient
       inkscape:collect="always"
       xlink:href="#linearGradient15834"
       id="linearGradient111722"
       gradientUnits="userSpaceOnUse"
       gradientTransform="matrix(1.4475096,0,0,1.4475096,3009.3208,-1078.0607)"
       x1="228.03033"
       y1="93.55442"
       x2="278.17233"
       y2="102.12852" /><linearGradient
       inkscape:collect="always"
       xlink:href="#linearGradient18856"
       id="linearGradient111724"
       gradientUnits="userSpaceOnUse"
       gradientTransform="matrix(1.4287095,0.23253645,-0.23253645,1.4287095,3036.8884,-1146.0117)"
       x1="266.72531"
       y1="77.448639"
       x2="312.85709"
       y2="73.912933" /><linearGradient
       inkscape:collect="always"
       xlink:href="#linearGradient22042"
       id="linearGradient111726"
       gradientUnits="userSpaceOnUse"
       gradientTransform="rotate(-1.2280152,-35459.09,-59086.463)"
       x1="412.9035"
       y1="251.44148"
       x2="344.27167"
       y2="185.50041" /><linearGradient
       inkscape:collect="always"
       xlink:href="#linearGradient22042"
       id="linearGradient111728"
       gradientUnits="userSpaceOnUse"
       gradientTransform="rotate(-1.2280152,413.23758,250.0272)"
       x1="412.9035"
       y1="251.44148"
       x2="344.27167"
       y2="185.50041" /><linearGradient
       inkscape:collect="always"
       xlink:href="#linearGradient22042"
       id="linearGradient111730"
       gradientUnits="userSpaceOnUse"
       gradientTransform="rotate(-1.2280152,413.23758,250.0272)"
       x1="412.9035"
       y1="251.44148"
       x2="344.27167"
       y2="185.50041" /></defs><g
     inkscape:label="Layer 1"
     inkscape:groupmode="layer"
     id="layer1"
     style="display:inline"
     transform="translate(-3297.5894,979.04373)"><g
       id="g111835"
       transform="rotate(60.812119,3428.271,-860.85522)"><g
         id="g111500"
         transform="matrix(0.95710623,-1.0859244,-1.0859244,-0.95710623,2654.5845,-446.48087)"
         inkscape:export-filename="emote2.png"
         inkscape:export-xdpi="96"
         inkscape:export-ydpi="96"><path
           style="fill:url(#radialGradient111670);fill-opacity:1;stroke:none;stroke-width:0.879101;stroke-linecap:square;stroke-linejoin:miter;stroke-dasharray:none;stroke-opacity:1"
           d="m 635.15558,-250.81816 c 10.33988,38.84114 -9.27391,-13.92996 -11.18848,1.42192 -9.75852,78.24803 -128.57569,35.94914 -112.50512,88.24604 -136.41682,3.20041 101.62563,-172.56496 123.6936,-89.66796 z"
           id="path111498"
           sodipodi:nodetypes="sscs" /></g><g
         id="g111827"
         transform="matrix(0.98489277,0.1731653,0.1731653,-0.98489277,183.29369,-2200.8349)"><path
           style="color:#000000;opacity:0.505308;mix-blend-mode:normal;fill:#058bf4;stroke-width:1.25655;stroke-linejoin:bevel;filter:url(#filter33711)"
           d="m 474.34626,-601.36096 -0.016,-0.0539 c -19.3586,-22.37566 -46.82723,-37.92354 -96.87523,-52.86999 l 2.63282,1.37201 c 47.5331,15.80905 73.40551,32.01212 94.25861,51.55228 z"
           id="path111502"
           sodipodi:nodetypes="cccccc"
           inkscape:transform-center-x="-48.999908"
           inkscape:transform-center-y="25.501042"
           transform="matrix(1.4007446,0.36496395,-0.36496395,1.4007446,2554.3943,-67.62224)" /><path
           style="color:#000000;opacity:0.505308;mix-blend-mode:normal;fill:#058bf4;stroke-width:1.25655;stroke-linejoin:bevel;filter:url(#filter33715)"
           d="m 484.92276,-623.43443 -0.031,-0.0485 c -24.9625,-16.9352 -57.72493,-27.89479 -109.74513,-29.91607 l 0.33836,0.25374 c 49.8769,3.49049 83.87947,15.90954 109.43797,29.71048 z"
           id="path111504"
           sodipodi:nodetypes="cccccc"
           inkscape:transform-center-x="-57.025737"
           inkscape:transform-center-y="16.541396"
           transform="matrix(1.4007446,0.36496395,-0.36496395,1.4007446,2554.3943,-67.62224)" /><path
           style="color:#000000;opacity:0.505308;mix-blend-mode:normal;fill:#058bf4;stroke-width:1.25655;stroke-linejoin:bevel;filter:url(#filter33719)"
           d="m 488.07836,-646.62738 -0.041,-0.0421 c -27.8583,-12.01138 -60.84153,-17.40919 -111.65183,-9.50441 l 0.5772,0.50657 c 49.0549,-6.04225 83.36233,0.24455 111.11533,9.03969 z"
           id="path111506"
           sodipodi:nodetypes="cccccc"
           inkscape:transform-center-x="-54.46356"
           inkscape:transform-center-y="3.498292"
           transform="matrix(1.4007446,0.36496395,-0.36496395,1.4007446,2554.3943,-67.62224)" /></g></g><path
       id="path111510"
       style="fill:#ffffff;fill-opacity:0.795918;stroke:#333333;stroke-width:4.71282;stroke-linecap:round;stroke-linejoin:round;stroke-dasharray:none"
       d="m 3396.8326,-945.47238 v 27.8459 l -31.9928,-17.36704 v -27.8459"
       sodipodi:nodetypes="cccc"
       inkscape:export-filename="emote4.png"
       inkscape:export-xdpi="96"
       inkscape:export-ydpi="96" /><path
       style="fill:#058bf4;fill-opacity:1;stroke:none;stroke-width:1.44751;stroke-linecap:square;stroke-linejoin:miter;stroke-dasharray:none;stroke-opacity:1"
       d="m 3403.6165,-902.8517 c 0,0 -27.419,18.4437 -25.3327,31.84682 12.9733,83.34229 210.2615,140.77748 210.2615,140.77748 0,0 -74.8269,-135.45563 -93.0073,-176.60517 -12.3943,-28.05323 -91.9215,3.98087 -91.9215,3.98087 z"
       id="path111512"
       sodipodi:nodetypes="cacsc"
       inkscape:export-filename="eagle\side.png"
       inkscape:export-xdpi="96"
       inkscape:export-ydpi="96" /><path
       style="fill:#5fb8fb;fill-opacity:1;stroke:none;stroke-width:1.27251;stroke-linecap:square;stroke-linejoin:miter;stroke-dasharray:none;stroke-opacity:1"
       d="m 3428.0565,-868.15846 c 14.9712,-56.22182 65.0332,-54.41494 75.6838,-34.71572 l 87.8362,162.45881 c -56.7956,-28.46111 -187.4112,-38.02346 -163.52,-127.74309 z"
       id="path111514"
       sodipodi:nodetypes="sscs" /><g
       id="g111526"
       style="display:inline;opacity:0;fill:#7fc6fc;fill-opacity:1;stroke:#80c6fc;stroke-opacity:1"
       inkscape:label="head"
       transform="matrix(1.4475096,0,0,1.4475096,3320.494,-1061.6832)"><path
         style="display:inline;fill:#7fc6fc;fill-opacity:1;stroke:#80c6fc;stroke-width:0.152443;stroke-opacity:1"
         d="m 84.415081,149.2301 c 0.266732,-0.32087 0.271502,-0.3546 0.03811,-0.26949 -0.431851,0.15749 -0.315171,0.0384 0.538552,-0.54956 1.984786,-1.36697 5.758123,-7.61181 7.617013,-12.60609 2.017342,-5.41999 2.499398,-10.36166 1.613468,-16.54003 l -0.174873,-1.21954 -0.199431,0.97365 c -0.399969,1.9527 -1.229305,3.85258 -2.549511,5.84053 -0.987866,1.48751 -2.960945,3.73874 -4.312184,4.92008 -1.671634,1.46144 -2.026949,1.67452 -1.501731,0.90056 1.334384,-1.96632 1.603748,-6.60517 0.618594,-10.65307 -0.405345,-1.66551 -1.261155,-4.03973 -1.456163,-4.03973 -0.06741,0 -0.169261,0.18865 -0.226328,0.41922 -0.05707,0.23057 -0.519072,1.27671 -1.02668,2.32475 -1.184847,2.44632 -1.580228,3.58371 -1.797399,5.17058 -0.267406,1.95393 0.0691,3.82604 1.019143,5.66996 0.632792,1.22816 1.150597,1.7458 2.038008,2.03735 0.604164,0.1985 0.619322,0.21394 0.142518,0.14519 l -0.53355,-0.0769 0.381107,0.22901 0.381106,0.229 -0.416131,0.005 c -0.552774,0.007 -1.592055,-0.40464 -2.249848,-0.8915 -0.292481,-0.21648 -0.909874,-0.57362 -1.371984,-0.79364 -5.03354,-2.39656 -10.431208,-6.77859 -12.846645,-10.42938 -1.640831,-2.48002 -3.978292,-7.24197 -4.525717,-9.21993 -0.09878,-0.35693 -0.138747,-0.32607 -0.686416,0.53008 -1.043454,1.63118 -1.604486,3.43229 -1.40239,4.50218 0.210368,1.11367 1.34413,2.24726 1.83782,1.83754 0.140087,-0.11627 0.192306,-0.0982 0.192306,0.0666 0,0.12443 -0.06748,0.22624 -0.149953,0.22624 -0.08247,0 -0.499785,0.17015 -0.927359,0.37811 -1.409613,0.68558 -3.762295,0.7962 -4.826023,0.22691 -0.971481,-0.51992 -1.647032,-2.50649 -1.460204,-4.29396 l 0.09559,-0.91459 -0.539392,0.47359 c -1.159403,1.01797 -3.430703,1.86767 -6.307767,2.35975 -0.790327,0.13517 -1.819314,0.23677 -2.28664,0.22578 l -0.849682,-0.02 0.847644,-0.10929 c 1.098464,-0.14162 2.173059,-0.83333 3.584194,-2.30715 2.866878,-2.99423 4.032335,-5.94553 3.142363,-7.95746 -0.349753,-0.79067 -1.420821,-1.9315 -2.184183,-2.32643 -0.728232,-0.37676 -1.920946,-0.67073 -2.729894,-0.67284 -0.836569,-0.002 -1.059476,-0.19428 -1.059476,-0.91304 0,-0.65644 0.20184,-0.96968 1.545443,-2.398345 1.265351,-1.345465 1.716937,-2.162585 1.568765,-2.838593 -0.14784,-0.67449 -1.498076,-3.046631 -2.357485,-4.141711 -2.461773,-3.136854 -4.214024,-6.596672 -5.01837,-9.908772 -0.183253,-0.754592 -0.561351,-1.852179 -0.840217,-2.439083 -0.68227,-1.43591 -0.89479,-2.456706 -0.811392,-3.897356 0.05733,-0.990409 0.166123,-1.394166 0.622419,-2.310036 1.428008,-2.866277 5.10516,-6.001464 9.896313,-8.437725 7.548779,-3.83849 14.975266,-5.40038 24.129962,-5.074856 9.544192,0.339373 17.811774,3.078406 25.440239,8.428296 2.57085,1.802958 4.11223,3.135586 7.06549,6.108627 3.61144,3.635625 5.04632,5.324304 11.65782,13.719838 2.61182,3.316584 2.97219,3.631756 5.73936,5.019542 2.70968,1.358959 5.81138,2.366492 7.3012,2.371674 0.46296,0.0016 0.65441,0.06752 0.67075,0.230917 0.0126,0.125765 0.0297,0.306821 0.0381,0.402348 0.0164,0.186771 -0.59798,0.377829 -3.11626,0.969108 -2.66345,0.625367 -5.17391,0.786539 -6.84239,0.439279 l -0.36999,-0.07701 0.40815,0.50512 c 2.44214,3.022358 3.6859,7.773778 3.66372,13.996298 -0.0109,3.05659 -0.13861,4.39092 -0.68579,7.1648 -0.90046,4.56474 -3.43757,10.93236 -5.86134,14.71072 -0.48406,0.75459 -1.11399,1.85218 -1.39984,2.43908 -0.9748,2.00147 -1.52181,2.68758 -0.95647,1.19969 1.31783,-3.46824 0.27891,-8.62552 -2.65233,-13.16644 -1.48549,-2.30122 -5.68628,-6.93265 -8.15119,-8.98682 -0.77308,-0.64424 -0.80242,-0.6555 -0.5782,-0.2219 0.62484,1.20829 0.92748,3.35123 0.71388,5.05472 -0.56232,4.48461 -3.93321,9.98785 -9.827741,16.04453 -1.019985,1.04804 -2.008158,2.11133 -2.195939,2.36286 -1.920802,2.57287 -5.668588,5.64424 -10.548391,8.64457 -0.369146,0.22697 -0.979871,0.67193 -1.357166,0.98881 -0.377296,0.31687 -0.548794,0.41108 -0.381107,0.20936 z m 4.801943,-4.22961 c 2.720633,-2.44845 7.573877,-7.06604 8.204527,-7.80616 2.594249,-3.04454 5.266399,-7.17977 7.033939,-10.88526 2.53232,-5.30876 2.80286,-8.40576 0.99493,-11.3895 -0.47096,-0.77726 -1.92434,-2.33464 -2.81844,-3.02014 -0.44317,-0.33977 -2.11873,-1.19992 -2.894784,-1.48604 -0.487238,-0.17964 -0.499795,-0.19828 -0.140189,-0.20806 1.604793,-0.0436 7.393773,2.97115 11.190653,5.82788 5.32066,4.00321 8.58556,8.24098 9.79057,12.70798 0.35891,1.33049 0.40558,1.78666 0.41381,4.04489 0.0106,2.90924 -0.0162,2.90866 1.05538,0.0226 1.32998,-3.58201 2.57604,-8.73526 3.31174,-13.6962 0.44739,-3.01681 0.56932,-9.04815 0.23421,-11.58564 -0.42735,-3.23596 -1.14119,-5.39451 -2.52446,-7.633597 -1.17777,-1.906433 -1.65982,-2.379888 -3.15214,-3.095956 -1.38632,-0.665201 -3.75909,-2.158556 -5.12818,-3.227531 -2.00079,-1.56219 -5.04842,-4.908478 -6.67961,-7.33419 -0.59805,-0.889337 -0.44593,-0.767285 1.93177,1.549949 4.74426,4.623622 10.14839,8.203249 14.16186,9.380634 1.68063,0.493025 4.06919,0.653566 5.68043,0.381796 0.6068,-0.10235 1.10263,-0.231341 1.10184,-0.286649 -0.002,-0.116737 -2.26851,-0.859423 -2.55199,-0.836104 -0.1048,0.0086 -0.19055,-0.04315 -0.19055,-0.115044 0,-0.07189 -0.11415,-0.08692 -0.25367,-0.03338 -0.18419,0.07068 -0.21949,0.04204 -0.12889,-0.104559 0.0856,-0.138483 0.0661,-0.16565 -0.062,-0.08649 -0.25868,0.159875 -1.85121,-0.660459 -3.13788,-1.616369 -0.58691,-0.43603 -2.57842,-2.306916 -4.42559,-4.157527 -2.98598,-2.991542 -4.27414,-4.373602 -8.74795,-9.385613 -2.00039,-2.241041 -5.699,-6.011115 -7.10133,-7.238543 C 98.445874,68.489238 91.629124,64.870854 84.57155,63.17051 80.538294,62.1988 77.184522,61.818625 72.600776,61.813537 c -4.981989,-0.0055 -7.965989,0.411818 -11.761532,1.644988 -10.68237,3.4707 -18.226859,9.618115 -17.763954,14.474458 0.232465,2.438801 1.331872,5.517847 3.644741,10.207613 1.672648,3.3916 2.499384,4.747626 3.778052,6.196814 1.123012,1.272775 1.558115,2.134103 1.558115,3.084438 0,0.833543 -0.331317,1.430821 -1.526853,2.752522 -0.79849,0.88275 -1.305107,1.57345 -1.45125,1.97857 -0.142124,0.39398 0.403497,0.68117 1.802734,0.94889 0.666036,0.12743 1.589494,0.4166 2.052128,0.64259 1.185892,0.57929 2.330036,1.76514 2.584918,2.67913 0.280951,1.00747 0.145519,2.60242 -0.294321,3.46616 -1.008308,1.98006 -3.39082,4.26139 -5.966436,5.71305 -1.172832,0.66103 -0.822697,0.6105 1.770142,-0.25546 2.14531,-0.71649 2.823476,-1.04571 4.299201,-2.08702 1.189166,-0.83911 1.543732,-1.25098 2.376666,-2.7608 0.300655,-0.54498 0.905262,-1.33387 1.34357,-1.75309 0.563181,-0.53865 0.70612,-0.62808 0.487334,-0.30489 -0.947713,1.39996 -1.702002,3.42017 -2.024584,5.42243 -0.449747,2.79156 0.728793,4.55098 3.0831,4.60269 0.525876,0.0116 1.217009,-0.0679 1.535854,-0.17648 l 0.579715,-0.19749 -0.896985,-0.42421 c -1.018091,-0.48148 -1.483299,-0.98915 -1.723355,-1.88064 -0.409409,-1.52043 0.46718,-3.52163 2.399417,-5.47769 0.476868,-0.48275 0.952521,-0.87773 1.057004,-0.87773 0.104484,0 0.298479,-0.0416 0.431101,-0.0925 0.186805,-0.0717 0.241133,0.0103 0.241133,0.36405 0,0.25112 0.175007,1.0605 0.388905,1.79862 0.878529,3.03162 5.837245,9.7251 9.905865,13.37135 1.610431,1.44325 4.906569,4.02442 5.81971,4.55735 l 0.441233,0.25751 -0.487222,-0.96806 c -1.275416,-2.53412 -1.009245,-6.04141 0.694465,-9.15085 0.321574,-0.58691 0.96682,-1.7493 1.433881,-2.5831 0.472165,-0.84291 0.924885,-1.88057 1.019665,-2.33711 0.168043,-0.80947 0.162635,-0.83291 -0.381095,-1.65182 -0.303358,-0.45689 -0.82387,-1.10302 -1.156695,-1.43585 -1.213265,-1.21326 0.03089,-0.4133 1.709608,1.09923 0.767742,0.69174 2.564833,3.48912 3.160154,4.91915 1.03125,2.47718 1.383382,4.81917 1.08989,7.24877 -0.188693,1.56203 -0.631652,3.23929 -1.097079,4.15406 -0.15997,0.31441 -0.258628,0.57166 -0.219239,0.57166 0.105834,0 1.35117,-1.77817 1.921729,-2.74397 1.55718,-2.63586 2.821309,-5.79815 3.344892,-8.36741 0.567989,-2.78717 0.344503,-6.47345 -0.53395,-8.80729 -0.211371,-0.56156 -0.361606,-1.08914 -0.333854,-1.17239 0.06082,-0.18248 1.293849,1.65643 1.824965,2.72172 0.987321,1.98032 2.664309,7.92401 3.083298,10.92803 0.291529,2.09018 0.29635,5.70268 0.01014,7.60129 -0.772608,5.1252 -3.2541,10.36149 -7.274914,15.35106 -0.489844,0.60786 -0.838628,1.10421 -0.775073,1.10299 0.06355,-0.001 0.698645,-0.52698 1.411314,-1.16835 z"
         id="path111516" /><path
         style="fill:#7fc6fc;fill-opacity:1;stroke:#80c6fc;stroke-width:5.05071;stroke-linecap:square;stroke-linejoin:miter;stroke-dasharray:none;stroke-opacity:1"
         d="m 332.77353,551.7774 c 0.34376,-0.36261 9.15226,-12.07126 11.38776,-15.32046 5.75476,-8.36425 14.22677,-26.62114 16.52838,-35.61807 3.12866,-12.22981 3.8891,-25.10995 2.22208,-37.63689 -2.67892,-20.13086 -11.74446,-47.09834 -17.62047,-52.41605 -3.02305,-2.73583 -3.01184,-2.87925 -0.42843,5.48179 3.09821,10.02712 2.73583,27.44721 -0.80614,38.75365 -2.97272,9.48929 -12.16018,28.73811 -13.58634,28.73811 -0.42908,0 1.75883,-7.57335 2.26345,-11.92128 2.00954,-17.31422 -7.61786,-40.57339 -20.82824,-50.31971 -5.86648,-4.32814 -6.5022,-3.05817 -1.38601,2.76884 2.30276,2.6227 4.18684,5.79832 4.18684,7.05695 0,1.25861 -3.15708,8.54459 -7.01575,16.19105 -6.62829,13.13487 -7.01574,14.46349 -7.01574,24.05768 0,5.58526 5.95521,15.14711 6.59306,16.91763 2.86326,7.94791 -34.08407,-24.37966 -47.07291,-41.57599 -8.10074,-10.72482 -16.31431,-26.25472 -16.31431,-30.84648 0,-4.57109 -3.98262,-4.04478 -8.94257,1.1818 -8.99334,9.47675 -11.0812,20.0539 -5.06002,25.63415 2.81819,2.61181 3.37904,1.95609 1.61598,2.63264 -3.80615,1.46056 -11.19233,-1.2615 -12.77598,-5.80436 -1.86397,-5.34699 -0.055,-15.69952 4.28421,-24.51873 3.82833,-7.78078 1.74641,-7.53967 -4.23776,0.4908 -7.02671,9.42947 -9.68861,11.90751 -16.49726,15.35771 -9.13017,4.62661 -13.31677,6.43176 -6.84341,0.67536 8.97038,-7.97687 15.04849,-16.71546 15.04849,-24.8722 0,-6.35708 -0.44521,-7.41581 -4.68312,-11.13675 -2.57571,-2.26151 -7.98786,-5.07255 -12.02699,-6.24676 -4.03914,-1.17421 -7.33749,-2.54327 -7.32968,-3.04235 0.008,-0.49908 2.40682,-3.91417 5.33113,-7.58909 7.31907,-9.19771 7.1109,-12.61934 -1.47262,-24.20542 -12.07755,-16.30233 -26.59037,-49.9192 -26.59037,-61.59277 0,-10.33152 9.1305,-21.91031 26.27065,-33.31497 30.02809,-19.98001 64.6666,-28.34243 102.01731,-24.629 30.82777,3.06491 55.25484,11.61222 80.90713,28.31033 15.26385,9.93585 28.85754,22.83949 69.83473,66.28975 24.57392,26.05702 37.70066,30.19448 48.55466,34.16477 10.56565,3.86483 -0.2664,6.03711 -13.72211,3.95436 -16.83001,-2.60504 -36.97333,-14.4099 -58.15336,-34.0804 -6.26215,-5.81584 -11.72057,-10.23942 -12.1298,-9.83018 -1.24028,1.24027 9.96431,14.83355 20.17317,24.47387 5.28755,4.99308 13.41515,11.18306 18.06133,13.7555 4.64619,2.57244 10.38472,6.30076 12.75233,8.28513 6.26134,5.24792 12.56975,18.68286 14.96172,31.86382 4.07763,22.46984 -0.42592,61.60683 -10.6036,92.14801 l -6.17928,15.53487 1.33224,-10.8577 c 2.6565,-21.65029 -13.78242,-42.49118 -40.14455,-62.03751 -11.22362,-8.3218 -31.56399,-19.31142 -38.44888,-20.77341 -5.94793,-1.26302 -5.44543,0.0206 1.33633,3.41363 7.23745,3.62102 15.20518,11.1797 18.48781,17.53865 7.54392,14.61371 -1.68507,40.99741 -25.6946,73.45563 -5.95006,8.04382 -47.03701,47.91268 -40.54049,41.06005 z"
         id="path111518"
         transform="scale(0.26458333)"
         sodipodi:nodetypes="sssssssssssssssssssssssssssscsssssssssssssssscsssssss" /><path
         style="fill:#7fc6fc;fill-opacity:1;stroke:#80c6fc;stroke-width:1;stroke-linecap:square;stroke-linejoin:miter;stroke-dasharray:none;stroke-opacity:1"
         d="m 50.721336,114.6621 -2.312617,1.43757 2.437625,-0.37502 z"
         id="path111520" /><path
         style="fill:#7fc6fc;fill-opacity:1;stroke:#80c6fc;stroke-width:1;stroke-linecap:square;stroke-linejoin:miter;stroke-dasharray:none;stroke-opacity:1"
         d="m 61.909409,117.53724 0.781288,0.40627 0.218763,0.0938 -0.468774,0.25001 -0.906297,0.12501 z"
         id="path111522" /><path
         style="fill:#7fc6fc;fill-opacity:1;stroke:#80c6fc;stroke-width:1;stroke-linecap:square;stroke-linejoin:miter;stroke-dasharray:none;stroke-opacity:1"
         d="m 86.910684,128.13154 0.843791,0.28126 -1.437571,1.53133 z"
         id="path111524" /></g><path
       style="display:inline;fill:#ffffff;fill-opacity:1;stroke:#ffffff;stroke-width:1.93435;stroke-linecap:square;stroke-linejoin:miter;stroke-dasharray:none;stroke-opacity:1"
       d="m 3426.6921,-914.56321 c -6.5727,-1.83233 -10.3957,-4.74947 -12.9015,-9.84424 -1.6687,-3.39298 -1.6845,-3.49435 -1.6536,-10.59832 0.029,-6.7086 0.1317,-7.43862 1.5873,-11.2848 2.5065,-6.62302 5.6003,-10.6345 10.3596,-13.43274 6.1174,-3.59688 17.44,0.60281 24.4785,9.07946 1.5561,1.87406 3.995,5.8255 5.5411,8.97728 3.3955,6.92253 4.9361,12.97417 4.7252,18.56182 l -0.1492,3.95729 -2.3224,1.15345 c -1.2773,0.6344 -4.6167,1.75522 -7.4211,2.49073 -6.5155,1.70888 -17.7787,2.18488 -22.2439,0.94007 z"
       id="path111528" /><path
       style="display:inline;fill:#000000;stroke-width:0.219509"
       d="m 3426.2855,-911.53072 c -4.3927,-0.59803 -8.4624,-2.15387 -10.9806,-4.19791 -3.8371,-3.11459 -5.7122,-8.86231 -5.143,-15.76516 0.1,-1.2073 0.2763,-4.31885 0.3927,-6.91455 0.2374,-5.29735 0.525,-7.10018 1.6737,-10.49216 2.5556,-7.54595 7.4839,-12.40278 13.9381,-13.73593 4.5046,-0.93047 7.5703,-0.87137 11.4043,0.21987 2.3451,0.66746 6.6566,2.79468 8.6715,4.27839 2.3332,1.71815 6.1725,5.72691 7.7562,8.09881 5.0091,7.5014 7.8864,18.16953 6.8261,25.3083 -0.2787,1.87719 -1.0377,4.75766 -1.357,5.15095 -0.415,0.51105 0.019,0.54331 0.7558,0.0562 0.6565,-0.43443 0.6421,-0.40341 -0.152,0.32443 -2.3224,2.12856 -8.3782,4.71141 -14.3779,6.13218 -7.2883,1.72594 -14.0722,2.26307 -19.4079,1.53664 z m 17.2617,-2.48051 c 4.8278,-0.86506 10.8416,-2.5854 13.9282,-3.98436 1.3278,-0.60186 1.359,-0.63579 1.5366,-1.67826 0.1,-0.5852 0.1725,-2.64445 0.162,-4.57614 -0.022,-4.0872 -0.423,-6.35205 -1.9365,-10.9505 -3.5628,-10.8245 -9.6448,-18.93737 -17.3467,-23.1389 -3.483,-1.89997 -6.5217,-2.84323 -9.8183,-3.04765 -2.4915,-0.15449 -3.5243,0.0572 -5.8212,1.19287 -3.5621,1.7614 -6.7546,5.07628 -8.931,9.27379 -1.3133,2.53304 -2.5633,6.01026 -3.0774,8.56087 -0.9586,4.75675 -1.019,11.33351 -0.1331,14.59737 1.0594,3.90649 3.3379,7.48218 6.1574,9.66281 2.8569,2.20958 6.4187,3.58439 11.3739,4.39023 2.8605,0.46518 10.5577,0.29793 13.9067,-0.30213 z"
       id="path111530" /><ellipse
       style="fill:#000000;fill-opacity:1;stroke:none;stroke-width:1.55134;stroke-linecap:square;stroke-linejoin:miter;stroke-dasharray:none;stroke-opacity:1"
       id="ellipse111532"
       cx="3431.4263"
       cy="-937.06049"
       rx="16.96245"
       ry="19.905289" /><path
       style="fill:none;fill-opacity:1;stroke:none;stroke-width:1.44751;stroke-linecap:square;stroke-linejoin:miter;stroke-dasharray:none;stroke-opacity:1"
       d="m 3452.5378,-944.99325 -15.6098,8.18876 15.8658,11.77135 z"
       id="path111534" /><ellipse
       style="fill:#ffffff;fill-opacity:1;stroke:none;stroke-width:1.53536;stroke-linecap:square;stroke-linejoin:miter;stroke-dasharray:none;stroke-opacity:1"
       id="ellipse111536"
       cx="3442.0007"
       cy="-937.55292"
       rx="12.033036"
       ry="6.6950736" /><path
       style="fill:#c37b11;fill-opacity:1;stroke:none;stroke-width:1.44751;stroke-linecap:square;stroke-linejoin:miter;stroke-dasharray:none;stroke-opacity:1"
       d="m 3403.917,-924.77723 c 0.9639,2.89891 4.3174,5.79781 1.9397,8.69672 -16.6303,13.69683 -41.1647,2.14595 -49.5368,12.41495 l 3.0707,-13.17881 z"
       id="path111538"
       sodipodi:nodetypes="ccccc" /><path
       style="fill:#ec991f;fill-opacity:1;stroke:none;stroke-width:1.44751;stroke-linecap:square;stroke-linejoin:miter;stroke-dasharray:none;stroke-opacity:1"
       d="m 3403.917,-924.77723 c -18.5938,-5.76532 -12.5183,-28.06901 -25.3339,-25.84581 -8.0364,1.77807 -32.397,18.75579 -34.0345,23.7986 -3.2853,10.11692 -0.7335,25.05174 11.3874,33.01099 -0.6217,-39.61643 35.2051,-15.27907 47.981,-30.96378 z"
       id="path111540"
       sodipodi:nodetypes="ccscc" /><path
       style="fill:#058bf4;fill-opacity:1;stroke:none;stroke-width:1.44751;stroke-linecap:square;stroke-linejoin:miter;stroke-dasharray:none;stroke-opacity:1"
       d="m 3388.3564,-958.08802 c 0,0 8.785,5.34806 22.3913,-9.3403 13.3301,-14.3902 26.5267,-9.2345 42.2232,3.83848 0.2067,0.17215 -28.6358,-8.03584 -36.1438,2.7663 -6.6354,9.54668 -32.1982,19.22587 -28.4707,2.73552 z"
       id="path111542"
       sodipodi:nodetypes="sssss" /><g
       id="g111548"
       transform="matrix(1.6811129,0.10231885,-0.09705788,1.7722367,3310.6679,-1141.3894)"><path
         style="color:#000000;fill:#5fb8fb;stroke-linejoin:bevel"
         d="m 189.95624,229.60044 c -29.88322,-26.24118 -45.6447,-54.8252 -53.1241,-76.50401"
         id="path111544" /><path
         style="color:#000000;fill:#058bf4;stroke-linejoin:bevel"
         d="m 137.30469,152.93359 -0.008,0.0449 c 5.63074,22.50546 22.59805,50.25367 52.55101,76.55609 l 0.0856,0.0436 c -27.86878,-26.17989 -44.92589,-55.79247 -52.62885,-76.64459 z"
         id="path111546"
         sodipodi:nodetypes="cccccc" /></g><g
       id="g111554"
       inkscape:transform-center-x="38.634255"
       inkscape:transform-center-y="-40.260563"
       transform="matrix(1.6561735,-0.32088386,0.30438484,1.7459455,3223.2713,-1054.885)"><path
         style="color:#000000;fill:#5fb8fb;stroke-linejoin:bevel"
         d="m 189.95624,229.60044 c -29.88322,-26.24118 -45.6447,-54.8252 -53.1241,-76.50401"
         id="path111550" /><path
         style="color:#000000;fill:#058bf4;stroke-linejoin:bevel"
         d="m 137.30469,152.93359 -0.008,0.0449 c 5.63074,22.50546 22.59805,50.25367 52.55101,76.55609 l 0.0856,0.0436 c -27.86878,-26.17989 -44.92589,-55.79247 -52.62885,-76.64459 z"
         id="path111552"
         sodipodi:nodetypes="cccccc" /></g><g
       id="g111560"
       inkscape:transform-center-x="46.753444"
       inkscape:transform-center-y="-29.165239"
       transform="matrix(1.5317623,-0.73738947,0.69947482,1.6147906,3156.2468,-945.58578)"><path
         style="color:#000000;fill:#5fb8fb;stroke-linejoin:bevel"
         d="m 189.95624,229.60044 c -29.88322,-26.24118 -45.6447,-54.8252 -53.1241,-76.50401"
         id="path111556" /><path
         style="color:#000000;fill:#058bf4;stroke-linejoin:bevel"
         d="m 137.30469,152.93359 -0.008,0.0449 c 5.63074,22.50546 22.59805,50.25367 52.55101,76.55609 l 0.0856,0.0436 c -27.86878,-26.17989 -44.92589,-55.79247 -52.62885,-76.64459 z"
         id="path111558"
         sodipodi:nodetypes="cccccc" /></g><path
       style="fill:url(#linearGradient111672);fill-opacity:1;stroke:none;stroke-width:1.44751;stroke-linecap:square;stroke-linejoin:miter;stroke-dasharray:none;stroke-opacity:1"
       d="m 3403.6165,-902.8517 c 0,0 -45.3755,20.11164 -43.2456,39.52378 10.7099,97.60969 248.805,164.55565 250.1817,164.32021 0,0 -96.8342,-166.67532 -115.0146,-207.82486 -12.3943,-28.05323 -91.9215,3.98087 -91.9215,3.98087 z"
       id="path111562"
       sodipodi:nodetypes="cscsc" /><g
       id="g111600"
       style="opacity:0.75"
       transform="matrix(1.4475096,0,0,1.4475096,3009.3208,-1078.0607)"><g
         id="g111570"
         transform="matrix(-0.92480689,0.38043687,0.38043687,0.92480689,461.07046,-78.39208)"
         style="opacity:0.0973598;fill:url(#linearGradient111680);fill-opacity:1"
         clip-path="url(#clipPath11549)"><path
           style="fill:url(#linearGradient111674);fill-opacity:1;stroke-width:1;stroke-linejoin:bevel"
           d="m 246.08743,143.70727 c -8.68239,7.55464 -0.3913,15.97525 2.45914,23.27168 1.82614,4.67447 1.48427,11.91109 1.48427,11.91109 2.20221,-1.10232 13.63991,-22.46966 4.70144,-20.87101 -2.71835,0.48617 6.02676,-0.29708 3.9383,7.93711 8.76126,-4.62843 0.1206,-15.67381 -3.54105,-18.18298 z"
           id="path111564"
           sodipodi:nodetypes="cscsccc" /><path
           style="fill:url(#linearGradient111676);fill-opacity:1;stroke-width:1;stroke-linejoin:bevel"
           d="m 256.84292,148.31409 c 1.31931,1.11114 9.46336,10.6165 5.43412,21.91111 5.41244,-10.82719 12.27615,-1.2127 14.8948,7.07357 1.40409,-2.0232 1.19694,-26.25831 -5.88072,-20.56987 -2.15244,1.72997 5.14648,-3.15022 7.26157,5.07718 4.87786,-14.00739 -12.80723,-14.44531 -21.70977,-13.49199 z"
           id="path111566"
           sodipodi:nodetypes="cccscc" /><path
           style="fill:url(#linearGradient111678);fill-opacity:1;stroke-width:0.577918;stroke-linejoin:bevel"
           d="m 287.21762,142.99366 c -0.21233,0.97396 -0.58997,8.19796 5.23737,11.94905 -6.2959,-3.04936 -6.04879,3.77316 -4.32621,8.49074 -1.35629,-0.43136 -9.80649,-11.60158 -4.55997,-11.49238 1.59556,0.0332 -3.4673,0.37213 -1.53489,4.88519 -7.17242,-4.69406 0.77112,-11.13018 5.1837,-13.8326 z"
           id="path111568"
           sodipodi:nodetypes="cccscc" /></g><g
         id="g111580"
         transform="translate(-0.35357142,0.92488531)"
         style="opacity:0.29703;fill:url(#linearGradient111690);fill-opacity:1"
         clip-path="url(#clipPath11517)"><path
           style="fill:url(#linearGradient111682);fill-opacity:1;stroke-width:1;stroke-linejoin:bevel"
           d="m 246.08743,143.70727 c -8.68239,7.55464 -0.3913,15.97525 2.45914,23.27168 1.82614,4.67447 1.48427,11.91109 1.48427,11.91109 2.20221,-1.10232 13.63991,-22.46966 4.70144,-20.87101 -2.71835,0.48617 6.02676,-0.29708 3.9383,7.93711 8.76126,-4.62843 0.1206,-15.67381 -3.54105,-18.18298 z"
           id="path111572"
           sodipodi:nodetypes="cscsccc" /><path
           style="fill:url(#linearGradient111684);fill-opacity:1;stroke-width:1;stroke-linejoin:bevel"
           d="m 256.84292,148.31409 c 1.31931,1.11114 9.46336,10.6165 5.43412,21.91111 5.41244,-10.82719 12.27615,-1.2127 14.8948,7.07357 1.40409,-2.0232 1.19694,-26.25831 -5.88072,-20.56987 -2.15244,1.72997 5.14648,-3.15022 7.26157,5.07718 4.87786,-14.00739 -12.80723,-14.44531 -21.70977,-13.49199 z"
           id="path111574"
           sodipodi:nodetypes="cccscc" /><path
           style="fill:url(#linearGradient111686);fill-opacity:1;stroke-width:0.577918;stroke-linejoin:bevel"
           d="m 290.5182,137.09193 c 6.63935,0.39792 5.8119,7.17705 7.07934,11.5231 0.81199,2.78431 3.5201,5.97739 3.5201,5.97739 -1.39706,0.27174 -14.16827,-5.47949 -9.51169,-7.89909 1.41614,-0.73584 -2.86439,1.98895 0.9952,5.02299 -5.64369,0.96979 -5.58165,-7.13447 -4.7897,-9.57448 z"
           id="path111576"
           sodipodi:nodetypes="cscsccc" /><path
           style="fill:url(#linearGradient111688);fill-opacity:1;stroke-width:0.577918;stroke-linejoin:bevel"
           d="m 287.21762,142.99366 c -0.21233,0.97396 -0.58997,8.19796 5.23737,11.94905 -6.2959,-3.04936 -6.04879,3.77316 -4.32621,8.49074 -1.35629,-0.43136 -9.80649,-11.60158 -4.55997,-11.49238 1.59556,0.0332 -3.4673,0.37213 -1.53489,4.88519 -7.17242,-4.69406 0.77112,-11.13018 5.1837,-13.8326 z"
           id="path111578"
           sodipodi:nodetypes="cccscc" /></g><g
         id="g111588"
         transform="matrix(-0.92480689,0.38043687,0.38043687,0.92480689,460.82045,-79.392131)"><path
           style="fill:url(#linearGradient111692);fill-opacity:1;stroke-width:1;stroke-linejoin:bevel"
           d="m 246.08743,143.70727 c -8.68239,7.55464 -0.3913,15.97525 2.45914,23.27168 1.82614,4.67447 1.48427,11.91109 1.48427,11.91109 2.20221,-1.10232 13.63991,-22.46966 4.70144,-20.87101 -2.71835,0.48617 6.02676,-0.29708 3.9383,7.93711 8.76126,-4.62843 0.1206,-15.67381 -3.54105,-18.18298 z"
           id="path111582"
           sodipodi:nodetypes="cscsccc" /><path
           style="fill:url(#linearGradient111694);fill-opacity:1;stroke-width:1;stroke-linejoin:bevel"
           d="m 256.84292,148.31409 c 1.31931,1.11114 9.46336,10.6165 5.43412,21.91111 5.41244,-10.82719 12.27615,-1.2127 14.8948,7.07357 1.40409,-2.0232 1.19694,-26.25831 -5.88072,-20.56987 -2.15244,1.72997 5.14648,-3.15022 7.26157,5.07718 4.87786,-14.00739 -12.80723,-14.44531 -21.70977,-13.49199 z"
           id="path111584"
           sodipodi:nodetypes="cccscc" /><path
           style="fill:url(#linearGradient111696);fill-opacity:1;stroke-width:0.577918;stroke-linejoin:bevel"
           d="m 287.21762,142.99366 c -0.21233,0.97396 -0.58997,8.19796 5.23737,11.94905 -6.2959,-3.04936 -6.04879,3.77316 -4.32621,8.49074 -1.35629,-0.43136 -9.80649,-11.60158 -4.55997,-11.49238 1.59556,0.0332 -3.4673,0.37213 -1.53489,4.88519 -7.17242,-4.69406 0.77112,-11.13018 5.1837,-13.8326 z"
           id="path111586"
           sodipodi:nodetypes="cccscc" /></g><g
         id="g111598"
         transform="translate(-0.35357142,-1.2500637)"><path
           style="fill:url(#linearGradient111698);fill-opacity:1;stroke-width:1;stroke-linejoin:bevel"
           d="m 246.08743,143.70727 c -8.68239,7.55464 -0.3913,15.97525 2.45914,23.27168 1.82614,4.67447 1.48427,11.91109 1.48427,11.91109 2.20221,-1.10232 13.63991,-22.46966 4.70144,-20.87101 -2.71835,0.48617 6.02676,-0.29708 3.9383,7.93711 8.76126,-4.62843 0.1206,-15.67381 -3.54105,-18.18298 z"
           id="path111590"
           sodipodi:nodetypes="cscsccc" /><path
           style="fill:url(#linearGradient111700);fill-opacity:1;stroke-width:1;stroke-linejoin:bevel"
           d="m 256.84292,148.31409 c 1.31931,1.11114 9.46336,10.6165 5.43412,21.91111 5.41244,-10.82719 12.27615,-1.2127 14.8948,7.07357 1.40409,-2.0232 1.19694,-26.25831 -5.88072,-20.56987 -2.15244,1.72997 5.14648,-3.15022 7.26157,5.07718 4.87786,-14.00739 -12.80723,-14.44531 -21.70977,-13.49199 z"
           id="path111592"
           sodipodi:nodetypes="cccscc" /><path
           style="fill:url(#linearGradient111702);fill-opacity:1;stroke-width:0.577918;stroke-linejoin:bevel"
           d="m 290.5182,137.09193 c 6.63935,0.39792 5.8119,7.17705 7.07934,11.5231 0.81199,2.78431 3.5201,5.97739 3.5201,5.97739 -1.39706,0.27174 -14.16827,-5.47949 -9.51169,-7.89909 1.41614,-0.73584 -2.86439,1.98895 0.9952,5.02299 -5.64369,0.96979 -5.58165,-7.13447 -4.7897,-9.57448 z"
           id="path111594"
           sodipodi:nodetypes="cscsccc" /><path
           style="fill:url(#linearGradient111704);fill-opacity:1;stroke-width:0.577918;stroke-linejoin:bevel"
           d="m 287.21762,142.99366 c -0.21233,0.97396 -0.58997,8.19796 5.23737,11.94905 -6.2959,-3.04936 -6.04879,3.77316 -4.32621,8.49074 -1.35629,-0.43136 -9.80649,-11.60158 -4.55997,-11.49238 1.59556,0.0332 -3.4673,0.37213 -1.53489,4.88519 -7.17242,-4.69406 0.77112,-11.13018 5.1837,-13.8326 z"
           id="path111596"
           sodipodi:nodetypes="cccscc" /></g></g><path
       style="opacity:0.324841;fill:#333333;fill-opacity:1;stroke:none;stroke-width:0.879101;stroke-linecap:square;stroke-linejoin:miter;stroke-dasharray:none;stroke-opacity:1;filter:url(#filter20792)"
       d="m 287.86221,148.94391 c 9.20506,-39.12561 43.67876,-38.80914 51.56355,-25.49839 l 76.50303,129.14903 C 376.13502,234.08561 273.17263,211.38115 287.86221,148.94391 Z"
       id="path111602"
       sodipodi:nodetypes="sscs"
       clip-path="url(#clipPath20798)"
       transform="matrix(1.4475096,0,0,1.4475096,3009.3208,-1078.0607)" /><path
       style="fill:url(#radialGradient111706);fill-opacity:1;stroke:none;stroke-width:1.28365;stroke-linecap:square;stroke-linejoin:miter;stroke-dasharray:none;stroke-opacity:1"
       d="m 3512.5475,-718.76274 c 5.383,0.34754 15.4457,3.07144 11.546,8.19717 -8.3891,11.02649 -24.9172,4.45923 -29.7003,14.94981 -2.7232,7.71566 4.0847,5.67328 4.0847,5.67328 0,0 -6.581,3.85782 -11.3466,2.04238 -4.7655,-1.81545 -25.4162,-20.87768 -19.2891,-25.18935 6.1272,-4.31169 29.7154,-6.64114 44.7053,-5.67329 z"
       id="path111604"
       sodipodi:nodetypes="ssccsss" /><path
       style="fill:url(#radialGradient111708);fill-opacity:1;stroke:none;stroke-width:1.27251;stroke-linecap:square;stroke-linejoin:miter;stroke-dasharray:none;stroke-opacity:1"
       d="m 3428.0565,-868.15846 c 14.9712,-56.22182 64.8376,-54.30795 75.6838,-34.71572 l 105.2373,190.0959 c -56.7957,-28.4611 -204.8123,-65.66055 -180.9211,-155.38018 z"
       id="path111606"
       sodipodi:nodetypes="sscs" /><path
       style="opacity:0.113861;mix-blend-mode:normal;fill:#333333;fill-opacity:1;stroke:none;stroke-width:1;stroke-linecap:square;stroke-linejoin:miter;stroke-dasharray:none;stroke-opacity:1;filter:url(#filter14350)"
       d="M 267.83036,118.0881 256.33929,89.80238 c 7.264,-16.858781 55.5673,-33.67666 80.26071,13.61251 5.2415,5.84195 8.92433,6.16963 13.25893,6.54107 l -10.78392,2.82857 c 13.23689,13.48714 -1.14853,29.4671 -3.71251,39.06965 -1.78716,-2.9786 -1.54916,-14.70963 -12.19821,-22.27501 0.5191,22.13657 -9.67817,26.18621 -24.21965,34.29643 12.65009,-17.25721 12.27459,-25.04125 9.54643,-31.11428 0.35425,11.02971 -7.24821,12.90535 -7.24821,12.90535 3.02545,-9.30049 0.36757,-12.40099 -1.59107,-16.26428 -6.97099,9.68253 -5.44451,15.15906 -1.2375,17.85536 -15.08918,-2.68592 -17.29378,-14.51761 -20.33036,-22.45179 -5.53044,2.53393 -3.56267,5.06786 -1.2375,7.60179 -4.62789,0.13057 -7.14413,-1.20077 -5.65715,-5.30358 l -9.89999,3.88929 c 6.95962,-3.86798 6.54107,-12.90536 6.54107,-12.90536 z"
       id="path111608"
       sodipodi:nodetypes="ccccccccccccccccc"
       clip-path="url(#clipPath15088)"
       transform="matrix(1.4475096,0,0,1.4475096,3009.3208,-1078.0607)" /><path
       style="fill:url(#linearGradient111710);fill-opacity:1;stroke:none;stroke-width:1.44751;stroke-linecap:square;stroke-linejoin:miter;stroke-dasharray:none;stroke-opacity:1"
       d="m 3397.0078,-910.191 -16.6334,-40.94383 c 10.5147,-24.40325 80.4342,-48.74729 116.1782,19.70422 7.5871,8.45628 12.918,8.9306 19.1923,9.46826 l -15.6098,4.09439 c 19.1606,19.52276 -1.6624,42.65391 -5.3738,56.55369 -2.587,-4.31155 -2.2425,-21.29233 -17.657,-32.24329 0.7514,32.0429 -14.0093,37.90479 -35.0583,49.64441 18.3111,-24.97998 17.7676,-36.24745 13.8185,-45.03822 0.5129,15.96561 -10.4918,18.68062 -10.4918,18.68062 4.3794,-13.46255 0.5321,-17.95055 -2.303,-23.5427 -10.0906,14.01555 -7.881,21.94288 -1.7913,25.8458 -21.8418,-3.88789 -25.033,-21.01438 -29.4285,-32.49918 -8.0053,3.66789 -5.157,7.33578 -1.7913,11.00367 -6.6989,0.189 -10.3411,-1.73813 -8.1887,-7.67699 l -14.3303,5.62979 c 10.0741,-5.59894 9.4682,-18.68064 9.4682,-18.68064 z"
       id="path111610"
       sodipodi:nodetypes="ccccccccccccccccc" /><path
       style="fill:url(#radialGradient111712);fill-opacity:1;stroke:none;stroke-width:1.44751;stroke-linecap:square;stroke-linejoin:miter;stroke-dasharray:none;stroke-opacity:1"
       d="m 3397.0078,-910.191 -16.6334,-40.94383 c 10.5147,-24.40325 80.4342,-48.74729 116.1782,19.70422 7.5871,8.45628 12.918,8.9306 19.1923,9.46826 l -15.6098,4.09439 c 19.1606,19.52276 -1.6624,42.65391 -5.3738,56.55369 -2.587,-4.31155 -2.2425,-21.29233 -17.657,-32.24329 0.7514,32.0429 -14.0093,37.90479 -35.0583,49.64441 18.3111,-24.97998 17.7676,-36.24745 13.8185,-45.03822 0.5129,15.96561 -10.4918,18.68062 -10.4918,18.68062 4.3794,-13.46255 0.5321,-17.95055 -2.303,-23.5427 -10.0906,14.01555 -7.881,21.94288 -1.7913,25.8458 -21.8418,-3.88789 -25.033,-21.01438 -29.4285,-32.49918 -8.0053,3.66789 -5.157,7.33578 -1.7913,11.00367 -6.6989,0.189 -10.3411,-1.73813 -8.1887,-7.67699 l -14.3303,5.62979 c 10.0741,-5.59894 9.4682,-18.68064 9.4682,-18.68064 z"
       id="path111612"
       sodipodi:nodetypes="ccccccccccccccccc" /><path
       style="display:inline;fill:url(#linearGradient111714);fill-opacity:1;stroke:none;stroke-width:2.00858;stroke-linecap:square;stroke-linejoin:miter;stroke-dasharray:none;stroke-opacity:1"
       d="m 3426.3546,-913.68536 c -6.825,-1.90265 -10.7947,-4.93172 -13.3966,-10.222 -1.7328,-3.52319 -1.7492,-3.62845 -1.7172,-11.00504 0.03,-6.96604 0.1375,-7.72407 1.6483,-11.71785 2.6028,-6.87718 5.8151,-11.04262 10.757,-13.94824 6.3524,-3.7349 18.1094,0.62594 25.418,9.42788 1.6159,1.946 4.1483,6.04907 5.7537,9.3218 3.5259,7.18818 5.1255,13.47206 4.9066,19.27413 l -0.155,4.10916 -2.4114,1.19771 c -1.3263,0.65875 -4.794,1.82258 -7.706,2.58631 -6.7655,1.77446 -18.4609,2.26873 -23.0974,0.97614 z"
       id="path111614" /><path
       style="display:inline;fill:#000000;stroke-width:0.219509"
       d="m 3426.2855,-911.53072 c -4.3927,-0.59803 -8.4624,-2.15387 -10.9806,-4.19791 -3.8371,-3.11459 -5.7122,-8.86231 -5.143,-15.76516 0.1,-1.2073 0.2763,-4.31885 0.3927,-6.91455 0.2374,-5.29735 0.525,-7.10018 1.6737,-10.49216 2.5556,-7.54595 7.4839,-12.40278 13.9381,-13.73593 4.5046,-0.93047 7.5703,-0.87137 11.4043,0.21987 2.3451,0.66746 6.6566,2.79468 8.6715,4.27839 2.3332,1.71815 6.1725,5.72691 7.7562,8.09881 5.0091,7.5014 7.8864,18.16953 6.8261,25.3083 -0.2787,1.87719 -1.0377,4.75766 -1.357,5.15095 -0.415,0.51105 0.019,0.54331 0.7558,0.0562 0.6565,-0.43443 0.6421,-0.40341 -0.152,0.32443 -2.3224,2.12856 -8.3782,4.71141 -14.3779,6.13218 -7.2883,1.72594 -14.0722,2.26307 -19.4079,1.53664 z m 17.2617,-2.48051 c 4.8278,-0.86506 10.8416,-2.5854 13.9282,-3.98436 1.3278,-0.60186 1.359,-0.63579 1.5366,-1.67826 0.1,-0.5852 0.1725,-2.64445 0.162,-4.57614 -0.022,-4.0872 -0.423,-6.35205 -1.9365,-10.9505 -3.5628,-10.8245 -9.6448,-18.93737 -17.3467,-23.1389 -3.483,-1.89997 -6.5217,-2.84323 -9.8183,-3.04765 -2.4915,-0.15449 -3.5243,0.0572 -5.8212,1.19287 -3.5621,1.7614 -6.7546,5.07628 -8.931,9.27379 -1.3133,2.53304 -2.5633,6.01026 -3.0774,8.56087 -0.9586,4.75675 -1.019,11.33351 -0.1331,14.59737 1.0594,3.90649 3.3379,7.48218 6.1574,9.66281 2.8569,2.20958 6.4187,3.58439 11.3739,4.39023 2.8605,0.46518 10.5577,0.29793 13.9067,-0.30213 z"
       id="path111616" /><path
       style="fill:url(#radialGradient111716);fill-opacity:1;stroke:none;stroke-width:1.53175;stroke-linecap:square;stroke-linejoin:miter;stroke-dasharray:none;stroke-opacity:1"
       d="m 3541.4313,-707.33868 c 6.4233,0.41473 18.431,3.6651 13.7775,9.78156 -10.0107,13.15773 -29.7333,5.32113 -35.4409,17.83937 -3.2496,9.20699 4.8742,6.76984 4.8742,6.76984 0,0 -7.8531,4.60349 -13.5396,2.43715 -5.6867,-2.16635 -30.329,-24.913 -23.0176,-30.05809 7.3115,-5.14507 35.4589,-7.92477 53.3464,-6.76983 z"
       id="path111618"
       sodipodi:nodetypes="ssccsss" /><ellipse
       style="fill:url(#radialGradient111718);fill-opacity:1;stroke:none;stroke-width:1.55134;stroke-linecap:square;stroke-linejoin:miter;stroke-dasharray:none;stroke-opacity:1"
       id="ellipse111620"
       cx="3427.8438"
       cy="-937.57227"
       rx="16.96245"
       ry="19.905289" /><path
       style="fill:none;fill-opacity:1;stroke:none;stroke-width:1.44751;stroke-linecap:square;stroke-linejoin:miter;stroke-dasharray:none;stroke-opacity:1"
       d="m 3452.5378,-944.99325 -15.6098,8.18876 15.8658,11.77135 z"
       id="path111622" /><ellipse
       style="fill:#ffffff;fill-opacity:1;stroke:none;stroke-width:1.32465;stroke-linecap:square;stroke-linejoin:miter;stroke-dasharray:none;stroke-opacity:1"
       id="ellipse111624"
       cx="3440.8494"
       cy="-940.9577"
       rx="8.9569216"
       ry="6.6950736" /><path
       style="opacity:0.113861;mix-blend-mode:normal;fill:#333333;fill-opacity:1;stroke:none;stroke-width:1;stroke-linecap:square;stroke-linejoin:miter;stroke-dasharray:none;stroke-opacity:1;filter:url(#filter16594)"
       d="m 1539.5565,-672.45689 c -3.6073,-10.11856 -20.4637,-29.1827 -19.9768,-19.88839 -19.7149,5.3018 -8.8393,21.74464 -8.8393,21.74464 0,0 19.9899,8.9794 28.8161,-1.85625 z"
       id="path111626"
       sodipodi:nodetypes="cccc"
       transform="matrix(1.4475096,0,0,1.4475096,1180.5123,54.496248)" /><path
       style="opacity:0.10231;mix-blend-mode:normal;fill:#333333;fill-opacity:1;stroke:none;stroke-width:1;stroke-linecap:square;stroke-linejoin:miter;stroke-dasharray:none;stroke-opacity:1;filter:url(#filter16620)"
       d="m 274.26419,130.83677 c 10.10987,-0.94994 -8.55286,-28.10468 -8.22619,-18.63832 -19.7149,5.30181 1.16123,3.99373 1.16123,3.99373 -46.44787,30.43659 -21.79655,40.17285 7.06496,14.64459 z"
       id="path111628"
       sodipodi:nodetypes="cccc"
       clip-path="url(#clipPath16608)"
       transform="matrix(1.4475096,0,0,1.4475096,3009.3208,-1078.0607)" /><path
       style="fill:url(#linearGradient111720);fill-opacity:1;stroke:none;stroke-width:1.44751;stroke-linecap:square;stroke-linejoin:miter;stroke-dasharray:none;stroke-opacity:1"
       d="m 3403.917,-924.77723 c 0.9639,2.89891 4.3174,5.79781 1.9397,8.69672 -16.6303,13.69683 -41.1647,2.14595 -49.5368,12.41495 l 3.0707,-13.17881 z"
       id="path111630"
       sodipodi:nodetypes="ccccc" /><path
       style="fill:url(#linearGradient111722);fill-opacity:1;stroke:none;stroke-width:1.44751;stroke-linecap:square;stroke-linejoin:miter;stroke-dasharray:none;stroke-opacity:1"
       d="m 3403.917,-924.77723 c -18.5938,-5.76532 -12.5183,-28.06901 -25.3339,-25.84581 -8.0364,1.77807 -32.397,18.75579 -34.0345,23.7986 -3.2853,10.11692 -0.7335,25.05174 11.3874,33.01099 -0.6217,-39.61643 35.2051,-15.27907 47.981,-30.96378 z"
       id="path111632"
       sodipodi:nodetypes="ccscc" /><path
       style="fill:url(#linearGradient111724);fill-opacity:1;stroke:none;stroke-width:1.44751;stroke-linecap:square;stroke-linejoin:miter;stroke-dasharray:none;stroke-opacity:1"
       d="m 3391.728,-966.70669 c 0,0 7.8116,6.68985 23.6009,-5.62194 15.4687,-12.06185 27.6658,-4.85314 41.0583,10.57164 0.1763,0.20319 -26.973,-12.53168 -36.1188,-3.07599 -8.0829,8.35672 -34.8687,13.80366 -28.5404,-1.87371 z"
       id="path111634"
       sodipodi:nodetypes="sssss" /><path
       style="color:#000000;opacity:0.781316;fill:url(#linearGradient111726);fill-opacity:1;stroke-width:1.19443;stroke-linejoin:bevel;filter:url(#filter22046)"
       d="m 1598.7831,-610.7294 10e-4,0.0559 c 11.7273,25.6518 37.6064,54.81167 77.9366,79.03818 l 0.1078,0.0313 c -37.9266,-24.59235 -64.3481,-55.96995 -78.0457,-79.12536 z"
       id="path111636"
       sodipodi:nodetypes="cccccc"
       inkscape:transform-center-x="38.849123"
       inkscape:transform-center-y="-38.776314"
       transform="matrix(1.4475096,0,0,1.4475096,1180.5123,54.496248)" /><path
       style="color:#000000;opacity:0.781316;fill:url(#linearGradient111728);fill-opacity:1;stroke-width:1.19443;stroke-linejoin:bevel;filter:url(#filter22046)"
       d="m 335.36591,171.6882 0.001,0.0559 c 11.72736,25.6518 37.60639,54.81167 77.93657,79.03818 l 0.1078,0.0313 C 375.4847,226.22123 349.06323,194.84363 335.36564,171.68822 Z"
       id="path111638"
       sodipodi:nodetypes="cccccc"
       inkscape:transform-center-x="30.863146"
       inkscape:transform-center-y="-45.393924"
       transform="matrix(1.4216514,0.27238077,-0.27238077,1.4216514,3088.109,-1184.1534)" /><path
       style="color:#000000;fill:#058bf4;stroke-width:1.72895;stroke-linejoin:bevel"
       d="m 3520.8588,-850.15381 -0.017,0.0787 c 7.2815,40.46114 38.9027,85.22139 86.7041,134.90025 l 0.1404,0.086 c -44.3096,-49.24846 -75.9008,-97.32201 -86.8264,-135.06505 z"
       id="path111640"
       sodipodi:nodetypes="cccccc" /><path
       style="color:#000000;opacity:0.781316;fill:url(#linearGradient111730);fill-opacity:1;stroke-width:1.19443;stroke-linejoin:bevel;filter:url(#filter22046)"
       d="m 335.36591,171.6882 0.001,0.0559 c 11.72736,25.6518 37.60639,54.81167 77.93657,79.03818 l 0.1078,0.0313 C 375.4847,226.22123 349.06323,194.84363 335.36564,171.68822 Z"
       id="path111642"
       sodipodi:nodetypes="cccccc"
       inkscape:transform-center-x="47.119901"
       inkscape:transform-center-y="-28.152681"
       transform="matrix(1.403965,-0.35237237,0.35237237,1.403965,2939.2124,-921.55988)" /><path
       style="color:#000000;fill:#058bf4;stroke-width:1.72895;stroke-linejoin:bevel"
       d="m 3497.2223,-831.93012 5e-4,0.0809 c 16.1757,37.4865 52.7226,80.48883 110.3359,116.8 l 0.1552,0.0486 c -54.1244,-36.76602 -91.3875,-82.99462 -110.492,-116.92953 z"
       id="path111644"
       sodipodi:nodetypes="cccccc" /><path
       style="color:#000000;fill:#058bf4;stroke-width:1.72895;stroke-linejoin:bevel"
       d="m 3473.5382,-799.87707 0.019,0.0784 c 24.3669,32.18956 69.766,64.4856 134.0447,84.8715 l 0.1616,0.007 c -61.0004,-21.7249 -107.8411,-56.96529 -134.2257,-84.95702 z"
       id="path111646"
       sodipodi:nodetypes="cccccc" /><path
       id="path111648"
       style="opacity:0.246285;mix-blend-mode:normal;fill:#ffffff;fill-opacity:0.941043;stroke:none;stroke-width:1;stroke-linejoin:bevel;filter:url(#filter20908)"
       d="m 258.39914,129.45784 c -3.49364,3.2147 -7.58753,8.03074 -7.24488,12.75961 0.13033,1.79859 0.38463,3.57176 0.74731,5.31937 a 9.8999996,9.8999996 0 0 0 5.49847,1.67029 9.8999996,9.8999996 0 0 0 9.89989,-9.90003 9.8999996,9.8999996 0 0 0 -8.90079,-9.84924 z"
       transform="matrix(3.6124532,0,0,2.3856519,2453.088,-1202.6091)" /><g
       id="g111654"
       clip-path="url(#clipPath24284)"
       style="opacity:0.751592;filter:url(#filter26599)"
       transform="matrix(1.6328463,0,0,1.6328463,2945.0656,-1127.1358)"><ellipse
         style="opacity:0.159236;fill:#333333;fill-opacity:0.941043;stroke:none;stroke-width:1;stroke-linejoin:bevel;filter:url(#filter24262)"
         id="ellipse111650"
         cx="363.76855"
         cy="259.63824"
         rx="8.1254148"
         ry="1.6250829"
         transform="matrix(1.244269,0,0,2.000993,-88.857375,-259.33354)" /><ellipse
         style="opacity:0.218684;fill:#333333;fill-opacity:0.941043;stroke:none;stroke-width:1;stroke-linejoin:bevel;filter:url(#filter24262)"
         id="ellipse111652"
         cx="363.76855"
         cy="259.63824"
         rx="8.1254148"
         ry="1.6250829"
         transform="matrix(1.244269,0,0,2.000993,-105.60823,-266.58391)" /></g><path
       id="path111656"
       style="fill:#ffffff;fill-opacity:0.795918;stroke:#333333;stroke-width:4.71282;stroke-linecap:round;stroke-linejoin:round;stroke-dasharray:none"
       d="m 3430.3553,-933.95693 v 27.8459 l -31.9928,-17.36705 v -27.8459"
       sodipodi:nodetypes="cccc" /><path
       id="path111658"
       style="fill:#333333;fill-opacity:1;stroke:none;stroke-width:4.34253;stroke-linecap:round;stroke-linejoin:round"
       d="m 3373.9172,-949.04899 c 2.5233,-3.05724 19.1105,-5.48393 24.7898,14.64136 l -0.806,1.30687 c -5.9616,-11.35953 -23.7374,-16.53481 -24.022,-15.85686 z"
       sodipodi:nodetypes="ccccc" /><rect
       style="fill:#333333;fill-opacity:1;stroke:none;stroke-width:3.96842;stroke-linecap:round;stroke-linejoin:round;stroke-dasharray:none;stroke-opacity:1"
       id="rect111660"
       width="60.597355"
       height="7.6890702"
       x="3550.2844"
       y="-1.3249921"
       transform="matrix(0.96575157,-0.25946849,0.27030328,0.96277523,0,0)"
       ry="3.8445351" /><path
       style="opacity:0.692144;fill:#ffe6d5;fill-opacity:0.818594;stroke:#ffe6d5;stroke-width:1.18205;stroke-linecap:round;stroke-linejoin:round;stroke-dasharray:none;stroke-opacity:1"
       d="m 3473.856,-939.31105 v -2.95528 l 1.0535,2.14256 0.1859,-4.58067 2.355,4.35903 c 0,0 0.4957,-2.512 0.7437,-1.99483 0.2478,0.51719 5.3915,20.76082 5.3915,20.76082 l -3.9662,-1.32987 -2.8507,6.64936 -3.4704,-2.95527 -1.6733,-20.46529 1.7972,1.03438 z"
       id="path111662" /></g></svg>
