<?xml version="1.0" encoding="UTF-8" standalone="no"?>
<!-- Created with Inkscape (http://www.inkscape.org/) -->

<svg
   width="476.02588mm"
   height="370.63223mm"
   viewBox="0 0 476.02588 370.63223"
   version="1.1"
   id="svg5"
   xml:space="preserve"
   xmlns:xlink="http://www.w3.org/1999/xlink"
   xmlns="http://www.w3.org/2000/svg"
   xmlns:svg="http://www.w3.org/2000/svg"><defs
     id="defs2"><linearGradient
       id="linearGradient5367"><stop
         style="stop-color:#7fc6fc;stop-opacity:1;"
         offset="0"
         id="stop5361" /><stop
         style="stop-color:#5cb4fb;stop-opacity:1;"
         offset="0.45654905"
         id="stop5363" /><stop
         style="stop-color:#94d0fc;stop-opacity:1;"
         offset="1"
         id="stop5365" /></linearGradient><linearGradient
       id="linearGradient22042"><stop
         style="stop-color:#333333;stop-opacity:1;"
         offset="0"
         id="stop22038" /><stop
         style="stop-color:#333333;stop-opacity:0;"
         offset="1"
         id="stop22040" /></linearGradient><linearGradient
       id="wing"><stop
         style="stop-color:#7ac2fb;stop-opacity:1;"
         offset="0"
         id="stop21681" /><stop
         style="stop-color:#29a1fa;stop-opacity:1;"
         offset="1"
         id="stop21683" /></linearGradient><linearGradient
       id="body"><stop
         style="stop-color:#058bf4;stop-opacity:1;"
         offset="0"
         id="stop20915" /><stop
         style="stop-color:#0575cd;stop-opacity:1;"
         offset="1"
         id="stop20917" /></linearGradient><linearGradient
       id="linearGradient20398"><stop
         style="stop-color:#6d6d6d;stop-opacity:1;"
         offset="0"
         id="stop20394" /><stop
         style="stop-color:#000000;stop-opacity:1;"
         offset="1"
         id="stop20396" /></linearGradient><linearGradient
       id="linearGradient18886"><stop
         style="stop-color:#848484;stop-opacity:1;"
         offset="0"
         id="stop18882" /><stop
         style="stop-color:#ffffff;stop-opacity:1;"
         offset="1"
         id="stop18884" /></linearGradient><linearGradient
       id="linearGradient18856"><stop
         style="stop-color:#058bf4;stop-opacity:1;"
         offset="0"
         id="stop18852" /><stop
         style="stop-color:#047dd6;stop-opacity:1;"
         offset="0.16136241"
         id="stop18872" /><stop
         style="stop-color:#068efa;stop-opacity:1;"
         offset="0.29416448"
         id="stop18862" /><stop
         style="stop-color:#046cbc;stop-opacity:1;"
         offset="1"
         id="stop18854" /></linearGradient><linearGradient
       id="linearGradient15862"><stop
         style="stop-color:#c37b11;stop-opacity:1;"
         offset="0"
         id="stop15858" /><stop
         style="stop-color:#88570c;stop-opacity:1;"
         offset="1"
         id="stop15860" /></linearGradient><linearGradient
       id="linearGradient15834"><stop
         style="stop-color:#fbe8cf;stop-opacity:1;"
         offset="0"
         id="stop15830" /><stop
         style="stop-color:#ec991f;stop-opacity:1;"
         offset="0.38875693"
         id="stop15846" /><stop
         style="stop-color:#eb9516;stop-opacity:1;"
         offset="0.6807065"
         id="stop15856" /><stop
         style="stop-color:#ab6d10;stop-opacity:1;"
         offset="1"
         id="stop15832" /></linearGradient><linearGradient
       id="linearGradient14342"><stop
         style="stop-color:#7fc6fc;stop-opacity:1;"
         offset="0"
         id="stop14338" /><stop
         style="stop-color:#5cb4fb;stop-opacity:1;"
         offset="0.34368873"
         id="stop14346" /><stop
         style="stop-color:#94d0fc;stop-opacity:1;"
         offset="1"
         id="stop14340" /></linearGradient><filter
       style="color-interpolation-filters:sRGB"
       id="filter22046"
       x="-0.01960811"
       y="-0.019340539"
       width="1.0392162"
       height="1.0386811"><feGaussianBlur
         stdDeviation="0.6376365"
         id="feGaussianBlur22048" /></filter><linearGradient
       xlink:href="#linearGradient14342"
       id="linearGradient28521"
       gradientUnits="userSpaceOnUse"
       gradientTransform="translate(-100.41428,-421.45712)"
       x1="268.08987"
       y1="80.088432"
       x2="310.10687"
       y2="148.84193" /><linearGradient
       xlink:href="#linearGradient14342"
       id="linearGradient2981"
       gradientUnits="userSpaceOnUse"
       gradientTransform="translate(-2.806306,-4.8484015)"
       x1="268.08987"
       y1="80.088432"
       x2="310.10687"
       y2="148.84193" /><linearGradient
       xlink:href="#body"
       id="linearGradient10505"
       gradientUnits="userSpaceOnUse"
       x1="509.85828"
       y1="176.60284"
       x2="529.30237"
       y2="246.93213" /><linearGradient
       xlink:href="#body"
       id="linearGradient17917"
       gradientUnits="userSpaceOnUse"
       x1="509.85828"
       y1="176.60284"
       x2="529.30237"
       y2="246.93213" /><linearGradient
       xlink:href="#wing"
       id="linearGradient27229"
       gradientUnits="userSpaceOnUse"
       x1="709.93567"
       y1="137.3212"
       x2="666.64795"
       y2="226.4969" /><linearGradient
       xlink:href="#wing"
       id="linearGradient27243"
       gradientUnits="userSpaceOnUse"
       x1="593.25348"
       y1="136.48393"
       x2="662.01654"
       y2="192.10382" /><linearGradient
       xlink:href="#linearGradient18886"
       id="linearGradient5605"
       gradientUnits="userSpaceOnUse"
       gradientTransform="matrix(1.0383754,0,0,1.0383754,1252.1189,-786.14567)"
       x1="287.96222"
       y1="77.041405"
       x2="288.10596"
       y2="101.23909" /><linearGradient
       xlink:href="#linearGradient5367"
       id="linearGradient30190"
       gradientUnits="userSpaceOnUse"
       x1="496.28052"
       y1="57.933243"
       x2="495.76025"
       y2="153.16843" /><radialGradient
       xlink:href="#linearGradient20398"
       id="radialGradient31091"
       gradientUnits="userSpaceOnUse"
       gradientTransform="matrix(0.06392578,1.6615889,-1.5463918,0.10986577,-1591.0195,-350.80186)"
       cx="295.28143"
       cy="92.144058"
       fx="295.28143"
       fy="92.144058"
       r="11.718368" /><linearGradient
       xlink:href="#linearGradient18886"
       id="linearGradient31093"
       gradientUnits="userSpaceOnUse"
       gradientTransform="matrix(-0.76411584,0,0,1.0383754,1934.285,40.60574)"
       x1="287.96222"
       y1="77.041405"
       x2="288.10596"
       y2="101.23909" /><linearGradient
       xlink:href="#linearGradient18856"
       id="linearGradient31175"
       gradientUnits="userSpaceOnUse"
       gradientTransform="matrix(-0.71302516,0.44662026,0.44662026,0.71302516,1877.5365,-56.86532)"
       x1="266.72531"
       y1="77.448639"
       x2="312.85709"
       y2="73.912933" /><clipPath
       clipPathUnits="userSpaceOnUse"
       id="clipPath31210"><g
         id="g31214"
         transform="matrix(0.95174821,0,-0.2427591,1,1220.2594,48.624942)"><path
           id="path31212"
           style="opacity:1;fill:url(#linearGradient31216);fill-opacity:1;stroke:none;stroke-width:1;stroke-linecap:square;stroke-linejoin:miter;stroke-dasharray:none;stroke-opacity:1"
           d="m 448.567,104.1012 c -2.08571,13.98818 1.48488,29.44163 10.90691,34.94048 -2.92167,-5.76245 -3.3989,-11.04065 -0.67074,-17.11367 -0.35425,11.0297 9.74827,19.53101 9.74827,19.53101 -3.02545,-9.30048 -2.86766,-19.02669 -0.90901,-22.88998 6.97097,9.68252 7.81976,25.15997 3.61277,27.85627 0,0 14.02059,-4.99812 10.47455,-15.60674 -0.31309,3.21198 3.98912,7.32867 6.29489,8.60966 0,0 4.91609,-3.44988 5.85911,-8.98468 -1.42093,10.60862 12.47466,5.98125 12.47466,5.98125 -4.207,-2.6963 -5.73332,-8.17324 1.23765,-17.85576 1.95865,3.86329 4.61656,6.96416 1.59112,16.26464 0,0 7.60238,-1.87597 7.24813,-12.90567 2.72816,6.07302 3.10338,13.85719 -9.5467,31.11438 14.54145,-8.11021 39.11575,-14.41011 38.59665,-36.54666 2.6271,1.90541 4.65321,-1.92812 5.53093,-3.11402 -4.83462,1.00363 -6.2544,-7.33031 -6.2544,-7.33031 0.40969,-0.84035 9.14602,-41.491424 -46.05298,-41.491424 -30.28338,0 -56.3184,11.575432 -50.14181,39.541224 z" /></g></clipPath><linearGradient
       xlink:href="#linearGradient5367"
       id="linearGradient31216"
       gradientUnits="userSpaceOnUse"
       x1="496.28052"
       y1="57.933243"
       x2="495.76025"
       y2="153.16843" /><clipPath
       clipPathUnits="userSpaceOnUse"
       id="clipPath31222"><g
         id="g31226"
         transform="matrix(0.95174821,0,-0.2427591,1.0329987,1220.2594,44.962996)"><path
           id="path31224"
           style="opacity:1;fill:url(#linearGradient31228);fill-opacity:1;stroke:none;stroke-width:1;stroke-linecap:square;stroke-linejoin:miter;stroke-dasharray:none;stroke-opacity:1"
           d="m 448.567,104.1012 c -2.08571,13.98818 1.48488,29.44163 10.90691,34.94048 -2.92167,-5.76245 -3.3989,-11.04065 -0.67074,-17.11367 -0.35425,11.0297 9.74827,19.53101 9.74827,19.53101 -3.02545,-9.30048 -2.86766,-19.02669 -0.90901,-22.88998 6.97097,9.68252 7.81976,25.15997 3.61277,27.85627 0,0 14.02059,-4.99812 10.47455,-15.60674 -0.31309,3.21198 3.98912,7.32867 6.29489,8.60966 0,0 4.91609,-3.44988 5.85911,-8.98468 -1.42093,10.60862 12.47466,5.98125 12.47466,5.98125 -4.207,-2.6963 -5.73332,-8.17324 1.23765,-17.85576 1.95865,3.86329 4.61656,6.96416 1.59112,16.26464 0,0 7.60238,-1.87597 7.24813,-12.90567 2.72816,6.07302 3.10338,13.85719 -9.5467,31.11438 14.54145,-8.11021 39.11575,-14.41011 38.59665,-36.54666 2.6271,1.90541 4.65321,-1.92812 5.53093,-3.11402 -4.83462,1.00363 -6.2544,-7.33031 -6.2544,-7.33031 0.40969,-0.84035 9.14602,-41.491424 -46.05298,-41.491424 -30.28338,0 -56.3184,11.575432 -50.14181,39.541224 z" /></g></clipPath><linearGradient
       xlink:href="#linearGradient5367"
       id="linearGradient31228"
       gradientUnits="userSpaceOnUse"
       x1="496.28052"
       y1="57.933243"
       x2="495.76025"
       y2="153.16843" /><linearGradient
       xlink:href="#linearGradient15834"
       id="linearGradient31234"
       gradientUnits="userSpaceOnUse"
       gradientTransform="matrix(-1,0,0,1,1966.9006,41.118455)"
       x1="228.03033"
       y1="93.55442"
       x2="278.17233"
       y2="102.12852" /><linearGradient
       xlink:href="#linearGradient15862"
       id="linearGradient31236"
       gradientUnits="userSpaceOnUse"
       gradientTransform="matrix(-1,0,0,1,1966.9006,41.118455)"
       x1="259.25626"
       y1="114.24776"
       x2="258.34494"
       y2="107.52991" /><linearGradient
       xlink:href="#wing"
       id="linearGradient32772"
       x1="1347.4471"
       y1="252.72263"
       x2="1589.3208"
       y2="252.72263"
       gradientUnits="userSpaceOnUse" /><linearGradient
       xlink:href="#wing"
       id="linearGradient32774"
       x1="1586.1241"
       y1="258.7244"
       x2="1823.473"
       y2="258.7244"
       gradientUnits="userSpaceOnUse" /><linearGradient
       xlink:href="#body"
       id="linearGradient32782"
       x1="1516.9742"
       y1="278.20926"
       x2="1686.757"
       y2="278.20926"
       gradientUnits="userSpaceOnUse" /><filter
       style="color-interpolation-filters:sRGB"
       id="filter32792"
       x="-0.053790499"
       y="-0.062837228"
       width="1.107581"
       height="1.1256745"><feGaussianBlur
         stdDeviation="2.3166624"
         id="feGaussianBlur32794" /></filter><clipPath
       clipPathUnits="userSpaceOnUse"
       id="clipPath32806"><path
         style="opacity:1;fill:url(#linearGradient32810);fill-opacity:1;stroke:none;stroke-width:1.05067;stroke-linecap:square;stroke-linejoin:miter;stroke-dasharray:none;stroke-opacity:1"
         d="m 501.9151,99.0538 c -2e-5,-6.6e-5 -66.94193,-10.663571 -47.15752,34.7192 17.34658,39.79065 37.17726,147.65194 37.58075,147.15898 -0.1167,2.90358 102.15298,-78.6874 85.34571,-119.54295 C 556.88853,110.83882 501.9151,99.0538 501.9151,99.0538 Z"
         id="path32808" /></clipPath><linearGradient
       xlink:href="#body"
       id="linearGradient32810"
       gradientUnits="userSpaceOnUse"
       x1="1516.9742"
       y1="278.20926"
       x2="1686.757"
       y2="278.20926"
       gradientTransform="matrix(0.68821785,0,0.16707114,0.65501007,-622.24626,7.2558098)" /><filter
       style="color-interpolation-filters:sRGB"
       id="filter32816"
       x="-0.085610114"
       y="-0.12041274"
       width="1.1712202"
       height="1.2408255"><feGaussianBlur
         stdDeviation="8.4664418"
         id="feGaussianBlur32818" /></filter><clipPath
       clipPathUnits="userSpaceOnUse"
       id="clipPath32828"><path
         style="opacity:1;fill:url(#linearGradient32832);fill-opacity:1;stroke:none;stroke-width:1.56488;stroke-linecap:square;stroke-linejoin:miter;stroke-dasharray:none;stroke-opacity:1"
         d="m 1599.4162,140.14745 c 0,-1e-4 -93.3164,-16.28001 -81.3888,53.0056 10.4579,60.74815 -0.703,225.41934 0.066,224.66674 -1.2457,4.43288 177.5942,-120.13158 168.3146,-182.50552 -11.4816,-77.1747 -86.9918,-95.16682 -86.9918,-95.16682 z"
         id="path32830" /></clipPath><linearGradient
       xlink:href="#body"
       id="linearGradient32832"
       gradientUnits="userSpaceOnUse"
       x1="1516.9742"
       y1="278.20926"
       x2="1686.757"
       y2="278.20926" /><filter
       style="color-interpolation-filters:sRGB"
       id="filter32836"
       x="-0.11451556"
       y="-0.090688705"
       width="1.2290311"
       height="1.1813774"><feGaussianBlur
         stdDeviation="8.428284"
         id="feGaussianBlur32838" /></filter><clipPath
       clipPathUnits="userSpaceOnUse"
       id="clipPath32842"><path
         id="path32844"
         style="fill:url(#linearGradient32846);fill-opacity:1;stroke-width:0.37043"
         d="m 1545.4459,171.06568 c 168.5569,334.02845 -204.8732,43.07647 -176.7492,109.13283 -65.3527,-79.81727 27.4859,-114.97388 176.7492,-109.13283 z" /></clipPath><linearGradient
       xlink:href="#wing"
       id="linearGradient32846"
       gradientUnits="userSpaceOnUse"
       x1="1347.4471"
       y1="252.72263"
       x2="1589.3208"
       y2="252.72263" /><linearGradient
       xlink:href="#linearGradient22042"
       id="linearGradient64406"
       gradientUnits="userSpaceOnUse"
       gradientTransform="rotate(-1.2280152,-19561.698,-13673.331)"
       x1="412.9035"
       y1="251.44148"
       x2="344.27167"
       y2="185.50041" /><linearGradient
       xlink:href="#linearGradient22042"
       id="linearGradient64414"
       gradientUnits="userSpaceOnUse"
       gradientTransform="rotate(-1.2280152,-19561.698,-13673.331)"
       x1="412.9035"
       y1="251.44148"
       x2="344.27167"
       y2="185.50041" /><linearGradient
       xlink:href="#linearGradient22042"
       id="linearGradient64422"
       gradientUnits="userSpaceOnUse"
       gradientTransform="rotate(-1.2280152,-19561.698,-13673.331)"
       x1="412.9035"
       y1="251.44148"
       x2="344.27167"
       y2="185.50041" /><linearGradient
       xlink:href="#linearGradient22042"
       id="linearGradient64466"
       gradientUnits="userSpaceOnUse"
       gradientTransform="rotate(-1.2280152,-19561.698,-13673.331)"
       x1="412.9035"
       y1="251.44148"
       x2="344.27167"
       y2="185.50041" /><linearGradient
       xlink:href="#linearGradient22042"
       id="linearGradient64468"
       gradientUnits="userSpaceOnUse"
       gradientTransform="rotate(-1.2280152,-19561.698,-13673.331)"
       x1="412.9035"
       y1="251.44148"
       x2="344.27167"
       y2="185.50041" /><linearGradient
       xlink:href="#linearGradient22042"
       id="linearGradient64470"
       gradientUnits="userSpaceOnUse"
       gradientTransform="rotate(-1.2280152,-19561.698,-13673.331)"
       x1="412.9035"
       y1="251.44148"
       x2="344.27167"
       y2="185.50041" /></defs><g
     id="layer1"
     style="display:inline"
     transform="translate(-1347.4472,-86.956762)"><g
       id="g31240"
       transform="matrix(1.5266941,0,0,1.5266941,-960.34287,-73.210059)"><path
         style="fill:url(#linearGradient31236);fill-opacity:1;stroke:none;stroke-width:1;stroke-linecap:square;stroke-linejoin:miter;stroke-dasharray:none;stroke-opacity:1"
         d="m 1694.2971,147.01309 c -0.6659,2.00269 -2.9826,4.00537 -1.34,6.00806 11.4889,9.46234 28.4383,1.48251 34.2221,8.57676 l -2.1214,-9.10447 z"
         id="path31230" /><path
         style="fill:url(#linearGradient31234);fill-opacity:1;stroke:none;stroke-width:1;stroke-linecap:square;stroke-linejoin:miter;stroke-dasharray:none;stroke-opacity:1"
         d="m 1694.2971,147.01309 c 12.8454,-3.98292 8.6482,-19.39124 17.5017,-17.85536 5.5519,1.22836 22.3812,12.95728 23.5125,16.44106 2.2696,6.98919 0.5067,17.30679 -7.8669,22.80537 0.4295,-27.36868 -24.3212,-10.55542 -33.1473,-21.39107 z"
         id="path31232" /></g><path
       style="fill:#d78712;fill-opacity:1;stroke:none;stroke-width:1.32794;stroke-linecap:square;stroke-linejoin:miter;stroke-dasharray:none;stroke-opacity:1"
       d="m 1524.1684,393.10721 c -1.756,-5.29686 -7.1144,-14.65595 -11.2247,-9.41201 -8.8422,11.28079 2.0544,26.10598 -7.1944,33.63745 -7.0105,4.74383 -6.7469,-2.60452 -6.7469,-2.60452 0,0 -2.14,7.59602 0.9236,11.89101 3.0636,4.295 27.5446,19.97802 30.2576,12.71765 2.7127,-7.26045 -1.1255,-31.47921 -6.0152,-46.22958 z"
       id="path31063" /><path
       style="fill:#ec991f;fill-opacity:1;stroke:none;stroke-width:1.32794;stroke-linecap:square;stroke-linejoin:miter;stroke-dasharray:none;stroke-opacity:1"
       d="m 1549.0916,409.46815 c -1.756,-5.29686 -7.1144,-14.65596 -11.2247,-9.412 -8.8421,11.28078 2.0545,26.10597 -7.1943,33.63744 -7.0105,4.74383 -6.747,-2.60452 -6.747,-2.60452 0,0 -2.1399,7.59602 0.9237,11.891 3.0636,4.29501 27.5446,19.97802 30.2575,12.71766 2.7128,-7.26045 -1.1255,-31.47921 -6.0152,-46.22958 z"
       id="path31059" /><path
       id="path31057"
       style="fill:url(#linearGradient32772);fill-opacity:1;stroke-width:0.370431"
       d="m 1545.4459,171.06568 c 168.5569,334.02845 -204.8732,43.07647 -176.7492,109.13284 -65.3527,-79.81728 27.4859,-114.97389 176.7492,-109.13284 z" /><path
       id="path32834"
       style="opacity:0.115512;fill:#333333;fill-opacity:1;stroke-width:0.370431;filter:url(#filter32836)"
       d="m 1607.8526,143.76276 c 168.5569,334.02845 -122.1434,193.64188 -122.1434,193.64188 0,0 -27.1199,-199.48293 122.1434,-193.64188 z"
       clip-path="url(#clipPath32842)" /><path
       style="opacity:1;fill:url(#linearGradient32782);fill-opacity:1;stroke:none;stroke-width:1.56488;stroke-linecap:square;stroke-linejoin:miter;stroke-dasharray:none;stroke-opacity:1"
       d="m 1599.4162,140.14745 c 0,-1e-4 -93.3164,-16.28001 -81.3888,53.0056 10.4579,60.74815 -0.703,225.41935 0.066,224.66675 -1.2457,4.43288 177.5942,-120.13158 168.3146,-182.50553 -11.4816,-77.1747 -86.9918,-95.16682 -86.9918,-95.16682 z"
       id="path30140" /><path
       id="path32812"
       style="opacity:0.174917;fill:#1a1a1a;fill-opacity:1;stroke-width:0.370431;filter:url(#filter32816)"
       d="m 1622.2008,176.39117 c -172.8891,331.80687 197.3481,59.633 168.367,125.31784 66.3858,-78.96014 -19.0402,-129.21621 -168.367,-125.31784 z"
       clip-path="url(#clipPath32828)" /><path
       id="path6258"
       style="fill:url(#linearGradient32774);fill-opacity:1;stroke-width:0.370431"
       d="m 1632.3145,174.56186 c -172.8891,331.80687 197.3481,59.633 168.367,125.31784 66.3858,-78.96014 -19.0402,-129.21621 -168.367,-125.31784 z" /><g
       id="g32786"
       transform="matrix(1.4530283,0,-0.37061887,1.5266941,906.83056,-11.077402)"
       style="opacity:0.504951;fill:#333333;filter:url(#filter32792)"
       clip-path="url(#clipPath32806)"><path
         id="path32784"
         style="opacity:1;fill:#333333;fill-opacity:1;stroke:none;stroke-width:1;stroke-linecap:square;stroke-linejoin:miter;stroke-dasharray:none;stroke-opacity:1"
         d="m 448.567,104.1012 c -2.08571,13.98818 1.48488,29.44163 10.90691,34.94048 -2.92167,-5.76245 -3.3989,-11.04065 -0.67074,-17.11367 -0.35425,11.0297 9.74827,19.53101 9.74827,19.53101 -3.02545,-9.30048 -2.86766,-19.02669 -0.90901,-22.88998 6.97097,9.68252 7.81976,25.15997 3.61277,27.85627 0,0 14.02059,-4.99812 10.47455,-15.60674 -0.31309,3.21198 3.98912,7.32867 6.29489,8.60966 0,0 4.91609,-3.44988 5.85911,-8.98468 -1.42093,10.60862 12.47466,5.98125 12.47466,5.98125 -4.207,-2.6963 -5.73332,-8.17324 1.23765,-17.85576 1.95865,3.86329 4.61656,6.96416 1.59112,16.26464 0,0 7.60238,-1.87597 7.24813,-12.90567 2.72816,6.07302 3.10338,13.85719 -9.5467,31.11438 14.54145,-8.11021 39.11575,-14.41011 38.59665,-36.54666 2.6271,1.90541 4.65321,-1.92812 5.53093,-3.11402 -4.83462,1.00363 -6.2544,-7.33031 -6.2544,-7.33031 0.40969,-0.84035 9.14602,-41.491424 -46.05298,-41.491424 -30.28338,0 -56.3184,11.575432 -50.14181,39.541224 z" /></g><g
       id="g30182"
       transform="matrix(1.4530283,0,-0.37061887,1.5266941,906.83056,-11.606569)"><path
         id="path30178"
         style="opacity:1;fill:url(#linearGradient30190);fill-opacity:1;stroke:none;stroke-width:1;stroke-linecap:square;stroke-linejoin:miter;stroke-dasharray:none;stroke-opacity:1"
         d="m 448.567,104.1012 c -2.08571,13.98818 1.48488,29.44163 10.90691,34.94048 -2.92167,-5.76245 -3.3989,-11.04065 -0.67074,-17.11367 -0.35425,11.0297 9.74827,19.53101 9.74827,19.53101 -3.02545,-9.30048 -2.86766,-19.02669 -0.90901,-22.88998 6.97097,9.68252 7.81976,25.15997 3.61277,27.85627 0,0 14.02059,-4.99812 10.47455,-15.60674 -0.31309,3.21198 3.98912,7.32867 6.29489,8.60966 0,0 4.91609,-3.44988 5.85911,-8.98468 -1.42093,10.60862 12.47466,5.98125 12.47466,5.98125 -4.207,-2.6963 -5.73332,-8.17324 1.23765,-17.85576 1.95865,3.86329 4.61656,6.96416 1.59112,16.26464 0,0 7.60238,-1.87597 7.24813,-12.90567 2.72816,6.07302 3.10338,13.85719 -9.5467,31.11438 14.54145,-8.11021 39.11575,-14.41011 38.59665,-36.54666 2.6271,1.90541 4.65321,-1.92812 5.53093,-3.11402 -4.83462,1.00363 -6.2544,-7.33031 -6.2544,-7.33031 0.40969,-0.84035 9.14602,-41.491424 -46.05298,-41.491424 -30.28338,0 -56.3184,11.575432 -50.14181,39.541224 z" /></g><g
       id="g31161"
       transform="matrix(1.5266941,0,0,1.4779244,-956.13217,-78.058489)"
       clip-path="url(#clipPath31222)"><path
         style="display:inline;fill:#ffffff;fill-opacity:1;stroke:#ffffff;stroke-width:1.14635;stroke-linecap:square;stroke-linejoin:miter;stroke-dasharray:none;stroke-opacity:1"
         d="m 1713.7902,157.28473 c 3.3413,-1.26585 5.2848,-3.28113 6.5587,-6.80081 0.8483,-2.34401 0.8564,-2.41404 0.8407,-7.32176 -0.015,-4.63458 -0.067,-5.13891 -0.807,-7.79601 -1.2742,-4.57546 -2.8469,-7.34676 -5.2664,-9.2799 -3.1101,-2.48487 -8.8662,0.41645 -12.4444,6.27247 -0.791,1.29468 -2.0309,4.0245 -2.8168,6.20188 -1.7263,4.78237 -2.5095,8.9631 -2.4023,12.82328 l 0.076,2.73386 1.1806,0.79685 c 0.6494,0.43827 2.347,1.21258 3.7727,1.7207 3.3123,1.18057 9.0383,1.50941 11.3083,0.64944 z"
         id="path31065" /><path
         style="display:inline;fill:#000000;stroke-width:0.130087"
         d="m 1713.9969,159.3797 c 2.2331,-0.41314 4.302,-1.48798 5.5822,-2.90009 1.9507,-2.15169 2.9039,-6.12245 2.6146,-10.89123 -0.051,-0.83405 -0.1404,-2.98364 -0.1996,-4.77686 -0.1207,-3.65963 -0.267,-4.9051 -0.851,-7.24842 -1.2991,-5.21306 -3.8046,-8.56836 -7.0857,-9.48935 -2.2901,-0.64281 -3.8485,-0.60198 -5.7977,0.15189 -1.1922,0.46111 -3.384,1.93068 -4.4082,2.95569 -1.1862,1.18697 -3.138,3.95639 -3.9432,5.595 -2.5465,5.18228 -4.0092,12.55227 -3.4702,17.48403 0.1417,1.29684 0.5275,3.28679 0.6899,3.55849 0.2109,0.35305 -0.01,0.37534 -0.3842,0.0388 -0.3338,-0.30012 -0.3265,-0.27869 0.077,0.22413 1.1807,1.4705 4.2594,3.25484 7.3094,4.23637 3.7052,1.19235 7.1539,1.56342 9.8665,1.06157 z m -8.7755,-1.71364 c -2.4543,-0.59762 -5.5115,-1.7861 -7.0806,-2.75256 -0.6751,-0.41579 -0.6909,-0.43923 -0.7812,-1.15941 -0.051,-0.40428 -0.088,-1.8269 -0.082,-3.16139 0.011,-2.82361 0.215,-4.38826 0.9845,-7.56506 1.8112,-7.47802 4.9032,-13.08273 8.8186,-15.98532 1.7706,-1.31258 3.3154,-1.96422 4.9914,-2.10544 1.2666,-0.10673 1.7916,0.0395 2.9593,0.82408 1.8109,1.21685 3.4339,3.50691 4.5402,6.40672 0.6678,1.74993 1.3032,4.15214 1.5645,5.91421 0.4875,3.28616 0.5181,7.82966 0.068,10.08447 -0.5386,2.69877 -1.6969,5.169 -3.1303,6.67547 -1.4524,1.52647 -3.2631,2.47625 -5.7822,3.03296 -1.4541,0.32136 -5.3672,0.20582 -7.0698,-0.20873 z"
         id="path31067" /><ellipse
         style="fill:#000000;fill-opacity:1;stroke:none;stroke-width:0.919365;stroke-linecap:square;stroke-linejoin:miter;stroke-dasharray:none;stroke-opacity:1"
         id="ellipse31069"
         cx="-1711.3835"
         cy="141.74272"
         rx="8.6232691"
         ry="13.751404"
         transform="scale(-1,1)" /><path
         style="fill:none;fill-opacity:1;stroke:none;stroke-width:0.857832;stroke-linecap:square;stroke-linejoin:miter;stroke-dasharray:none;stroke-opacity:1"
         d="m 1700.6508,136.26239 7.9356,5.65714 -8.0657,8.13214 z"
         id="path31071" /><ellipse
         style="fill:#ffffff;fill-opacity:1;stroke:none;stroke-width:0.909894;stroke-linecap:square;stroke-linejoin:miter;stroke-dasharray:none;stroke-opacity:1"
         id="ellipse31073"
         cx="-1706.0078"
         cy="141.40245"
         rx="6.1172833"
         ry="4.625236"
         transform="scale(-1,1)" /><path
         style="display:inline;fill:url(#linearGradient31093);fill-opacity:1;stroke:none;stroke-width:1.19034;stroke-linecap:square;stroke-linejoin:miter;stroke-dasharray:none;stroke-opacity:1"
         d="m 1713.9618,157.89119 c 3.4696,-1.31443 5.4877,-3.40704 6.8104,-7.06179 0.8809,-2.43396 0.8893,-2.50668 0.873,-7.60274 -0.015,-4.81243 -0.07,-5.33611 -0.838,-8.09518 -1.3231,-4.75104 -2.9562,-7.6287 -5.4686,-9.63602 -3.2293,-2.58023 -9.2063,0.43242 -12.9218,6.51317 -0.8214,1.34438 -2.1089,4.17895 -2.925,6.43989 -1.7925,4.96589 -2.6057,9.30706 -2.4944,13.31537 l 0.079,2.83878 1.2259,0.82743 c 0.6742,0.45509 2.4371,1.25911 3.9175,1.78673 3.4395,1.22587 9.3851,1.56733 11.7422,0.67436 z"
         id="path31077" /><path
         style="display:inline;fill:#000000;stroke-width:0.130087"
         d="m 1713.9969,159.3797 c 2.2331,-0.41314 4.302,-1.48798 5.5822,-2.90009 1.9507,-2.15169 2.9039,-6.12245 2.6146,-10.89123 -0.051,-0.83405 -0.1404,-2.98364 -0.1996,-4.77686 -0.1207,-3.65963 -0.267,-4.9051 -0.851,-7.24842 -1.2991,-5.21306 -3.8046,-8.56836 -7.0857,-9.48935 -2.2901,-0.64281 -3.8485,-0.60198 -5.7977,0.15189 -1.1922,0.46111 -3.384,1.93068 -4.4082,2.95569 -1.1862,1.18697 -3.138,3.95639 -3.9432,5.595 -2.5465,5.18228 -4.0092,12.55227 -3.4702,17.48403 0.1417,1.29684 0.5275,3.28679 0.6899,3.55849 0.2109,0.35305 -0.01,0.37534 -0.3842,0.0388 -0.3338,-0.30012 -0.3265,-0.27869 0.077,0.22413 1.1807,1.4705 4.2594,3.25484 7.3094,4.23637 3.7052,1.19235 7.1539,1.56342 9.8665,1.06157 z m -8.7755,-1.71364 c -2.4543,-0.59762 -5.5115,-1.7861 -7.0806,-2.75256 -0.6751,-0.41579 -0.6909,-0.43923 -0.7812,-1.15941 -0.051,-0.40428 -0.088,-1.8269 -0.082,-3.16139 0.011,-2.82361 0.215,-4.38826 0.9845,-7.56506 1.8112,-7.47802 4.9032,-13.08273 8.8186,-15.98532 1.7706,-1.31258 3.3154,-1.96422 4.9914,-2.10544 1.2666,-0.10673 1.7916,0.0395 2.9593,0.82408 1.8109,1.21685 3.4339,3.50691 4.5402,6.40672 0.6678,1.74993 1.3032,4.15214 1.5645,5.91421 0.4875,3.28616 0.5181,7.82966 0.068,10.08447 -0.5386,2.69877 -1.6969,5.169 -3.1303,6.67547 -1.4524,1.52647 -3.2631,2.47625 -5.7822,3.03296 -1.4541,0.32136 -5.3672,0.20582 -7.0698,-0.20873 z"
         id="path31079" /><ellipse
         style="fill:url(#radialGradient31091);fill-opacity:1;stroke:none;stroke-width:0.919365;stroke-linecap:square;stroke-linejoin:miter;stroke-dasharray:none;stroke-opacity:1"
         id="ellipse31081"
         cx="-1713.9838"
         cy="141.25517"
         rx="8.6232691"
         ry="13.751404"
         transform="scale(-1,1)" /><path
         style="fill:none;fill-opacity:1;stroke:none;stroke-width:0.857832;stroke-linecap:square;stroke-linejoin:miter;stroke-dasharray:none;stroke-opacity:1"
         d="m 1700.6508,136.26239 7.9356,5.65714 -8.0657,8.13214 z"
         id="path31083" /><ellipse
         style="fill:#ffffff;fill-opacity:1;stroke:none;stroke-width:0.785024;stroke-linecap:square;stroke-linejoin:miter;stroke-dasharray:none;stroke-opacity:1"
         id="ellipse31085"
         cx="-1707.3721"
         cy="138.91634"
         rx="4.5534663"
         ry="4.625236"
         transform="scale(-1,1)" /></g><path
       style="fill:url(#linearGradient31175);fill-opacity:1;stroke:none;stroke-width:0.841353;stroke-linecap:square;stroke-linejoin:miter;stroke-dasharray:none;stroke-opacity:1"
       d="m 1727.4347,121.29952 c 0,0 -2.8064,-1.39983 -14.0408,-4.43695 -11.0062,-2.97551 -15.3763,8.26197 -19.0746,19.54462 -0.049,0.14858 11.0865,-17.41985 18.1179,-14.41542 6.214,2.65527 21.9216,6.28059 14.9975,-0.69225 z"
       id="path31173"
       clip-path="url(#clipPath31210)"
       transform="matrix(1.5266941,0,0,1.5266941,-956.13217,-85.841979)" /><g
       id="g64492"
       style="opacity:0.5"><g
         id="g64404"
         transform="matrix(0.50923712,0.86062626,0.86062626,-0.50923712,979.51921,-1576.8917)"><path
           style="color:#000000;opacity:0.781316;fill:url(#linearGradient64406);fill-opacity:1;stroke-width:1.19443;stroke-linejoin:bevel;filter:url(#filter22046)"
           d="m 629.17335,-259.59786 10e-4,0.0559 c 11.72736,25.6518 37.60639,54.81167 77.93657,79.03818 l 0.1078,0.0313 c -37.92658,-24.59235 -64.34805,-55.96995 -78.04564,-79.12536 z"
           id="path64398"
           transform="matrix(1.4475096,0,0,1.4475096,994.36268,21.047868)" /><path
           style="color:#000000;fill:#058bf4;stroke-width:1.72895;stroke-linejoin:bevel"
           d="m 1907.5533,-357.11222 4e-4,0.0809 c 16.1758,37.4865 52.7227,80.48882 110.3361,116.79999 l 0.155,0.0486 c -54.1243,-36.76602 -91.3874,-82.99461 -110.4919,-116.92952 z"
           id="path64400" /></g><g
         id="g64412"
         transform="matrix(0.84350298,0.5371245,0.5371245,-0.84350298,229.91259,-1002.4158)"><path
           style="color:#000000;opacity:0.781316;fill:url(#linearGradient64414);fill-opacity:1;stroke-width:1.19443;stroke-linejoin:bevel;filter:url(#filter22046)"
           d="m 629.17335,-259.59786 10e-4,0.0559 c 11.72736,25.6518 37.60639,54.81167 77.93657,79.03818 l 0.1078,0.0313 c -37.92658,-24.59235 -64.34805,-55.96995 -78.04564,-79.12536 z"
           id="path64408"
           transform="matrix(1.4475096,0,0,1.4475096,994.36268,21.047868)" /><path
           style="color:#000000;fill:#058bf4;stroke-width:1.72895;stroke-linejoin:bevel"
           d="m 1907.5533,-357.11222 4e-4,0.0809 c 16.1758,37.4865 52.7227,80.48882 110.3361,116.79999 l 0.155,0.0486 c -54.1243,-36.76602 -91.3874,-82.99461 -110.4919,-116.92952 z"
           id="path64410" /></g><g
         id="g64420"
         transform="matrix(0.17477666,0.98460811,0.98460811,-0.17477666,1688.8871,-1746.0387)"><path
           style="color:#000000;opacity:0.781316;fill:url(#linearGradient64422);fill-opacity:1;stroke-width:1.19443;stroke-linejoin:bevel;filter:url(#filter22046)"
           d="m 629.17335,-259.59786 10e-4,0.0559 c 11.72736,25.6518 37.60639,54.81167 77.93657,79.03818 l 0.1078,0.0313 c -37.92658,-24.59235 -64.34805,-55.96995 -78.04564,-79.12536 z"
           id="path64416"
           transform="matrix(1.4475096,0,0,1.4475096,994.36268,21.047868)" /><path
           style="color:#000000;fill:#058bf4;stroke-width:1.72895;stroke-linejoin:bevel"
           d="m 1907.5533,-357.11222 4e-4,0.0809 c 16.1758,37.4865 52.7227,80.48882 110.3361,116.79999 l 0.155,0.0486 c -54.1243,-36.76602 -91.3874,-82.99461 -110.4919,-116.92952 z"
           id="path64418" /></g></g><g
       id="g64481"
       style="opacity:0.5"><g
         id="g64452"
         transform="rotate(124.76974,1563.3517,-161.29948)"><path
           style="color:#000000;opacity:0.781316;fill:url(#linearGradient64470);fill-opacity:1;stroke-width:1.19443;stroke-linejoin:bevel;filter:url(#filter22046)"
           d="m 629.17335,-259.59786 10e-4,0.0559 c 11.72736,25.6518 37.60639,54.81167 77.93657,79.03818 l 0.1078,0.0313 c -37.92658,-24.59235 -64.34805,-55.96995 -78.04564,-79.12536 z"
           id="path64448"
           transform="matrix(1.4475096,0,0,1.4475096,994.36268,21.047868)" /><path
           style="color:#000000;fill:#058bf4;stroke-width:1.72895;stroke-linejoin:bevel"
           d="m 1907.5533,-357.11222 4e-4,0.0809 c 16.1758,37.4865 52.7227,80.48882 110.3361,116.79999 l 0.155,0.0486 c -54.1243,-36.76602 -91.3874,-82.99461 -110.4919,-116.92952 z"
           id="path64450" /></g><g
         id="g64458"
         transform="rotate(151.66861,1629.0654,-72.914519)"><path
           style="color:#000000;opacity:0.781316;fill:url(#linearGradient64468);fill-opacity:1;stroke-width:1.19443;stroke-linejoin:bevel;filter:url(#filter22046)"
           d="m 629.17335,-259.59786 10e-4,0.0559 c 11.72736,25.6518 37.60639,54.81167 77.93657,79.03818 l 0.1078,0.0313 c -37.92658,-24.59235 -64.34805,-55.96995 -78.04564,-79.12536 z"
           id="path64454"
           transform="matrix(1.4475096,0,0,1.4475096,994.36268,21.047868)" /><path
           style="color:#000000;fill:#058bf4;stroke-width:1.72895;stroke-linejoin:bevel"
           d="m 1907.5533,-357.11222 4e-4,0.0809 c 16.1758,37.4865 52.7227,80.48882 110.3361,116.79999 l 0.155,0.0486 c -54.1243,-36.76602 -91.3874,-82.99461 -110.4919,-116.92952 z"
           id="path64456" /></g><g
         id="g64464"
         transform="rotate(104.22237,1497.4394,-245.71168)"><path
           style="color:#000000;opacity:0.781316;fill:url(#linearGradient64466);fill-opacity:1;stroke-width:1.19443;stroke-linejoin:bevel;filter:url(#filter22046)"
           d="m 629.17335,-259.59786 10e-4,0.0559 c 11.72736,25.6518 37.60639,54.81167 77.93657,79.03818 l 0.1078,0.0313 c -37.92658,-24.59235 -64.34805,-55.96995 -78.04564,-79.12536 z"
           id="path64460"
           transform="matrix(1.4475096,0,0,1.4475096,994.36268,21.047868)" /><path
           style="color:#000000;fill:#058bf4;stroke-width:1.72895;stroke-linejoin:bevel"
           d="m 1907.5533,-357.11222 4e-4,0.0809 c 16.1758,37.4865 52.7227,80.48882 110.3361,116.79999 l 0.155,0.0486 c -54.1243,-36.76602 -91.3874,-82.99461 -110.4919,-116.92952 z"
           id="path64462" /></g></g></g></svg>
