<?xml version="1.0" encoding="UTF-8" standalone="no"?>
<!-- Created with Inkscape (http://www.inkscape.org/) -->

<svg
   width="407.9873mm"
   height="309.26917mm"
   viewBox="0 0 407.9873 309.26917"
   version="1.1"
   id="svg5"
   xml:space="preserve"
   sodipodi:docname="eagle mascot.svg"
   inkscape:version="1.2.1 (9c6d41e410, 2022-07-14)"
   xmlns:inkscape="http://www.inkscape.org/namespaces/inkscape"
   xmlns:sodipodi="http://sodipodi.sourceforge.net/DTD/sodipodi-0.dtd"
   xmlns:xlink="http://www.w3.org/1999/xlink"
   xmlns="http://www.w3.org/2000/svg"
   xmlns:svg="http://www.w3.org/2000/svg"><sodipodi:namedview
     id="namedview7"
     pagecolor="#ffffff"
     bordercolor="#000000"
     borderopacity="0.25"
     inkscape:showpageshadow="2"
     inkscape:pageopacity="0.0"
     inkscape:pagecheckerboard="0"
     inkscape:deskcolor="#d1d1d1"
     inkscape:document-units="mm"
     showgrid="false"
     inkscape:zoom="0.20350388"
     inkscape:cx="12444.48"
     inkscape:cy="-3702.6321"
     inkscape:window-width="1920"
     inkscape:window-height="1001"
     inkscape:window-x="-9"
     inkscape:window-y="-9"
     inkscape:window-maximized="1"
     inkscape:current-layer="layer1"
     showguides="true" /><defs
     id="defs2"><linearGradient
       inkscape:collect="always"
       id="linearGradient26607"><stop
         style="stop-color:#eea02c;stop-opacity:1;"
         offset="0"
         id="stop26603" /><stop
         style="stop-color:#c37b11;stop-opacity:1;"
         offset="1"
         id="stop26605" /></linearGradient><linearGradient
       inkscape:collect="always"
       id="linearGradient24318"><stop
         style="stop-color:#f3b964;stop-opacity:1;"
         offset="0"
         id="stop24314" /><stop
         style="stop-color:#ef950e;stop-opacity:1;"
         offset="1"
         id="stop24316" /></linearGradient><linearGradient
       inkscape:collect="always"
       id="linearGradient22042"><stop
         style="stop-color:#333333;stop-opacity:1;"
         offset="0"
         id="stop22038" /><stop
         style="stop-color:#333333;stop-opacity:0;"
         offset="1"
         id="stop22040" /></linearGradient><linearGradient
       inkscape:collect="always"
       id="wing"><stop
         style="stop-color:#7ac2fb;stop-opacity:1;"
         offset="0"
         id="stop21681" /><stop
         style="stop-color:#29a1fa;stop-opacity:1;"
         offset="1"
         id="stop21683" /></linearGradient><linearGradient
       inkscape:collect="always"
       id="body"><stop
         style="stop-color:#058bf4;stop-opacity:1;"
         offset="0"
         id="stop20915" /><stop
         style="stop-color:#0575cd;stop-opacity:1;"
         offset="1"
         id="stop20917" /></linearGradient><linearGradient
       inkscape:collect="always"
       id="linearGradient20398"><stop
         style="stop-color:#6d6d6d;stop-opacity:1;"
         offset="0"
         id="stop20394" /><stop
         style="stop-color:#000000;stop-opacity:1;"
         offset="1"
         id="stop20396" /></linearGradient><linearGradient
       inkscape:collect="always"
       id="linearGradient18886"><stop
         style="stop-color:#848484;stop-opacity:1;"
         offset="0"
         id="stop18882" /><stop
         style="stop-color:#ffffff;stop-opacity:1;"
         offset="1"
         id="stop18884" /></linearGradient><linearGradient
       inkscape:collect="always"
       id="linearGradient18856"><stop
         style="stop-color:#058bf4;stop-opacity:1;"
         offset="0"
         id="stop18852" /><stop
         style="stop-color:#047dd6;stop-opacity:1;"
         offset="0.16136241"
         id="stop18872" /><stop
         style="stop-color:#068efa;stop-opacity:1;"
         offset="0.29416448"
         id="stop18862" /><stop
         style="stop-color:#046cbc;stop-opacity:1;"
         offset="1"
         id="stop18854" /></linearGradient><linearGradient
       inkscape:collect="always"
       id="linearGradient18114"><stop
         style="stop-color:#7fc6fc;stop-opacity:0;"
         offset="0"
         id="stop18108" /><stop
         style="stop-color:#5cb4fb;stop-opacity:0;"
         offset="0.34368873"
         id="stop18110" /><stop
         style="stop-color:#01223c;stop-opacity:1;"
         offset="1"
         id="stop18112" /></linearGradient><linearGradient
       inkscape:collect="always"
       id="linearGradient15862"><stop
         style="stop-color:#c37b11;stop-opacity:1;"
         offset="0"
         id="stop15858" /><stop
         style="stop-color:#88570c;stop-opacity:1;"
         offset="1"
         id="stop15860" /></linearGradient><linearGradient
       inkscape:collect="always"
       id="linearGradient15834"><stop
         style="stop-color:#fbe8cf;stop-opacity:1;"
         offset="0"
         id="stop15830" /><stop
         style="stop-color:#ec991f;stop-opacity:1;"
         offset="0.38875693"
         id="stop15846" /><stop
         style="stop-color:#eb9516;stop-opacity:1;"
         offset="0.6807065"
         id="stop15856" /><stop
         style="stop-color:#ab6d10;stop-opacity:1;"
         offset="1"
         id="stop15832" /></linearGradient><linearGradient
       inkscape:collect="always"
       id="linearGradient14342"><stop
         style="stop-color:#7fc6fc;stop-opacity:1;"
         offset="0"
         id="stop14338" /><stop
         style="stop-color:#5cb4fb;stop-opacity:1;"
         offset="0.34368873"
         id="stop14346" /><stop
         style="stop-color:#94d0fc;stop-opacity:1;"
         offset="1"
         id="stop14340" /></linearGradient><linearGradient
       inkscape:collect="always"
       id="linearGradient11533"><stop
         style="stop-color:#000000;stop-opacity:1;"
         offset="0"
         id="stop11529" /><stop
         style="stop-color:#000000;stop-opacity:0;"
         offset="1"
         id="stop11531" /></linearGradient><linearGradient
       inkscape:collect="always"
       id="linearGradient11491"><stop
         style="stop-color:#333333;stop-opacity:1;"
         offset="0"
         id="stop11487" /><stop
         style="stop-color:#333333;stop-opacity:0;"
         offset="1"
         id="stop11489" /></linearGradient><linearGradient
       inkscape:collect="always"
       id="linearGradient10756"><stop
         style="stop-color:#5fb8fb;stop-opacity:1"
         offset="0"
         id="stop10752" /><stop
         style="stop-color:#0a91fa;stop-opacity:0;"
         offset="1"
         id="stop10754" /></linearGradient><clipPath
       clipPathUnits="userSpaceOnUse"
       id="clipPath11517"><path
         style="opacity:1;fill:#058bf4;fill-opacity:1;stroke:none;stroke-width:1;stroke-linecap:square;stroke-linejoin:miter;stroke-dasharray:none;stroke-opacity:1"
         d="m 272.74949,120.11683 c 0,0 -31.34734,13.89395 -29.87588,27.30467 7.39891,67.43285 171.88485,113.6819 172.83597,113.51925 0,0 -66.89703,-115.14626 -79.45683,-143.57408 -8.5625,-19.380331 -63.50326,2.75016 -63.50326,2.75016 z"
         id="path11519"
         sodipodi:nodetypes="cscsc" /></clipPath><clipPath
       clipPathUnits="userSpaceOnUse"
       id="clipPath11549"><path
         style="opacity:1;fill:#058bf4;fill-opacity:1;stroke:none;stroke-width:1;stroke-linecap:square;stroke-linejoin:miter;stroke-dasharray:none;stroke-opacity:1"
         d="m 250.35948,112.65899 c 0,0 34.27601,0.92355 38.01713,13.88567 18.81138,65.17718 -115.71151,170.52514 -116.65299,170.73656 0,0 18.06096,-131.93815 18.86135,-163.00661 0.54567,-21.18055 59.77451,-21.61562 59.77451,-21.61562 z"
         id="path11551"
         sodipodi:nodetypes="cscsc" /></clipPath><filter
       inkscape:collect="always"
       style="color-interpolation-filters:sRGB"
       id="filter14350"
       x="-0.02558109"
       y="-0.026192293"
       width="1.0511622"
       height="1.0523846"><feGaussianBlur
         inkscape:collect="always"
         stdDeviation="0.99680596"
         id="feGaussianBlur14352" /></filter><clipPath
       clipPathUnits="userSpaceOnUse"
       id="clipPath15088"><g
         id="g15094"><path
           style="opacity:1;fill:#058bf4;fill-opacity:1;stroke:none;stroke-width:1;stroke-linecap:square;stroke-linejoin:miter;stroke-dasharray:none;stroke-opacity:1"
           d="m 272.39593,121.04171 c 0,0 -31.34735,13.89396 -29.87589,27.30468 7.39891,67.43284 171.88485,113.6819 172.83598,113.51925 0,0 -66.89705,-115.14626 -79.45685,-143.57408 -8.5625,-19.380334 -63.50324,2.75015 -63.50324,2.75015 z"
           id="path15090"
           sodipodi:nodetypes="cscsc" /><path
           style="opacity:1;fill:#5fb8fb;fill-opacity:1;stroke:none;stroke-width:0.879101;stroke-linecap:square;stroke-linejoin:miter;stroke-dasharray:none;stroke-opacity:1"
           d="m 289.28009,145.00925 c 10.34271,-38.84038 44.7925,-37.5182 52.28556,-23.98307 l 72.70227,131.32618 C 375.03113,232.69024 272.77503,206.99131 289.28009,145.00925 Z"
           id="path15092"
           sodipodi:nodetypes="sscs" /></g></clipPath><filter
       inkscape:collect="always"
       style="color-interpolation-filters:sRGB"
       id="filter16594"
       x="-0.14057836"
       y="-0.16130969"
       width="1.2811567"
       height="1.3226194"><feGaussianBlur
         inkscape:collect="always"
         stdDeviation="1.8631655"
         id="feGaussianBlur16596" /></filter><clipPath
       clipPathUnits="userSpaceOnUse"
       id="clipPath16608"><g
         id="g16614"><path
           style="opacity:1;fill:#058bf4;fill-opacity:1;stroke:none;stroke-width:1;stroke-linecap:square;stroke-linejoin:miter;stroke-dasharray:none;stroke-opacity:1"
           d="m 272.39593,121.04171 c 0,0 -31.34735,13.89396 -29.87589,27.30468 7.39891,67.43284 171.88485,113.6819 172.83598,113.51925 0,0 -66.89705,-115.14626 -79.45685,-143.57408 -8.5625,-19.380334 -63.50324,2.75015 -63.50324,2.75015 z"
           id="path16610"
           sodipodi:nodetypes="cscsc" /><path
           style="opacity:1;fill:url(#linearGradient16616);fill-opacity:1;stroke:none;stroke-width:1;stroke-linecap:square;stroke-linejoin:miter;stroke-dasharray:none;stroke-opacity:1"
           d="M 267.83036,115.97142 256.33929,87.685712 c 7.264,-16.858781 55.5673,-33.67666 80.26071,13.612498 5.2415,5.84195 8.92433,6.16963 13.25893,6.54107 l -10.78392,2.82857 c 13.23689,13.48714 -1.14853,29.4671 -3.71251,39.06965 -1.78716,-2.9786 -1.54916,-14.70963 -12.19821,-22.27501 0.5191,22.13657 -9.67817,26.18621 -24.21965,34.29643 12.65009,-17.25721 12.27459,-25.04125 9.54643,-31.11428 0.35425,11.02971 -7.24821,12.90535 -7.24821,12.90535 3.02545,-9.30049 0.36757,-12.40099 -1.59107,-16.26428 -6.97099,9.68253 -5.44451,15.15906 -1.2375,17.85536 -15.08918,-2.68592 -17.29378,-14.51761 -20.33036,-22.45179 -5.53044,2.53393 -3.56267,5.06786 -1.2375,7.60179 -4.62789,0.13057 -7.14413,-1.20077 -5.65715,-5.30358 l -9.89999,3.88929 c 6.95962,-3.86798 6.54107,-12.90536 6.54107,-12.90536 z"
           id="path16612"
           sodipodi:nodetypes="ccccccccccccccccc" /></g></clipPath><linearGradient
       inkscape:collect="always"
       xlink:href="#linearGradient14342"
       id="linearGradient16616"
       gradientUnits="userSpaceOnUse"
       x1="268.08987"
       y1="80.088432"
       x2="310.10687"
       y2="148.84193" /><filter
       inkscape:collect="always"
       style="color-interpolation-filters:sRGB"
       id="filter16620"
       x="-0.21046525"
       y="-0.21453202"
       width="1.4209305"
       height="1.429064"><feGaussianBlur
         inkscape:collect="always"
         stdDeviation="3.1536948"
         id="feGaussianBlur16618" /></filter><filter
       inkscape:collect="always"
       style="color-interpolation-filters:sRGB"
       id="filter20792"
       x="-0.059106156"
       y="-0.055765111"
       width="1.1182123"
       height="1.1115302"><feGaussianBlur
         inkscape:collect="always"
         stdDeviation="3.1890147"
         id="feGaussianBlur20794" /></filter><clipPath
       clipPathUnits="userSpaceOnUse"
       id="clipPath20798"><path
         style="opacity:1;fill:#058bf4;fill-opacity:1;stroke:none;stroke-width:1;stroke-linecap:square;stroke-linejoin:miter;stroke-dasharray:none;stroke-opacity:1"
         d="m 272.39592,121.04171 c 0,0 -31.34734,13.89396 -29.87588,27.30468 7.39891,67.43284 171.88485,113.6819 172.83597,113.51925 0,0 -66.89703,-115.14626 -79.45683,-143.57408 -8.5625,-19.380335 -63.50326,2.75015 -63.50326,2.75015 z"
         id="path20800"
         sodipodi:nodetypes="cscsc" /></clipPath><filter
       inkscape:collect="always"
       style="color-interpolation-filters:sRGB"
       id="filter20908"
       x="-0.26501283"
       y="-0.21692698"
       width="1.5300257"
       height="1.4338539"><feGaussianBlur
         inkscape:collect="always"
         stdDeviation="1.7850622"
         id="feGaussianBlur20910" /></filter><filter
       inkscape:collect="always"
       style="color-interpolation-filters:sRGB"
       id="filter22046"
       x="-0.01960811"
       y="-0.019340539"
       width="1.0392162"
       height="1.0386811"><feGaussianBlur
         inkscape:collect="always"
         stdDeviation="0.6376365"
         id="feGaussianBlur22048" /></filter><filter
       inkscape:collect="always"
       style="color-interpolation-filters:sRGB"
       id="filter24262"
       x="-0.12982272"
       y="-0.6491136"
       width="1.2596453"
       height="2.2982273"><feGaussianBlur
         inkscape:collect="always"
         stdDeviation="0.87905281"
         id="feGaussianBlur24264" /></filter><clipPath
       clipPathUnits="userSpaceOnUse"
       id="clipPath24284"><g
         id="g24290"><path
           style="fill:#c37b11;fill-opacity:1;stroke:#c37b11;stroke-width:0.786143;stroke-linecap:square;stroke-linejoin:miter;stroke-dasharray:none;stroke-opacity:1"
           d="m 347.54161,250.09888 c 3.29662,0.21285 9.45928,1.88104 7.07099,5.02018 -5.13771,6.75292 -15.25994,2.73095 -18.1893,9.15567 -1.66774,4.72528 2.50161,3.47447 2.50161,3.47447 0,0 -4.03038,2.36264 -6.94894,1.25081 -2.91855,-1.11183 -15.56563,-12.78606 -11.8132,-15.42665 3.75243,-2.6406 18.19849,-4.06722 27.37884,-3.47448 z"
           id="path24286"
           sodipodi:nodetypes="ssccsss" /><path
           style="fill:#ec991f;fill-opacity:1;stroke:#ec991f;stroke-width:0.938093;stroke-linecap:square;stroke-linejoin:miter;stroke-dasharray:none;stroke-opacity:1"
           d="m 365.23079,257.09529 c 3.93381,0.25399 11.28762,2.24461 8.4377,5.9905 -6.13075,8.05816 -18.20946,3.25881 -21.70502,10.92532 -1.99009,5.63861 2.98513,4.14604 2.98513,4.14604 0,0 -4.80939,2.8193 -8.29206,1.49257 -3.48267,-1.32673 -18.57423,-15.25741 -14.09651,-18.4084 4.47771,-3.15098 21.71598,-4.85334 32.67076,-4.14603 z"
           id="path24288"
           sodipodi:nodetypes="ssccsss" /></g></clipPath><filter
       inkscape:collect="always"
       style="color-interpolation-filters:sRGB"
       id="filter26599"
       x="-0.092436574"
       y="-0.36454874"
       width="1.1848731"
       height="1.7290975"><feGaussianBlur
         inkscape:collect="always"
         stdDeviation="0.33017869"
         id="feGaussianBlur26601" /></filter><clipPath
       clipPathUnits="userSpaceOnUse"
       id="clipPath28517"><path
         style="fill:url(#linearGradient28521);fill-opacity:1;stroke:none;stroke-width:1;stroke-linecap:square;stroke-linejoin:miter;stroke-dasharray:none;stroke-opacity:1"
         d="m 167.41608,-305.48572 -11.49107,-28.28571 c 7.264,-16.85877 55.5673,-33.67664 80.26071,13.6125 5.2415,5.84195 8.92433,6.16963 13.25893,6.54108 l -10.78392,2.82858 c 13.23689,13.48714 -1.14853,29.4671 -3.71251,39.06965 -1.78716,-2.9786 -1.54916,-14.70964 -12.19821,-22.27501 0.5191,22.13655 -9.67817,26.18621 -24.21965,34.29642 12.65009,-17.2572 12.27459,-25.04124 9.54643,-31.11427 0.35425,11.02971 -7.24821,12.90534 -7.24821,12.90534 3.02545,-9.3005 0.36757,-12.401 -1.59107,-16.26428 -6.97099,9.68253 -5.44451,15.15906 -1.2375,17.85535 -15.08918,-2.68592 -17.29378,-14.51761 -20.33036,-22.45177 -5.53044,2.53391 -3.56267,5.06785 -1.2375,7.60179 -4.62789,0.13055 -7.14413,-1.20078 -5.65715,-5.3036 l -9.89999,3.8893 c 6.95962,-3.86797 6.54107,-12.90537 6.54107,-12.90537 z"
         id="path28519"
         sodipodi:nodetypes="ccccccccccccccccc" /></clipPath><linearGradient
       inkscape:collect="always"
       xlink:href="#linearGradient14342"
       id="linearGradient28521"
       gradientUnits="userSpaceOnUse"
       gradientTransform="translate(-100.41428,-421.45712)"
       x1="268.08987"
       y1="80.088432"
       x2="310.10687"
       y2="148.84193" /><filter
       inkscape:collect="always"
       style="color-interpolation-filters:sRGB"
       id="filter33711"
       x="-0.023173226"
       y="-0.042424507"
       width="1.0463465"
       height="1.084849"><feGaussianBlur
         inkscape:collect="always"
         stdDeviation="0.93553624"
         id="feGaussianBlur33713" /></filter><filter
       inkscape:collect="always"
       style="color-interpolation-filters:sRGB"
       id="filter33715"
       x="-0.020453289"
       y="-0.074931398"
       width="1.0409065"
       height="1.1498628"><feGaussianBlur
         inkscape:collect="always"
         stdDeviation="0.93553624"
         id="feGaussianBlur33717" /></filter><filter
       inkscape:collect="always"
       style="color-interpolation-filters:sRGB"
       id="filter33719"
       x="-0.020102339"
       y="-0.16922423"
       width="1.0402046"
       height="1.3384485"><feGaussianBlur
         inkscape:collect="always"
         stdDeviation="0.93553624"
         id="feGaussianBlur33721" /></filter><linearGradient
       inkscape:collect="always"
       xlink:href="#linearGradient18886"
       id="linearGradient64118"
       gradientUnits="userSpaceOnUse"
       gradientTransform="matrix(1.0383754,0,0,1.0383754,19.596681,-164.53527)"
       x1="287.96222"
       y1="77.041405"
       x2="288.10596"
       y2="101.23909" /><radialGradient
       inkscape:collect="always"
       xlink:href="#linearGradient20398"
       id="radialGradient64120"
       gradientUnits="userSpaceOnUse"
       gradientTransform="matrix(0.08451617,1.6615889,-2.044482,0.10986577,481.69091,-555.16767)"
       cx="295.28143"
       cy="92.144058"
       fx="295.28143"
       fy="92.144058"
       r="11.718368" /><linearGradient
       inkscape:collect="always"
       xlink:href="#linearGradient18856"
       id="linearGradient64122"
       gradientUnits="userSpaceOnUse"
       gradientTransform="rotate(8.5751563,1388.0041,216.17042)"
       x1="266.72531"
       y1="77.448639"
       x2="312.85709"
       y2="73.912933" /><linearGradient
       inkscape:collect="always"
       xlink:href="#linearGradient22042"
       id="linearGradient64124"
       gradientUnits="userSpaceOnUse"
       gradientTransform="rotate(-1.2280152,413.23758,250.0272)"
       x1="412.9035"
       y1="251.44148"
       x2="344.27167"
       y2="185.50041" /><linearGradient
       inkscape:collect="always"
       xlink:href="#linearGradient22042"
       id="linearGradient64126"
       gradientUnits="userSpaceOnUse"
       gradientTransform="rotate(-1.2280152,413.23758,250.0272)"
       x1="412.9035"
       y1="251.44148"
       x2="344.27167"
       y2="185.50041" /><linearGradient
       inkscape:collect="always"
       xlink:href="#linearGradient22042"
       id="linearGradient64128"
       gradientUnits="userSpaceOnUse"
       gradientTransform="rotate(-1.2280152,-35230.303,-41980.688)"
       x1="412.9035"
       y1="251.44148"
       x2="344.27167"
       y2="185.50041" /><linearGradient
       inkscape:collect="always"
       xlink:href="#linearGradient15834"
       id="linearGradient64132"
       gradientUnits="userSpaceOnUse"
       gradientTransform="rotate(4.9507221,9663.721,10093.254)"
       x1="228.03033"
       y1="93.55442"
       x2="278.17233"
       y2="102.12852" /><linearGradient
       inkscape:collect="always"
       xlink:href="#linearGradient15862"
       id="linearGradient64134"
       gradientUnits="userSpaceOnUse"
       gradientTransform="rotate(-25.635022,-985.51064,-2243.3362)"
       x1="261.50558"
       y1="113.31665"
       x2="270.43979"
       y2="110.35281" /><radialGradient
       inkscape:collect="always"
       xlink:href="#linearGradient24318"
       id="radialGradient64138"
       gradientUnits="userSpaceOnUse"
       gradientTransform="matrix(1,0,0,0.54186644,896.87129,-650.37428)"
       cx="337.45746"
       cy="261.79041"
       fx="337.45746"
       fy="261.79041"
       r="24.01141" /><radialGradient
       inkscape:collect="always"
       xlink:href="#linearGradient18114"
       id="radialGradient64142"
       gradientUnits="userSpaceOnUse"
       gradientTransform="matrix(2.657007,-0.04883319,0.04329586,2.3557232,426.99278,-925.07924)"
       cx="280.34158"
       cy="122.47706"
       fx="280.34158"
       fy="122.47706"
       r="46.759819" /><linearGradient
       inkscape:collect="always"
       xlink:href="#linearGradient14342"
       id="linearGradient64144"
       gradientUnits="userSpaceOnUse"
       gradientTransform="translate(896.87129,-773.58564)"
       x1="268.08987"
       y1="80.088432"
       x2="310.10687"
       y2="148.84193" /><radialGradient
       inkscape:collect="always"
       xlink:href="#wing"
       id="radialGradient64146"
       gradientUnits="userSpaceOnUse"
       gradientTransform="matrix(1.5316718,0.05659089,-0.0550568,1.4901503,740.16557,-883.57329)"
       cx="314.37875"
       cy="189.6337"
       fx="314.37875"
       fy="189.6337"
       r="63.387325" /><radialGradient
       inkscape:collect="always"
       xlink:href="#linearGradient26607"
       id="radialGradient64148"
       gradientUnits="userSpaceOnUse"
       gradientTransform="matrix(0.94728584,0.00878565,-0.00502535,0.5418431,915.06718,-657.7572)"
       cx="321.08304"
       cy="252.77254"
       fx="321.08304"
       fy="252.77254"
       r="20.122107" /><linearGradient
       inkscape:collect="always"
       xlink:href="#linearGradient11533"
       id="linearGradient64150"
       gradientUnits="userSpaceOnUse"
       x1="280.53165"
       y1="203.44458"
       x2="269.60239"
       y2="159.9346" /><linearGradient
       inkscape:collect="always"
       xlink:href="#linearGradient11533"
       id="linearGradient64152"
       gradientUnits="userSpaceOnUse"
       x1="280.53165"
       y1="203.44458"
       x2="269.60239"
       y2="159.9346" /><linearGradient
       inkscape:collect="always"
       xlink:href="#linearGradient11533"
       id="linearGradient64154"
       gradientUnits="userSpaceOnUse"
       x1="280.53165"
       y1="203.44458"
       x2="269.60239"
       y2="159.9346" /><linearGradient
       inkscape:collect="always"
       xlink:href="#linearGradient11533"
       id="linearGradient64156"
       gradientUnits="userSpaceOnUse"
       x1="280.53165"
       y1="203.44458"
       x2="269.60239"
       y2="159.9346" /><linearGradient
       inkscape:collect="always"
       xlink:href="#linearGradient11491"
       id="linearGradient64158"
       gradientUnits="userSpaceOnUse"
       x1="272.23264"
       y1="203.24329"
       x2="271.36612"
       y2="156.49091" /><linearGradient
       inkscape:collect="always"
       xlink:href="#linearGradient11491"
       id="linearGradient64160"
       gradientUnits="userSpaceOnUse"
       x1="272.23264"
       y1="203.24329"
       x2="271.36612"
       y2="156.49091" /><linearGradient
       inkscape:collect="always"
       xlink:href="#linearGradient11491"
       id="linearGradient64162"
       gradientUnits="userSpaceOnUse"
       x1="272.23264"
       y1="203.24329"
       x2="271.36612"
       y2="156.49091" /><linearGradient
       inkscape:collect="always"
       xlink:href="#linearGradient11491"
       id="linearGradient64164"
       gradientUnits="userSpaceOnUse"
       x1="272.23264"
       y1="203.24329"
       x2="271.36612"
       y2="156.49091" /><linearGradient
       inkscape:collect="always"
       xlink:href="#linearGradient11491"
       id="linearGradient64166"
       gradientUnits="userSpaceOnUse"
       x1="272.23264"
       y1="203.24329"
       x2="271.36612"
       y2="156.49091" /><linearGradient
       inkscape:collect="always"
       xlink:href="#linearGradient10756"
       id="linearGradient64168"
       gradientUnits="userSpaceOnUse"
       gradientTransform="rotate(-7.1006597,263.91709,152.85746)"
       x1="249.58325"
       y1="176.42188"
       x2="250.85974"
       y2="156.09152" /><linearGradient
       inkscape:collect="always"
       xlink:href="#linearGradient10756"
       id="linearGradient64170"
       gradientUnits="userSpaceOnUse"
       gradientTransform="matrix(-0.73966623,0.6729739,0.6729739,0.73966623,352.12851,-159.35194)"
       x1="280.31992"
       y1="198.50717"
       x2="277.29617"
       y2="175.34825" /><linearGradient
       inkscape:collect="always"
       xlink:href="#linearGradient10756"
       id="linearGradient64172"
       gradientUnits="userSpaceOnUse"
       gradientTransform="matrix(0.5759751,0.0473537,-0.0473537,0.5759751,135.10657,35.711044)"
       x1="280.31992"
       y1="198.50717"
       x2="277.29617"
       y2="175.34825" /><linearGradient
       inkscape:collect="always"
       xlink:href="#linearGradient10756"
       id="linearGradient64174"
       gradientUnits="userSpaceOnUse"
       gradientTransform="rotate(-7.1006597,263.91709,152.85746)"
       x1="246.27487"
       y1="171.21231"
       x2="250.85974"
       y2="156.09152" /><linearGradient
       inkscape:collect="always"
       xlink:href="#linearGradient10756"
       id="linearGradient64176"
       gradientUnits="userSpaceOnUse"
       gradientTransform="matrix(-0.73966623,0.6729739,0.6729739,0.73966623,352.12851,-159.35194)"
       x1="284.94162"
       y1="188.088"
       x2="277.29617"
       y2="175.34825" /><linearGradient
       inkscape:collect="always"
       xlink:href="#linearGradient10756"
       id="linearGradient64178"
       gradientUnits="userSpaceOnUse"
       gradientTransform="matrix(-0.49797,0.2932841,0.2932841,0.49797,372.17245,-5.9527688)"
       x1="249.58325"
       y1="176.42188"
       x2="250.85974"
       y2="156.09152" /><linearGradient
       inkscape:collect="always"
       xlink:href="#linearGradient10756"
       id="linearGradient64180"
       gradientUnits="userSpaceOnUse"
       gradientTransform="matrix(0.5759751,0.0473537,-0.0473537,0.5759751,135.10657,35.711044)"
       x1="281.80234"
       y1="190.40504"
       x2="277.29617"
       y2="175.34825" /><linearGradient
       inkscape:collect="always"
       xlink:href="#body"
       id="linearGradient64182"
       gradientUnits="userSpaceOnUse"
       gradientTransform="translate(896.87129,-773.58564)"
       x1="242.4698"
       y1="186.10178"
       x2="404.04172"
       y2="258.58392" /><radialGradient
       inkscape:collect="always"
       xlink:href="#wing"
       id="radialGradient64184"
       gradientUnits="userSpaceOnUse"
       gradientTransform="matrix(0.91625354,1.2286987,-1.1953904,0.89141516,433.14024,-824.92533)"
       cx="314.37875"
       cy="189.6337"
       fx="314.37875"
       fy="189.6337"
       r="63.387325" /><linearGradient
       inkscape:collect="always"
       xlink:href="#linearGradient14342"
       id="linearGradient2981"
       gradientUnits="userSpaceOnUse"
       gradientTransform="translate(-2.806306,-4.8484015)"
       x1="268.08987"
       y1="80.088432"
       x2="310.10687"
       y2="148.84193" /><linearGradient
       inkscape:collect="always"
       xlink:href="#body"
       id="linearGradient10505"
       gradientUnits="userSpaceOnUse"
       x1="509.85828"
       y1="176.60284"
       x2="529.30237"
       y2="246.93213" /><linearGradient
       inkscape:collect="always"
       xlink:href="#body"
       id="linearGradient17917"
       gradientUnits="userSpaceOnUse"
       x1="509.85828"
       y1="176.60284"
       x2="529.30237"
       y2="246.93213" /><linearGradient
       inkscape:collect="always"
       xlink:href="#wing"
       id="linearGradient27229"
       gradientUnits="userSpaceOnUse"
       x1="709.93567"
       y1="137.3212"
       x2="666.64795"
       y2="226.4969" /><linearGradient
       inkscape:collect="always"
       xlink:href="#wing"
       id="linearGradient27243"
       gradientUnits="userSpaceOnUse"
       x1="593.25348"
       y1="136.48393"
       x2="662.01654"
       y2="192.10382" /><linearGradient
       inkscape:collect="always"
       xlink:href="#linearGradient18886"
       id="linearGradient5605"
       gradientUnits="userSpaceOnUse"
       gradientTransform="matrix(1.0383754,0,0,1.0383754,1252.1189,-786.14567)"
       x1="287.96222"
       y1="77.041405"
       x2="288.10596"
       y2="101.23909" /><linearGradient
       inkscape:collect="always"
       xlink:href="#body"
       id="linearGradient32810"
       gradientUnits="userSpaceOnUse"
       x1="1516.9742"
       y1="278.20926"
       x2="1686.757"
       y2="278.20926"
       gradientTransform="matrix(0.68821785,0,0.16707114,0.65501007,-622.24626,7.2558098)" /><linearGradient
       inkscape:collect="always"
       xlink:href="#body"
       id="linearGradient32832"
       gradientUnits="userSpaceOnUse"
       x1="1516.9742"
       y1="278.20926"
       x2="1686.757"
       y2="278.20926" /><linearGradient
       inkscape:collect="always"
       xlink:href="#wing"
       id="linearGradient32846"
       gradientUnits="userSpaceOnUse"
       x1="1347.4471"
       y1="252.72263"
       x2="1589.3208"
       y2="252.72263" /></defs><g
     inkscape:label="Layer 1"
     inkscape:groupmode="layer"
     id="layer1"
     style="display:inline"
     transform="translate(-2120.2078,979.20029)"><g
       id="g28368"
       transform="matrix(1.4475096,0,0,1.4475096,607.6226,41.711898)"
       inkscape:export-filename="Eaglesheet\pointing.svg"
       inkscape:export-xdpi="96"
       inkscape:export-ydpi="96"><g
         id="g63964"
         transform="matrix(0.45069693,-0.89267703,-0.89267703,-0.45069693,681.29794,-272.56569)"
         inkscape:export-filename="Eaglesheet\eagleemotes\png\pointing.png"
         inkscape:export-xdpi="96"
         inkscape:export-ydpi="96"><path
           style="fill:url(#radialGradient64184);fill-opacity:1;stroke:none;stroke-width:0.879101;stroke-linecap:square;stroke-linejoin:miter;stroke-dasharray:none;stroke-opacity:1"
           d="m 514.11789,-317.60945 c 16.01568,36.86523 53.14398,10.31535 51.46592,25.69488 -8.50466,77.94555 -29.9585,116.53279 -56.72349,138.97709 -9.06908,-45.64161 -42.72104,-275.11012 5.25757,-164.67197 z"
           id="path63962"
           sodipodi:nodetypes="sscs" /></g><path
         style="color:#000000;opacity:0.505308;mix-blend-mode:normal;fill:#058bf4;stroke-width:1.25655;stroke-linejoin:bevel;filter:url(#filter33711)"
         d="m 1154.6557,-603.19964 -0.016,-0.0539 c -19.3586,-22.37566 -56.7101,-39.53238 -106.7581,-54.47883 l -0.1252,-0.007 c 47.5331,15.80905 86.0464,34.99997 106.8995,54.54013 z"
         id="path63966"
         sodipodi:nodetypes="cccccc"
         inkscape:transform-center-x="-48.999908"
         inkscape:transform-center-y="25.501042" /><g
         id="g63978"
         style="display:inline;opacity:0;fill:#7fc6fc;fill-opacity:1;stroke:#80c6fc;stroke-opacity:1"
         inkscape:label="head"
         transform="translate(1111.8427,-762.27136)"><path
           style="display:inline;fill:#7fc6fc;fill-opacity:1;stroke:#80c6fc;stroke-width:0.152443;stroke-opacity:1"
           d="m 84.415081,149.2301 c 0.266732,-0.32087 0.271502,-0.3546 0.03811,-0.26949 -0.431851,0.15749 -0.315171,0.0384 0.538552,-0.54956 1.984786,-1.36697 5.758123,-7.61181 7.617013,-12.60609 2.017342,-5.41999 2.499398,-10.36166 1.613468,-16.54003 l -0.174873,-1.21954 -0.199431,0.97365 c -0.399969,1.9527 -1.229305,3.85258 -2.549511,5.84053 -0.987866,1.48751 -2.960945,3.73874 -4.312184,4.92008 -1.671634,1.46144 -2.026949,1.67452 -1.501731,0.90056 1.334384,-1.96632 1.603748,-6.60517 0.618594,-10.65307 -0.405345,-1.66551 -1.261155,-4.03973 -1.456163,-4.03973 -0.06741,0 -0.169261,0.18865 -0.226328,0.41922 -0.05707,0.23057 -0.519072,1.27671 -1.02668,2.32475 -1.184847,2.44632 -1.580228,3.58371 -1.797399,5.17058 -0.267406,1.95393 0.0691,3.82604 1.019143,5.66996 0.632792,1.22816 1.150597,1.7458 2.038008,2.03735 0.604164,0.1985 0.619322,0.21394 0.142518,0.14519 l -0.53355,-0.0769 0.381107,0.22901 0.381106,0.229 -0.416131,0.005 c -0.552774,0.007 -1.592055,-0.40464 -2.249848,-0.8915 -0.292481,-0.21648 -0.909874,-0.57362 -1.371984,-0.79364 -5.03354,-2.39656 -10.431208,-6.77859 -12.846645,-10.42938 -1.640831,-2.48002 -3.978292,-7.24197 -4.525717,-9.21993 -0.09878,-0.35693 -0.138747,-0.32607 -0.686416,0.53008 -1.043454,1.63118 -1.604486,3.43229 -1.40239,4.50218 0.210368,1.11367 1.34413,2.24726 1.83782,1.83754 0.140087,-0.11627 0.192306,-0.0982 0.192306,0.0666 0,0.12443 -0.06748,0.22624 -0.149953,0.22624 -0.08247,0 -0.499785,0.17015 -0.927359,0.37811 -1.409613,0.68558 -3.762295,0.7962 -4.826023,0.22691 -0.971481,-0.51992 -1.647032,-2.50649 -1.460204,-4.29396 l 0.09559,-0.91459 -0.539392,0.47359 c -1.159403,1.01797 -3.430703,1.86767 -6.307767,2.35975 -0.790327,0.13517 -1.819314,0.23677 -2.28664,0.22578 l -0.849682,-0.02 0.847644,-0.10929 c 1.098464,-0.14162 2.173059,-0.83333 3.584194,-2.30715 2.866878,-2.99423 4.032335,-5.94553 3.142363,-7.95746 -0.349753,-0.79067 -1.420821,-1.9315 -2.184183,-2.32643 -0.728232,-0.37676 -1.920946,-0.67073 -2.729894,-0.67284 -0.836569,-0.002 -1.059476,-0.19428 -1.059476,-0.91304 0,-0.65644 0.20184,-0.96968 1.545443,-2.398345 1.265351,-1.345465 1.716937,-2.162585 1.568765,-2.838593 -0.14784,-0.67449 -1.498076,-3.046631 -2.357485,-4.141711 -2.461773,-3.136854 -4.214024,-6.596672 -5.01837,-9.908772 -0.183253,-0.754592 -0.561351,-1.852179 -0.840217,-2.439083 -0.68227,-1.43591 -0.89479,-2.456706 -0.811392,-3.897356 0.05733,-0.990409 0.166123,-1.394166 0.622419,-2.310036 1.428008,-2.866277 5.10516,-6.001464 9.896313,-8.437725 7.548779,-3.83849 14.975266,-5.40038 24.129962,-5.074856 9.544192,0.339373 17.811774,3.078406 25.440239,8.428296 2.57085,1.802958 4.11223,3.135586 7.06549,6.108627 3.61144,3.635625 5.04632,5.324304 11.65782,13.719838 2.61182,3.316584 2.97219,3.631756 5.73936,5.019542 2.70968,1.358959 5.81138,2.366492 7.3012,2.371674 0.46296,0.0016 0.65441,0.06752 0.67075,0.230917 0.0126,0.125765 0.0297,0.306821 0.0381,0.402348 0.0164,0.186771 -0.59798,0.377829 -3.11626,0.969108 -2.66345,0.625367 -5.17391,0.786539 -6.84239,0.439279 l -0.36999,-0.07701 0.40815,0.50512 c 2.44214,3.022358 3.6859,7.773778 3.66372,13.996298 -0.0109,3.05659 -0.13861,4.39092 -0.68579,7.1648 -0.90046,4.56474 -3.43757,10.93236 -5.86134,14.71072 -0.48406,0.75459 -1.11399,1.85218 -1.39984,2.43908 -0.9748,2.00147 -1.52181,2.68758 -0.95647,1.19969 1.31783,-3.46824 0.27891,-8.62552 -2.65233,-13.16644 -1.48549,-2.30122 -5.68628,-6.93265 -8.15119,-8.98682 -0.77308,-0.64424 -0.80242,-0.6555 -0.5782,-0.2219 0.62484,1.20829 0.92748,3.35123 0.71388,5.05472 -0.56232,4.48461 -3.93321,9.98785 -9.827741,16.04453 -1.019985,1.04804 -2.008158,2.11133 -2.195939,2.36286 -1.920802,2.57287 -5.668588,5.64424 -10.548391,8.64457 -0.369146,0.22697 -0.979871,0.67193 -1.357166,0.98881 -0.377296,0.31687 -0.548794,0.41108 -0.381107,0.20936 z m 4.801943,-4.22961 c 2.720633,-2.44845 7.573877,-7.06604 8.204527,-7.80616 2.594249,-3.04454 5.266399,-7.17977 7.033939,-10.88526 2.53232,-5.30876 2.80286,-8.40576 0.99493,-11.3895 -0.47096,-0.77726 -1.92434,-2.33464 -2.81844,-3.02014 -0.44317,-0.33977 -2.11873,-1.19992 -2.894784,-1.48604 -0.487238,-0.17964 -0.499795,-0.19828 -0.140189,-0.20806 1.604793,-0.0436 7.393773,2.97115 11.190653,5.82788 5.32066,4.00321 8.58556,8.24098 9.79057,12.70798 0.35891,1.33049 0.40558,1.78666 0.41381,4.04489 0.0106,2.90924 -0.0162,2.90866 1.05538,0.0226 1.32998,-3.58201 2.57604,-8.73526 3.31174,-13.6962 0.44739,-3.01681 0.56932,-9.04815 0.23421,-11.58564 -0.42735,-3.23596 -1.14119,-5.39451 -2.52446,-7.633597 -1.17777,-1.906433 -1.65982,-2.379888 -3.15214,-3.095956 -1.38632,-0.665201 -3.75909,-2.158556 -5.12818,-3.227531 -2.00079,-1.56219 -5.04842,-4.908478 -6.67961,-7.33419 -0.59805,-0.889337 -0.44593,-0.767285 1.93177,1.549949 4.74426,4.623622 10.14839,8.203249 14.16186,9.380634 1.68063,0.493025 4.06919,0.653566 5.68043,0.381796 0.6068,-0.10235 1.10263,-0.231341 1.10184,-0.286649 -0.002,-0.116737 -2.26851,-0.859423 -2.55199,-0.836104 -0.1048,0.0086 -0.19055,-0.04315 -0.19055,-0.115044 0,-0.07189 -0.11415,-0.08692 -0.25367,-0.03338 -0.18419,0.07068 -0.21949,0.04204 -0.12889,-0.104559 0.0856,-0.138483 0.0661,-0.16565 -0.062,-0.08649 -0.25868,0.159875 -1.85121,-0.660459 -3.13788,-1.616369 -0.58691,-0.43603 -2.57842,-2.306916 -4.42559,-4.157527 -2.98598,-2.991542 -4.27414,-4.373602 -8.74795,-9.385613 -2.00039,-2.241041 -5.699,-6.011115 -7.10133,-7.238543 C 98.445874,68.489238 91.629124,64.870854 84.57155,63.17051 80.538294,62.1988 77.184522,61.818625 72.600776,61.813537 c -4.981989,-0.0055 -7.965989,0.411818 -11.761532,1.644988 -10.68237,3.4707 -18.226859,9.618115 -17.763954,14.474458 0.232465,2.438801 1.331872,5.517847 3.644741,10.207613 1.672648,3.3916 2.499384,4.747626 3.778052,6.196814 1.123012,1.272775 1.558115,2.134103 1.558115,3.084438 0,0.833543 -0.331317,1.430821 -1.526853,2.752522 -0.79849,0.88275 -1.305107,1.57345 -1.45125,1.97857 -0.142124,0.39398 0.403497,0.68117 1.802734,0.94889 0.666036,0.12743 1.589494,0.4166 2.052128,0.64259 1.185892,0.57929 2.330036,1.76514 2.584918,2.67913 0.280951,1.00747 0.145519,2.60242 -0.294321,3.46616 -1.008308,1.98006 -3.39082,4.26139 -5.966436,5.71305 -1.172832,0.66103 -0.822697,0.6105 1.770142,-0.25546 2.14531,-0.71649 2.823476,-1.04571 4.299201,-2.08702 1.189166,-0.83911 1.543732,-1.25098 2.376666,-2.7608 0.300655,-0.54498 0.905262,-1.33387 1.34357,-1.75309 0.563181,-0.53865 0.70612,-0.62808 0.487334,-0.30489 -0.947713,1.39996 -1.702002,3.42017 -2.024584,5.42243 -0.449747,2.79156 0.728793,4.55098 3.0831,4.60269 0.525876,0.0116 1.217009,-0.0679 1.535854,-0.17648 l 0.579715,-0.19749 -0.896985,-0.42421 c -1.018091,-0.48148 -1.483299,-0.98915 -1.723355,-1.88064 -0.409409,-1.52043 0.46718,-3.52163 2.399417,-5.47769 0.476868,-0.48275 0.952521,-0.87773 1.057004,-0.87773 0.104484,0 0.298479,-0.0416 0.431101,-0.0925 0.186805,-0.0717 0.241133,0.0103 0.241133,0.36405 0,0.25112 0.175007,1.0605 0.388905,1.79862 0.878529,3.03162 5.837245,9.7251 9.905865,13.37135 1.610431,1.44325 4.906569,4.02442 5.81971,4.55735 l 0.441233,0.25751 -0.487222,-0.96806 c -1.275416,-2.53412 -1.009245,-6.04141 0.694465,-9.15085 0.321574,-0.58691 0.96682,-1.7493 1.433881,-2.5831 0.472165,-0.84291 0.924885,-1.88057 1.019665,-2.33711 0.168043,-0.80947 0.162635,-0.83291 -0.381095,-1.65182 -0.303358,-0.45689 -0.82387,-1.10302 -1.156695,-1.43585 -1.213265,-1.21326 0.03089,-0.4133 1.709608,1.09923 0.767742,0.69174 2.564833,3.48912 3.160154,4.91915 1.03125,2.47718 1.383382,4.81917 1.08989,7.24877 -0.188693,1.56203 -0.631652,3.23929 -1.097079,4.15406 -0.15997,0.31441 -0.258628,0.57166 -0.219239,0.57166 0.105834,0 1.35117,-1.77817 1.921729,-2.74397 1.55718,-2.63586 2.821309,-5.79815 3.344892,-8.36741 0.567989,-2.78717 0.344503,-6.47345 -0.53395,-8.80729 -0.211371,-0.56156 -0.361606,-1.08914 -0.333854,-1.17239 0.06082,-0.18248 1.293849,1.65643 1.824965,2.72172 0.987321,1.98032 2.664309,7.92401 3.083298,10.92803 0.291529,2.09018 0.29635,5.70268 0.01014,7.60129 -0.772608,5.1252 -3.2541,10.36149 -7.274914,15.35106 -0.489844,0.60786 -0.838628,1.10421 -0.775073,1.10299 0.06355,-0.001 0.698645,-0.52698 1.411314,-1.16835 z"
           id="path63968" /><path
           style="fill:#7fc6fc;fill-opacity:1;stroke:#80c6fc;stroke-width:5.05071;stroke-linecap:square;stroke-linejoin:miter;stroke-dasharray:none;stroke-opacity:1"
           d="m 332.77353,551.7774 c 0.34376,-0.36261 9.15226,-12.07126 11.38776,-15.32046 5.75476,-8.36425 14.22677,-26.62114 16.52838,-35.61807 3.12866,-12.22981 3.8891,-25.10995 2.22208,-37.63689 -2.67892,-20.13086 -11.74446,-47.09834 -17.62047,-52.41605 -3.02305,-2.73583 -3.01184,-2.87925 -0.42843,5.48179 3.09821,10.02712 2.73583,27.44721 -0.80614,38.75365 -2.97272,9.48929 -12.16018,28.73811 -13.58634,28.73811 -0.42908,0 1.75883,-7.57335 2.26345,-11.92128 2.00954,-17.31422 -7.61786,-40.57339 -20.82824,-50.31971 -5.86648,-4.32814 -6.5022,-3.05817 -1.38601,2.76884 2.30276,2.6227 4.18684,5.79832 4.18684,7.05695 0,1.25861 -3.15708,8.54459 -7.01575,16.19105 -6.62829,13.13487 -7.01574,14.46349 -7.01574,24.05768 0,5.58526 5.95521,15.14711 6.59306,16.91763 2.86326,7.94791 -34.08407,-24.37966 -47.07291,-41.57599 -8.10074,-10.72482 -16.31431,-26.25472 -16.31431,-30.84648 0,-4.57109 -3.98262,-4.04478 -8.94257,1.1818 -8.99334,9.47675 -11.0812,20.0539 -5.06002,25.63415 2.81819,2.61181 3.37904,1.95609 1.61598,2.63264 -3.80615,1.46056 -11.19233,-1.2615 -12.77598,-5.80436 -1.86397,-5.34699 -0.055,-15.69952 4.28421,-24.51873 3.82833,-7.78078 1.74641,-7.53967 -4.23776,0.4908 -7.02671,9.42947 -9.68861,11.90751 -16.49726,15.35771 -9.13017,4.62661 -13.31677,6.43176 -6.84341,0.67536 8.97038,-7.97687 15.04849,-16.71546 15.04849,-24.8722 0,-6.35708 -0.44521,-7.41581 -4.68312,-11.13675 -2.57571,-2.26151 -7.98786,-5.07255 -12.02699,-6.24676 -4.03914,-1.17421 -7.33749,-2.54327 -7.32968,-3.04235 0.008,-0.49908 2.40682,-3.91417 5.33113,-7.58909 7.31907,-9.19771 7.1109,-12.61934 -1.47262,-24.20542 -12.07755,-16.30233 -26.59037,-49.9192 -26.59037,-61.59277 0,-10.33152 9.1305,-21.91031 26.27065,-33.31497 30.02809,-19.98001 64.6666,-28.34243 102.01731,-24.629 30.82777,3.06491 55.25484,11.61222 80.90713,28.31033 15.26385,9.93585 28.85754,22.83949 69.83473,66.28975 24.57392,26.05702 37.70066,30.19448 48.55466,34.16477 10.56565,3.86483 -0.2664,6.03711 -13.72211,3.95436 -16.83001,-2.60504 -36.97333,-14.4099 -58.15336,-34.0804 -6.26215,-5.81584 -11.72057,-10.23942 -12.1298,-9.83018 -1.24028,1.24027 9.96431,14.83355 20.17317,24.47387 5.28755,4.99308 13.41515,11.18306 18.06133,13.7555 4.64619,2.57244 10.38472,6.30076 12.75233,8.28513 6.26134,5.24792 12.56975,18.68286 14.96172,31.86382 4.07763,22.46984 -0.42592,61.60683 -10.6036,92.14801 l -6.17928,15.53487 1.33224,-10.8577 c 2.6565,-21.65029 -13.78242,-42.49118 -40.14455,-62.03751 -11.22362,-8.3218 -31.56399,-19.31142 -38.44888,-20.77341 -5.94793,-1.26302 -5.44543,0.0206 1.33633,3.41363 7.23745,3.62102 15.20518,11.1797 18.48781,17.53865 7.54392,14.61371 -1.68507,40.99741 -25.6946,73.45563 -5.95006,8.04382 -47.03701,47.91268 -40.54049,41.06005 z"
           id="path63970"
           transform="scale(0.26458333)"
           sodipodi:nodetypes="sssssssssssssssssssssssssssscsssssssssssssssscsssssss" /><path
           style="fill:#7fc6fc;fill-opacity:1;stroke:#80c6fc;stroke-width:1;stroke-linecap:square;stroke-linejoin:miter;stroke-dasharray:none;stroke-opacity:1"
           d="m 50.721336,114.6621 -2.312617,1.43757 2.437625,-0.37502 z"
           id="path63972" /><path
           style="fill:#7fc6fc;fill-opacity:1;stroke:#80c6fc;stroke-width:1;stroke-linecap:square;stroke-linejoin:miter;stroke-dasharray:none;stroke-opacity:1"
           d="m 61.909409,117.53724 0.781288,0.40627 0.218763,0.0938 -0.468774,0.25001 -0.906297,0.12501 z"
           id="path63974" /><path
           style="fill:#7fc6fc;fill-opacity:1;stroke:#80c6fc;stroke-width:1;stroke-linecap:square;stroke-linejoin:miter;stroke-dasharray:none;stroke-opacity:1"
           d="m 86.910684,128.13154 0.843791,0.28126 -1.437571,1.53133 z"
           id="path63976" /></g><path
         style="color:#000000;opacity:0.505308;mix-blend-mode:normal;fill:#058bf4;stroke-width:1.25655;stroke-linejoin:bevel;filter:url(#filter33715)"
         d="m 1165.2322,-625.27311 -0.031,-0.0485 c -24.9625,-16.9352 -65.5393,-30.19313 -117.5595,-32.21441 l -0.1213,0.0239 c 49.8769,3.49049 92.1535,18.43772 117.712,32.23866 z"
         id="path63980"
         sodipodi:nodetypes="cccccc"
         inkscape:transform-center-x="-57.025737"
         inkscape:transform-center-y="16.541396" /><path
         style="display:inline;fill:#ffffff;fill-opacity:1;stroke:#ffffff;stroke-width:1.33633;stroke-linecap:square;stroke-linejoin:miter;stroke-dasharray:none;stroke-opacity:1"
         d="m 1185.2088,-660.63473 c -4.5407,-1.26585 -7.1818,-3.28113 -8.9129,-6.80081 -1.1528,-2.34401 -1.1637,-2.41404 -1.1424,-7.32176 0.02,-4.63458 0.091,-5.13891 1.0966,-7.79601 1.7316,-4.57546 3.8689,-7.34676 7.1568,-9.2799 4.2262,-2.48487 12.0483,0.41645 16.9108,6.27247 1.075,1.29468 2.7599,4.0245 3.828,6.20188 2.3458,4.78237 3.4101,8.9631 3.2644,12.82328 l -0.1031,2.73386 -1.6044,0.79685 c -0.8824,0.43827 -3.1894,1.21258 -5.1268,1.7207 -4.5012,1.18057 -12.2823,1.50941 -15.367,0.64944 z"
         id="path63982" /><path
         style="display:inline;fill:#000000;stroke-width:0.151646"
         d="m 1184.9279,-658.53976 c -3.0347,-0.41314 -5.8462,-1.48798 -7.5859,-2.90009 -2.6508,-2.15169 -3.9462,-6.12245 -3.553,-10.89123 0.069,-0.83405 0.1909,-2.98364 0.2713,-4.77686 0.164,-3.65963 0.3627,-4.9051 1.1563,-7.24842 1.7655,-5.21306 5.1702,-8.56836 9.629,-9.48935 3.112,-0.64281 5.2299,-0.60198 7.8786,0.15189 1.6201,0.46111 4.5986,1.93068 5.9906,2.95569 1.6119,1.18697 4.2642,3.95639 5.3583,5.595 3.4605,5.18228 5.4483,12.55227 4.7158,17.48403 -0.1926,1.29684 -0.7169,3.28679 -0.9375,3.55849 -0.2867,0.35305 0.013,0.37534 0.5221,0.0388 0.4536,-0.30012 0.4436,-0.27869 -0.105,0.22413 -1.6044,1.4705 -5.788,3.25484 -9.9328,4.23637 -5.0351,1.19235 -9.7217,1.56342 -13.4078,1.06157 z m 11.9251,-1.71364 c 3.3352,-0.59762 7.4898,-1.7861 9.6222,-2.75256 0.9173,-0.41579 0.9388,-0.43923 1.0615,-1.15941 0.069,-0.40428 0.1192,-1.8269 0.1119,-3.16139 -0.015,-2.82361 -0.2922,-4.38826 -1.3378,-7.56506 -2.4613,-7.47802 -6.663,-13.08273 -11.9838,-15.98532 -2.4062,-1.31258 -4.5055,-1.96422 -6.7829,-2.10544 -1.7212,-0.10673 -2.4347,0.0395 -4.0215,0.82408 -2.4609,1.21685 -4.6664,3.50691 -6.1699,6.40672 -0.9073,1.74993 -1.7709,4.15214 -2.126,5.91421 -0.6623,3.28616 -0.704,7.82966 -0.092,10.08447 0.7319,2.69877 2.306,5.169 4.2538,6.67547 1.9737,1.52647 4.4343,2.47625 7.8576,3.03296 1.9761,0.32136 7.2937,0.20582 9.6073,-0.20873 z"
         id="path63984" /><ellipse
         style="fill:#000000;fill-opacity:1;stroke:none;stroke-width:1.07173;stroke-linecap:square;stroke-linejoin:miter;stroke-dasharray:none;stroke-opacity:1"
         id="ellipse63986"
         cx="1188.4794"
         cy="-676.1767"
         rx="11.718368"
         ry="13.751404" /><path
         style="fill:#058bf4;fill-opacity:1;stroke:none;stroke-width:1;stroke-linecap:square;stroke-linejoin:miter;stroke-dasharray:none;stroke-opacity:1"
         d="m 1158.7249,-690.70348 c 0,0 6.069,3.69466 15.4688,-6.45267 9.209,-9.94135 18.3258,-6.37958 29.1696,2.65178 0.1428,0.11893 -19.7828,-5.55149 -24.9697,1.91108 -4.584,6.59524 -22.2438,13.28203 -19.6687,1.88981 z"
         id="path63992"
         sodipodi:nodetypes="sssss" /><path
         style="fill:url(#linearGradient64182);fill-opacity:1;stroke:none;stroke-width:1;stroke-linecap:square;stroke-linejoin:miter;stroke-dasharray:none;stroke-opacity:1"
         d="m 1169.2672,-652.54393 c 0,0 -31.3473,13.89396 -29.8759,27.30468 7.3989,67.43284 171.8849,113.6819 172.836,113.51925 0,0 -66.8971,-115.14626 -79.4569,-143.57408 -8.5625,-19.38034 -63.5032,2.75015 -63.5032,2.75015 z"
         id="path63994"
         sodipodi:nodetypes="cscsc" /><path
         style="color:#000000;opacity:0.505308;mix-blend-mode:normal;fill:#058bf4;stroke-width:1.25655;stroke-linejoin:bevel;filter:url(#filter33719)"
         d="m 1168.3878,-648.46606 -0.041,-0.0421 c -27.8583,-12.01138 -70.0349,-17.40919 -120.8452,-9.50441 l -0.1123,0.0469 c 49.0549,-6.04225 93.2452,0.70422 120.9982,9.49936 z"
         id="path63996"
         sodipodi:nodetypes="cccccc"
         inkscape:transform-center-x="-54.46356"
         inkscape:transform-center-y="3.498292" /><g
         id="g64034"
         style="opacity:0.75"
         transform="translate(896.87129,-773.58564)"><g
           id="g64004"
           transform="matrix(-0.92480689,0.38043687,0.38043687,0.92480689,461.07046,-78.39208)"
           style="opacity:0.0973598;fill:url(#linearGradient64156);fill-opacity:1"
           clip-path="url(#clipPath11549)"><path
             style="fill:url(#linearGradient64150);fill-opacity:1;stroke-width:1;stroke-linejoin:bevel"
             d="m 246.08743,143.70727 c -8.68239,7.55464 -0.3913,15.97525 2.45914,23.27168 1.82614,4.67447 1.48427,11.91109 1.48427,11.91109 2.20221,-1.10232 13.63991,-22.46966 4.70144,-20.87101 -2.71835,0.48617 6.02676,-0.29708 3.9383,7.93711 8.76126,-4.62843 0.1206,-15.67381 -3.54105,-18.18298 z"
             id="path63998"
             sodipodi:nodetypes="cscsccc" /><path
             style="fill:url(#linearGradient64152);fill-opacity:1;stroke-width:1;stroke-linejoin:bevel"
             d="m 256.84292,148.31409 c 1.31931,1.11114 9.46336,10.6165 5.43412,21.91111 5.41244,-10.82719 12.27615,-1.2127 14.8948,7.07357 1.40409,-2.0232 1.19694,-26.25831 -5.88072,-20.56987 -2.15244,1.72997 5.14648,-3.15022 7.26157,5.07718 4.87786,-14.00739 -12.80723,-14.44531 -21.70977,-13.49199 z"
             id="path64000"
             sodipodi:nodetypes="cccscc" /><path
             style="fill:url(#linearGradient64154);fill-opacity:1;stroke-width:0.577918;stroke-linejoin:bevel"
             d="m 287.21762,142.99366 c -0.21233,0.97396 -0.58997,8.19796 5.23737,11.94905 -6.2959,-3.04936 -6.04879,3.77316 -4.32621,8.49074 -1.35629,-0.43136 -9.80649,-11.60158 -4.55997,-11.49238 1.59556,0.0332 -3.4673,0.37213 -1.53489,4.88519 -7.17242,-4.69406 0.77112,-11.13018 5.1837,-13.8326 z"
             id="path64002"
             sodipodi:nodetypes="cccscc" /></g><g
           id="g64014"
           transform="translate(-0.35357142,0.92488531)"
           style="opacity:0.29703;fill:url(#linearGradient64166);fill-opacity:1"
           clip-path="url(#clipPath11517)"><path
             style="fill:url(#linearGradient64158);fill-opacity:1;stroke-width:1;stroke-linejoin:bevel"
             d="m 246.08743,143.70727 c -8.68239,7.55464 -0.3913,15.97525 2.45914,23.27168 1.82614,4.67447 1.48427,11.91109 1.48427,11.91109 2.20221,-1.10232 13.63991,-22.46966 4.70144,-20.87101 -2.71835,0.48617 6.02676,-0.29708 3.9383,7.93711 8.76126,-4.62843 0.1206,-15.67381 -3.54105,-18.18298 z"
             id="path64006"
             sodipodi:nodetypes="cscsccc" /><path
             style="fill:url(#linearGradient64160);fill-opacity:1;stroke-width:1;stroke-linejoin:bevel"
             d="m 256.84292,148.31409 c 1.31931,1.11114 9.46336,10.6165 5.43412,21.91111 5.41244,-10.82719 12.27615,-1.2127 14.8948,7.07357 1.40409,-2.0232 1.19694,-26.25831 -5.88072,-20.56987 -2.15244,1.72997 5.14648,-3.15022 7.26157,5.07718 4.87786,-14.00739 -12.80723,-14.44531 -21.70977,-13.49199 z"
             id="path64008"
             sodipodi:nodetypes="cccscc" /><path
             style="fill:url(#linearGradient64162);fill-opacity:1;stroke-width:0.577918;stroke-linejoin:bevel"
             d="m 290.5182,137.09193 c 6.63935,0.39792 5.8119,7.17705 7.07934,11.5231 0.81199,2.78431 3.5201,5.97739 3.5201,5.97739 -1.39706,0.27174 -14.16827,-5.47949 -9.51169,-7.89909 1.41614,-0.73584 -2.86439,1.98895 0.9952,5.02299 -5.64369,0.96979 -5.58165,-7.13447 -4.7897,-9.57448 z"
             id="path64010"
             sodipodi:nodetypes="cscsccc" /><path
             style="fill:url(#linearGradient64164);fill-opacity:1;stroke-width:0.577918;stroke-linejoin:bevel"
             d="m 287.21762,142.99366 c -0.21233,0.97396 -0.58997,8.19796 5.23737,11.94905 -6.2959,-3.04936 -6.04879,3.77316 -4.32621,8.49074 -1.35629,-0.43136 -9.80649,-11.60158 -4.55997,-11.49238 1.59556,0.0332 -3.4673,0.37213 -1.53489,4.88519 -7.17242,-4.69406 0.77112,-11.13018 5.1837,-13.8326 z"
             id="path64012"
             sodipodi:nodetypes="cccscc" /></g><g
           id="g64022"
           transform="matrix(-0.92480689,0.38043687,0.38043687,0.92480689,460.82045,-79.392131)"><path
             style="fill:url(#linearGradient64168);fill-opacity:1;stroke-width:1;stroke-linejoin:bevel"
             d="m 246.08743,143.70727 c -8.68239,7.55464 -0.3913,15.97525 2.45914,23.27168 1.82614,4.67447 1.48427,11.91109 1.48427,11.91109 2.20221,-1.10232 13.63991,-22.46966 4.70144,-20.87101 -2.71835,0.48617 6.02676,-0.29708 3.9383,7.93711 8.76126,-4.62843 0.1206,-15.67381 -3.54105,-18.18298 z"
             id="path64016"
             sodipodi:nodetypes="cscsccc" /><path
             style="fill:url(#linearGradient64170);fill-opacity:1;stroke-width:1;stroke-linejoin:bevel"
             d="m 256.84292,148.31409 c 1.31931,1.11114 9.46336,10.6165 5.43412,21.91111 5.41244,-10.82719 12.27615,-1.2127 14.8948,7.07357 1.40409,-2.0232 1.19694,-26.25831 -5.88072,-20.56987 -2.15244,1.72997 5.14648,-3.15022 7.26157,5.07718 4.87786,-14.00739 -12.80723,-14.44531 -21.70977,-13.49199 z"
             id="path64018"
             sodipodi:nodetypes="cccscc" /><path
             style="fill:url(#linearGradient64172);fill-opacity:1;stroke-width:0.577918;stroke-linejoin:bevel"
             d="m 287.21762,142.99366 c -0.21233,0.97396 -0.58997,8.19796 5.23737,11.94905 -6.2959,-3.04936 -6.04879,3.77316 -4.32621,8.49074 -1.35629,-0.43136 -9.80649,-11.60158 -4.55997,-11.49238 1.59556,0.0332 -3.4673,0.37213 -1.53489,4.88519 -7.17242,-4.69406 0.77112,-11.13018 5.1837,-13.8326 z"
             id="path64020"
             sodipodi:nodetypes="cccscc" /></g><g
           id="g64032"
           transform="translate(-0.35357142,-1.2500637)"><path
             style="fill:url(#linearGradient64174);fill-opacity:1;stroke-width:1;stroke-linejoin:bevel"
             d="m 246.08743,143.70727 c -8.68239,7.55464 -0.3913,15.97525 2.45914,23.27168 1.82614,4.67447 1.48427,11.91109 1.48427,11.91109 2.20221,-1.10232 13.63991,-22.46966 4.70144,-20.87101 -2.71835,0.48617 6.02676,-0.29708 3.9383,7.93711 8.76126,-4.62843 0.1206,-15.67381 -3.54105,-18.18298 z"
             id="path64024"
             sodipodi:nodetypes="cscsccc" /><path
             style="fill:url(#linearGradient64176);fill-opacity:1;stroke-width:1;stroke-linejoin:bevel"
             d="m 256.84292,148.31409 c 1.31931,1.11114 9.46336,10.6165 5.43412,21.91111 5.41244,-10.82719 12.27615,-1.2127 14.8948,7.07357 1.40409,-2.0232 1.19694,-26.25831 -5.88072,-20.56987 -2.15244,1.72997 5.14648,-3.15022 7.26157,5.07718 4.87786,-14.00739 -12.80723,-14.44531 -21.70977,-13.49199 z"
             id="path64026"
             sodipodi:nodetypes="cccscc" /><path
             style="fill:url(#linearGradient64178);fill-opacity:1;stroke-width:0.577918;stroke-linejoin:bevel"
             d="m 290.5182,137.09193 c 6.63935,0.39792 5.8119,7.17705 7.07934,11.5231 0.81199,2.78431 3.5201,5.97739 3.5201,5.97739 -1.39706,0.27174 -14.16827,-5.47949 -9.51169,-7.89909 1.41614,-0.73584 -2.86439,1.98895 0.9952,5.02299 -5.64369,0.96979 -5.58165,-7.13447 -4.7897,-9.57448 z"
             id="path64028"
             sodipodi:nodetypes="cscsccc" /><path
             style="fill:url(#linearGradient64180);fill-opacity:1;stroke-width:0.577918;stroke-linejoin:bevel"
             d="m 287.21762,142.99366 c -0.21233,0.97396 -0.58997,8.19796 5.23737,11.94905 -6.2959,-3.04936 -6.04879,3.77316 -4.32621,8.49074 -1.35629,-0.43136 -9.80649,-11.60158 -4.55997,-11.49238 1.59556,0.0332 -3.4673,0.37213 -1.53489,4.88519 -7.17242,-4.69406 0.77112,-11.13018 5.1837,-13.8326 z"
             id="path64030"
             sodipodi:nodetypes="cccscc" /></g></g><path
         style="opacity:0.324841;fill:#333333;fill-opacity:1;stroke:none;stroke-width:0.879101;stroke-linecap:square;stroke-linejoin:miter;stroke-dasharray:none;stroke-opacity:1;filter:url(#filter20792)"
         d="m 287.86221,148.94391 c 9.20506,-39.12561 43.67876,-38.80914 51.56355,-25.49839 l 76.50303,129.14903 C 376.13502,234.08561 273.17263,211.38115 287.86221,148.94391 Z"
         id="path64036"
         sodipodi:nodetypes="sscs"
         clip-path="url(#clipPath20798)"
         transform="translate(896.87129,-773.58564)" /><path
         style="fill:url(#radialGradient64148);fill-opacity:1;stroke:none;stroke-width:0.886799;stroke-linecap:square;stroke-linejoin:miter;stroke-dasharray:none;stroke-opacity:1"
         d="m 1244.5213,-525.3676 c 3.7188,0.2401 10.6705,2.12188 7.9764,5.66295 -5.7955,7.61756 -17.2138,3.08062 -20.5182,10.32795 -1.8813,5.3303 2.8219,3.91934 2.8219,3.91934 0,0 -4.5464,2.66514 -7.8387,1.41096 -3.2922,-1.25419 -17.5586,-14.42317 -13.3257,-17.40185 4.2329,-2.9787 20.5286,-4.58798 30.8843,-3.91935 z"
         id="path64038"
         sodipodi:nodetypes="ssccsss" /><path
         style="fill:url(#radialGradient64146);fill-opacity:1;stroke:none;stroke-width:0.879101;stroke-linecap:square;stroke-linejoin:miter;stroke-dasharray:none;stroke-opacity:1"
         d="m 1186.1514,-628.57639 c 10.3427,-38.84038 44.7925,-37.5182 52.2855,-23.98307 l 72.7023,131.32618 c -39.2368,-19.66212 -141.4929,-45.36105 -124.9878,-107.34311 z"
         id="path64040"
         sodipodi:nodetypes="sscs" /><path
         style="opacity:0.113861;mix-blend-mode:normal;fill:#333333;fill-opacity:1;stroke:none;stroke-width:1;stroke-linecap:square;stroke-linejoin:miter;stroke-dasharray:none;stroke-opacity:1;filter:url(#filter14350)"
         d="M 267.83036,118.0881 256.33929,89.80238 c 7.264,-16.858781 55.5673,-33.67666 80.26071,13.61251 5.2415,5.84195 8.92433,6.16963 13.25893,6.54107 l -10.78392,2.82857 c 13.23689,13.48714 -1.14853,29.4671 -3.71251,39.06965 -1.78716,-2.9786 -1.54916,-14.70963 -12.19821,-22.27501 0.5191,22.13657 -9.67817,26.18621 -24.21965,34.29643 12.65009,-17.25721 12.27459,-25.04125 9.54643,-31.11428 0.35425,11.02971 -7.24821,12.90535 -7.24821,12.90535 3.02545,-9.30049 0.36757,-12.40099 -1.59107,-16.26428 -6.97099,9.68253 -5.44451,15.15906 -1.2375,17.85536 -15.08918,-2.68592 -17.29378,-14.51761 -20.33036,-22.45179 -5.53044,2.53393 -3.56267,5.06786 -1.2375,7.60179 -4.62789,0.13057 -7.14413,-1.20077 -5.65715,-5.30358 l -9.89999,3.88929 c 6.95962,-3.86798 6.54107,-12.90536 6.54107,-12.90536 z"
         id="path64042"
         sodipodi:nodetypes="ccccccccccccccccc"
         clip-path="url(#clipPath15088)"
         transform="translate(896.87129,-773.58564)" /><path
         style="fill:url(#linearGradient64144);fill-opacity:1;stroke:none;stroke-width:1;stroke-linecap:square;stroke-linejoin:miter;stroke-dasharray:none;stroke-opacity:1"
         d="m 1164.7016,-657.61422 -11.491,-28.28571 c 7.264,-16.85878 55.5673,-33.67666 80.2607,13.6125 5.2415,5.84195 8.9243,6.16963 13.2589,6.54107 l -10.7839,2.82857 c 13.2369,13.48714 -1.1485,29.4671 -3.7125,39.06965 -1.7872,-2.9786 -1.5492,-14.70963 -12.1982,-22.27501 0.5191,22.13657 -9.6782,26.18621 -24.2197,34.29643 12.6501,-17.25721 12.2746,-25.04125 9.5464,-31.11428 0.3543,11.02971 -7.2482,12.90535 -7.2482,12.90535 3.0255,-9.30049 0.3676,-12.40099 -1.591,-16.26428 -6.971,9.68253 -5.4445,15.15906 -1.2375,17.85536 -15.0892,-2.68592 -17.2938,-14.51761 -20.3304,-22.45179 -5.5304,2.53393 -3.5627,5.06786 -1.2375,7.60179 -4.6279,0.13057 -7.1441,-1.20077 -5.6571,-5.30358 l -9.9,3.88929 c 6.9596,-3.86798 6.541,-12.90536 6.541,-12.90536 z"
         id="path64044"
         sodipodi:nodetypes="ccccccccccccccccc" /><path
         style="fill:url(#radialGradient64142);fill-opacity:1;stroke:none;stroke-width:1;stroke-linecap:square;stroke-linejoin:miter;stroke-dasharray:none;stroke-opacity:1"
         d="m 1164.7016,-657.61422 -11.491,-28.28571 c 7.264,-16.85878 55.5673,-33.67666 80.2607,13.6125 5.2415,5.84195 8.9243,6.16963 13.2589,6.54107 l -10.7839,2.82857 c 13.2369,13.48714 -1.1485,29.4671 -3.7125,39.06965 -1.7872,-2.9786 -1.5492,-14.70963 -12.1982,-22.27501 0.5191,22.13657 -9.6782,26.18621 -24.2197,34.29643 12.6501,-17.25721 12.2746,-25.04125 9.5464,-31.11428 0.3543,11.02971 -7.2482,12.90535 -7.2482,12.90535 3.0255,-9.30049 0.3676,-12.40099 -1.591,-16.26428 -6.971,9.68253 -5.4445,15.15906 -1.2375,17.85536 -15.0892,-2.68592 -17.2938,-14.51761 -20.3304,-22.45179 -5.5304,2.53393 -3.5627,5.06786 -1.2375,7.60179 -4.6279,0.13057 -7.1441,-1.20077 -5.6571,-5.30358 l -9.9,3.88929 c 6.9596,-3.86798 6.541,-12.90536 6.541,-12.90536 z"
         id="path64046"
         sodipodi:nodetypes="ccccccccccccccccc" /><path
         style="fill:url(#radialGradient64138);fill-opacity:1;stroke:none;stroke-width:1.0582;stroke-linecap:square;stroke-linejoin:miter;stroke-dasharray:none;stroke-opacity:1"
         d="m 1264.4754,-517.47538 c 4.4375,0.28651 12.7329,2.532 9.5181,6.75751 -6.9158,9.08991 -20.541,3.67606 -24.4841,12.32418 -2.2449,6.36057 3.3673,4.67689 3.3673,4.67689 0,0 -5.4252,3.18028 -9.3537,1.68368 -3.9286,-1.4966 -20.9525,-17.21094 -15.9015,-20.76538 5.0511,-3.55443 24.4965,-5.47476 36.8539,-4.67688 z"
         id="path64052"
         sodipodi:nodetypes="ssccsss" /><path
         style="opacity:0.113861;mix-blend-mode:normal;fill:#333333;fill-opacity:1;stroke:none;stroke-width:1;stroke-linecap:square;stroke-linejoin:miter;stroke-dasharray:none;stroke-opacity:1;filter:url(#filter16594)"
         d="m 175.72501,-311.49642 c -3.60725,-10.11856 -20.46364,-29.1827 -19.97679,-19.88839 -19.7149,5.3018 -8.83928,21.74464 -8.83928,21.74464 0,0 19.98993,8.9794 28.81607,-1.85625 z"
         id="path64060"
         sodipodi:nodetypes="cccc"
         clip-path="url(#clipPath28517)"
         transform="translate(997.28561,-352.12851)" /><path
         style="opacity:0.10231;mix-blend-mode:normal;fill:#333333;fill-opacity:1;stroke:none;stroke-width:1;stroke-linecap:square;stroke-linejoin:miter;stroke-dasharray:none;stroke-opacity:1;filter:url(#filter16620)"
         d="m 274.26419,130.83677 c 10.10987,-0.94994 -8.55286,-28.10468 -8.22619,-18.63832 -19.7149,5.30181 1.16123,3.99373 1.16123,3.99373 -46.44787,30.43659 -21.79655,40.17285 7.06496,14.64459 z"
         id="path64062"
         sodipodi:nodetypes="cccc"
         clip-path="url(#clipPath16608)"
         transform="translate(896.87129,-773.58564)" /><path
         style="fill:url(#linearGradient64134);fill-opacity:1;stroke:none;stroke-width:1;stroke-linecap:square;stroke-linejoin:miter;stroke-dasharray:none;stroke-opacity:1"
         d="m 1165.1291,-669.65093 c 1.4668,1.51749 4.4219,2.32075 3.8074,4.83695 -6.2643,13.50148 -24.9977,13.64005 -27.1429,22.53829 -5.4574,-14.6034 12.7861,-19.7844 23.3355,-27.37524 z"
         id="path64064"
         sodipodi:nodetypes="cccc" /><path
         style="opacity:1;fill:#88570c;fill-opacity:1;stroke:none;stroke-width:1;stroke-linejoin:bevel"
         d="m 1162.3565,-664.14441 c 0.5864,-2.0295 -19.5407,12.21335 -20.5948,21.75111 -4.7884,-14.39203 6.6876,-17.74652 15.532,-24.75127 z"
         id="path64066"
         sodipodi:nodetypes="cccc" /><path
         style="fill:url(#linearGradient64132);fill-opacity:1;stroke:none;stroke-width:1;stroke-linecap:square;stroke-linejoin:miter;stroke-dasharray:none;stroke-opacity:1"
         d="m 1169.5375,-667.28874 c -12.4538,-5.07661 -6.9426,-20.06523 -15.8956,-19.29914 -5.6371,0.74467 -23.4159,10.97747 -24.8437,14.35063 -2.8643,6.76725 -1.9983,17.19849 5.8696,23.3992 0.3727,-24.87503 23.7035,-6.1805 34.8697,-18.45069 z"
         id="path64068"
         sodipodi:nodetypes="ccscc" /><path
         style="color:#000000;opacity:0.781316;fill:url(#linearGradient64128);fill-opacity:1;stroke-width:1.19443;stroke-linejoin:bevel;filter:url(#filter22046)"
         d="m 1232.2372,-601.89744 10e-4,0.0559 c 11.7273,25.6518 37.6064,54.81167 77.9366,79.03818 l 0.1078,0.0313 c -37.9266,-24.59235 -64.3481,-55.96995 -78.0457,-79.12536 z"
         id="path64072"
         sodipodi:nodetypes="cccccc"
         inkscape:transform-center-x="38.849123"
         inkscape:transform-center-y="-38.776314" /><path
         style="color:#000000;opacity:0.781316;fill:url(#linearGradient64126);fill-opacity:1;stroke-width:1.19443;stroke-linejoin:bevel;filter:url(#filter22046)"
         d="m 335.36591,171.6882 0.001,0.0559 c 11.72736,25.6518 37.60639,54.81167 77.93657,79.03818 l 0.1078,0.0313 C 375.4847,226.22123 349.06323,194.84363 335.36564,171.68822 Z"
         id="path64074"
         sodipodi:nodetypes="cccccc"
         inkscape:transform-center-x="30.863146"
         inkscape:transform-center-y="-45.393924"
         transform="rotate(10.846123,4936.0096,4586.8941)" /><path
         style="color:#000000;fill:#058bf4;stroke-width:1.19443;stroke-linejoin:bevel"
         d="m 1250.2631,-616.13803 -0.012,0.0544 c 5.0304,27.95224 26.8756,58.87449 59.8988,93.19472 l 0.097,0.0594 c -30.6109,-34.02289 -52.4354,-67.2341 -59.9833,-93.30857 z"
         id="path64076"
         sodipodi:nodetypes="cccccc" /><path
         style="color:#000000;opacity:0.781316;fill:url(#linearGradient64124);fill-opacity:1;stroke-width:1.19443;stroke-linejoin:bevel;filter:url(#filter22046)"
         d="m 335.36591,171.6882 0.001,0.0559 c 11.72736,25.6518 37.60639,54.81167 77.93657,79.03818 l 0.1078,0.0313 C 375.4847,226.22123 349.06323,194.84363 335.36564,171.68822 Z"
         id="path64078"
         sodipodi:nodetypes="cccccc"
         inkscape:transform-center-x="47.119901"
         inkscape:transform-center-y="-28.152681"
         transform="rotate(-14.089279,-2268.3391,-3765.6053)" /><path
         style="color:#000000;fill:#058bf4;stroke-width:1.19443;stroke-linejoin:bevel"
         d="m 1233.934,-603.54834 3e-4,0.0559 c 11.1749,25.89724 36.423,55.60504 76.2247,80.69031 l 0.1072,0.0336 c -37.3914,-25.3995 -63.1343,-57.33614 -76.3325,-80.77979 z"
         id="path64080"
         sodipodi:nodetypes="cccccc" /><path
         style="color:#000000;fill:#058bf4;stroke-width:1.19443;stroke-linejoin:bevel"
         d="m 1217.572,-581.40476 0.013,0.0542 c 16.8337,22.23789 48.1973,44.54934 92.6037,58.63277 l 0.1116,0.005 c -42.1416,-15.00847 -74.5011,-39.354 -92.7287,-58.69185 z"
         id="path64082"
         sodipodi:nodetypes="cccccc" /><path
         id="path64084"
         style="opacity:0.246285;mix-blend-mode:normal;fill:#ffffff;fill-opacity:0.941043;stroke:none;stroke-width:1;stroke-linejoin:bevel;filter:url(#filter20908)"
         d="m 258.39914,129.45784 c -3.49364,3.2147 -7.58753,8.03074 -7.24488,12.75961 0.13033,1.79859 0.38463,3.57176 0.74731,5.31937 a 9.8999996,9.8999996 0 0 0 5.49847,1.67029 9.8999996,9.8999996 0 0 0 9.89989,-9.90003 9.8999996,9.8999996 0 0 0 -8.90079,-9.84924 z"
         transform="matrix(2.4956333,0,0,1.6481078,512.60243,-859.62883)" /><g
         id="g64090"
         clip-path="url(#clipPath24284)"
         style="opacity:0.751592;filter:url(#filter26599)"
         transform="matrix(1.1280383,0,0,1.1280383,852.48111,-807.48872)"><ellipse
           style="opacity:0.159236;fill:#333333;fill-opacity:0.941043;stroke:none;stroke-width:1;stroke-linejoin:bevel;filter:url(#filter24262)"
           id="ellipse64086"
           cx="363.76855"
           cy="259.63824"
           rx="8.1254148"
           ry="1.6250829"
           transform="matrix(1.244269,0,0,2.000993,-88.857375,-259.33354)" /><ellipse
           style="opacity:0.218684;fill:#333333;fill-opacity:0.941043;stroke:none;stroke-width:1;stroke-linejoin:bevel;filter:url(#filter24262)"
           id="ellipse64088"
           cx="363.76855"
           cy="259.63824"
           rx="8.1254148"
           ry="1.6250829"
           transform="matrix(1.244269,0,0,2.000993,-105.60823,-266.58391)" /></g><g
         id="g64116"
         transform="translate(865.63123,-613.3631)"><path
           style="display:inline;fill:#ffffff;fill-opacity:1;stroke:#ffffff;stroke-width:1.33633;stroke-linecap:square;stroke-linejoin:miter;stroke-dasharray:none;stroke-opacity:1"
           d="m 319.23248,-47.85628 c -4.54066,-1.26585 -7.18179,-3.28113 -8.91283,-6.80081 -1.15282,-2.34401 -1.16375,-2.41404 -1.14245,-7.32176 0.0201,-4.63458 0.0911,-5.13891 1.09664,-7.79601 1.73159,-4.57546 3.86884,-7.34676 7.15673,-9.2799 4.22628,-2.48487 12.04835,0.41645 16.91083,6.27247 1.07503,1.29468 2.75995,4.0245 3.82798,6.20188 2.34581,4.78237 3.41011,8.9631 3.26446,12.82328 l -0.10315,2.73386 -1.60435,0.79685 c -0.8824,0.43827 -3.18945,1.21258 -5.12679,1.7207 -4.50124,1.18057 -12.28234,1.50941 -15.36707,0.64944 z"
           id="path64094" /><path
           style="display:inline;fill:#000000;stroke-width:0.151646"
           d="m 318.95156,-45.76131 c -3.03464,-0.41314 -5.84611,-1.48798 -7.58583,-2.90009 -2.65087,-2.15169 -3.94623,-6.12245 -3.553,-10.89123 0.0688,-0.83405 0.19083,-2.98364 0.27123,-4.77686 0.16409,-3.65963 0.36279,-4.9051 1.15639,-7.24842 1.76548,-5.21306 5.17015,-8.56836 9.62896,-9.48935 3.11201,-0.64281 5.22985,-0.60198 7.87859,0.15189 1.62012,0.46111 4.59864,1.93068 5.99058,2.95569 1.6119,1.18697 4.26418,3.95639 5.35835,5.595 3.46046,5.18228 5.4483,12.55227 4.7158,17.48403 -0.19261,1.29684 -0.71688,3.28679 -0.93751,3.55849 -0.28669,0.35305 0.0134,0.37534 0.52208,0.0388 0.45363,-0.30012 0.4436,-0.27869 -0.105,0.22413 -1.60435,1.4705 -5.78802,3.25484 -9.93283,4.23637 -5.03506,1.19235 -9.72166,1.56342 -13.40781,1.06157 z m 11.92513,-1.71364 c 3.33525,-0.59762 7.48984,-1.7861 9.62217,-2.75256 0.91735,-0.41579 0.93882,-0.43923 1.06152,-1.15941 0.0689,-0.40428 0.11924,-1.8269 0.11192,-3.16139 -0.0155,-2.82361 -0.29219,-4.38826 -1.3378,-7.56506 -2.46129,-7.47802 -6.66302,-13.08273 -11.98384,-15.98532 -2.40614,-1.31258 -4.50546,-1.96422 -6.7829,-2.10544 -1.7212,-0.10673 -2.43462,0.0395 -4.02143,0.82408 -2.46096,1.21685 -4.66638,3.50691 -6.16993,6.40672 -0.90734,1.74993 -1.77087,4.15214 -2.12601,5.91421 -0.66231,3.28616 -0.70395,7.82966 -0.0924,10.08447 0.73194,2.69877 2.30606,5.169 4.25386,6.67547 1.97366,1.52647 4.43429,2.47625 7.85757,3.03296 1.97608,0.32136 7.2937,0.20582 9.60729,-0.20873 z"
           id="path64096" /><ellipse
           style="fill:#000000;fill-opacity:1;stroke:none;stroke-width:1.07173;stroke-linecap:square;stroke-linejoin:miter;stroke-dasharray:none;stroke-opacity:1"
           id="ellipse64098"
           cx="322.50299"
           cy="-63.398281"
           rx="11.718368"
           ry="13.751404" /><path
           style="fill:none;fill-opacity:1;stroke:none;stroke-width:1;stroke-linecap:square;stroke-linejoin:miter;stroke-dasharray:none;stroke-opacity:1"
           d="m 337.08784,-68.87862 -10.78393,5.65714 10.96071,8.13214 z"
           id="path64100" /><ellipse
           style="fill:#ffffff;fill-opacity:1;stroke:none;stroke-width:1.06069;stroke-linecap:square;stroke-linejoin:miter;stroke-dasharray:none;stroke-opacity:1"
           id="ellipse64102"
           cx="329.80817"
           cy="-63.738537"
           rx="8.3129234"
           ry="4.625236" /><path
           style="display:inline;fill:url(#linearGradient64118);fill-opacity:1;stroke:none;stroke-width:1.38761;stroke-linecap:square;stroke-linejoin:miter;stroke-dasharray:none;stroke-opacity:1"
           d="m 318.99926,-47.24982 c -4.71491,-1.31443 -7.4574,-3.40704 -9.25487,-7.06179 -1.19706,-2.43396 -1.20841,-2.50668 -1.18629,-7.60274 0.0209,-4.81243 0.0946,-5.33611 1.13873,-8.09518 1.79804,-4.75104 4.0173,-7.6287 7.43137,-9.63602 4.38846,-2.58023 12.51071,0.43242 17.55979,6.51317 1.11628,1.34438 2.86586,4.17895 3.97488,6.43989 2.43583,4.96589 3.54097,9.30706 3.38973,13.31537 l -0.10711,2.83878 -1.66591,0.82743 c -0.91627,0.45509 -3.31185,1.25911 -5.32354,1.78673 -4.67397,1.22587 -12.75368,1.56733 -15.95678,0.67436 z"
           id="path64104" /><ellipse
           style="fill:url(#radialGradient64120);fill-opacity:1;stroke:none;stroke-width:1.05711;stroke-linecap:square;stroke-linejoin:miter;stroke-dasharray:none;stroke-opacity:1"
           id="ellipse64108"
           cx="319.12003"
           cy="-63.110626"
           rx="11.400809"
           ry="13.751404" /><path
           style="display:inline;fill:#000000;stroke-width:0.151646"
           d="m 318.95156,-45.76131 c -3.03464,-0.41314 -5.84611,-1.48798 -7.58583,-2.90009 -2.65087,-2.15169 -3.94623,-6.12245 -3.553,-10.89123 0.0688,-0.83405 0.19083,-2.98364 0.27123,-4.77686 0.16409,-3.65963 0.36279,-4.9051 1.15639,-7.24842 1.76548,-5.21306 5.17015,-8.56836 9.62896,-9.48935 3.11201,-0.64281 5.22985,-0.60198 7.87859,0.15189 1.62012,0.46111 4.59864,1.93068 5.99058,2.95569 1.6119,1.18697 4.26418,3.95639 5.35835,5.595 3.46046,5.18228 5.4483,12.55227 4.7158,17.48403 -0.19261,1.29684 -0.71688,3.28679 -0.93751,3.55849 -0.28669,0.35305 0.0134,0.37534 0.52208,0.0388 0.45363,-0.30012 0.4436,-0.27869 -0.105,0.22413 -1.60435,1.4705 -5.78802,3.25484 -9.93283,4.23637 -5.03506,1.19235 -9.72166,1.56342 -13.40781,1.06157 z m 11.92513,-1.71364 c 3.33525,-0.59762 7.48984,-1.7861 9.62217,-2.75256 0.91735,-0.41579 0.93882,-0.43923 1.06152,-1.15941 0.0689,-0.40428 0.11924,-1.8269 0.11192,-3.16139 -0.0155,-2.82361 -0.29219,-4.38826 -1.3378,-7.56506 -2.46129,-7.47802 -6.66302,-13.08273 -11.98384,-15.98532 -2.40614,-1.31258 -4.50546,-1.96422 -6.7829,-2.10544 -1.7212,-0.10673 -2.43462,0.0395 -4.02143,0.82408 -2.46096,1.21685 -4.66638,3.50691 -6.16993,6.40672 -0.90734,1.74993 -1.77087,4.15214 -2.12601,5.91421 -0.66231,3.28616 -0.70395,7.82966 -0.0924,10.08447 0.73194,2.69877 2.30606,5.169 4.25386,6.67547 1.97366,1.52647 4.43429,2.47625 7.85757,3.03296 1.97608,0.32136 7.2937,0.20582 9.60729,-0.20873 z"
           id="path64106" /><ellipse
           style="fill:#ffffff;fill-opacity:1;stroke:none;stroke-width:0.915125;stroke-linecap:square;stroke-linejoin:miter;stroke-dasharray:none;stroke-opacity:1"
           id="ellipse64112"
           cx="327.78714"
           cy="-65.449463"
           rx="6.1878152"
           ry="4.625236" /><path
           style="fill:none;fill-opacity:1;stroke:none;stroke-width:1;stroke-linecap:square;stroke-linejoin:miter;stroke-dasharray:none;stroke-opacity:1"
           d="m 337.08784,-68.87862 -10.78393,5.65714 10.96071,8.13214 z"
           id="path64110" /><path
           style="fill:url(#linearGradient64122);fill-opacity:1;stroke:none;stroke-width:1;stroke-linecap:square;stroke-linejoin:miter;stroke-dasharray:none;stroke-opacity:1"
           d="m 294.31691,-83.544299 c 0,0 5.45019,4.558277 16.25797,-4.074042 10.58837,-8.457094 19.07222,-3.575758 28.44816,6.971522 0.12346,0.138891 -18.7339,-8.439178 -24.9755,-1.833428 -5.51618,5.838004 -23.97563,9.816847 -19.73063,-1.064052 z"
           id="path64114"
           sodipodi:nodetypes="sssss" /></g></g></g></svg>
