<?xml version="1.0" encoding="UTF-8" standalone="no"?>
<!-- Created with Inkscape (http://www.inkscape.org/) -->

<svg
   width="383.78198mm"
   height="347.64151mm"
   viewBox="0 0 383.78198 347.64151"
   version="1.1"
   id="svg5"
   xml:space="preserve"
   xmlns:xlink="http://www.w3.org/1999/xlink"
   xmlns="http://www.w3.org/2000/svg"
   xmlns:svg="http://www.w3.org/2000/svg"><defs
     id="defs2"><linearGradient
       id="linearGradient28421"><stop
         style="stop-color:#333333;stop-opacity:1;"
         offset="0"
         id="stop28417" /><stop
         style="stop-color:#5f5f5f;stop-opacity:1;"
         offset="1"
         id="stop28419" /></linearGradient><linearGradient
       id="linearGradient44606"><stop
         style="stop-color:#4aaefa;stop-opacity:1"
         offset="0"
         id="stop44602" /><stop
         style="stop-color:#6fbefb;stop-opacity:1"
         offset="1"
         id="stop44604" /></linearGradient><linearGradient
       id="linearGradient26607"><stop
         style="stop-color:#eea02c;stop-opacity:1;"
         offset="0"
         id="stop26603" /><stop
         style="stop-color:#c37b11;stop-opacity:1;"
         offset="1"
         id="stop26605" /></linearGradient><linearGradient
       id="linearGradient24318"><stop
         style="stop-color:#f3b964;stop-opacity:1;"
         offset="0"
         id="stop24314" /><stop
         style="stop-color:#ef950e;stop-opacity:1;"
         offset="1"
         id="stop24316" /></linearGradient><linearGradient
       id="linearGradient22042"><stop
         style="stop-color:#333333;stop-opacity:1;"
         offset="0"
         id="stop22038" /><stop
         style="stop-color:#333333;stop-opacity:0;"
         offset="1"
         id="stop22040" /></linearGradient><linearGradient
       id="wing"><stop
         style="stop-color:#7ac2fb;stop-opacity:1;"
         offset="0"
         id="stop21681" /><stop
         style="stop-color:#29a1fa;stop-opacity:1;"
         offset="1"
         id="stop21683" /></linearGradient><linearGradient
       id="body"><stop
         style="stop-color:#058bf4;stop-opacity:1;"
         offset="0"
         id="stop20915" /><stop
         style="stop-color:#0575cd;stop-opacity:1;"
         offset="1"
         id="stop20917" /></linearGradient><linearGradient
       id="linearGradient20398"><stop
         style="stop-color:#6d6d6d;stop-opacity:1;"
         offset="0"
         id="stop20394" /><stop
         style="stop-color:#000000;stop-opacity:1;"
         offset="1"
         id="stop20396" /></linearGradient><linearGradient
       id="linearGradient18886"><stop
         style="stop-color:#848484;stop-opacity:1;"
         offset="0"
         id="stop18882" /><stop
         style="stop-color:#ffffff;stop-opacity:1;"
         offset="1"
         id="stop18884" /></linearGradient><linearGradient
       id="linearGradient18856"><stop
         style="stop-color:#058bf4;stop-opacity:1;"
         offset="0"
         id="stop18852" /><stop
         style="stop-color:#047dd6;stop-opacity:1;"
         offset="0.16136241"
         id="stop18872" /><stop
         style="stop-color:#068efa;stop-opacity:1;"
         offset="0.29416448"
         id="stop18862" /><stop
         style="stop-color:#046cbc;stop-opacity:1;"
         offset="1"
         id="stop18854" /></linearGradient><linearGradient
       id="linearGradient18114"><stop
         style="stop-color:#7fc6fc;stop-opacity:0;"
         offset="0"
         id="stop18108" /><stop
         style="stop-color:#5cb4fb;stop-opacity:0;"
         offset="0.34368873"
         id="stop18110" /><stop
         style="stop-color:#01223c;stop-opacity:1;"
         offset="1"
         id="stop18112" /></linearGradient><linearGradient
       id="linearGradient15834"><stop
         style="stop-color:#fbe8cf;stop-opacity:1;"
         offset="0"
         id="stop15830" /><stop
         style="stop-color:#ec991f;stop-opacity:1;"
         offset="0.38875693"
         id="stop15846" /><stop
         style="stop-color:#eb9516;stop-opacity:1;"
         offset="0.6807065"
         id="stop15856" /><stop
         style="stop-color:#ab6d10;stop-opacity:1;"
         offset="1"
         id="stop15832" /></linearGradient><linearGradient
       id="linearGradient14342"><stop
         style="stop-color:#7fc6fc;stop-opacity:1;"
         offset="0"
         id="stop14338" /><stop
         style="stop-color:#5cb4fb;stop-opacity:1;"
         offset="0.34368873"
         id="stop14346" /><stop
         style="stop-color:#94d0fc;stop-opacity:1;"
         offset="1"
         id="stop14340" /></linearGradient><linearGradient
       id="linearGradient11533"><stop
         style="stop-color:#000000;stop-opacity:1;"
         offset="0"
         id="stop11529" /><stop
         style="stop-color:#000000;stop-opacity:0;"
         offset="1"
         id="stop11531" /></linearGradient><linearGradient
       id="linearGradient11491"><stop
         style="stop-color:#333333;stop-opacity:1;"
         offset="0"
         id="stop11487" /><stop
         style="stop-color:#333333;stop-opacity:0;"
         offset="1"
         id="stop11489" /></linearGradient><linearGradient
       id="linearGradient10756"><stop
         style="stop-color:#5fb8fb;stop-opacity:1"
         offset="0"
         id="stop10752" /><stop
         style="stop-color:#0a91fa;stop-opacity:0;"
         offset="1"
         id="stop10754" /></linearGradient><clipPath
       clipPathUnits="userSpaceOnUse"
       id="clipPath11517"><path
         style="opacity:1;fill:#058bf4;fill-opacity:1;stroke:none;stroke-width:1;stroke-linecap:square;stroke-linejoin:miter;stroke-dasharray:none;stroke-opacity:1"
         d="m 272.74949,120.11683 c 0,0 -31.34734,13.89395 -29.87588,27.30467 7.39891,67.43285 171.88485,113.6819 172.83597,113.51925 0,0 -66.89703,-115.14626 -79.45683,-143.57408 -8.5625,-19.380331 -63.50326,2.75016 -63.50326,2.75016 z"
         id="path11519" /></clipPath><clipPath
       clipPathUnits="userSpaceOnUse"
       id="clipPath11549"><path
         style="opacity:1;fill:#058bf4;fill-opacity:1;stroke:none;stroke-width:1;stroke-linecap:square;stroke-linejoin:miter;stroke-dasharray:none;stroke-opacity:1"
         d="m 250.35948,112.65899 c 0,0 34.27601,0.92355 38.01713,13.88567 18.81138,65.17718 -115.71151,170.52514 -116.65299,170.73656 0,0 18.06096,-131.93815 18.86135,-163.00661 0.54567,-21.18055 59.77451,-21.61562 59.77451,-21.61562 z"
         id="path11551" /></clipPath><filter
       style="color-interpolation-filters:sRGB"
       id="filter14350"
       x="-0.02558109"
       y="-0.026192293"
       width="1.0511622"
       height="1.0523846"><feGaussianBlur
         stdDeviation="0.99680596"
         id="feGaussianBlur14352" /></filter><clipPath
       clipPathUnits="userSpaceOnUse"
       id="clipPath15088"><g
         id="g15094"><path
           style="opacity:1;fill:#058bf4;fill-opacity:1;stroke:none;stroke-width:1;stroke-linecap:square;stroke-linejoin:miter;stroke-dasharray:none;stroke-opacity:1"
           d="m 272.39593,121.04171 c 0,0 -31.34735,13.89396 -29.87589,27.30468 7.39891,67.43284 171.88485,113.6819 172.83598,113.51925 0,0 -66.89705,-115.14626 -79.45685,-143.57408 -8.5625,-19.380334 -63.50324,2.75015 -63.50324,2.75015 z"
           id="path15090" /><path
           style="opacity:1;fill:#5fb8fb;fill-opacity:1;stroke:none;stroke-width:0.879101;stroke-linecap:square;stroke-linejoin:miter;stroke-dasharray:none;stroke-opacity:1"
           d="m 289.28009,145.00925 c 10.34271,-38.84038 44.7925,-37.5182 52.28556,-23.98307 l 72.70227,131.32618 C 375.03113,232.69024 272.77503,206.99131 289.28009,145.00925 Z"
           id="path15092" /></g></clipPath><filter
       style="color-interpolation-filters:sRGB"
       id="filter16594"
       x="-0.14057836"
       y="-0.16130969"
       width="1.2811567"
       height="1.3226194"><feGaussianBlur
         stdDeviation="1.8631655"
         id="feGaussianBlur16596" /></filter><clipPath
       clipPathUnits="userSpaceOnUse"
       id="clipPath16608"><g
         id="g16614"><path
           style="opacity:1;fill:#058bf4;fill-opacity:1;stroke:none;stroke-width:1;stroke-linecap:square;stroke-linejoin:miter;stroke-dasharray:none;stroke-opacity:1"
           d="m 272.39593,121.04171 c 0,0 -31.34735,13.89396 -29.87589,27.30468 7.39891,67.43284 171.88485,113.6819 172.83598,113.51925 0,0 -66.89705,-115.14626 -79.45685,-143.57408 -8.5625,-19.380334 -63.50324,2.75015 -63.50324,2.75015 z"
           id="path16610" /><path
           style="opacity:1;fill:url(#linearGradient16616);fill-opacity:1;stroke:none;stroke-width:1;stroke-linecap:square;stroke-linejoin:miter;stroke-dasharray:none;stroke-opacity:1"
           d="M 267.83036,115.97142 256.33929,87.685712 c 7.264,-16.858781 55.5673,-33.67666 80.26071,13.612498 5.2415,5.84195 8.92433,6.16963 13.25893,6.54107 l -10.78392,2.82857 c 13.23689,13.48714 -1.14853,29.4671 -3.71251,39.06965 -1.78716,-2.9786 -1.54916,-14.70963 -12.19821,-22.27501 0.5191,22.13657 -9.67817,26.18621 -24.21965,34.29643 12.65009,-17.25721 12.27459,-25.04125 9.54643,-31.11428 0.35425,11.02971 -7.24821,12.90535 -7.24821,12.90535 3.02545,-9.30049 0.36757,-12.40099 -1.59107,-16.26428 -6.97099,9.68253 -5.44451,15.15906 -1.2375,17.85536 -15.08918,-2.68592 -17.29378,-14.51761 -20.33036,-22.45179 -5.53044,2.53393 -3.56267,5.06786 -1.2375,7.60179 -4.62789,0.13057 -7.14413,-1.20077 -5.65715,-5.30358 l -9.89999,3.88929 c 6.95962,-3.86798 6.54107,-12.90536 6.54107,-12.90536 z"
           id="path16612" /></g></clipPath><linearGradient
       xlink:href="#linearGradient14342"
       id="linearGradient16616"
       gradientUnits="userSpaceOnUse"
       x1="268.08987"
       y1="80.088432"
       x2="310.10687"
       y2="148.84193" /><filter
       style="color-interpolation-filters:sRGB"
       id="filter16620"
       x="-0.21046525"
       y="-0.21453202"
       width="1.4209305"
       height="1.429064"><feGaussianBlur
         stdDeviation="3.1536948"
         id="feGaussianBlur16618" /></filter><filter
       style="color-interpolation-filters:sRGB"
       id="filter20792"
       x="-0.059106156"
       y="-0.055765111"
       width="1.1182123"
       height="1.1115302"><feGaussianBlur
         stdDeviation="3.1890147"
         id="feGaussianBlur20794" /></filter><clipPath
       clipPathUnits="userSpaceOnUse"
       id="clipPath20798"><path
         style="opacity:1;fill:#058bf4;fill-opacity:1;stroke:none;stroke-width:1;stroke-linecap:square;stroke-linejoin:miter;stroke-dasharray:none;stroke-opacity:1"
         d="m 272.39592,121.04171 c 0,0 -31.34734,13.89396 -29.87588,27.30468 7.39891,67.43284 171.88485,113.6819 172.83597,113.51925 0,0 -66.89703,-115.14626 -79.45683,-143.57408 -8.5625,-19.380335 -63.50326,2.75015 -63.50326,2.75015 z"
         id="path20800" /></clipPath><filter
       style="color-interpolation-filters:sRGB"
       id="filter20908"
       x="-0.26501283"
       y="-0.21692698"
       width="1.5300257"
       height="1.4338539"><feGaussianBlur
         stdDeviation="1.7850622"
         id="feGaussianBlur20910" /></filter><filter
       style="color-interpolation-filters:sRGB"
       id="filter22046"
       x="-0.01960811"
       y="-0.019340539"
       width="1.0392162"
       height="1.0386811"><feGaussianBlur
         stdDeviation="0.6376365"
         id="feGaussianBlur22048" /></filter><filter
       style="color-interpolation-filters:sRGB"
       id="filter24262"
       x="-0.12982272"
       y="-0.6491136"
       width="1.2596453"
       height="2.2982273"><feGaussianBlur
         stdDeviation="0.87905281"
         id="feGaussianBlur24264" /></filter><clipPath
       clipPathUnits="userSpaceOnUse"
       id="clipPath24284"><g
         id="g24290"><path
           style="fill:#c37b11;fill-opacity:1;stroke:#c37b11;stroke-width:0.786143;stroke-linecap:square;stroke-linejoin:miter;stroke-dasharray:none;stroke-opacity:1"
           d="m 347.54161,250.09888 c 3.29662,0.21285 9.45928,1.88104 7.07099,5.02018 -5.13771,6.75292 -15.25994,2.73095 -18.1893,9.15567 -1.66774,4.72528 2.50161,3.47447 2.50161,3.47447 0,0 -4.03038,2.36264 -6.94894,1.25081 -2.91855,-1.11183 -15.56563,-12.78606 -11.8132,-15.42665 3.75243,-2.6406 18.19849,-4.06722 27.37884,-3.47448 z"
           id="path24286" /><path
           style="fill:#ec991f;fill-opacity:1;stroke:#ec991f;stroke-width:0.938093;stroke-linecap:square;stroke-linejoin:miter;stroke-dasharray:none;stroke-opacity:1"
           d="m 365.23079,257.09529 c 3.93381,0.25399 11.28762,2.24461 8.4377,5.9905 -6.13075,8.05816 -18.20946,3.25881 -21.70502,10.92532 -1.99009,5.63861 2.98513,4.14604 2.98513,4.14604 0,0 -4.80939,2.8193 -8.29206,1.49257 -3.48267,-1.32673 -18.57423,-15.25741 -14.09651,-18.4084 4.47771,-3.15098 21.71598,-4.85334 32.67076,-4.14603 z"
           id="path24288" /></g></clipPath><filter
       style="color-interpolation-filters:sRGB"
       id="filter26599"
       x="-0.092436574"
       y="-0.36454874"
       width="1.1848731"
       height="1.7290975"><feGaussianBlur
         stdDeviation="0.33017869"
         id="feGaussianBlur26601" /></filter><linearGradient
       xlink:href="#linearGradient14342"
       id="linearGradient28521"
       gradientUnits="userSpaceOnUse"
       gradientTransform="translate(-100.41428,-421.45712)"
       x1="268.08987"
       y1="80.088432"
       x2="310.10687"
       y2="148.84193" /><filter
       style="color-interpolation-filters:sRGB"
       id="filter33711"
       x="-0.023173226"
       y="-0.042424507"
       width="1.0463465"
       height="1.084849"><feGaussianBlur
         stdDeviation="0.93553624"
         id="feGaussianBlur33713" /></filter><filter
       style="color-interpolation-filters:sRGB"
       id="filter33715"
       x="-0.020453289"
       y="-0.074931398"
       width="1.0409065"
       height="1.1498628"><feGaussianBlur
         stdDeviation="0.93553624"
         id="feGaussianBlur33717" /></filter><filter
       style="color-interpolation-filters:sRGB"
       id="filter33719"
       x="-0.020102339"
       y="-0.16922423"
       width="1.0402046"
       height="1.3384485"><feGaussianBlur
         stdDeviation="0.93553624"
         id="feGaussianBlur33721" /></filter><linearGradient
       xlink:href="#linearGradient14342"
       id="linearGradient2981"
       gradientUnits="userSpaceOnUse"
       gradientTransform="translate(-2.806306,-4.8484015)"
       x1="268.08987"
       y1="80.088432"
       x2="310.10687"
       y2="148.84193" /><linearGradient
       xlink:href="#body"
       id="linearGradient10505"
       gradientUnits="userSpaceOnUse"
       x1="509.85828"
       y1="176.60284"
       x2="529.30237"
       y2="246.93213" /><linearGradient
       xlink:href="#body"
       id="linearGradient17917"
       gradientUnits="userSpaceOnUse"
       x1="509.85828"
       y1="176.60284"
       x2="529.30237"
       y2="246.93213" /><linearGradient
       xlink:href="#wing"
       id="linearGradient27229"
       gradientUnits="userSpaceOnUse"
       x1="709.93567"
       y1="137.3212"
       x2="666.64795"
       y2="226.4969" /><linearGradient
       xlink:href="#wing"
       id="linearGradient27243"
       gradientUnits="userSpaceOnUse"
       x1="593.25348"
       y1="136.48393"
       x2="662.01654"
       y2="192.10382" /><radialGradient
       xlink:href="#wing"
       id="radialGradient5508"
       gradientUnits="userSpaceOnUse"
       gradientTransform="matrix(0.91625354,1.2286987,-1.1953904,0.89141516,433.14024,-824.92533)"
       cx="314.37875"
       cy="189.6337"
       fx="314.37875"
       fy="189.6337"
       r="63.387325" /><linearGradient
       xlink:href="#body"
       id="linearGradient5510"
       gradientUnits="userSpaceOnUse"
       gradientTransform="matrix(1.4475096,0,0,1.4475096,2465.8627,-600.00544)"
       x1="242.4698"
       y1="186.10178"
       x2="404.04172"
       y2="258.58392" /><linearGradient
       xlink:href="#linearGradient11533"
       id="linearGradient5512"
       gradientUnits="userSpaceOnUse"
       x1="280.53165"
       y1="203.44458"
       x2="269.60239"
       y2="159.9346" /><linearGradient
       xlink:href="#linearGradient11533"
       id="linearGradient5514"
       gradientUnits="userSpaceOnUse"
       x1="280.53165"
       y1="203.44458"
       x2="269.60239"
       y2="159.9346" /><linearGradient
       xlink:href="#linearGradient11533"
       id="linearGradient5516"
       gradientUnits="userSpaceOnUse"
       x1="280.53165"
       y1="203.44458"
       x2="269.60239"
       y2="159.9346" /><linearGradient
       xlink:href="#linearGradient11533"
       id="linearGradient5518"
       gradientUnits="userSpaceOnUse"
       x1="280.53165"
       y1="203.44458"
       x2="269.60239"
       y2="159.9346" /><linearGradient
       xlink:href="#linearGradient11491"
       id="linearGradient5520"
       gradientUnits="userSpaceOnUse"
       x1="272.23264"
       y1="203.24329"
       x2="271.36612"
       y2="156.49091" /><linearGradient
       xlink:href="#linearGradient11491"
       id="linearGradient5522"
       gradientUnits="userSpaceOnUse"
       x1="272.23264"
       y1="203.24329"
       x2="271.36612"
       y2="156.49091" /><linearGradient
       xlink:href="#linearGradient11491"
       id="linearGradient5524"
       gradientUnits="userSpaceOnUse"
       x1="272.23264"
       y1="203.24329"
       x2="271.36612"
       y2="156.49091" /><linearGradient
       xlink:href="#linearGradient11491"
       id="linearGradient5526"
       gradientUnits="userSpaceOnUse"
       x1="272.23264"
       y1="203.24329"
       x2="271.36612"
       y2="156.49091" /><linearGradient
       xlink:href="#linearGradient11491"
       id="linearGradient5528"
       gradientUnits="userSpaceOnUse"
       x1="272.23264"
       y1="203.24329"
       x2="271.36612"
       y2="156.49091" /><linearGradient
       xlink:href="#linearGradient10756"
       id="linearGradient5530"
       gradientUnits="userSpaceOnUse"
       gradientTransform="rotate(-7.1006597,263.91709,152.85746)"
       x1="249.58325"
       y1="176.42188"
       x2="250.85974"
       y2="156.09152" /><linearGradient
       xlink:href="#linearGradient10756"
       id="linearGradient5532"
       gradientUnits="userSpaceOnUse"
       gradientTransform="matrix(-0.73966623,0.6729739,0.6729739,0.73966623,352.12851,-159.35194)"
       x1="280.31992"
       y1="198.50717"
       x2="277.29617"
       y2="175.34825" /><linearGradient
       xlink:href="#linearGradient10756"
       id="linearGradient5534"
       gradientUnits="userSpaceOnUse"
       gradientTransform="matrix(0.5759751,0.0473537,-0.0473537,0.5759751,135.10657,35.711044)"
       x1="280.31992"
       y1="198.50717"
       x2="277.29617"
       y2="175.34825" /><linearGradient
       xlink:href="#linearGradient10756"
       id="linearGradient5536"
       gradientUnits="userSpaceOnUse"
       gradientTransform="rotate(-7.1006597,263.91709,152.85746)"
       x1="246.27487"
       y1="171.21231"
       x2="250.85974"
       y2="156.09152" /><linearGradient
       xlink:href="#linearGradient10756"
       id="linearGradient5538"
       gradientUnits="userSpaceOnUse"
       gradientTransform="matrix(-0.73966623,0.6729739,0.6729739,0.73966623,352.12851,-159.35194)"
       x1="284.94162"
       y1="188.088"
       x2="277.29617"
       y2="175.34825" /><linearGradient
       xlink:href="#linearGradient10756"
       id="linearGradient5540"
       gradientUnits="userSpaceOnUse"
       gradientTransform="matrix(-0.49797,0.2932841,0.2932841,0.49797,372.17245,-5.9527688)"
       x1="249.58325"
       y1="176.42188"
       x2="250.85974"
       y2="156.09152" /><linearGradient
       xlink:href="#linearGradient10756"
       id="linearGradient5542"
       gradientUnits="userSpaceOnUse"
       gradientTransform="matrix(0.5759751,0.0473537,-0.0473537,0.5759751,135.10657,35.711044)"
       x1="281.80234"
       y1="190.40504"
       x2="277.29617"
       y2="175.34825" /><radialGradient
       xlink:href="#linearGradient26607"
       id="radialGradient5544"
       gradientUnits="userSpaceOnUse"
       gradientTransform="matrix(1.3712053,0.01271731,-0.00727424,0.78432309,2492.2014,-432.34266)"
       cx="321.08304"
       cy="252.77254"
       fx="321.08304"
       fy="252.77254"
       r="20.122107" /><radialGradient
       xlink:href="#wing"
       id="radialGradient5546"
       gradientUnits="userSpaceOnUse"
       gradientTransform="matrix(2.2171096,0.08191586,-0.07969525,2.1570069,2239.0297,-759.21362)"
       cx="314.37875"
       cy="189.6337"
       fx="314.37875"
       fy="189.6337"
       r="63.387325" /><linearGradient
       xlink:href="#linearGradient14342"
       id="linearGradient5548"
       gradientUnits="userSpaceOnUse"
       gradientTransform="matrix(1.4475096,0,0,1.4475096,2465.8627,-600.00544)"
       x1="268.08987"
       y1="80.088432"
       x2="310.10687"
       y2="148.84193" /><radialGradient
       xlink:href="#linearGradient18114"
       id="radialGradient5550"
       gradientUnits="userSpaceOnUse"
       gradientTransform="matrix(3.8460431,-0.07068651,0.06267117,3.4099319,1785.709,-819.29388)"
       cx="280.34158"
       cy="122.47706"
       fx="280.34158"
       fy="122.47706"
       r="46.759819" /><linearGradient
       xlink:href="#linearGradient18886"
       id="linearGradient5552"
       gradientUnits="userSpaceOnUse"
       gradientTransform="matrix(1.5030584,0,0,1.5030584,2449.5083,-602.18419)"
       x1="287.96222"
       y1="77.041405"
       x2="288.10596"
       y2="101.23909" /><radialGradient
       xlink:href="#linearGradient24318"
       id="radialGradient5554"
       gradientUnits="userSpaceOnUse"
       gradientTransform="matrix(1.4475096,0,0,0.78435687,2465.8627,-421.65581)"
       cx="337.45746"
       cy="261.79041"
       fx="337.45746"
       fy="261.79041"
       r="24.01141" /><radialGradient
       xlink:href="#linearGradient20398"
       id="radialGradient5556"
       gradientUnits="userSpaceOnUse"
       gradientTransform="matrix(0.08687028,1.6615889,-2.101429,0.10986577,1724.1403,-1184.1557)"
       cx="295.28143"
       cy="92.144058"
       fx="295.28143"
       fy="92.144058"
       r="11.718368" /><linearGradient
       xlink:href="#linearGradient15834"
       id="linearGradient5560"
       gradientUnits="userSpaceOnUse"
       gradientTransform="matrix(1.4475096,0,0,1.4475096,2465.8627,-600.00544)"
       x1="228.03033"
       y1="93.55442"
       x2="278.17233"
       y2="102.12852" /><linearGradient
       xlink:href="#linearGradient22042"
       id="linearGradient5564"
       gradientUnits="userSpaceOnUse"
       gradientTransform="rotate(-1.2280152,-35459.09,-59086.463)"
       x1="412.9035"
       y1="251.44148"
       x2="344.27167"
       y2="185.50041" /><linearGradient
       xlink:href="#linearGradient22042"
       id="linearGradient5566"
       gradientUnits="userSpaceOnUse"
       gradientTransform="rotate(-1.2280152,413.23758,250.0272)"
       x1="412.9035"
       y1="251.44148"
       x2="344.27167"
       y2="185.50041" /><linearGradient
       xlink:href="#linearGradient22042"
       id="linearGradient5568"
       gradientUnits="userSpaceOnUse"
       gradientTransform="rotate(-1.2280152,413.23758,250.0272)"
       x1="412.9035"
       y1="251.44148"
       x2="344.27167"
       y2="185.50041" /><linearGradient
       xlink:href="#linearGradient44606"
       id="linearGradient5570"
       gradientUnits="userSpaceOnUse"
       gradientTransform="matrix(0.95153837,0.7525186,-0.74529384,0.94569146,2127.5167,-3.7551717)"
       x1="174.31071"
       y1="-590.37042"
       x2="206.92703"
       y2="-610.87756" /><clipPath
       clipPathUnits="userSpaceOnUse"
       id="clipPath5601"><path
         style="display:inline;fill:url(#linearGradient5605);fill-opacity:1;stroke:none;stroke-width:1.38761;stroke-linecap:square;stroke-linejoin:miter;stroke-dasharray:none;stroke-opacity:1"
         d="m 1551.5214,-668.86023 c -4.7149,-1.31443 -7.4573,-3.40704 -9.2548,-7.0618 -1.197,-2.43395 -1.2084,-2.50668 -1.1862,-7.60273 0.021,-4.81242 0.095,-5.3361 1.1385,-8.09517 1.7983,-4.75105 4.0175,-7.62871 7.4315,-9.63604 4.3885,-2.58023 12.5108,0.43244 17.5598,6.51317 1.1163,1.34439 2.8657,4.17896 3.9749,6.43991 2.4358,4.96589 3.5409,9.30706 3.3897,13.31535 l -0.1071,2.83878 -1.6659,0.82744 c -0.9163,0.45509 -3.3119,1.25911 -5.3236,1.78672 -4.6738,1.22589 -12.7537,1.56735 -15.9568,0.67437 z"
         id="path5603" /></clipPath><linearGradient
       xlink:href="#linearGradient18886"
       id="linearGradient5605"
       gradientUnits="userSpaceOnUse"
       gradientTransform="matrix(1.0383754,0,0,1.0383754,1252.1189,-786.14567)"
       x1="287.96222"
       y1="77.041405"
       x2="288.10596"
       y2="101.23909" /><linearGradient
       xlink:href="#linearGradient18856"
       id="linearGradient5656"
       gradientUnits="userSpaceOnUse"
       gradientTransform="matrix(1.3975729,0.37692703,-0.37692703,1.3975729,2519.9301,-696.6702)"
       x1="266.72531"
       y1="77.448639"
       x2="312.85709"
       y2="73.912933" /><radialGradient
       xlink:href="#linearGradient28421"
       id="radialGradient28423"
       cx="2762.7957"
       cy="-436.19662"
       fx="2762.7957"
       fy="-436.19662"
       r="47.324417"
       gradientTransform="matrix(1,0,0,1.796714,0,347.52396)"
       gradientUnits="userSpaceOnUse" /><radialGradient
       xlink:href="#linearGradient28421"
       id="radialGradient28431"
       cx="2895.4519"
       cy="-505.63541"
       fx="2895.4519"
       fy="-505.63541"
       r="50.11969"
       gradientTransform="matrix(1,0,0,0.67601941,0,-163.81606)"
       gradientUnits="userSpaceOnUse" /><linearGradient
       xlink:href="#body"
       id="linearGradient32810"
       gradientUnits="userSpaceOnUse"
       x1="1516.9742"
       y1="278.20926"
       x2="1686.757"
       y2="278.20926"
       gradientTransform="matrix(0.68821785,0,0.16707114,0.65501007,-622.24626,7.2558098)" /><linearGradient
       xlink:href="#body"
       id="linearGradient32832"
       gradientUnits="userSpaceOnUse"
       x1="1516.9742"
       y1="278.20926"
       x2="1686.757"
       y2="278.20926" /><linearGradient
       xlink:href="#wing"
       id="linearGradient32846"
       gradientUnits="userSpaceOnUse"
       x1="1347.4471"
       y1="252.72263"
       x2="1589.3208"
       y2="252.72263" /></defs><g
     id="layer1"
     style="display:inline"
     transform="translate(-2704.4232,539.51732)"><path
       style="fill:#0585ea;fill-opacity:1;stroke-width:0.966171;stroke-linecap:round;stroke-linejoin:round;stop-color:#000000"
       d="m 2853.155,-489.82738 c -0.9791,-2.15392 78.7991,6.80989 84.8341,15.27665 1.9424,2.72503 4.8755,6.5007 4.8755,6.5007 l -86.4592,-18.20195 z"
       id="path26451" /><g
       id="g5346"
       transform="matrix(1.4475096,0,0,1.4475096,2166.7505,519.24405)"><g
         id="g5338"
         transform="matrix(0.45069693,-0.89267703,-0.89267703,-0.45069693,0.98848769,-270.72701)"><path
           style="fill:url(#radialGradient5508);fill-opacity:1;stroke:none;stroke-width:0.879101;stroke-linecap:square;stroke-linejoin:miter;stroke-dasharray:none;stroke-opacity:1"
           d="m 514.11789,-317.60945 c 1.21526,40.17549 53.14398,10.31535 51.46592,25.69488 -8.50466,77.94555 -27.35684,108.32007 -54.12183,130.76437 -48.53843,4.56543 -0.22366,-251.65568 2.65591,-156.45925 z"
           id="path5336" /></g><path
         style="color:#000000;opacity:0.505308;mix-blend-mode:normal;fill:#058bf4;stroke-width:1.25655;stroke-linejoin:bevel;filter:url(#filter33711)"
         d="m 474.34626,-601.36096 -0.016,-0.0539 c -19.3586,-22.37566 -46.82723,-37.92354 -96.87523,-52.86999 l 2.63282,1.37201 c 47.5331,15.80905 73.40551,32.01212 94.25861,51.55228 z"
         id="path5340" /><path
         style="color:#000000;opacity:0.505308;mix-blend-mode:normal;fill:#058bf4;stroke-width:1.25655;stroke-linejoin:bevel;filter:url(#filter33715)"
         d="m 484.92276,-623.43443 -0.031,-0.0485 c -24.9625,-16.9352 -57.72493,-27.89479 -109.74513,-29.91607 l 0.33836,0.25374 c 49.8769,3.49049 83.87947,15.90954 109.43797,29.71048 z"
         id="path5342" /><path
         style="color:#000000;opacity:0.505308;mix-blend-mode:normal;fill:#058bf4;stroke-width:1.25655;stroke-linejoin:bevel;filter:url(#filter33719)"
         d="m 488.07836,-646.62738 -0.041,-0.0421 c -27.8583,-12.01138 -60.84153,-17.40919 -111.65183,-9.50441 l 0.5772,0.50657 c 49.0549,-6.04225 83.36233,0.24455 111.11533,9.03969 z"
         id="path5344" /></g><path
       style="fill:url(#radialGradient28423);fill-opacity:1;stroke-width:0.420049"
       d="m 2741.7369,-351.51918 c -5.3258,1.01005 -11.6093,-0.20107 -16.089,-3.10123 -11.0352,-7.14845 -13.5245,-22.20909 -5.3513,-32.39371 2.378,-2.96606 4.8936,-4.7273 9.9653,-6.98185 4.8494,-2.16018 5.8117,-2.90695 6.7593,-5.28831 0.4249,-1.06363 5.7706,-15.87637 20.1865,-55.92862 4.0024,-11.12103 7.3206,-20.9256 7.3729,-21.79012 0.08,-1.30831 -0.3904,-2.64901 -2.8288,-8.08286 -2.886,-6.44338 -2.9192,-6.55846 -3.0692,-10.13788 -0.2731,-6.85221 1.7726,-12.97426 6.0234,-18.02187 3.6396,-4.32222 10.1561,-8.41239 12.6559,-7.94251 2.0984,0.39202 2.0196,1.55174 -0.5637,8.30588 -3.0531,7.99195 -3.5042,9.96549 -2.6847,11.7707 1.128,2.49384 7.2392,5.82282 13.6779,7.46142 4.4296,1.12818 6.7828,1.07796 8.3974,-0.17786 0.585,-0.45283 2.1,-3.69799 3.9298,-8.41341 1.6367,-4.22158 3.2242,-7.91179 3.5247,-8.19823 0.2986,-0.29468 1.0452,-0.39336 1.6545,-0.23405 0.9748,0.25443 1.2838,0.68219 2.595,3.60652 1.8638,4.15312 2.304,6.39137 2.217,11.29128 -0.1786,10.19661 -7.0848,19.66812 -16.8681,23.13447 -5.0032,1.77204 -6.157,2.37542 -7.3048,3.81265 -0.5521,0.69137 -2.6349,5.44535 -4.6288,10.56459 -6.8708,17.64426 -22.8262,58.26471 -25.4314,64.74744 -1.3141,3.2685 -1.0963,5.76058 0.7978,9.12789 3.3316,5.92026 3.8315,13.0494 1.354,19.25401 -2.8476,7.12782 -8.94,12.21839 -16.2916,13.61566 z m 2.796,-13.72063 c 2.4191,-1.99677 4.4181,-3.68177 4.4407,-3.743 0.024,-0.0615 -0.4132,-2.78838 -0.9699,-6.06348 l -1.0117,-5.9544 -5.4598,-2.06589 c -3.3429,-1.26485 -5.7557,-1.9279 -6.2267,-1.70976 -0.4245,0.19476 -2.663,1.90546 -4.9753,3.79805 l -4.2045,3.442 0.9837,5.96574 0.9853,5.96567 5.6835,2.15248 c 3.1256,1.18234 5.8359,2.08154 6.0188,1.99736 0.1853,-0.0848 2.3164,-1.78519 4.7359,-3.78477 z"
       id="path26975" /><path
       style="fill:#058bf4;fill-opacity:1;stroke:none;stroke-width:1.44751;stroke-linecap:square;stroke-linejoin:miter;stroke-dasharray:none;stroke-opacity:1"
       d="m 2860.1584,-424.7964 c 0,0 -27.4191,18.4437 -25.3328,31.84682 12.9734,83.34229 210.2615,140.77749 210.2615,140.77749 0,0 -74.8268,-135.45564 -93.0072,-176.60518 -12.3943,-28.05323 -91.9215,3.98087 -91.9215,3.98087 z"
       id="path5350" /><path
       style="fill:#5fb8fb;fill-opacity:1;stroke:none;stroke-width:1.27251;stroke-linecap:square;stroke-linejoin:miter;stroke-dasharray:none;stroke-opacity:1"
       d="m 2884.5984,-390.10316 c 14.9712,-56.22182 65.0331,-54.41494 75.6838,-34.71572 l 87.8362,162.45881 c -56.7957,-28.46111 -187.4113,-38.02346 -163.52,-127.74309 z"
       id="path5352" /><g
       id="g5364"
       style="display:inline;opacity:0;fill:#7fc6fc;fill-opacity:1;stroke:#80c6fc;stroke-opacity:1"
       transform="matrix(1.4475096,0,0,1.4475096,2777.0359,-583.62791)"><path
         style="display:inline;fill:#7fc6fc;fill-opacity:1;stroke:#80c6fc;stroke-width:0.152443;stroke-opacity:1"
         d="m 84.415081,149.2301 c 0.266732,-0.32087 0.271502,-0.3546 0.03811,-0.26949 -0.431851,0.15749 -0.315171,0.0384 0.538552,-0.54956 1.984786,-1.36697 5.758123,-7.61181 7.617013,-12.60609 2.017342,-5.41999 2.499398,-10.36166 1.613468,-16.54003 l -0.174873,-1.21954 -0.199431,0.97365 c -0.399969,1.9527 -1.229305,3.85258 -2.549511,5.84053 -0.987866,1.48751 -2.960945,3.73874 -4.312184,4.92008 -1.671634,1.46144 -2.026949,1.67452 -1.501731,0.90056 1.334384,-1.96632 1.603748,-6.60517 0.618594,-10.65307 -0.405345,-1.66551 -1.261155,-4.03973 -1.456163,-4.03973 -0.06741,0 -0.169261,0.18865 -0.226328,0.41922 -0.05707,0.23057 -0.519072,1.27671 -1.02668,2.32475 -1.184847,2.44632 -1.580228,3.58371 -1.797399,5.17058 -0.267406,1.95393 0.0691,3.82604 1.019143,5.66996 0.632792,1.22816 1.150597,1.7458 2.038008,2.03735 0.604164,0.1985 0.619322,0.21394 0.142518,0.14519 l -0.53355,-0.0769 0.381107,0.22901 0.381106,0.229 -0.416131,0.005 c -0.552774,0.007 -1.592055,-0.40464 -2.249848,-0.8915 -0.292481,-0.21648 -0.909874,-0.57362 -1.371984,-0.79364 -5.03354,-2.39656 -10.431208,-6.77859 -12.846645,-10.42938 -1.640831,-2.48002 -3.978292,-7.24197 -4.525717,-9.21993 -0.09878,-0.35693 -0.138747,-0.32607 -0.686416,0.53008 -1.043454,1.63118 -1.604486,3.43229 -1.40239,4.50218 0.210368,1.11367 1.34413,2.24726 1.83782,1.83754 0.140087,-0.11627 0.192306,-0.0982 0.192306,0.0666 0,0.12443 -0.06748,0.22624 -0.149953,0.22624 -0.08247,0 -0.499785,0.17015 -0.927359,0.37811 -1.409613,0.68558 -3.762295,0.7962 -4.826023,0.22691 -0.971481,-0.51992 -1.647032,-2.50649 -1.460204,-4.29396 l 0.09559,-0.91459 -0.539392,0.47359 c -1.159403,1.01797 -3.430703,1.86767 -6.307767,2.35975 -0.790327,0.13517 -1.819314,0.23677 -2.28664,0.22578 l -0.849682,-0.02 0.847644,-0.10929 c 1.098464,-0.14162 2.173059,-0.83333 3.584194,-2.30715 2.866878,-2.99423 4.032335,-5.94553 3.142363,-7.95746 -0.349753,-0.79067 -1.420821,-1.9315 -2.184183,-2.32643 -0.728232,-0.37676 -1.920946,-0.67073 -2.729894,-0.67284 -0.836569,-0.002 -1.059476,-0.19428 -1.059476,-0.91304 0,-0.65644 0.20184,-0.96968 1.545443,-2.398345 1.265351,-1.345465 1.716937,-2.162585 1.568765,-2.838593 -0.14784,-0.67449 -1.498076,-3.046631 -2.357485,-4.141711 -2.461773,-3.136854 -4.214024,-6.596672 -5.01837,-9.908772 -0.183253,-0.754592 -0.561351,-1.852179 -0.840217,-2.439083 -0.68227,-1.43591 -0.89479,-2.456706 -0.811392,-3.897356 0.05733,-0.990409 0.166123,-1.394166 0.622419,-2.310036 1.428008,-2.866277 5.10516,-6.001464 9.896313,-8.437725 7.548779,-3.83849 14.975266,-5.40038 24.129962,-5.074856 9.544192,0.339373 17.811774,3.078406 25.440239,8.428296 2.57085,1.802958 4.11223,3.135586 7.06549,6.108627 3.61144,3.635625 5.04632,5.324304 11.65782,13.719838 2.61182,3.316584 2.97219,3.631756 5.73936,5.019542 2.70968,1.358959 5.81138,2.366492 7.3012,2.371674 0.46296,0.0016 0.65441,0.06752 0.67075,0.230917 0.0126,0.125765 0.0297,0.306821 0.0381,0.402348 0.0164,0.186771 -0.59798,0.377829 -3.11626,0.969108 -2.66345,0.625367 -5.17391,0.786539 -6.84239,0.439279 l -0.36999,-0.07701 0.40815,0.50512 c 2.44214,3.022358 3.6859,7.773778 3.66372,13.996298 -0.0109,3.05659 -0.13861,4.39092 -0.68579,7.1648 -0.90046,4.56474 -3.43757,10.93236 -5.86134,14.71072 -0.48406,0.75459 -1.11399,1.85218 -1.39984,2.43908 -0.9748,2.00147 -1.52181,2.68758 -0.95647,1.19969 1.31783,-3.46824 0.27891,-8.62552 -2.65233,-13.16644 -1.48549,-2.30122 -5.68628,-6.93265 -8.15119,-8.98682 -0.77308,-0.64424 -0.80242,-0.6555 -0.5782,-0.2219 0.62484,1.20829 0.92748,3.35123 0.71388,5.05472 -0.56232,4.48461 -3.93321,9.98785 -9.827741,16.04453 -1.019985,1.04804 -2.008158,2.11133 -2.195939,2.36286 -1.920802,2.57287 -5.668588,5.64424 -10.548391,8.64457 -0.369146,0.22697 -0.979871,0.67193 -1.357166,0.98881 -0.377296,0.31687 -0.548794,0.41108 -0.381107,0.20936 z m 4.801943,-4.22961 c 2.720633,-2.44845 7.573877,-7.06604 8.204527,-7.80616 2.594249,-3.04454 5.266399,-7.17977 7.033939,-10.88526 2.53232,-5.30876 2.80286,-8.40576 0.99493,-11.3895 -0.47096,-0.77726 -1.92434,-2.33464 -2.81844,-3.02014 -0.44317,-0.33977 -2.11873,-1.19992 -2.894784,-1.48604 -0.487238,-0.17964 -0.499795,-0.19828 -0.140189,-0.20806 1.604793,-0.0436 7.393773,2.97115 11.190653,5.82788 5.32066,4.00321 8.58556,8.24098 9.79057,12.70798 0.35891,1.33049 0.40558,1.78666 0.41381,4.04489 0.0106,2.90924 -0.0162,2.90866 1.05538,0.0226 1.32998,-3.58201 2.57604,-8.73526 3.31174,-13.6962 0.44739,-3.01681 0.56932,-9.04815 0.23421,-11.58564 -0.42735,-3.23596 -1.14119,-5.39451 -2.52446,-7.633597 -1.17777,-1.906433 -1.65982,-2.379888 -3.15214,-3.095956 -1.38632,-0.665201 -3.75909,-2.158556 -5.12818,-3.227531 -2.00079,-1.56219 -5.04842,-4.908478 -6.67961,-7.33419 -0.59805,-0.889337 -0.44593,-0.767285 1.93177,1.549949 4.74426,4.623622 10.14839,8.203249 14.16186,9.380634 1.68063,0.493025 4.06919,0.653566 5.68043,0.381796 0.6068,-0.10235 1.10263,-0.231341 1.10184,-0.286649 -0.002,-0.116737 -2.26851,-0.859423 -2.55199,-0.836104 -0.1048,0.0086 -0.19055,-0.04315 -0.19055,-0.115044 0,-0.07189 -0.11415,-0.08692 -0.25367,-0.03338 -0.18419,0.07068 -0.21949,0.04204 -0.12889,-0.104559 0.0856,-0.138483 0.0661,-0.16565 -0.062,-0.08649 -0.25868,0.159875 -1.85121,-0.660459 -3.13788,-1.616369 -0.58691,-0.43603 -2.57842,-2.306916 -4.42559,-4.157527 -2.98598,-2.991542 -4.27414,-4.373602 -8.74795,-9.385613 -2.00039,-2.241041 -5.699,-6.011115 -7.10133,-7.238543 C 98.445874,68.489238 91.629124,64.870854 84.57155,63.17051 80.538294,62.1988 77.184522,61.818625 72.600776,61.813537 c -4.981989,-0.0055 -7.965989,0.411818 -11.761532,1.644988 -10.68237,3.4707 -18.226859,9.618115 -17.763954,14.474458 0.232465,2.438801 1.331872,5.517847 3.644741,10.207613 1.672648,3.3916 2.499384,4.747626 3.778052,6.196814 1.123012,1.272775 1.558115,2.134103 1.558115,3.084438 0,0.833543 -0.331317,1.430821 -1.526853,2.752522 -0.79849,0.88275 -1.305107,1.57345 -1.45125,1.97857 -0.142124,0.39398 0.403497,0.68117 1.802734,0.94889 0.666036,0.12743 1.589494,0.4166 2.052128,0.64259 1.185892,0.57929 2.330036,1.76514 2.584918,2.67913 0.280951,1.00747 0.145519,2.60242 -0.294321,3.46616 -1.008308,1.98006 -3.39082,4.26139 -5.966436,5.71305 -1.172832,0.66103 -0.822697,0.6105 1.770142,-0.25546 2.14531,-0.71649 2.823476,-1.04571 4.299201,-2.08702 1.189166,-0.83911 1.543732,-1.25098 2.376666,-2.7608 0.300655,-0.54498 0.905262,-1.33387 1.34357,-1.75309 0.563181,-0.53865 0.70612,-0.62808 0.487334,-0.30489 -0.947713,1.39996 -1.702002,3.42017 -2.024584,5.42243 -0.449747,2.79156 0.728793,4.55098 3.0831,4.60269 0.525876,0.0116 1.217009,-0.0679 1.535854,-0.17648 l 0.579715,-0.19749 -0.896985,-0.42421 c -1.018091,-0.48148 -1.483299,-0.98915 -1.723355,-1.88064 -0.409409,-1.52043 0.46718,-3.52163 2.399417,-5.47769 0.476868,-0.48275 0.952521,-0.87773 1.057004,-0.87773 0.104484,0 0.298479,-0.0416 0.431101,-0.0925 0.186805,-0.0717 0.241133,0.0103 0.241133,0.36405 0,0.25112 0.175007,1.0605 0.388905,1.79862 0.878529,3.03162 5.837245,9.7251 9.905865,13.37135 1.610431,1.44325 4.906569,4.02442 5.81971,4.55735 l 0.441233,0.25751 -0.487222,-0.96806 c -1.275416,-2.53412 -1.009245,-6.04141 0.694465,-9.15085 0.321574,-0.58691 0.96682,-1.7493 1.433881,-2.5831 0.472165,-0.84291 0.924885,-1.88057 1.019665,-2.33711 0.168043,-0.80947 0.162635,-0.83291 -0.381095,-1.65182 -0.303358,-0.45689 -0.82387,-1.10302 -1.156695,-1.43585 -1.213265,-1.21326 0.03089,-0.4133 1.709608,1.09923 0.767742,0.69174 2.564833,3.48912 3.160154,4.91915 1.03125,2.47718 1.383382,4.81917 1.08989,7.24877 -0.188693,1.56203 -0.631652,3.23929 -1.097079,4.15406 -0.15997,0.31441 -0.258628,0.57166 -0.219239,0.57166 0.105834,0 1.35117,-1.77817 1.921729,-2.74397 1.55718,-2.63586 2.821309,-5.79815 3.344892,-8.36741 0.567989,-2.78717 0.344503,-6.47345 -0.53395,-8.80729 -0.211371,-0.56156 -0.361606,-1.08914 -0.333854,-1.17239 0.06082,-0.18248 1.293849,1.65643 1.824965,2.72172 0.987321,1.98032 2.664309,7.92401 3.083298,10.92803 0.291529,2.09018 0.29635,5.70268 0.01014,7.60129 -0.772608,5.1252 -3.2541,10.36149 -7.274914,15.35106 -0.489844,0.60786 -0.838628,1.10421 -0.775073,1.10299 0.06355,-0.001 0.698645,-0.52698 1.411314,-1.16835 z"
         id="path5354" /><path
         style="fill:#7fc6fc;fill-opacity:1;stroke:#80c6fc;stroke-width:5.05071;stroke-linecap:square;stroke-linejoin:miter;stroke-dasharray:none;stroke-opacity:1"
         d="m 332.77353,551.7774 c 0.34376,-0.36261 9.15226,-12.07126 11.38776,-15.32046 5.75476,-8.36425 14.22677,-26.62114 16.52838,-35.61807 3.12866,-12.22981 3.8891,-25.10995 2.22208,-37.63689 -2.67892,-20.13086 -11.74446,-47.09834 -17.62047,-52.41605 -3.02305,-2.73583 -3.01184,-2.87925 -0.42843,5.48179 3.09821,10.02712 2.73583,27.44721 -0.80614,38.75365 -2.97272,9.48929 -12.16018,28.73811 -13.58634,28.73811 -0.42908,0 1.75883,-7.57335 2.26345,-11.92128 2.00954,-17.31422 -7.61786,-40.57339 -20.82824,-50.31971 -5.86648,-4.32814 -6.5022,-3.05817 -1.38601,2.76884 2.30276,2.6227 4.18684,5.79832 4.18684,7.05695 0,1.25861 -3.15708,8.54459 -7.01575,16.19105 -6.62829,13.13487 -7.01574,14.46349 -7.01574,24.05768 0,5.58526 5.95521,15.14711 6.59306,16.91763 2.86326,7.94791 -34.08407,-24.37966 -47.07291,-41.57599 -8.10074,-10.72482 -16.31431,-26.25472 -16.31431,-30.84648 0,-4.57109 -3.98262,-4.04478 -8.94257,1.1818 -8.99334,9.47675 -11.0812,20.0539 -5.06002,25.63415 2.81819,2.61181 3.37904,1.95609 1.61598,2.63264 -3.80615,1.46056 -11.19233,-1.2615 -12.77598,-5.80436 -1.86397,-5.34699 -0.055,-15.69952 4.28421,-24.51873 3.82833,-7.78078 1.74641,-7.53967 -4.23776,0.4908 -7.02671,9.42947 -9.68861,11.90751 -16.49726,15.35771 -9.13017,4.62661 -13.31677,6.43176 -6.84341,0.67536 8.97038,-7.97687 15.04849,-16.71546 15.04849,-24.8722 0,-6.35708 -0.44521,-7.41581 -4.68312,-11.13675 -2.57571,-2.26151 -7.98786,-5.07255 -12.02699,-6.24676 -4.03914,-1.17421 -7.33749,-2.54327 -7.32968,-3.04235 0.008,-0.49908 2.40682,-3.91417 5.33113,-7.58909 7.31907,-9.19771 7.1109,-12.61934 -1.47262,-24.20542 -12.07755,-16.30233 -26.59037,-49.9192 -26.59037,-61.59277 0,-10.33152 9.1305,-21.91031 26.27065,-33.31497 30.02809,-19.98001 64.6666,-28.34243 102.01731,-24.629 30.82777,3.06491 55.25484,11.61222 80.90713,28.31033 15.26385,9.93585 28.85754,22.83949 69.83473,66.28975 24.57392,26.05702 37.70066,30.19448 48.55466,34.16477 10.56565,3.86483 -0.2664,6.03711 -13.72211,3.95436 -16.83001,-2.60504 -36.97333,-14.4099 -58.15336,-34.0804 -6.26215,-5.81584 -11.72057,-10.23942 -12.1298,-9.83018 -1.24028,1.24027 9.96431,14.83355 20.17317,24.47387 5.28755,4.99308 13.41515,11.18306 18.06133,13.7555 4.64619,2.57244 10.38472,6.30076 12.75233,8.28513 6.26134,5.24792 12.56975,18.68286 14.96172,31.86382 4.07763,22.46984 -0.42592,61.60683 -10.6036,92.14801 l -6.17928,15.53487 1.33224,-10.8577 c 2.6565,-21.65029 -13.78242,-42.49118 -40.14455,-62.03751 -11.22362,-8.3218 -31.56399,-19.31142 -38.44888,-20.77341 -5.94793,-1.26302 -5.44543,0.0206 1.33633,3.41363 7.23745,3.62102 15.20518,11.1797 18.48781,17.53865 7.54392,14.61371 -1.68507,40.99741 -25.6946,73.45563 -5.95006,8.04382 -47.03701,47.91268 -40.54049,41.06005 z"
         id="path5356"
         transform="scale(0.26458333)" /><path
         style="fill:#7fc6fc;fill-opacity:1;stroke:#80c6fc;stroke-width:1;stroke-linecap:square;stroke-linejoin:miter;stroke-dasharray:none;stroke-opacity:1"
         d="m 50.721336,114.6621 -2.312617,1.43757 2.437625,-0.37502 z"
         id="path5358" /><path
         style="fill:#7fc6fc;fill-opacity:1;stroke:#80c6fc;stroke-width:1;stroke-linecap:square;stroke-linejoin:miter;stroke-dasharray:none;stroke-opacity:1"
         d="m 61.909409,117.53724 0.781288,0.40627 0.218763,0.0938 -0.468774,0.25001 -0.906297,0.12501 z"
         id="path5360" /><path
         style="fill:#7fc6fc;fill-opacity:1;stroke:#80c6fc;stroke-width:1;stroke-linecap:square;stroke-linejoin:miter;stroke-dasharray:none;stroke-opacity:1"
         d="m 86.910684,128.13154 0.843791,0.28126 -1.437571,1.53133 z"
         id="path5362" /></g><path
       id="path27007"
       style="fill:url(#radialGradient28431);fill-opacity:1;stroke-width:0.379838"
       d="m 2902.2718,-539.51547 c -0.4191,0.0211 -0.7236,0.30455 -1.1984,0.90719 -0.9835,1.24954 -2.6458,1.2605 -3.8103,0.0242 -0.8139,-0.86654 -0.9474,-0.89161 -2.1031,-0.39836 -1.1054,0.46814 -1.2347,0.69432 -1.2347,2.03711 0,1.91882 -0.7752,2.70436 -2.6689,2.70436 -1.3908,0 -1.4899,0.0777 -1.7295,1.35566 -0.2096,1.12139 -0.1158,1.45311 0.5528,1.92073 1.111,0.78637 1.1179,3.29172 0,4.07526 -0.5958,0.41975 -0.7293,0.77697 -0.524,1.44586 0.4376,1.42421 0.9504,1.84951 1.9347,1.60241 1.535,-0.38502 2.8026,0.74855 2.8026,2.50446 0,1.02001 0.2112,1.61427 0.6648,1.87902 h 0.014 c 1.0734,0.62532 1.8978,0.47254 2.9098,-0.53943 1.2176,-1.21768 2.3856,-1.20372 3.6879,0.0444 0.9694,0.92726 1.1174,0.95917 2.205,0.47705 1.0396,-0.45951 1.1689,-0.69474 1.1689,-2.12435 0,-1.29464 0.1837,-1.72887 0.9461,-2.22831 0.5998,-0.39349 1.3008,-0.53158 1.9137,-0.37768 0.8439,0.21162 1.0405,0.0675 1.5386,-1.12496 0.5545,-1.32594 0.5431,-1.3908 -0.3949,-2.1276 -1.214,-0.95577 -1.3175,-2.92704 -0.2064,-3.93339 1.5045,-1.36138 0.4807,-3.60314 -1.5114,-3.31076 -1.6267,0.23877 -2.6664,-0.76542 -2.6664,-2.57457 0,-1.13112 -0.1853,-1.48416 -0.9677,-1.84046 -0.5991,-0.27317 -0.9947,-0.41494 -1.3208,-0.39837 z m -29.4008,5.09277 c -0.9052,-0.044 -1.3688,0.38967 -1.779,1.37907 -0.6763,1.63349 -2.4216,2.59984 -4.7046,2.59984 -1.7655,0 -1.9877,-0.11391 -3.6633,-1.89765 -0.9809,-1.04457 -1.9513,-1.89928 -2.1562,-1.89928 -0.7152,0 -4.4892,1.82339 -4.9672,2.39996 -0.3605,0.44246 -0.3791,0.93745 -0.072,2.0779 0.5429,2.01702 0.1664,3.58617 -1.1945,4.97793 -1.242,1.26952 -2.6284,1.66271 -5.2415,1.48556 l -1.7096,-0.11624 -1.0324,2.08902 c -1.4541,2.94257 -1.3812,3.80034 0.4136,4.82452 1.5644,0.89351 2.7073,2.78505 2.7073,4.48164 0,1.60944 -1.1586,3.64538 -2.5367,4.45893 -0.7682,0.45323 -1.2602,1.0446 -1.2602,1.51361 0,1.04668 1.8679,5.13937 2.4458,5.3616 0.2572,0.0984 1.1646,-0.007 2.0158,-0.23486 2.3315,-0.62205 4.3989,0.11609 5.6581,2.02025 0.8913,1.34531 0.9673,1.73115 0.7416,3.72919 -0.2865,2.53142 -0.03,2.84993 3.2148,3.9853 l -0.015,4e-4 c 0.927,0.32468 1.7755,0.60283 1.8758,0.60283 0.4207,0.0274 1.0424,-0.60707 1.6942,-1.7288 0.9187,-1.57935 2.4476,-2.42541 4.383,-2.42541 1.9478,0 3.3477,0.78243 4.4734,2.4981 0.468,0.71509 1.1501,1.3 1.5127,1.29984 0.3633,-1.5e-4 1.7286,-0.50507 3.0324,-1.12182 l 2.37,-1.12139 -0.2412,-2.85633 -0.2413,-2.85632 1.5836,-1.58336 1.5837,-1.58316 2.5868,0.24043 c 2.8755,0.26717 2.6944,0.39862 4.0241,-2.93324 0.8884,-2.22636 0.7608,-3.16773 -0.5183,-3.82951 -3.7614,-1.94513 -3.9422,-6.75325 -0.3445,-9.13448 1.6956,-1.11791 1.694,-1.26657 -0.058,-4.74703 -0.8801,-1.75217 -1.1954,-2.07046 -1.952,-1.97141 -3.6923,0.48164 -3.9695,0.46697 -5.1555,-0.27336 -2.1935,-1.36612 -3.0086,-3.57891 -2.2943,-6.17922 0.3634,-1.31969 -0.2549,-1.93048 -2.9931,-2.95507 -0.9444,-0.35333 -1.6461,-0.55162 -2.1889,-0.57799 z m 26.7059,0.33501 c 1.3027,0.0437 2.6254,0.60648 3.63,1.8005 1.8975,2.25412 0.8796,6.58737 -1.7632,7.5086 -1.6369,0.57053 -2.9414,0.50492 -4.4158,-0.22192 -1.5707,-0.77404 -2.3542,-2.25359 -2.3542,-4.44447 0,-2.91823 2.416,-4.72626 4.9032,-4.64271 z m 14.5689,10.07904 c -1.922,0.0174 -3.8033,0.16599 -4.1243,0.43234 -0.2742,0.22715 -0.6118,1.21079 -0.7551,2.18596 -0.3346,2.29914 -0.9578,3.48343 -2.5812,4.90898 -2.2084,1.93891 -5.5688,2.08948 -8.1959,0.36699 -2.3273,-1.52591 -2.8211,-1.75087 -3.2692,-1.48581 -1.2617,0.74594 -4.0399,3.36644 -4.9266,4.64812 l -1.0108,1.45797 1.3654,2.21335 c 1.1339,1.8373 1.3663,2.56776 1.3663,4.30082 0,3.83134 -2.4906,6.61455 -6.3263,7.06871 -2.481,0.29385 -2.7898,0.90488 -2.7898,5.52334 0,3.83839 0.3331,4.44466 2.4696,4.48341 1.8918,0.0339 4.2335,1.34459 5.4835,3.07031 0.9793,1.35118 1.1539,1.91764 1.1616,3.8488 l 12.5042,2.78319 c -3.7908,-2.56704 -6.8762,-7.46621 -7.5252,-12.07188 -1.6483,-11.68175 8.1658,-21.46866 19.8414,-19.78674 4.0525,0.58404 6.6984,1.93769 9.7047,4.96682 2.7911,2.81192 3.9264,4.86887 4.8306,8.75678 1.9959,8.57595 -3.3103,17.55453 -11.9512,20.22503 -0.9102,0.28132 -1.8616,0.47656 -2.8332,0.59586 l 16.9053,3.76276 c 0.3647,-3.52192 3.2847,-11.60855 3.2847,-11.60855 l 0.1627,0.0929 c 0.4537,-1.23084 1.2495,-2.31371 2.3664,-3.06996 0.738,-0.49913 2.237,-1.06999 3.3289,-1.26822 1.0943,-0.1984 2.2026,-0.53732 2.4638,-0.75322 0.3243,-0.26789 0.4756,-1.63832 0.4756,-4.30736 0,-4.40152 -0.3292,-5.10259 -2.4023,-5.11681 -2.5133,-0.0174 -5.4446,-2.01104 -6.3094,-4.28965 -0.9274,-2.44856 -0.095,-6.37888 1.6568,-7.83369 1.2047,-0.9992 0.6974,-2.22782 -2.0485,-4.97416 -1.5149,-1.5151 -2.9717,-2.6457 -3.4065,-2.6457 -0.4195,0 -1.5506,0.55557 -2.5142,1.23461 -1.5299,1.07897 -2.054,1.23446 -4.1618,1.23446 -2.6656,0 -3.658,-0.51483 -5.586,-2.89824 -0.7433,-0.91877 -1.1497,-1.94288 -1.3119,-3.31492 -0.1681,-1.41854 -0.4448,-2.09821 -0.9736,-2.3803 -0.4836,-0.25917 -2.4463,-0.37345 -4.3685,-0.35621 z m -46.979,1.19547 c 0.962,0.007 1.9428,0.19701 3.2231,0.57284 2.6319,0.77271 5.6277,3.68971 6.3828,6.21376 1.4842,4.97271 -0.3733,9.82529 -4.7503,12.40668 v -2e-4 c -2.0058,1.1828 -5.6881,1.51153 -8.1283,0.72581 -0.9462,-0.3049 -2.4653,-1.19161 -3.375,-1.97042 -5.9423,-5.08626 -3.8869,-15.21601 3.5347,-17.41996 1.207,-0.3583 2.1505,-0.53524 3.113,-0.52851 z m 8.5852,32.28779 -1.2704,1.5291 c -1.0177,1.22684 -1.5907,1.57153 -2.8944,1.7437 -1.5287,0.20167 -1.7126,0.12014 -3.1524,-1.39278 l -1.5292,-1.60699 -2.0753,0.84284 -2.0777,0.84281 0.1433,1.10051 17.812,3.96466 c -0.8151,-0.87356 -1.2631,-2.31091 -1.0436,-3.60877 0.2725,-1.61338 0.055,-1.87576 -2.3325,-2.80214 z m 9.5244,7.83369 c -0.2149,-0.006 -0.4917,0.009 -0.8086,0.0269 l 1.8447,0.41067 c -0.2651,-0.30706 -0.5358,-0.4242 -1.0361,-0.43769 z" /><path
       style="display:inline;fill:#ffffff;fill-opacity:1;stroke:#ffffff;stroke-width:1.93435;stroke-linecap:square;stroke-linejoin:miter;stroke-dasharray:none;stroke-opacity:1"
       d="m 2883.234,-433.29023 c -6.5727,-1.83233 -10.3957,-4.74946 -12.9015,-9.84423 -1.6687,-3.39298 -1.6845,-3.49435 -1.6537,-10.59832 0.029,-6.7086 0.1318,-7.43862 1.5874,-11.2848 2.5065,-6.62302 5.6003,-10.63451 10.3595,-13.43275 6.1175,-3.59687 17.44,0.60282 24.4786,9.07946 1.556,1.87407 3.9949,5.82551 5.541,8.97728 3.3956,6.92253 4.9362,12.97418 4.7253,18.56183 l -0.1493,3.95728 -2.3223,1.15345 c -1.2773,0.6344 -4.6167,1.75522 -7.4211,2.49073 -6.5156,1.70889 -17.7788,2.18489 -22.2439,0.94007 z"
       id="path5366" /><path
       style="display:inline;fill:#000000;stroke-width:0.219509"
       d="m 2882.8274,-430.25774 c -4.3928,-0.59802 -8.4625,-2.15386 -10.9807,-4.19791 -3.837,-3.11459 -5.7121,-8.8623 -5.143,-15.76516 0.1,-1.20729 0.2763,-4.31884 0.3927,-6.91455 0.2374,-5.29735 0.525,-7.10018 1.6738,-10.49215 2.5556,-7.54596 7.4839,-12.40279 13.938,-13.73593 4.5047,-0.93047 7.5704,-0.87137 11.4044,0.21986 2.3451,0.66746 6.6565,2.79468 8.6714,4.27839 2.3333,1.71815 6.1725,5.72691 7.7562,8.09882 5.0091,7.5014 7.8865,18.16953 6.8262,25.3083 -0.2788,1.87719 -1.0377,4.75766 -1.357,5.15095 -0.415,0.51104 0.019,0.54331 0.7557,0.0562 0.6566,-0.43442 0.6421,-0.4034 -0.152,0.32443 -2.3224,2.12856 -8.3782,4.71141 -14.3778,6.13219 -7.2884,1.72594 -14.0723,2.26306 -19.4079,1.53663 z m 17.2617,-2.48051 c 4.8277,-0.86506 10.8415,-2.5854 13.9282,-3.98436 1.3278,-0.60186 1.3589,-0.63578 1.5365,-1.67825 0.1,-0.5852 0.1726,-2.64446 0.162,-4.57614 -0.022,-4.08721 -0.423,-6.35205 -1.9365,-10.9505 -3.5627,-10.82451 -9.6447,-18.93738 -17.3466,-23.13891 -3.483,-1.89997 -6.5218,-2.84322 -9.8183,-3.04764 -2.4915,-0.15449 -3.5243,0.0572 -5.8212,1.19286 -3.5622,1.76141 -6.7547,5.07629 -8.931,9.27379 -1.3133,2.53304 -2.5634,6.01026 -3.0774,8.56088 -0.9587,4.75675 -1.019,11.33351 -0.1332,14.59736 1.0595,3.9065 3.338,7.48218 6.1574,9.66281 2.857,2.20958 6.4187,3.5844 11.374,4.39024 2.8604,0.46517 10.5577,0.29793 13.9067,-0.30214 z"
       id="path5368" /><ellipse
       style="fill:#000000;fill-opacity:1;stroke:none;stroke-width:1.55134;stroke-linecap:square;stroke-linejoin:miter;stroke-dasharray:none;stroke-opacity:1"
       id="ellipse5370"
       cx="2887.9683"
       cy="-455.78748"
       rx="16.96245"
       ry="19.905289" /><path
       style="fill:none;fill-opacity:1;stroke:none;stroke-width:1.44751;stroke-linecap:square;stroke-linejoin:miter;stroke-dasharray:none;stroke-opacity:1"
       d="m 2909.0797,-463.72027 -15.6098,8.18877 15.8657,11.77135 z"
       id="path5372" /><ellipse
       style="fill:#ffffff;fill-opacity:1;stroke:none;stroke-width:1.53536;stroke-linecap:square;stroke-linejoin:miter;stroke-dasharray:none;stroke-opacity:1"
       id="ellipse5374"
       cx="2898.5425"
       cy="-456.27994"
       rx="12.033036"
       ry="6.6950736" /><path
       style="fill:#c37b11;fill-opacity:1;stroke:none;stroke-width:1.44751;stroke-linecap:square;stroke-linejoin:miter;stroke-dasharray:none;stroke-opacity:1"
       d="m 2860.4589,-446.72193 c 0.9639,2.89891 4.3173,5.79781 1.9396,8.69673 -16.6303,13.69682 -41.1647,2.14594 -49.5368,12.41494 l 3.0708,-13.17881 z"
       id="path5376" /><path
       style="fill:#ec991f;fill-opacity:1;stroke:none;stroke-width:1.44751;stroke-linecap:square;stroke-linejoin:miter;stroke-dasharray:none;stroke-opacity:1"
       d="m 2860.4589,-446.72193 c -18.5939,-5.76531 -12.5184,-28.06901 -25.3339,-25.8458 -8.0364,1.77806 -32.397,18.75578 -34.0346,23.79859 -3.2852,10.11692 -0.7334,25.05174 11.3874,33.01099 -0.6217,-39.61643 35.2052,-15.27907 47.9811,-30.96378 z"
       id="path5378" /><g
       id="g5386"
       transform="matrix(1.6811129,0.10231885,-0.09705788,1.7722367,2767.2097,-663.33411)"><path
         style="color:#000000;fill:#5fb8fb;stroke-linejoin:bevel"
         d="m 189.95624,229.60044 c -29.88322,-26.24118 -45.6447,-54.8252 -53.1241,-76.50401"
         id="path5382" /><path
         style="color:#000000;fill:#058bf4;stroke-linejoin:bevel"
         d="m 137.30469,152.93359 -0.008,0.0449 c 5.63074,22.50546 22.59805,50.25367 52.55101,76.55609 l 0.0856,0.0436 c -27.86878,-26.17989 -44.92589,-55.79247 -52.62885,-76.64459 z"
         id="path5384" /></g><g
       id="g5392"
       transform="matrix(1.6561735,-0.32088386,0.30438484,1.7459455,2679.8131,-576.82968)"><path
         style="color:#000000;fill:#5fb8fb;stroke-linejoin:bevel"
         d="m 189.95624,229.60044 c -29.88322,-26.24118 -45.6447,-54.8252 -53.1241,-76.50401"
         id="path5388" /><path
         style="color:#000000;fill:#058bf4;stroke-linejoin:bevel"
         d="m 137.30469,152.93359 -0.008,0.0449 c 5.63074,22.50546 22.59805,50.25367 52.55101,76.55609 l 0.0856,0.0436 c -27.86878,-26.17989 -44.92589,-55.79247 -52.62885,-76.64459 z"
         id="path5390" /></g><g
       id="g5398"
       transform="matrix(1.5317623,-0.73738947,0.69947482,1.6147906,2612.7887,-467.53047)"><path
         style="color:#000000;fill:#5fb8fb;stroke-linejoin:bevel"
         d="m 189.95624,229.60044 c -29.88322,-26.24118 -45.6447,-54.8252 -53.1241,-76.50401"
         id="path5394" /><path
         style="color:#000000;fill:#058bf4;stroke-linejoin:bevel"
         d="m 137.30469,152.93359 -0.008,0.0449 c 5.63074,22.50546 22.59805,50.25367 52.55101,76.55609 l 0.0856,0.0436 c -27.86878,-26.17989 -44.92589,-55.79247 -52.62885,-76.64459 z"
         id="path5396" /></g><path
       style="fill:url(#linearGradient5510);fill-opacity:1;stroke:none;stroke-width:1.44751;stroke-linecap:square;stroke-linejoin:miter;stroke-dasharray:none;stroke-opacity:1"
       d="m 2860.1584,-424.7964 c 0,0 -45.3756,20.11164 -43.2457,39.52379 10.71,97.60968 248.8051,164.55564 250.1818,164.3202 0,0 -96.8342,-166.67532 -115.0146,-207.82486 -12.3943,-28.05323 -91.9215,3.98087 -91.9215,3.98087 z"
       id="path5400" /><g
       id="g5438"
       style="opacity:0.75"
       transform="matrix(1.4475096,0,0,1.4475096,2465.8627,-600.00544)"><g
         id="g5408"
         transform="matrix(-0.92480689,0.38043687,0.38043687,0.92480689,461.07046,-78.39208)"
         style="opacity:0.0973598;fill:url(#linearGradient5518);fill-opacity:1"
         clip-path="url(#clipPath11549)"><path
           style="fill:url(#linearGradient5512);fill-opacity:1;stroke-width:1;stroke-linejoin:bevel"
           d="m 246.08743,143.70727 c -8.68239,7.55464 -0.3913,15.97525 2.45914,23.27168 1.82614,4.67447 1.48427,11.91109 1.48427,11.91109 2.20221,-1.10232 13.63991,-22.46966 4.70144,-20.87101 -2.71835,0.48617 6.02676,-0.29708 3.9383,7.93711 8.76126,-4.62843 0.1206,-15.67381 -3.54105,-18.18298 z"
           id="path5402" /><path
           style="fill:url(#linearGradient5514);fill-opacity:1;stroke-width:1;stroke-linejoin:bevel"
           d="m 256.84292,148.31409 c 1.31931,1.11114 9.46336,10.6165 5.43412,21.91111 5.41244,-10.82719 12.27615,-1.2127 14.8948,7.07357 1.40409,-2.0232 1.19694,-26.25831 -5.88072,-20.56987 -2.15244,1.72997 5.14648,-3.15022 7.26157,5.07718 4.87786,-14.00739 -12.80723,-14.44531 -21.70977,-13.49199 z"
           id="path5404" /><path
           style="fill:url(#linearGradient5516);fill-opacity:1;stroke-width:0.577918;stroke-linejoin:bevel"
           d="m 287.21762,142.99366 c -0.21233,0.97396 -0.58997,8.19796 5.23737,11.94905 -6.2959,-3.04936 -6.04879,3.77316 -4.32621,8.49074 -1.35629,-0.43136 -9.80649,-11.60158 -4.55997,-11.49238 1.59556,0.0332 -3.4673,0.37213 -1.53489,4.88519 -7.17242,-4.69406 0.77112,-11.13018 5.1837,-13.8326 z"
           id="path5406" /></g><g
         id="g5418"
         transform="translate(-0.35357142,0.92488531)"
         style="opacity:0.29703;fill:url(#linearGradient5528);fill-opacity:1"
         clip-path="url(#clipPath11517)"><path
           style="fill:url(#linearGradient5520);fill-opacity:1;stroke-width:1;stroke-linejoin:bevel"
           d="m 246.08743,143.70727 c -8.68239,7.55464 -0.3913,15.97525 2.45914,23.27168 1.82614,4.67447 1.48427,11.91109 1.48427,11.91109 2.20221,-1.10232 13.63991,-22.46966 4.70144,-20.87101 -2.71835,0.48617 6.02676,-0.29708 3.9383,7.93711 8.76126,-4.62843 0.1206,-15.67381 -3.54105,-18.18298 z"
           id="path5410" /><path
           style="fill:url(#linearGradient5522);fill-opacity:1;stroke-width:1;stroke-linejoin:bevel"
           d="m 256.84292,148.31409 c 1.31931,1.11114 9.46336,10.6165 5.43412,21.91111 5.41244,-10.82719 12.27615,-1.2127 14.8948,7.07357 1.40409,-2.0232 1.19694,-26.25831 -5.88072,-20.56987 -2.15244,1.72997 5.14648,-3.15022 7.26157,5.07718 4.87786,-14.00739 -12.80723,-14.44531 -21.70977,-13.49199 z"
           id="path5412" /><path
           style="fill:url(#linearGradient5524);fill-opacity:1;stroke-width:0.577918;stroke-linejoin:bevel"
           d="m 290.5182,137.09193 c 6.63935,0.39792 5.8119,7.17705 7.07934,11.5231 0.81199,2.78431 3.5201,5.97739 3.5201,5.97739 -1.39706,0.27174 -14.16827,-5.47949 -9.51169,-7.89909 1.41614,-0.73584 -2.86439,1.98895 0.9952,5.02299 -5.64369,0.96979 -5.58165,-7.13447 -4.7897,-9.57448 z"
           id="path5414" /><path
           style="fill:url(#linearGradient5526);fill-opacity:1;stroke-width:0.577918;stroke-linejoin:bevel"
           d="m 287.21762,142.99366 c -0.21233,0.97396 -0.58997,8.19796 5.23737,11.94905 -6.2959,-3.04936 -6.04879,3.77316 -4.32621,8.49074 -1.35629,-0.43136 -9.80649,-11.60158 -4.55997,-11.49238 1.59556,0.0332 -3.4673,0.37213 -1.53489,4.88519 -7.17242,-4.69406 0.77112,-11.13018 5.1837,-13.8326 z"
           id="path5416" /></g><g
         id="g5426"
         transform="matrix(-0.92480689,0.38043687,0.38043687,0.92480689,460.82045,-79.392131)"><path
           style="fill:url(#linearGradient5530);fill-opacity:1;stroke-width:1;stroke-linejoin:bevel"
           d="m 246.08743,143.70727 c -8.68239,7.55464 -0.3913,15.97525 2.45914,23.27168 1.82614,4.67447 1.48427,11.91109 1.48427,11.91109 2.20221,-1.10232 13.63991,-22.46966 4.70144,-20.87101 -2.71835,0.48617 6.02676,-0.29708 3.9383,7.93711 8.76126,-4.62843 0.1206,-15.67381 -3.54105,-18.18298 z"
           id="path5420" /><path
           style="fill:url(#linearGradient5532);fill-opacity:1;stroke-width:1;stroke-linejoin:bevel"
           d="m 256.84292,148.31409 c 1.31931,1.11114 9.46336,10.6165 5.43412,21.91111 5.41244,-10.82719 12.27615,-1.2127 14.8948,7.07357 1.40409,-2.0232 1.19694,-26.25831 -5.88072,-20.56987 -2.15244,1.72997 5.14648,-3.15022 7.26157,5.07718 4.87786,-14.00739 -12.80723,-14.44531 -21.70977,-13.49199 z"
           id="path5422" /><path
           style="fill:url(#linearGradient5534);fill-opacity:1;stroke-width:0.577918;stroke-linejoin:bevel"
           d="m 287.21762,142.99366 c -0.21233,0.97396 -0.58997,8.19796 5.23737,11.94905 -6.2959,-3.04936 -6.04879,3.77316 -4.32621,8.49074 -1.35629,-0.43136 -9.80649,-11.60158 -4.55997,-11.49238 1.59556,0.0332 -3.4673,0.37213 -1.53489,4.88519 -7.17242,-4.69406 0.77112,-11.13018 5.1837,-13.8326 z"
           id="path5424" /></g><g
         id="g5436"
         transform="translate(-0.35357142,-1.2500637)"><path
           style="fill:url(#linearGradient5536);fill-opacity:1;stroke-width:1;stroke-linejoin:bevel"
           d="m 246.08743,143.70727 c -8.68239,7.55464 -0.3913,15.97525 2.45914,23.27168 1.82614,4.67447 1.48427,11.91109 1.48427,11.91109 2.20221,-1.10232 13.63991,-22.46966 4.70144,-20.87101 -2.71835,0.48617 6.02676,-0.29708 3.9383,7.93711 8.76126,-4.62843 0.1206,-15.67381 -3.54105,-18.18298 z"
           id="path5428" /><path
           style="fill:url(#linearGradient5538);fill-opacity:1;stroke-width:1;stroke-linejoin:bevel"
           d="m 256.84292,148.31409 c 1.31931,1.11114 9.46336,10.6165 5.43412,21.91111 5.41244,-10.82719 12.27615,-1.2127 14.8948,7.07357 1.40409,-2.0232 1.19694,-26.25831 -5.88072,-20.56987 -2.15244,1.72997 5.14648,-3.15022 7.26157,5.07718 4.87786,-14.00739 -12.80723,-14.44531 -21.70977,-13.49199 z"
           id="path5430" /><path
           style="fill:url(#linearGradient5540);fill-opacity:1;stroke-width:0.577918;stroke-linejoin:bevel"
           d="m 290.5182,137.09193 c 6.63935,0.39792 5.8119,7.17705 7.07934,11.5231 0.81199,2.78431 3.5201,5.97739 3.5201,5.97739 -1.39706,0.27174 -14.16827,-5.47949 -9.51169,-7.89909 1.41614,-0.73584 -2.86439,1.98895 0.9952,5.02299 -5.64369,0.96979 -5.58165,-7.13447 -4.7897,-9.57448 z"
           id="path5432" /><path
           style="fill:url(#linearGradient5542);fill-opacity:1;stroke-width:0.577918;stroke-linejoin:bevel"
           d="m 287.21762,142.99366 c -0.21233,0.97396 -0.58997,8.19796 5.23737,11.94905 -6.2959,-3.04936 -6.04879,3.77316 -4.32621,8.49074 -1.35629,-0.43136 -9.80649,-11.60158 -4.55997,-11.49238 1.59556,0.0332 -3.4673,0.37213 -1.53489,4.88519 -7.17242,-4.69406 0.77112,-11.13018 5.1837,-13.8326 z"
           id="path5434" /></g></g><path
       style="opacity:0.324841;fill:#333333;fill-opacity:1;stroke:none;stroke-width:0.879101;stroke-linecap:square;stroke-linejoin:miter;stroke-dasharray:none;stroke-opacity:1;filter:url(#filter20792)"
       d="m 287.86221,148.94391 c 9.20506,-39.12561 43.67876,-38.80914 51.56355,-25.49839 l 76.50303,129.14903 C 376.13502,234.08561 273.17263,211.38115 287.86221,148.94391 Z"
       id="path5440"
       clip-path="url(#clipPath20798)"
       transform="matrix(1.4475096,0,0,1.4475096,2465.8627,-600.00544)" /><path
       style="fill:url(#radialGradient5544);fill-opacity:1;stroke:none;stroke-width:1.28365;stroke-linecap:square;stroke-linejoin:miter;stroke-dasharray:none;stroke-opacity:1"
       d="m 2969.0894,-240.70744 c 5.383,0.34755 15.4456,3.07144 11.5459,8.19717 -8.389,11.02649 -24.9171,4.45923 -29.7003,14.94981 -2.7232,7.71566 4.0847,5.67328 4.0847,5.67328 0,0 -6.5809,3.85782 -11.3465,2.04238 -4.7655,-1.81545 -25.4163,-20.87768 -19.2891,-25.18934 6.1271,-4.3117 29.7153,-6.64115 44.7053,-5.6733 z"
       id="path5442" /><path
       style="fill:url(#radialGradient5546);fill-opacity:1;stroke:none;stroke-width:1.27251;stroke-linecap:square;stroke-linejoin:miter;stroke-dasharray:none;stroke-opacity:1"
       d="m 2884.5984,-390.10316 c 14.9712,-56.22182 64.8376,-54.30795 75.6838,-34.71572 l 105.2372,190.09591 c -56.7956,-28.46111 -204.8123,-65.66056 -180.921,-155.38019 z"
       id="path5444" /><path
       style="opacity:0.113861;mix-blend-mode:normal;fill:#333333;fill-opacity:1;stroke:none;stroke-width:1;stroke-linecap:square;stroke-linejoin:miter;stroke-dasharray:none;stroke-opacity:1;filter:url(#filter14350)"
       d="M 267.83036,118.0881 256.33929,89.80238 c 7.264,-16.858781 55.5673,-33.67666 80.26071,13.61251 5.2415,5.84195 8.92433,6.16963 13.25893,6.54107 l -10.78392,2.82857 c 13.23689,13.48714 -1.14853,29.4671 -3.71251,39.06965 -1.78716,-2.9786 -1.54916,-14.70963 -12.19821,-22.27501 0.5191,22.13657 -9.67817,26.18621 -24.21965,34.29643 12.65009,-17.25721 12.27459,-25.04125 9.54643,-31.11428 0.35425,11.02971 -7.24821,12.90535 -7.24821,12.90535 3.02545,-9.30049 0.36757,-12.40099 -1.59107,-16.26428 -6.97099,9.68253 -5.44451,15.15906 -1.2375,17.85536 -15.08918,-2.68592 -17.29378,-14.51761 -20.33036,-22.45179 -5.53044,2.53393 -3.56267,5.06786 -1.2375,7.60179 -4.62789,0.13057 -7.14413,-1.20077 -5.65715,-5.30358 l -9.89999,3.88929 c 6.95962,-3.86798 6.54107,-12.90536 6.54107,-12.90536 z"
       id="path5446"
       clip-path="url(#clipPath15088)"
       transform="matrix(1.4475096,0,0,1.4475096,2465.8627,-600.00544)" /><path
       id="path5448"
       style="fill:url(#linearGradient5548);fill-opacity:1;stroke:none;stroke-width:1.44751;stroke-linecap:square;stroke-linejoin:miter;stroke-dasharray:none;stroke-opacity:1"
       d="m 2853.2909,-488.85853 c -0.2489,0.003 -0.4813,0.013 -0.7218,0.0197 -7.618,4.48823 -13.2235,10.12078 -15.6528,15.75925 l 16.6336,40.94375 c 0,0 0.6059,13.0821 -9.4682,18.68103 l 14.3298,-5.63015 c -2.1524,5.93886 1.4904,7.86606 8.1893,7.67705 -3.3658,-3.66788 -6.2143,-7.33557 1.791,-11.00346 4.3955,11.48479 7.5865,28.61142 29.4282,32.49931 -6.0897,-3.90292 -8.2989,-11.83042 1.7917,-25.84597 2.8351,5.59215 6.6821,10.08022 2.3027,23.54276 0,0 11.0047,-2.71492 10.4918,-18.68052 3.9491,8.79075 4.4928,20.05812 -13.8183,45.03807 21.0489,-11.7396 35.8098,-17.60164 35.0584,-49.64451 15.4145,10.95095 15.0698,27.93197 17.6568,32.24351 3.7114,-13.89977 24.5343,-37.0309 5.3738,-56.55365 l 15.6099,-4.09485 c -6.2744,-0.53766 -11.6056,-1.01188 -19.1927,-9.46814 -3.7448,-7.17179 -7.8659,-13.321 -12.2534,-18.56219 -21.0444,-4.51631 -67.5957,-17.13136 -87.5498,-16.92092 z" /><path
       style="fill:url(#radialGradient5550);fill-opacity:1;stroke:none;stroke-width:1.44751;stroke-linecap:square;stroke-linejoin:miter;stroke-dasharray:none;stroke-opacity:1"
       d="m 2853.5496,-432.13569 -16.6333,-40.94384 c 9.9895,-21.56742 72.811,-7.58221 116.1781,19.70422 7.5871,8.45628 12.918,8.9306 19.1924,9.46827 l -15.6098,4.09438 c 19.1605,19.52276 -1.6625,42.65391 -5.3739,56.55369 -2.587,-4.31155 -2.2425,-21.29233 -17.657,-32.24329 0.7514,32.0429 -14.0093,37.90479 -35.0582,49.64441 18.3111,-24.97997 17.7676,-36.24745 13.8185,-45.03822 0.5128,15.96561 -10.4919,18.68062 -10.4919,18.68062 4.3795,-13.46255 0.5321,-17.95055 -2.303,-23.5427 -10.0905,14.01556 -7.8809,21.94288 -1.7913,25.8458 -21.8417,-3.88789 -25.0329,-21.01437 -29.4284,-32.49918 -8.0053,3.66789 -5.157,7.33578 -1.7913,11.00367 -6.6989,0.189 -10.3411,-1.73813 -8.1887,-7.67699 l -14.3303,5.62979 c 10.074,-5.59894 9.4681,-18.68063 9.4681,-18.68063 z"
       id="path5450" /><path
       style="display:inline;fill:url(#linearGradient5552);fill-opacity:1;stroke:none;stroke-width:2.00858;stroke-linecap:square;stroke-linejoin:miter;stroke-dasharray:none;stroke-opacity:1"
       d="m 2882.8964,-432.41237 c -6.825,-1.90265 -10.7946,-4.93172 -13.3965,-10.22201 -1.7328,-3.52318 -1.7492,-3.62844 -1.7172,-11.00504 0.03,-6.96604 0.1375,-7.72407 1.6483,-11.71785 2.6027,-6.87718 5.815,-11.04262 10.757,-13.94823 6.3524,-3.73491 18.1093,0.62593 25.418,9.42788 1.6158,1.946 4.1482,6.04907 5.7537,9.3218 3.5258,7.18817 5.1255,13.47206 4.9066,19.27412 l -0.155,4.10917 -2.4114,1.19771 c -1.3264,0.65875 -4.794,1.82257 -7.706,2.58631 -6.7655,1.77446 -18.461,2.26872 -23.0975,0.97614 z"
       id="path5452" /><path
       style="display:inline;fill:#000000;stroke-width:0.219509"
       d="m 2882.8274,-430.25774 c -4.3928,-0.59802 -8.4625,-2.15386 -10.9807,-4.19791 -3.837,-3.11459 -5.7121,-8.8623 -5.143,-15.76516 0.1,-1.20729 0.2763,-4.31884 0.3927,-6.91455 0.2374,-5.29735 0.525,-7.10018 1.6738,-10.49215 2.5556,-7.54596 7.4839,-12.40279 13.938,-13.73593 4.5047,-0.93047 7.5704,-0.87137 11.4044,0.21986 2.3451,0.66746 6.6565,2.79468 8.6714,4.27839 2.3333,1.71815 6.1725,5.72691 7.7562,8.09882 5.0091,7.5014 7.8865,18.16953 6.8262,25.3083 -0.2788,1.87719 -1.0377,4.75766 -1.357,5.15095 -0.415,0.51104 0.019,0.54331 0.7557,0.0562 0.6566,-0.43442 0.6421,-0.4034 -0.152,0.32443 -2.3224,2.12856 -8.3782,4.71141 -14.3778,6.13219 -7.2884,1.72594 -14.0723,2.26306 -19.4079,1.53663 z m 17.2617,-2.48051 c 4.8277,-0.86506 10.8415,-2.5854 13.9282,-3.98436 1.3278,-0.60186 1.3589,-0.63578 1.5365,-1.67825 0.1,-0.5852 0.1726,-2.64446 0.162,-4.57614 -0.022,-4.08721 -0.423,-6.35205 -1.9365,-10.9505 -3.5627,-10.82451 -9.6447,-18.93738 -17.3466,-23.13891 -3.483,-1.89997 -6.5218,-2.84322 -9.8183,-3.04764 -2.4915,-0.15449 -3.5243,0.0572 -5.8212,1.19286 -3.5622,1.76141 -6.7547,5.07629 -8.931,9.27379 -1.3133,2.53304 -2.5634,6.01026 -3.0774,8.56088 -0.9587,4.75675 -1.019,11.33351 -0.1332,14.59736 1.0595,3.9065 3.338,7.48218 6.1574,9.66281 2.857,2.20958 6.4187,3.5844 11.374,4.39024 2.8604,0.46517 10.5577,0.29793 13.9067,-0.30214 z"
       id="path5454" /><path
       style="fill:url(#radialGradient5554);fill-opacity:1;stroke:none;stroke-width:1.53175;stroke-linecap:square;stroke-linejoin:miter;stroke-dasharray:none;stroke-opacity:1"
       d="m 2997.9731,-229.28338 c 6.4234,0.41473 18.431,3.6651 13.7776,9.78156 -10.0107,13.15774 -29.7333,5.32114 -35.441,17.83937 -3.2495,9.20699 4.8742,6.76985 4.8742,6.76985 0,0 -7.853,4.60348 -13.5396,2.43714 -5.6866,-2.16634 -30.3289,-24.913 -23.0175,-30.05809 7.3115,-5.14507 35.4589,-7.92477 53.3463,-6.76983 z"
       id="path5456" /><ellipse
       style="fill:url(#radialGradient5556);fill-opacity:1;stroke:none;stroke-width:1.07173;stroke-linecap:square;stroke-linejoin:miter;stroke-dasharray:none;stroke-opacity:1"
       id="ellipse5458"
       cx="1557.0413"
       cy="-692.09875"
       rx="11.718368"
       ry="13.751404"
       clip-path="url(#clipPath5601)"
       transform="matrix(1.4475096,0,0,1.4475096,637.05416,535.76923)" /><path
       style="fill:none;fill-opacity:1;stroke:none;stroke-width:1.44751;stroke-linecap:square;stroke-linejoin:miter;stroke-dasharray:none;stroke-opacity:1"
       d="m 2909.0797,-463.72027 -15.6098,8.18877 15.8657,11.77135 z"
       id="path5460" /><ellipse
       style="fill:#ffffff;fill-opacity:1;stroke:none;stroke-width:1.32465;stroke-linecap:square;stroke-linejoin:miter;stroke-dasharray:none;stroke-opacity:1"
       id="ellipse5462"
       cx="2899.9915"
       cy="-455.78439"
       rx="8.9569216"
       ry="6.6950736" /><path
       style="opacity:0.113861;mix-blend-mode:normal;fill:#333333;fill-opacity:1;stroke:none;stroke-width:1;stroke-linecap:square;stroke-linejoin:miter;stroke-dasharray:none;stroke-opacity:1;filter:url(#filter16594)"
       d="m 1539.5565,-672.45689 c -3.6073,-10.11856 -20.4637,-29.1827 -19.9768,-19.88839 -19.7149,5.3018 -8.8393,21.74464 -8.8393,21.74464 0,0 19.9899,8.9794 28.8161,-1.85625 z"
       id="path5464"
       transform="matrix(1.4475096,0,0,1.4475096,637.05416,532.55155)" /><path
       style="opacity:0.10231;mix-blend-mode:normal;fill:#333333;fill-opacity:1;stroke:none;stroke-width:1;stroke-linecap:square;stroke-linejoin:miter;stroke-dasharray:none;stroke-opacity:1;filter:url(#filter16620)"
       d="m 274.26419,130.83677 c 10.10987,-0.94994 -8.55286,-28.10468 -8.22619,-18.63832 -19.7149,5.30181 1.16123,3.99373 1.16123,3.99373 -46.44787,30.43659 -21.79655,40.17285 7.06496,14.64459 z"
       id="path5466"
       clip-path="url(#clipPath16608)"
       transform="matrix(1.4475096,0,0,1.4475096,2465.8627,-600.00544)" /><path
       style="fill:url(#linearGradient5560);fill-opacity:1;stroke:none;stroke-width:1.44751;stroke-linecap:square;stroke-linejoin:miter;stroke-dasharray:none;stroke-opacity:1"
       d="m 2860.4589,-446.72193 c -18.5939,-5.76531 -12.5184,-28.06901 -25.3339,-25.8458 -8.0364,1.77806 -32.397,18.75578 -34.0346,23.79859 -3.2852,10.11692 -0.7334,25.05174 11.3874,33.01099 -0.6217,-39.61643 35.2052,-15.27907 47.9811,-30.96378 z"
       id="path5470" /><path
       style="color:#000000;opacity:0.781316;fill:url(#linearGradient5564);fill-opacity:1;stroke-width:1.19443;stroke-linejoin:bevel;filter:url(#filter22046)"
       d="m 1598.7831,-610.7294 10e-4,0.0559 c 11.7273,25.6518 37.6064,54.81167 77.9366,79.03818 l 0.1078,0.0313 c -37.9266,-24.59235 -64.3481,-55.96995 -78.0457,-79.12536 z"
       id="path5474"
       transform="matrix(1.4475096,0,0,1.4475096,637.05416,532.55155)" /><path
       style="color:#000000;opacity:0.781316;fill:url(#linearGradient5566);fill-opacity:1;stroke-width:1.19443;stroke-linejoin:bevel;filter:url(#filter22046)"
       d="m 335.36591,171.6882 0.001,0.0559 c 11.72736,25.6518 37.60639,54.81167 77.93657,79.03818 l 0.1078,0.0313 C 375.4847,226.22123 349.06323,194.84363 335.36564,171.68822 Z"
       id="path5476"
       transform="matrix(1.4216514,0.27238077,-0.27238077,1.4216514,2544.6508,-706.09814)" /><path
       style="color:#000000;fill:#058bf4;stroke-width:1.72895;stroke-linejoin:bevel"
       d="m 2977.4007,-372.09851 -0.017,0.0787 c 7.2816,40.46114 38.9027,85.22139 86.7041,134.90026 l 0.1404,0.086 c -44.3095,-49.24846 -75.9007,-97.32201 -86.8264,-135.06505 z"
       id="path5478" /><path
       style="color:#000000;opacity:0.781316;fill:url(#linearGradient5568);fill-opacity:1;stroke-width:1.19443;stroke-linejoin:bevel;filter:url(#filter22046)"
       d="m 335.36591,171.6882 0.001,0.0559 c 11.72736,25.6518 37.60639,54.81167 77.93657,79.03818 l 0.1078,0.0313 C 375.4847,226.22123 349.06323,194.84363 335.36564,171.68822 Z"
       id="path5480"
       transform="matrix(1.403965,-0.35237237,0.35237237,1.403965,2395.7543,-443.50458)" /><path
       style="color:#000000;fill:#058bf4;stroke-width:1.72895;stroke-linejoin:bevel"
       d="m 2953.7642,-353.87481 4e-4,0.0809 c 16.1758,37.48651 52.7227,80.48883 110.336,116.8 l 0.1552,0.0486 c -54.1244,-36.76602 -91.3875,-82.99462 -110.4921,-116.92952 z"
       id="path5482" /><path
       style="color:#000000;fill:#058bf4;stroke-width:1.72895;stroke-linejoin:bevel"
       d="m 2930.08,-321.82177 0.019,0.0785 c 24.367,32.18956 69.7661,64.48559 134.0448,84.87149 l 0.1615,0.007 c -61.0003,-21.7249 -107.841,-56.96529 -134.2257,-84.95701 z"
       id="path5484" /><path
       id="path5486"
       style="opacity:0.246285;mix-blend-mode:normal;fill:#ffffff;fill-opacity:0.941043;stroke:none;stroke-width:1;stroke-linejoin:bevel;filter:url(#filter20908)"
       d="m 258.39914,129.45784 c -3.49364,3.2147 -7.58753,8.03074 -7.24488,12.75961 0.13033,1.79859 0.38463,3.57176 0.74731,5.31937 a 9.8999996,9.8999996 0 0 0 5.49847,1.67029 9.8999996,9.8999996 0 0 0 9.89989,-9.90003 9.8999996,9.8999996 0 0 0 -8.90079,-9.84924 z"
       transform="matrix(3.6124532,0,0,2.3856519,1909.6298,-724.55378)" /><g
       id="g5492"
       clip-path="url(#clipPath24284)"
       style="opacity:0.751592;filter:url(#filter26599)"
       transform="matrix(1.6328463,0,0,1.6328463,2401.6074,-649.08047)"><ellipse
         style="opacity:0.159236;fill:#333333;fill-opacity:0.941043;stroke:none;stroke-width:1;stroke-linejoin:bevel;filter:url(#filter24262)"
         id="ellipse5488"
         cx="363.76855"
         cy="259.63824"
         rx="8.1254148"
         ry="1.6250829"
         transform="matrix(1.244269,0,0,2.000993,-88.857375,-259.33354)" /><ellipse
         style="opacity:0.218684;fill:#333333;fill-opacity:0.941043;stroke:none;stroke-width:1;stroke-linejoin:bevel;filter:url(#filter24262)"
         id="ellipse5490"
         cx="363.76855"
         cy="259.63824"
         rx="8.1254148"
         ry="1.6250829"
         transform="matrix(1.244269,0,0,2.000993,-105.60823,-266.58391)" /></g><path
       style="fill:url(#linearGradient5570);fill-opacity:1;stroke:none;stroke-width:1.2086;stroke-linejoin:bevel;stroke-opacity:1"
       d="m 2720.4625,-447.76388 c 0,0 74.4301,-7.67533 73.9865,23.23165 -0.03,2.10605 -12.9553,7.64373 -28.2592,10.21762 -38.5593,8.04214 -35.6336,20.95725 -35.6336,20.95725 -32.6802,-4.12209 -33.1406,-44.20804 -10.0937,-54.40652 z"
       id="path5504" /><path
       style="fill:url(#linearGradient5656);fill-opacity:1;stroke:none;stroke-width:1.44751;stroke-linecap:square;stroke-linejoin:miter;stroke-dasharray:none;stroke-opacity:1"
       d="m 2856.3882,-478.85639 c 0,0 3.9154,-3.71258 20.8771,-14.35117 16.6175,-10.42265 29.4511,5.87503 41.202,22.58433 0.1547,0.22004 -26.9902,-23.09875 -37.0521,-14.62433 -8.8923,7.48949 -32.92,21.34201 -25.027,6.39117 z"
       id="path5654" /></g></svg>
