<?xml version="1.0" encoding="UTF-8" standalone="no"?>
<!-- Created with Inkscape (http://www.inkscape.org/) -->

<svg
   width="288.42822mm"
   height="307.70734mm"
   viewBox="0 0 288.42822 307.70734"
   version="1.1"
   id="svg5"
   xml:space="preserve"
   xmlns:xlink="http://www.w3.org/1999/xlink"
   xmlns="http://www.w3.org/2000/svg"
   xmlns:svg="http://www.w3.org/2000/svg"><defs
     id="defs2"><linearGradient
       id="linearGradient26607"><stop
         style="stop-color:#eea02c;stop-opacity:1;"
         offset="0"
         id="stop26603" /><stop
         style="stop-color:#c37b11;stop-opacity:1;"
         offset="1"
         id="stop26605" /></linearGradient><linearGradient
       id="linearGradient24318"><stop
         style="stop-color:#f3b964;stop-opacity:1;"
         offset="0"
         id="stop24314" /><stop
         style="stop-color:#ef950e;stop-opacity:1;"
         offset="1"
         id="stop24316" /></linearGradient><linearGradient
       id="linearGradient22042"><stop
         style="stop-color:#333333;stop-opacity:1;"
         offset="0"
         id="stop22038" /><stop
         style="stop-color:#333333;stop-opacity:0;"
         offset="1"
         id="stop22040" /></linearGradient><linearGradient
       id="wing"><stop
         style="stop-color:#7ac2fb;stop-opacity:1;"
         offset="0"
         id="stop21681" /><stop
         style="stop-color:#29a1fa;stop-opacity:1;"
         offset="1"
         id="stop21683" /></linearGradient><linearGradient
       id="body"><stop
         style="stop-color:#058bf4;stop-opacity:1;"
         offset="0"
         id="stop20915" /><stop
         style="stop-color:#0575cd;stop-opacity:1;"
         offset="1"
         id="stop20917" /></linearGradient><linearGradient
       id="linearGradient20398"><stop
         style="stop-color:#6d6d6d;stop-opacity:1;"
         offset="0"
         id="stop20394" /><stop
         style="stop-color:#000000;stop-opacity:1;"
         offset="1"
         id="stop20396" /></linearGradient><linearGradient
       id="linearGradient18886"><stop
         style="stop-color:#848484;stop-opacity:1;"
         offset="0"
         id="stop18882" /><stop
         style="stop-color:#ffffff;stop-opacity:1;"
         offset="1"
         id="stop18884" /></linearGradient><linearGradient
       id="linearGradient18856"><stop
         style="stop-color:#058bf4;stop-opacity:1;"
         offset="0"
         id="stop18852" /><stop
         style="stop-color:#047dd6;stop-opacity:1;"
         offset="0.16136241"
         id="stop18872" /><stop
         style="stop-color:#068efa;stop-opacity:1;"
         offset="0.29416448"
         id="stop18862" /><stop
         style="stop-color:#046cbc;stop-opacity:1;"
         offset="1"
         id="stop18854" /></linearGradient><linearGradient
       id="linearGradient18114"><stop
         style="stop-color:#7fc6fc;stop-opacity:0;"
         offset="0"
         id="stop18108" /><stop
         style="stop-color:#5cb4fb;stop-opacity:0;"
         offset="0.34368873"
         id="stop18110" /><stop
         style="stop-color:#01223c;stop-opacity:1;"
         offset="1"
         id="stop18112" /></linearGradient><linearGradient
       id="linearGradient15862"><stop
         style="stop-color:#c37b11;stop-opacity:1;"
         offset="0"
         id="stop15858" /><stop
         style="stop-color:#88570c;stop-opacity:1;"
         offset="1"
         id="stop15860" /></linearGradient><linearGradient
       id="linearGradient15834"><stop
         style="stop-color:#fbe8cf;stop-opacity:1;"
         offset="0"
         id="stop15830" /><stop
         style="stop-color:#ec991f;stop-opacity:1;"
         offset="0.38875693"
         id="stop15846" /><stop
         style="stop-color:#eb9516;stop-opacity:1;"
         offset="0.6807065"
         id="stop15856" /><stop
         style="stop-color:#ab6d10;stop-opacity:1;"
         offset="1"
         id="stop15832" /></linearGradient><linearGradient
       id="linearGradient14342"><stop
         style="stop-color:#7fc6fc;stop-opacity:1;"
         offset="0"
         id="stop14338" /><stop
         style="stop-color:#5cb4fb;stop-opacity:1;"
         offset="0.34368873"
         id="stop14346" /><stop
         style="stop-color:#94d0fc;stop-opacity:1;"
         offset="1"
         id="stop14340" /></linearGradient><linearGradient
       id="linearGradient11533"><stop
         style="stop-color:#000000;stop-opacity:1;"
         offset="0"
         id="stop11529" /><stop
         style="stop-color:#000000;stop-opacity:0;"
         offset="1"
         id="stop11531" /></linearGradient><linearGradient
       id="linearGradient11491"><stop
         style="stop-color:#333333;stop-opacity:1;"
         offset="0"
         id="stop11487" /><stop
         style="stop-color:#333333;stop-opacity:0;"
         offset="1"
         id="stop11489" /></linearGradient><linearGradient
       id="linearGradient10756"><stop
         style="stop-color:#5fb8fb;stop-opacity:1"
         offset="0"
         id="stop10752" /><stop
         style="stop-color:#0a91fa;stop-opacity:0;"
         offset="1"
         id="stop10754" /></linearGradient><clipPath
       clipPathUnits="userSpaceOnUse"
       id="clipPath11517"><path
         style="opacity:1;fill:#058bf4;fill-opacity:1;stroke:none;stroke-width:1;stroke-linecap:square;stroke-linejoin:miter;stroke-dasharray:none;stroke-opacity:1"
         d="m 272.74949,120.11683 c 0,0 -31.34734,13.89395 -29.87588,27.30467 7.39891,67.43285 171.88485,113.6819 172.83597,113.51925 0,0 -66.89703,-115.14626 -79.45683,-143.57408 -8.5625,-19.380331 -63.50326,2.75016 -63.50326,2.75016 z"
         id="path11519" /></clipPath><clipPath
       clipPathUnits="userSpaceOnUse"
       id="clipPath11549"><path
         style="opacity:1;fill:#058bf4;fill-opacity:1;stroke:none;stroke-width:1;stroke-linecap:square;stroke-linejoin:miter;stroke-dasharray:none;stroke-opacity:1"
         d="m 250.35948,112.65899 c 0,0 34.27601,0.92355 38.01713,13.88567 18.81138,65.17718 -115.71151,170.52514 -116.65299,170.73656 0,0 18.06096,-131.93815 18.86135,-163.00661 0.54567,-21.18055 59.77451,-21.61562 59.77451,-21.61562 z"
         id="path11551" /></clipPath><filter
       style="color-interpolation-filters:sRGB"
       id="filter14350"
       x="-0.02558109"
       y="-0.026192293"
       width="1.0511622"
       height="1.0523846"><feGaussianBlur
         stdDeviation="0.99680596"
         id="feGaussianBlur14352" /></filter><clipPath
       clipPathUnits="userSpaceOnUse"
       id="clipPath15088"><g
         id="g15094"><path
           style="opacity:1;fill:#058bf4;fill-opacity:1;stroke:none;stroke-width:1;stroke-linecap:square;stroke-linejoin:miter;stroke-dasharray:none;stroke-opacity:1"
           d="m 272.39593,121.04171 c 0,0 -31.34735,13.89396 -29.87589,27.30468 7.39891,67.43284 171.88485,113.6819 172.83598,113.51925 0,0 -66.89705,-115.14626 -79.45685,-143.57408 -8.5625,-19.380334 -63.50324,2.75015 -63.50324,2.75015 z"
           id="path15090" /><path
           style="opacity:1;fill:#5fb8fb;fill-opacity:1;stroke:none;stroke-width:0.879101;stroke-linecap:square;stroke-linejoin:miter;stroke-dasharray:none;stroke-opacity:1"
           d="m 289.28009,145.00925 c 10.34271,-38.84038 44.7925,-37.5182 52.28556,-23.98307 l 72.70227,131.32618 C 375.03113,232.69024 272.77503,206.99131 289.28009,145.00925 Z"
           id="path15092" /></g></clipPath><filter
       style="color-interpolation-filters:sRGB"
       id="filter16594"
       x="-0.14057836"
       y="-0.16130969"
       width="1.2811567"
       height="1.3226194"><feGaussianBlur
         stdDeviation="1.8631655"
         id="feGaussianBlur16596" /></filter><clipPath
       clipPathUnits="userSpaceOnUse"
       id="clipPath16608"><g
         id="g16614"><path
           style="opacity:1;fill:#058bf4;fill-opacity:1;stroke:none;stroke-width:1;stroke-linecap:square;stroke-linejoin:miter;stroke-dasharray:none;stroke-opacity:1"
           d="m 272.39593,121.04171 c 0,0 -31.34735,13.89396 -29.87589,27.30468 7.39891,67.43284 171.88485,113.6819 172.83598,113.51925 0,0 -66.89705,-115.14626 -79.45685,-143.57408 -8.5625,-19.380334 -63.50324,2.75015 -63.50324,2.75015 z"
           id="path16610" /><path
           style="opacity:1;fill:url(#linearGradient16616);fill-opacity:1;stroke:none;stroke-width:1;stroke-linecap:square;stroke-linejoin:miter;stroke-dasharray:none;stroke-opacity:1"
           d="M 267.83036,115.97142 256.33929,87.685712 c 7.264,-16.858781 55.5673,-33.67666 80.26071,13.612498 5.2415,5.84195 8.92433,6.16963 13.25893,6.54107 l -10.78392,2.82857 c 13.23689,13.48714 -1.14853,29.4671 -3.71251,39.06965 -1.78716,-2.9786 -1.54916,-14.70963 -12.19821,-22.27501 0.5191,22.13657 -9.67817,26.18621 -24.21965,34.29643 12.65009,-17.25721 12.27459,-25.04125 9.54643,-31.11428 0.35425,11.02971 -7.24821,12.90535 -7.24821,12.90535 3.02545,-9.30049 0.36757,-12.40099 -1.59107,-16.26428 -6.97099,9.68253 -5.44451,15.15906 -1.2375,17.85536 -15.08918,-2.68592 -17.29378,-14.51761 -20.33036,-22.45179 -5.53044,2.53393 -3.56267,5.06786 -1.2375,7.60179 -4.62789,0.13057 -7.14413,-1.20077 -5.65715,-5.30358 l -9.89999,3.88929 c 6.95962,-3.86798 6.54107,-12.90536 6.54107,-12.90536 z"
           id="path16612" /></g></clipPath><linearGradient
       xlink:href="#linearGradient14342"
       id="linearGradient16616"
       gradientUnits="userSpaceOnUse"
       x1="268.08987"
       y1="80.088432"
       x2="310.10687"
       y2="148.84193" /><filter
       style="color-interpolation-filters:sRGB"
       id="filter16620"
       x="-0.21046525"
       y="-0.21453202"
       width="1.4209305"
       height="1.429064"><feGaussianBlur
         stdDeviation="3.1536948"
         id="feGaussianBlur16618" /></filter><filter
       style="color-interpolation-filters:sRGB"
       id="filter20792"
       x="-0.059106156"
       y="-0.055765111"
       width="1.1182123"
       height="1.1115302"><feGaussianBlur
         stdDeviation="3.1890147"
         id="feGaussianBlur20794" /></filter><clipPath
       clipPathUnits="userSpaceOnUse"
       id="clipPath20798"><path
         style="opacity:1;fill:#058bf4;fill-opacity:1;stroke:none;stroke-width:1;stroke-linecap:square;stroke-linejoin:miter;stroke-dasharray:none;stroke-opacity:1"
         d="m 272.39592,121.04171 c 0,0 -31.34734,13.89396 -29.87588,27.30468 7.39891,67.43284 171.88485,113.6819 172.83597,113.51925 0,0 -66.89703,-115.14626 -79.45683,-143.57408 -8.5625,-19.380335 -63.50326,2.75015 -63.50326,2.75015 z"
         id="path20800" /></clipPath><filter
       style="color-interpolation-filters:sRGB"
       id="filter20908"
       x="-0.26501283"
       y="-0.21692698"
       width="1.5300257"
       height="1.4338539"><feGaussianBlur
         stdDeviation="1.7850622"
         id="feGaussianBlur20910" /></filter><filter
       style="color-interpolation-filters:sRGB"
       id="filter22046"
       x="-0.01960811"
       y="-0.019340539"
       width="1.0392162"
       height="1.0386811"><feGaussianBlur
         stdDeviation="0.6376365"
         id="feGaussianBlur22048" /></filter><filter
       style="color-interpolation-filters:sRGB"
       id="filter24262"
       x="-0.12982272"
       y="-0.6491136"
       width="1.2596453"
       height="2.2982273"><feGaussianBlur
         stdDeviation="0.87905281"
         id="feGaussianBlur24264" /></filter><clipPath
       clipPathUnits="userSpaceOnUse"
       id="clipPath24284"><g
         id="g24290"><path
           style="fill:#c37b11;fill-opacity:1;stroke:#c37b11;stroke-width:0.786143;stroke-linecap:square;stroke-linejoin:miter;stroke-dasharray:none;stroke-opacity:1"
           d="m 347.54161,250.09888 c 3.29662,0.21285 9.45928,1.88104 7.07099,5.02018 -5.13771,6.75292 -15.25994,2.73095 -18.1893,9.15567 -1.66774,4.72528 2.50161,3.47447 2.50161,3.47447 0,0 -4.03038,2.36264 -6.94894,1.25081 -2.91855,-1.11183 -15.56563,-12.78606 -11.8132,-15.42665 3.75243,-2.6406 18.19849,-4.06722 27.37884,-3.47448 z"
           id="path24286" /><path
           style="fill:#ec991f;fill-opacity:1;stroke:#ec991f;stroke-width:0.938093;stroke-linecap:square;stroke-linejoin:miter;stroke-dasharray:none;stroke-opacity:1"
           d="m 365.23079,257.09529 c 3.93381,0.25399 11.28762,2.24461 8.4377,5.9905 -6.13075,8.05816 -18.20946,3.25881 -21.70502,10.92532 -1.99009,5.63861 2.98513,4.14604 2.98513,4.14604 0,0 -4.80939,2.8193 -8.29206,1.49257 -3.48267,-1.32673 -18.57423,-15.25741 -14.09651,-18.4084 4.47771,-3.15098 21.71598,-4.85334 32.67076,-4.14603 z"
           id="path24288" /></g></clipPath><filter
       style="color-interpolation-filters:sRGB"
       id="filter26599"
       x="-0.092436574"
       y="-0.36454874"
       width="1.1848731"
       height="1.7290975"><feGaussianBlur
         stdDeviation="0.33017869"
         id="feGaussianBlur26601" /></filter><linearGradient
       xlink:href="#linearGradient14342"
       id="linearGradient28521"
       gradientUnits="userSpaceOnUse"
       gradientTransform="translate(-100.41428,-421.45712)"
       x1="268.08987"
       y1="80.088432"
       x2="310.10687"
       y2="148.84193" /><linearGradient
       xlink:href="#body"
       id="linearGradient51323"
       gradientUnits="userSpaceOnUse"
       gradientTransform="translate(226.40495,-754.83748)"
       x1="242.4698"
       y1="186.10178"
       x2="404.04172"
       y2="258.58392" /><linearGradient
       xlink:href="#linearGradient11533"
       id="linearGradient51325"
       gradientUnits="userSpaceOnUse"
       x1="280.53165"
       y1="203.44458"
       x2="269.60239"
       y2="159.9346" /><linearGradient
       xlink:href="#linearGradient11533"
       id="linearGradient51327"
       gradientUnits="userSpaceOnUse"
       x1="280.53165"
       y1="203.44458"
       x2="269.60239"
       y2="159.9346" /><linearGradient
       xlink:href="#linearGradient11533"
       id="linearGradient51329"
       gradientUnits="userSpaceOnUse"
       x1="280.53165"
       y1="203.44458"
       x2="269.60239"
       y2="159.9346" /><linearGradient
       xlink:href="#linearGradient11533"
       id="linearGradient51331"
       gradientUnits="userSpaceOnUse"
       x1="280.53165"
       y1="203.44458"
       x2="269.60239"
       y2="159.9346" /><linearGradient
       xlink:href="#linearGradient11491"
       id="linearGradient51333"
       gradientUnits="userSpaceOnUse"
       x1="272.23264"
       y1="203.24329"
       x2="271.36612"
       y2="156.49091" /><linearGradient
       xlink:href="#linearGradient11491"
       id="linearGradient51335"
       gradientUnits="userSpaceOnUse"
       x1="272.23264"
       y1="203.24329"
       x2="271.36612"
       y2="156.49091" /><linearGradient
       xlink:href="#linearGradient11491"
       id="linearGradient51337"
       gradientUnits="userSpaceOnUse"
       x1="272.23264"
       y1="203.24329"
       x2="271.36612"
       y2="156.49091" /><linearGradient
       xlink:href="#linearGradient11491"
       id="linearGradient51339"
       gradientUnits="userSpaceOnUse"
       x1="272.23264"
       y1="203.24329"
       x2="271.36612"
       y2="156.49091" /><linearGradient
       xlink:href="#linearGradient11491"
       id="linearGradient51341"
       gradientUnits="userSpaceOnUse"
       x1="272.23264"
       y1="203.24329"
       x2="271.36612"
       y2="156.49091" /><linearGradient
       xlink:href="#linearGradient10756"
       id="linearGradient51343"
       gradientUnits="userSpaceOnUse"
       gradientTransform="rotate(-7.1006597,263.91709,152.85746)"
       x1="249.58325"
       y1="176.42188"
       x2="250.85974"
       y2="156.09152" /><linearGradient
       xlink:href="#linearGradient10756"
       id="linearGradient51345"
       gradientUnits="userSpaceOnUse"
       gradientTransform="matrix(-0.73966623,0.6729739,0.6729739,0.73966623,352.12851,-159.35194)"
       x1="280.31992"
       y1="198.50717"
       x2="277.29617"
       y2="175.34825" /><linearGradient
       xlink:href="#linearGradient10756"
       id="linearGradient51347"
       gradientUnits="userSpaceOnUse"
       gradientTransform="matrix(0.5759751,0.0473537,-0.0473537,0.5759751,135.10657,35.711044)"
       x1="280.31992"
       y1="198.50717"
       x2="277.29617"
       y2="175.34825" /><linearGradient
       xlink:href="#linearGradient10756"
       id="linearGradient51349"
       gradientUnits="userSpaceOnUse"
       gradientTransform="rotate(-7.1006597,263.91709,152.85746)"
       x1="246.27487"
       y1="171.21231"
       x2="250.85974"
       y2="156.09152" /><linearGradient
       xlink:href="#linearGradient10756"
       id="linearGradient51351"
       gradientUnits="userSpaceOnUse"
       gradientTransform="matrix(-0.73966623,0.6729739,0.6729739,0.73966623,352.12851,-159.35194)"
       x1="284.94162"
       y1="188.088"
       x2="277.29617"
       y2="175.34825" /><linearGradient
       xlink:href="#linearGradient10756"
       id="linearGradient51353"
       gradientUnits="userSpaceOnUse"
       gradientTransform="matrix(-0.49797,0.2932841,0.2932841,0.49797,372.17245,-5.9527688)"
       x1="249.58325"
       y1="176.42188"
       x2="250.85974"
       y2="156.09152" /><linearGradient
       xlink:href="#linearGradient10756"
       id="linearGradient51355"
       gradientUnits="userSpaceOnUse"
       gradientTransform="matrix(0.5759751,0.0473537,-0.0473537,0.5759751,135.10657,35.711044)"
       x1="281.80234"
       y1="190.40504"
       x2="277.29617"
       y2="175.34825" /><radialGradient
       xlink:href="#linearGradient26607"
       id="radialGradient51357"
       gradientUnits="userSpaceOnUse"
       gradientTransform="matrix(0.94728584,0.00878565,-0.00502535,0.5418431,244.60084,-639.00904)"
       cx="321.08304"
       cy="252.77254"
       fx="321.08304"
       fy="252.77254"
       r="20.122107" /><radialGradient
       xlink:href="#wing"
       id="radialGradient51359"
       gradientUnits="userSpaceOnUse"
       gradientTransform="matrix(1.5316718,0.05659089,-0.0550568,1.4901503,69.69922,-864.82513)"
       cx="314.37875"
       cy="189.6337"
       fx="314.37875"
       fy="189.6337"
       r="63.387325" /><linearGradient
       xlink:href="#linearGradient14342"
       id="linearGradient51361"
       gradientUnits="userSpaceOnUse"
       gradientTransform="translate(226.40495,-754.83748)"
       x1="268.08987"
       y1="80.088432"
       x2="310.10687"
       y2="148.84193" /><radialGradient
       xlink:href="#linearGradient18114"
       id="radialGradient51363"
       gradientUnits="userSpaceOnUse"
       gradientTransform="matrix(2.657007,-0.04883319,0.04329586,2.3557232,-243.47356,-906.33108)"
       cx="280.34158"
       cy="122.47706"
       fx="280.34158"
       fy="122.47706"
       r="46.759819" /><linearGradient
       xlink:href="#linearGradient18886"
       id="linearGradient51365"
       gradientUnits="userSpaceOnUse"
       gradientTransform="matrix(1.0383754,0,0,1.0383754,215.10665,-758.56556)"
       x1="287.96222"
       y1="77.041405"
       x2="288.10596"
       y2="101.23909" /><radialGradient
       xlink:href="#linearGradient24318"
       id="radialGradient51367"
       gradientUnits="userSpaceOnUse"
       gradientTransform="matrix(1,0,0,0.54186644,226.40495,-631.62612)"
       cx="337.45746"
       cy="261.79041"
       fx="337.45746"
       fy="261.79041"
       r="24.01141" /><radialGradient
       xlink:href="#linearGradient20398"
       id="radialGradient51369"
       gradientUnits="userSpaceOnUse"
       gradientTransform="matrix(0.08687028,1.6615889,-2.101429,0.10986577,682.63709,-1149.8392)"
       cx="295.28143"
       cy="92.144058"
       fx="295.28143"
       fy="92.144058"
       r="11.718368" /><linearGradient
       xlink:href="#linearGradient15862"
       id="linearGradient51371"
       gradientUnits="userSpaceOnUse"
       gradientTransform="translate(226.40495,-754.83748)"
       x1="259.25626"
       y1="114.24776"
       x2="258.34494"
       y2="107.52991" /><linearGradient
       xlink:href="#linearGradient15834"
       id="linearGradient51373"
       gradientUnits="userSpaceOnUse"
       gradientTransform="translate(226.40495,-754.83748)"
       x1="228.03033"
       y1="93.55442"
       x2="278.17233"
       y2="102.12852" /><linearGradient
       xlink:href="#linearGradient18856"
       id="linearGradient51375"
       gradientUnits="userSpaceOnUse"
       gradientTransform="rotate(-11.403568,-3382.8092,-1431.4573)"
       x1="266.72531"
       y1="77.448639"
       x2="312.85709"
       y2="73.912933" /><linearGradient
       xlink:href="#linearGradient22042"
       id="linearGradient51377"
       gradientUnits="userSpaceOnUse"
       gradientTransform="rotate(-1.2280152,-34690.833,-10690.413)"
       x1="412.9035"
       y1="251.44148"
       x2="344.27167"
       y2="185.50041" /><linearGradient
       xlink:href="#linearGradient22042"
       id="linearGradient51379"
       gradientUnits="userSpaceOnUse"
       gradientTransform="rotate(-1.2280152,413.23758,250.0272)"
       x1="412.9035"
       y1="251.44148"
       x2="344.27167"
       y2="185.50041" /><linearGradient
       xlink:href="#linearGradient22042"
       id="linearGradient51381"
       gradientUnits="userSpaceOnUse"
       gradientTransform="rotate(-1.2280152,413.23758,250.0272)"
       x1="412.9035"
       y1="251.44148"
       x2="344.27167"
       y2="185.50041" /><linearGradient
       xlink:href="#linearGradient14342"
       id="linearGradient2981"
       gradientUnits="userSpaceOnUse"
       gradientTransform="translate(-2.806306,-4.8484015)"
       x1="268.08987"
       y1="80.088432"
       x2="310.10687"
       y2="148.84193" /><linearGradient
       xlink:href="#body"
       id="linearGradient10505"
       gradientUnits="userSpaceOnUse"
       x1="509.85828"
       y1="176.60284"
       x2="529.30237"
       y2="246.93213" /><linearGradient
       xlink:href="#body"
       id="linearGradient17917"
       gradientUnits="userSpaceOnUse"
       x1="509.85828"
       y1="176.60284"
       x2="529.30237"
       y2="246.93213" /><linearGradient
       xlink:href="#wing"
       id="linearGradient27229"
       gradientUnits="userSpaceOnUse"
       x1="709.93567"
       y1="137.3212"
       x2="666.64795"
       y2="226.4969" /><linearGradient
       xlink:href="#wing"
       id="linearGradient27243"
       gradientUnits="userSpaceOnUse"
       x1="593.25348"
       y1="136.48393"
       x2="662.01654"
       y2="192.10382" /><linearGradient
       xlink:href="#linearGradient18886"
       id="linearGradient5605"
       gradientUnits="userSpaceOnUse"
       gradientTransform="matrix(1.0383754,0,0,1.0383754,1252.1189,-786.14567)"
       x1="287.96222"
       y1="77.041405"
       x2="288.10596"
       y2="101.23909" /><linearGradient
       xlink:href="#body"
       id="linearGradient32810"
       gradientUnits="userSpaceOnUse"
       x1="1516.9742"
       y1="278.20926"
       x2="1686.757"
       y2="278.20926"
       gradientTransform="matrix(0.68821785,0,0.16707114,0.65501007,-622.24626,7.2558098)" /><linearGradient
       xlink:href="#body"
       id="linearGradient32832"
       gradientUnits="userSpaceOnUse"
       x1="1516.9742"
       y1="278.20926"
       x2="1686.757"
       y2="278.20926" /><linearGradient
       xlink:href="#wing"
       id="linearGradient32846"
       gradientUnits="userSpaceOnUse"
       x1="1347.4471"
       y1="252.72263"
       x2="1589.3208"
       y2="252.72263" /></defs><g
     id="layer1"
     style="display:inline"
     transform="translate(-1308.3395,977.63846)"><g
       id="g28520"
       transform="matrix(1.4475096,0,0,1.4475096,646.70166,14.573758)"><path
         id="path52050"
         style="opacity:1;fill:#ffffff;fill-opacity:0.795918;stroke:#333333;stroke-width:3.25581;stroke-linecap:round;stroke-linejoin:round;stroke-dasharray:none"
         d="m 494.11426,-663.23991 v 19.23711 l -22.102,-11.99788 v -19.23711" /><path
         style="fill:#058bf4;fill-opacity:1;stroke:none;stroke-width:1;stroke-linecap:square;stroke-linejoin:miter;stroke-dasharray:none;stroke-opacity:1"
         d="m 498.80088,-633.79577 c 0,0 -18.94224,12.74168 -17.50089,22.00111 8.96249,57.57633 145.25741,97.25496 145.25741,97.25496 0,0 -51.69348,-93.5784 -64.25328,-122.00622 -8.5625,-19.38034 -63.50324,2.75015 -63.50324,2.75015 z"
         id="path51177" /><path
         style="fill:#5fb8fb;fill-opacity:1;stroke:none;stroke-width:0.879101;stroke-linecap:square;stroke-linejoin:miter;stroke-dasharray:none;stroke-opacity:1"
         d="m 515.68504,-609.82823 c 10.34271,-38.84038 44.9276,-37.59211 52.28556,-23.98307 l 60.68084,112.23332 c -39.23679,-19.66212 -129.47146,-26.26819 -112.9664,-88.25025 z"
         id="path51179" /><g
         id="g51191"
         style="display:inline;opacity:0;fill:#7fc6fc;fill-opacity:1;stroke:#80c6fc;stroke-opacity:1"
         transform="translate(441.37638,-743.5232)"><path
           style="display:inline;fill:#7fc6fc;fill-opacity:1;stroke:#80c6fc;stroke-width:0.152443;stroke-opacity:1"
           d="m 84.415081,149.2301 c 0.266732,-0.32087 0.271502,-0.3546 0.03811,-0.26949 -0.431851,0.15749 -0.315171,0.0384 0.538552,-0.54956 1.984786,-1.36697 5.758123,-7.61181 7.617013,-12.60609 2.017342,-5.41999 2.499398,-10.36166 1.613468,-16.54003 l -0.174873,-1.21954 -0.199431,0.97365 c -0.399969,1.9527 -1.229305,3.85258 -2.549511,5.84053 -0.987866,1.48751 -2.960945,3.73874 -4.312184,4.92008 -1.671634,1.46144 -2.026949,1.67452 -1.501731,0.90056 1.334384,-1.96632 1.603748,-6.60517 0.618594,-10.65307 -0.405345,-1.66551 -1.261155,-4.03973 -1.456163,-4.03973 -0.06741,0 -0.169261,0.18865 -0.226328,0.41922 -0.05707,0.23057 -0.519072,1.27671 -1.02668,2.32475 -1.184847,2.44632 -1.580228,3.58371 -1.797399,5.17058 -0.267406,1.95393 0.0691,3.82604 1.019143,5.66996 0.632792,1.22816 1.150597,1.7458 2.038008,2.03735 0.604164,0.1985 0.619322,0.21394 0.142518,0.14519 l -0.53355,-0.0769 0.381107,0.22901 0.381106,0.229 -0.416131,0.005 c -0.552774,0.007 -1.592055,-0.40464 -2.249848,-0.8915 -0.292481,-0.21648 -0.909874,-0.57362 -1.371984,-0.79364 -5.03354,-2.39656 -10.431208,-6.77859 -12.846645,-10.42938 -1.640831,-2.48002 -3.978292,-7.24197 -4.525717,-9.21993 -0.09878,-0.35693 -0.138747,-0.32607 -0.686416,0.53008 -1.043454,1.63118 -1.604486,3.43229 -1.40239,4.50218 0.210368,1.11367 1.34413,2.24726 1.83782,1.83754 0.140087,-0.11627 0.192306,-0.0982 0.192306,0.0666 0,0.12443 -0.06748,0.22624 -0.149953,0.22624 -0.08247,0 -0.499785,0.17015 -0.927359,0.37811 -1.409613,0.68558 -3.762295,0.7962 -4.826023,0.22691 -0.971481,-0.51992 -1.647032,-2.50649 -1.460204,-4.29396 l 0.09559,-0.91459 -0.539392,0.47359 c -1.159403,1.01797 -3.430703,1.86767 -6.307767,2.35975 -0.790327,0.13517 -1.819314,0.23677 -2.28664,0.22578 l -0.849682,-0.02 0.847644,-0.10929 c 1.098464,-0.14162 2.173059,-0.83333 3.584194,-2.30715 2.866878,-2.99423 4.032335,-5.94553 3.142363,-7.95746 -0.349753,-0.79067 -1.420821,-1.9315 -2.184183,-2.32643 -0.728232,-0.37676 -1.920946,-0.67073 -2.729894,-0.67284 -0.836569,-0.002 -1.059476,-0.19428 -1.059476,-0.91304 0,-0.65644 0.20184,-0.96968 1.545443,-2.398345 1.265351,-1.345465 1.716937,-2.162585 1.568765,-2.838593 -0.14784,-0.67449 -1.498076,-3.046631 -2.357485,-4.141711 -2.461773,-3.136854 -4.214024,-6.596672 -5.01837,-9.908772 -0.183253,-0.754592 -0.561351,-1.852179 -0.840217,-2.439083 -0.68227,-1.43591 -0.89479,-2.456706 -0.811392,-3.897356 0.05733,-0.990409 0.166123,-1.394166 0.622419,-2.310036 1.428008,-2.866277 5.10516,-6.001464 9.896313,-8.437725 7.548779,-3.83849 14.975266,-5.40038 24.129962,-5.074856 9.544192,0.339373 17.811774,3.078406 25.440239,8.428296 2.57085,1.802958 4.11223,3.135586 7.06549,6.108627 3.61144,3.635625 5.04632,5.324304 11.65782,13.719838 2.61182,3.316584 2.97219,3.631756 5.73936,5.019542 2.70968,1.358959 5.81138,2.366492 7.3012,2.371674 0.46296,0.0016 0.65441,0.06752 0.67075,0.230917 0.0126,0.125765 0.0297,0.306821 0.0381,0.402348 0.0164,0.186771 -0.59798,0.377829 -3.11626,0.969108 -2.66345,0.625367 -5.17391,0.786539 -6.84239,0.439279 l -0.36999,-0.07701 0.40815,0.50512 c 2.44214,3.022358 3.6859,7.773778 3.66372,13.996298 -0.0109,3.05659 -0.13861,4.39092 -0.68579,7.1648 -0.90046,4.56474 -3.43757,10.93236 -5.86134,14.71072 -0.48406,0.75459 -1.11399,1.85218 -1.39984,2.43908 -0.9748,2.00147 -1.52181,2.68758 -0.95647,1.19969 1.31783,-3.46824 0.27891,-8.62552 -2.65233,-13.16644 -1.48549,-2.30122 -5.68628,-6.93265 -8.15119,-8.98682 -0.77308,-0.64424 -0.80242,-0.6555 -0.5782,-0.2219 0.62484,1.20829 0.92748,3.35123 0.71388,5.05472 -0.56232,4.48461 -3.93321,9.98785 -9.827741,16.04453 -1.019985,1.04804 -2.008158,2.11133 -2.195939,2.36286 -1.920802,2.57287 -5.668588,5.64424 -10.548391,8.64457 -0.369146,0.22697 -0.979871,0.67193 -1.357166,0.98881 -0.377296,0.31687 -0.548794,0.41108 -0.381107,0.20936 z m 4.801943,-4.22961 c 2.720633,-2.44845 7.573877,-7.06604 8.204527,-7.80616 2.594249,-3.04454 5.266399,-7.17977 7.033939,-10.88526 2.53232,-5.30876 2.80286,-8.40576 0.99493,-11.3895 -0.47096,-0.77726 -1.92434,-2.33464 -2.81844,-3.02014 -0.44317,-0.33977 -2.11873,-1.19992 -2.894784,-1.48604 -0.487238,-0.17964 -0.499795,-0.19828 -0.140189,-0.20806 1.604793,-0.0436 7.393773,2.97115 11.190653,5.82788 5.32066,4.00321 8.58556,8.24098 9.79057,12.70798 0.35891,1.33049 0.40558,1.78666 0.41381,4.04489 0.0106,2.90924 -0.0162,2.90866 1.05538,0.0226 1.32998,-3.58201 2.57604,-8.73526 3.31174,-13.6962 0.44739,-3.01681 0.56932,-9.04815 0.23421,-11.58564 -0.42735,-3.23596 -1.14119,-5.39451 -2.52446,-7.633597 -1.17777,-1.906433 -1.65982,-2.379888 -3.15214,-3.095956 -1.38632,-0.665201 -3.75909,-2.158556 -5.12818,-3.227531 -2.00079,-1.56219 -5.04842,-4.908478 -6.67961,-7.33419 -0.59805,-0.889337 -0.44593,-0.767285 1.93177,1.549949 4.74426,4.623622 10.14839,8.203249 14.16186,9.380634 1.68063,0.493025 4.06919,0.653566 5.68043,0.381796 0.6068,-0.10235 1.10263,-0.231341 1.10184,-0.286649 -0.002,-0.116737 -2.26851,-0.859423 -2.55199,-0.836104 -0.1048,0.0086 -0.19055,-0.04315 -0.19055,-0.115044 0,-0.07189 -0.11415,-0.08692 -0.25367,-0.03338 -0.18419,0.07068 -0.21949,0.04204 -0.12889,-0.104559 0.0856,-0.138483 0.0661,-0.16565 -0.062,-0.08649 -0.25868,0.159875 -1.85121,-0.660459 -3.13788,-1.616369 -0.58691,-0.43603 -2.57842,-2.306916 -4.42559,-4.157527 -2.98598,-2.991542 -4.27414,-4.373602 -8.74795,-9.385613 -2.00039,-2.241041 -5.699,-6.011115 -7.10133,-7.238543 C 98.445874,68.489238 91.629124,64.870854 84.57155,63.17051 80.538294,62.1988 77.184522,61.818625 72.600776,61.813537 c -4.981989,-0.0055 -7.965989,0.411818 -11.761532,1.644988 -10.68237,3.4707 -18.226859,9.618115 -17.763954,14.474458 0.232465,2.438801 1.331872,5.517847 3.644741,10.207613 1.672648,3.3916 2.499384,4.747626 3.778052,6.196814 1.123012,1.272775 1.558115,2.134103 1.558115,3.084438 0,0.833543 -0.331317,1.430821 -1.526853,2.752522 -0.79849,0.88275 -1.305107,1.57345 -1.45125,1.97857 -0.142124,0.39398 0.403497,0.68117 1.802734,0.94889 0.666036,0.12743 1.589494,0.4166 2.052128,0.64259 1.185892,0.57929 2.330036,1.76514 2.584918,2.67913 0.280951,1.00747 0.145519,2.60242 -0.294321,3.46616 -1.008308,1.98006 -3.39082,4.26139 -5.966436,5.71305 -1.172832,0.66103 -0.822697,0.6105 1.770142,-0.25546 2.14531,-0.71649 2.823476,-1.04571 4.299201,-2.08702 1.189166,-0.83911 1.543732,-1.25098 2.376666,-2.7608 0.300655,-0.54498 0.905262,-1.33387 1.34357,-1.75309 0.563181,-0.53865 0.70612,-0.62808 0.487334,-0.30489 -0.947713,1.39996 -1.702002,3.42017 -2.024584,5.42243 -0.449747,2.79156 0.728793,4.55098 3.0831,4.60269 0.525876,0.0116 1.217009,-0.0679 1.535854,-0.17648 l 0.579715,-0.19749 -0.896985,-0.42421 c -1.018091,-0.48148 -1.483299,-0.98915 -1.723355,-1.88064 -0.409409,-1.52043 0.46718,-3.52163 2.399417,-5.47769 0.476868,-0.48275 0.952521,-0.87773 1.057004,-0.87773 0.104484,0 0.298479,-0.0416 0.431101,-0.0925 0.186805,-0.0717 0.241133,0.0103 0.241133,0.36405 0,0.25112 0.175007,1.0605 0.388905,1.79862 0.878529,3.03162 5.837245,9.7251 9.905865,13.37135 1.610431,1.44325 4.906569,4.02442 5.81971,4.55735 l 0.441233,0.25751 -0.487222,-0.96806 c -1.275416,-2.53412 -1.009245,-6.04141 0.694465,-9.15085 0.321574,-0.58691 0.96682,-1.7493 1.433881,-2.5831 0.472165,-0.84291 0.924885,-1.88057 1.019665,-2.33711 0.168043,-0.80947 0.162635,-0.83291 -0.381095,-1.65182 -0.303358,-0.45689 -0.82387,-1.10302 -1.156695,-1.43585 -1.213265,-1.21326 0.03089,-0.4133 1.709608,1.09923 0.767742,0.69174 2.564833,3.48912 3.160154,4.91915 1.03125,2.47718 1.383382,4.81917 1.08989,7.24877 -0.188693,1.56203 -0.631652,3.23929 -1.097079,4.15406 -0.15997,0.31441 -0.258628,0.57166 -0.219239,0.57166 0.105834,0 1.35117,-1.77817 1.921729,-2.74397 1.55718,-2.63586 2.821309,-5.79815 3.344892,-8.36741 0.567989,-2.78717 0.344503,-6.47345 -0.53395,-8.80729 -0.211371,-0.56156 -0.361606,-1.08914 -0.333854,-1.17239 0.06082,-0.18248 1.293849,1.65643 1.824965,2.72172 0.987321,1.98032 2.664309,7.92401 3.083298,10.92803 0.291529,2.09018 0.29635,5.70268 0.01014,7.60129 -0.772608,5.1252 -3.2541,10.36149 -7.274914,15.35106 -0.489844,0.60786 -0.838628,1.10421 -0.775073,1.10299 0.06355,-0.001 0.698645,-0.52698 1.411314,-1.16835 z"
           id="path51181" /><path
           style="fill:#7fc6fc;fill-opacity:1;stroke:#80c6fc;stroke-width:5.05071;stroke-linecap:square;stroke-linejoin:miter;stroke-dasharray:none;stroke-opacity:1"
           d="m 332.77353,551.7774 c 0.34376,-0.36261 9.15226,-12.07126 11.38776,-15.32046 5.75476,-8.36425 14.22677,-26.62114 16.52838,-35.61807 3.12866,-12.22981 3.8891,-25.10995 2.22208,-37.63689 -2.67892,-20.13086 -11.74446,-47.09834 -17.62047,-52.41605 -3.02305,-2.73583 -3.01184,-2.87925 -0.42843,5.48179 3.09821,10.02712 2.73583,27.44721 -0.80614,38.75365 -2.97272,9.48929 -12.16018,28.73811 -13.58634,28.73811 -0.42908,0 1.75883,-7.57335 2.26345,-11.92128 2.00954,-17.31422 -7.61786,-40.57339 -20.82824,-50.31971 -5.86648,-4.32814 -6.5022,-3.05817 -1.38601,2.76884 2.30276,2.6227 4.18684,5.79832 4.18684,7.05695 0,1.25861 -3.15708,8.54459 -7.01575,16.19105 -6.62829,13.13487 -7.01574,14.46349 -7.01574,24.05768 0,5.58526 5.95521,15.14711 6.59306,16.91763 2.86326,7.94791 -34.08407,-24.37966 -47.07291,-41.57599 -8.10074,-10.72482 -16.31431,-26.25472 -16.31431,-30.84648 0,-4.57109 -3.98262,-4.04478 -8.94257,1.1818 -8.99334,9.47675 -11.0812,20.0539 -5.06002,25.63415 2.81819,2.61181 3.37904,1.95609 1.61598,2.63264 -3.80615,1.46056 -11.19233,-1.2615 -12.77598,-5.80436 -1.86397,-5.34699 -0.055,-15.69952 4.28421,-24.51873 3.82833,-7.78078 1.74641,-7.53967 -4.23776,0.4908 -7.02671,9.42947 -9.68861,11.90751 -16.49726,15.35771 -9.13017,4.62661 -13.31677,6.43176 -6.84341,0.67536 8.97038,-7.97687 15.04849,-16.71546 15.04849,-24.8722 0,-6.35708 -0.44521,-7.41581 -4.68312,-11.13675 -2.57571,-2.26151 -7.98786,-5.07255 -12.02699,-6.24676 -4.03914,-1.17421 -7.33749,-2.54327 -7.32968,-3.04235 0.008,-0.49908 2.40682,-3.91417 5.33113,-7.58909 7.31907,-9.19771 7.1109,-12.61934 -1.47262,-24.20542 -12.07755,-16.30233 -26.59037,-49.9192 -26.59037,-61.59277 0,-10.33152 9.1305,-21.91031 26.27065,-33.31497 30.02809,-19.98001 64.6666,-28.34243 102.01731,-24.629 30.82777,3.06491 55.25484,11.61222 80.90713,28.31033 15.26385,9.93585 28.85754,22.83949 69.83473,66.28975 24.57392,26.05702 37.70066,30.19448 48.55466,34.16477 10.56565,3.86483 -0.2664,6.03711 -13.72211,3.95436 -16.83001,-2.60504 -36.97333,-14.4099 -58.15336,-34.0804 -6.26215,-5.81584 -11.72057,-10.23942 -12.1298,-9.83018 -1.24028,1.24027 9.96431,14.83355 20.17317,24.47387 5.28755,4.99308 13.41515,11.18306 18.06133,13.7555 4.64619,2.57244 10.38472,6.30076 12.75233,8.28513 6.26134,5.24792 12.56975,18.68286 14.96172,31.86382 4.07763,22.46984 -0.42592,61.60683 -10.6036,92.14801 l -6.17928,15.53487 1.33224,-10.8577 c 2.6565,-21.65029 -13.78242,-42.49118 -40.14455,-62.03751 -11.22362,-8.3218 -31.56399,-19.31142 -38.44888,-20.77341 -5.94793,-1.26302 -5.44543,0.0206 1.33633,3.41363 7.23745,3.62102 15.20518,11.1797 18.48781,17.53865 7.54392,14.61371 -1.68507,40.99741 -25.6946,73.45563 -5.95006,8.04382 -47.03701,47.91268 -40.54049,41.06005 z"
           id="path51183"
           transform="scale(0.26458333)" /><path
           style="fill:#7fc6fc;fill-opacity:1;stroke:#80c6fc;stroke-width:1;stroke-linecap:square;stroke-linejoin:miter;stroke-dasharray:none;stroke-opacity:1"
           d="m 50.721336,114.6621 -2.312617,1.43757 2.437625,-0.37502 z"
           id="path51185" /><path
           style="fill:#7fc6fc;fill-opacity:1;stroke:#80c6fc;stroke-width:1;stroke-linecap:square;stroke-linejoin:miter;stroke-dasharray:none;stroke-opacity:1"
           d="m 61.909409,117.53724 0.781288,0.40627 0.218763,0.0938 -0.468774,0.25001 -0.906297,0.12501 z"
           id="path51187" /><path
           style="fill:#7fc6fc;fill-opacity:1;stroke:#80c6fc;stroke-width:1;stroke-linecap:square;stroke-linejoin:miter;stroke-dasharray:none;stroke-opacity:1"
           d="m 86.910684,128.13154 0.843791,0.28126 -1.437571,1.53133 z"
           id="path51189" /></g><path
         style="display:inline;fill:#ffffff;fill-opacity:1;stroke:#ffffff;stroke-width:1.33633;stroke-linecap:square;stroke-linejoin:miter;stroke-dasharray:none;stroke-opacity:1"
         d="m 514.74245,-641.88657 c -4.54066,-1.26585 -7.18179,-3.28113 -8.91283,-6.80081 -1.15282,-2.34401 -1.16375,-2.41404 -1.14245,-7.32176 0.0201,-4.63458 0.0911,-5.13891 1.09664,-7.79601 1.73159,-4.57546 3.86884,-7.34676 7.15673,-9.2799 4.22628,-2.48487 12.04835,0.41645 16.91083,6.27247 1.07503,1.29468 2.75995,4.0245 3.82798,6.20188 2.34581,4.78237 3.41011,8.9631 3.26446,12.82328 l -0.10315,2.73386 -1.60435,0.79685 c -0.8824,0.43827 -3.18945,1.21258 -5.12679,1.7207 -4.50124,1.18057 -12.28234,1.50941 -15.36707,0.64944 z"
         id="path51193" /><path
         style="display:inline;fill:#000000;stroke-width:0.151646"
         d="m 514.46153,-639.7916 c -3.03464,-0.41314 -5.84611,-1.48798 -7.58583,-2.90009 -2.65087,-2.15169 -3.94623,-6.12245 -3.553,-10.89123 0.0688,-0.83405 0.19083,-2.98364 0.27123,-4.77686 0.16409,-3.65963 0.36279,-4.9051 1.15639,-7.24842 1.76548,-5.21306 5.17015,-8.56836 9.62896,-9.48935 3.11201,-0.64281 5.22985,-0.60198 7.87859,0.15189 1.62012,0.46111 4.59864,1.93068 5.99058,2.95569 1.6119,1.18697 4.26418,3.95639 5.35835,5.595 3.46046,5.18228 5.4483,12.55227 4.7158,17.48403 -0.19261,1.29684 -0.71688,3.28679 -0.93751,3.55849 -0.28669,0.35305 0.0134,0.37534 0.52208,0.0388 0.45363,-0.30012 0.4436,-0.27869 -0.105,0.22413 -1.60435,1.4705 -5.78802,3.25484 -9.93283,4.23637 -5.03506,1.19235 -9.72166,1.56342 -13.40781,1.06157 z m 11.92513,-1.71364 c 3.33525,-0.59762 7.48984,-1.7861 9.62217,-2.75256 0.91735,-0.41579 0.93882,-0.43923 1.06152,-1.15941 0.0689,-0.40428 0.11924,-1.8269 0.11192,-3.16139 -0.0155,-2.82361 -0.29219,-4.38826 -1.3378,-7.56506 -2.46129,-7.47802 -6.66302,-13.08273 -11.98384,-15.98532 -2.40614,-1.31258 -4.50546,-1.96422 -6.7829,-2.10544 -1.7212,-0.10673 -2.43462,0.0395 -4.02143,0.82408 -2.46096,1.21685 -4.66638,3.50691 -6.16993,6.40672 -0.90734,1.74993 -1.77087,4.15214 -2.12601,5.91421 -0.66231,3.28616 -0.70395,7.82966 -0.0924,10.08447 0.73194,2.69877 2.30606,5.169 4.25386,6.67547 1.97366,1.52647 4.43429,2.47625 7.85757,3.03296 1.97608,0.32136 7.2937,0.20582 9.60729,-0.20873 z"
         id="path51195" /><ellipse
         style="fill:#000000;fill-opacity:1;stroke:none;stroke-width:1.07173;stroke-linecap:square;stroke-linejoin:miter;stroke-dasharray:none;stroke-opacity:1"
         id="ellipse51197"
         cx="518.013"
         cy="-657.42859"
         rx="11.718368"
         ry="13.751404" /><path
         style="fill:none;fill-opacity:1;stroke:none;stroke-width:1;stroke-linecap:square;stroke-linejoin:miter;stroke-dasharray:none;stroke-opacity:1"
         d="m 532.59781,-662.90891 -10.78393,5.65714 10.96071,8.13214 z"
         id="path51199" /><ellipse
         style="fill:#ffffff;fill-opacity:1;stroke:none;stroke-width:1.06069;stroke-linecap:square;stroke-linejoin:miter;stroke-dasharray:none;stroke-opacity:1"
         id="ellipse51201"
         cx="525.31818"
         cy="-657.7688"
         rx="8.3129234"
         ry="4.625236" /><path
         style="fill:#c37b11;fill-opacity:1;stroke:none;stroke-width:1;stroke-linecap:square;stroke-linejoin:miter;stroke-dasharray:none;stroke-opacity:1"
         d="m 499.00852,-648.94284 c 0.66585,2.00269 2.98257,4.00537 1.33998,6.00806 -11.48892,9.46234 -28.43831,1.48251 -34.22212,8.57676 l 2.12143,-9.10447 z"
         id="path51203" /><path
         style="fill:#ec991f;fill-opacity:1;stroke:none;stroke-width:1;stroke-linecap:square;stroke-linejoin:miter;stroke-dasharray:none;stroke-opacity:1"
         d="m 499.00852,-648.94284 c -12.84541,-3.98292 -8.64823,-19.39124 -17.50179,-17.85536 -5.55181,1.22836 -22.3812,12.95728 -23.51249,16.44106 -2.26961,6.98919 -0.50666,17.30679 7.86696,22.80537 -0.42957,-27.36868 24.32118,-10.55542 33.14732,-21.39107 z"
         id="path51205" /><path
         style="fill:#058bf4;fill-opacity:1;stroke:none;stroke-width:1;stroke-linecap:square;stroke-linejoin:miter;stroke-dasharray:none;stroke-opacity:1"
         d="m 488.2586,-671.95532 c 0,0 6.06894,3.69466 15.46876,-6.45267 9.209,-9.94135 18.32585,-6.37958 29.16964,2.65178 0.14279,0.11893 -19.78281,-5.55149 -24.96968,1.91108 -4.58403,6.59524 -22.24385,13.28203 -19.66872,1.88981 z"
         id="path51207" /><g
         id="g51213"
         transform="matrix(1.1613829,0.07068613,-0.06705163,1.224335,434.58808,-798.58757)"><path
           style="color:#000000;fill:#5fb8fb;stroke-linejoin:bevel"
           d="m 189.95624,229.60044 c -29.88322,-26.24118 -45.6447,-54.8252 -53.1241,-76.50401"
           id="path51209" /><path
           style="color:#000000;fill:#058bf4;stroke-linejoin:bevel"
           d="m 137.30469,152.93359 -0.008,0.0449 c 5.63074,22.50546 22.59805,50.25367 52.55101,76.55609 l 0.0856,0.0436 c -27.86878,-26.17989 -44.92589,-55.79247 -52.62885,-76.64459 z"
           id="path51211" /></g><g
         id="g51219"
         transform="matrix(1.1441537,-0.22167995,0.21028174,1.206172,374.21084,-738.8267)"><path
           style="color:#000000;fill:#5fb8fb;stroke-linejoin:bevel"
           d="m 189.95624,229.60044 c -29.88322,-26.24118 -45.6447,-54.8252 -53.1241,-76.50401"
           id="path51215" /><path
           style="color:#000000;fill:#058bf4;stroke-linejoin:bevel"
           d="m 137.30469,152.93359 -0.008,0.0449 c 5.63074,22.50546 22.59805,50.25367 52.55101,76.55609 l 0.0856,0.0436 c -27.86878,-26.17989 -44.92589,-55.79247 -52.62885,-76.64459 z"
           id="path51217" /></g><g
         id="g51225"
         transform="matrix(1.0582053,-0.5094194,0.48322638,1.1155647,327.90759,-663.31825)"><path
           style="color:#000000;fill:#5fb8fb;stroke-linejoin:bevel"
           d="m 189.95624,229.60044 c -29.88322,-26.24118 -45.6447,-54.8252 -53.1241,-76.50401"
           id="path51221" /><path
           style="color:#000000;fill:#058bf4;stroke-linejoin:bevel"
           d="m 137.30469,152.93359 -0.008,0.0449 c 5.63074,22.50546 22.59805,50.25367 52.55101,76.55609 l 0.0856,0.0436 c -27.86878,-26.17989 -44.92589,-55.79247 -52.62885,-76.64459 z"
           id="path51223" /></g><path
         style="fill:url(#linearGradient51323);fill-opacity:1;stroke:none;stroke-width:1;stroke-linecap:square;stroke-linejoin:miter;stroke-dasharray:none;stroke-opacity:1"
         d="m 498.80088,-633.79577 c 0,0 -31.34735,13.89396 -29.87589,27.30468 7.39891,67.43284 171.88485,113.6819 172.83598,113.51925 0,0 -66.89705,-115.14626 -79.45685,-143.57408 -8.5625,-19.38034 -63.50324,2.75015 -63.50324,2.75015 z"
         id="path51227" /><g
         id="g51265"
         style="opacity:0.75"
         transform="translate(226.40495,-754.83748)"><g
           id="g51235"
           transform="matrix(-0.92480689,0.38043687,0.38043687,0.92480689,461.07046,-78.39208)"
           style="opacity:0.0973598;fill:url(#linearGradient51331);fill-opacity:1"
           clip-path="url(#clipPath11549)"><path
             style="fill:url(#linearGradient51325);fill-opacity:1;stroke-width:1;stroke-linejoin:bevel"
             d="m 246.08743,143.70727 c -8.68239,7.55464 -0.3913,15.97525 2.45914,23.27168 1.82614,4.67447 1.48427,11.91109 1.48427,11.91109 2.20221,-1.10232 13.63991,-22.46966 4.70144,-20.87101 -2.71835,0.48617 6.02676,-0.29708 3.9383,7.93711 8.76126,-4.62843 0.1206,-15.67381 -3.54105,-18.18298 z"
             id="path51229" /><path
             style="fill:url(#linearGradient51327);fill-opacity:1;stroke-width:1;stroke-linejoin:bevel"
             d="m 256.84292,148.31409 c 1.31931,1.11114 9.46336,10.6165 5.43412,21.91111 5.41244,-10.82719 12.27615,-1.2127 14.8948,7.07357 1.40409,-2.0232 1.19694,-26.25831 -5.88072,-20.56987 -2.15244,1.72997 5.14648,-3.15022 7.26157,5.07718 4.87786,-14.00739 -12.80723,-14.44531 -21.70977,-13.49199 z"
             id="path51231" /><path
             style="fill:url(#linearGradient51329);fill-opacity:1;stroke-width:0.577918;stroke-linejoin:bevel"
             d="m 287.21762,142.99366 c -0.21233,0.97396 -0.58997,8.19796 5.23737,11.94905 -6.2959,-3.04936 -6.04879,3.77316 -4.32621,8.49074 -1.35629,-0.43136 -9.80649,-11.60158 -4.55997,-11.49238 1.59556,0.0332 -3.4673,0.37213 -1.53489,4.88519 -7.17242,-4.69406 0.77112,-11.13018 5.1837,-13.8326 z"
             id="path51233" /></g><g
           id="g51245"
           transform="translate(-0.35357142,0.92488531)"
           style="opacity:0.29703;fill:url(#linearGradient51341);fill-opacity:1"
           clip-path="url(#clipPath11517)"><path
             style="fill:url(#linearGradient51333);fill-opacity:1;stroke-width:1;stroke-linejoin:bevel"
             d="m 246.08743,143.70727 c -8.68239,7.55464 -0.3913,15.97525 2.45914,23.27168 1.82614,4.67447 1.48427,11.91109 1.48427,11.91109 2.20221,-1.10232 13.63991,-22.46966 4.70144,-20.87101 -2.71835,0.48617 6.02676,-0.29708 3.9383,7.93711 8.76126,-4.62843 0.1206,-15.67381 -3.54105,-18.18298 z"
             id="path51237" /><path
             style="fill:url(#linearGradient51335);fill-opacity:1;stroke-width:1;stroke-linejoin:bevel"
             d="m 256.84292,148.31409 c 1.31931,1.11114 9.46336,10.6165 5.43412,21.91111 5.41244,-10.82719 12.27615,-1.2127 14.8948,7.07357 1.40409,-2.0232 1.19694,-26.25831 -5.88072,-20.56987 -2.15244,1.72997 5.14648,-3.15022 7.26157,5.07718 4.87786,-14.00739 -12.80723,-14.44531 -21.70977,-13.49199 z"
             id="path51239" /><path
             style="fill:url(#linearGradient51337);fill-opacity:1;stroke-width:0.577918;stroke-linejoin:bevel"
             d="m 290.5182,137.09193 c 6.63935,0.39792 5.8119,7.17705 7.07934,11.5231 0.81199,2.78431 3.5201,5.97739 3.5201,5.97739 -1.39706,0.27174 -14.16827,-5.47949 -9.51169,-7.89909 1.41614,-0.73584 -2.86439,1.98895 0.9952,5.02299 -5.64369,0.96979 -5.58165,-7.13447 -4.7897,-9.57448 z"
             id="path51241" /><path
             style="fill:url(#linearGradient51339);fill-opacity:1;stroke-width:0.577918;stroke-linejoin:bevel"
             d="m 287.21762,142.99366 c -0.21233,0.97396 -0.58997,8.19796 5.23737,11.94905 -6.2959,-3.04936 -6.04879,3.77316 -4.32621,8.49074 -1.35629,-0.43136 -9.80649,-11.60158 -4.55997,-11.49238 1.59556,0.0332 -3.4673,0.37213 -1.53489,4.88519 -7.17242,-4.69406 0.77112,-11.13018 5.1837,-13.8326 z"
             id="path51243" /></g><g
           id="g51253"
           transform="matrix(-0.92480689,0.38043687,0.38043687,0.92480689,460.82045,-79.392131)"><path
             style="fill:url(#linearGradient51343);fill-opacity:1;stroke-width:1;stroke-linejoin:bevel"
             d="m 246.08743,143.70727 c -8.68239,7.55464 -0.3913,15.97525 2.45914,23.27168 1.82614,4.67447 1.48427,11.91109 1.48427,11.91109 2.20221,-1.10232 13.63991,-22.46966 4.70144,-20.87101 -2.71835,0.48617 6.02676,-0.29708 3.9383,7.93711 8.76126,-4.62843 0.1206,-15.67381 -3.54105,-18.18298 z"
             id="path51247" /><path
             style="fill:url(#linearGradient51345);fill-opacity:1;stroke-width:1;stroke-linejoin:bevel"
             d="m 256.84292,148.31409 c 1.31931,1.11114 9.46336,10.6165 5.43412,21.91111 5.41244,-10.82719 12.27615,-1.2127 14.8948,7.07357 1.40409,-2.0232 1.19694,-26.25831 -5.88072,-20.56987 -2.15244,1.72997 5.14648,-3.15022 7.26157,5.07718 4.87786,-14.00739 -12.80723,-14.44531 -21.70977,-13.49199 z"
             id="path51249" /><path
             style="fill:url(#linearGradient51347);fill-opacity:1;stroke-width:0.577918;stroke-linejoin:bevel"
             d="m 287.21762,142.99366 c -0.21233,0.97396 -0.58997,8.19796 5.23737,11.94905 -6.2959,-3.04936 -6.04879,3.77316 -4.32621,8.49074 -1.35629,-0.43136 -9.80649,-11.60158 -4.55997,-11.49238 1.59556,0.0332 -3.4673,0.37213 -1.53489,4.88519 -7.17242,-4.69406 0.77112,-11.13018 5.1837,-13.8326 z"
             id="path51251" /></g><g
           id="g51263"
           transform="translate(-0.35357142,-1.2500637)"><path
             style="fill:url(#linearGradient51349);fill-opacity:1;stroke-width:1;stroke-linejoin:bevel"
             d="m 246.08743,143.70727 c -8.68239,7.55464 -0.3913,15.97525 2.45914,23.27168 1.82614,4.67447 1.48427,11.91109 1.48427,11.91109 2.20221,-1.10232 13.63991,-22.46966 4.70144,-20.87101 -2.71835,0.48617 6.02676,-0.29708 3.9383,7.93711 8.76126,-4.62843 0.1206,-15.67381 -3.54105,-18.18298 z"
             id="path51255" /><path
             style="fill:url(#linearGradient51351);fill-opacity:1;stroke-width:1;stroke-linejoin:bevel"
             d="m 256.84292,148.31409 c 1.31931,1.11114 9.46336,10.6165 5.43412,21.91111 5.41244,-10.82719 12.27615,-1.2127 14.8948,7.07357 1.40409,-2.0232 1.19694,-26.25831 -5.88072,-20.56987 -2.15244,1.72997 5.14648,-3.15022 7.26157,5.07718 4.87786,-14.00739 -12.80723,-14.44531 -21.70977,-13.49199 z"
             id="path51257" /><path
             style="fill:url(#linearGradient51353);fill-opacity:1;stroke-width:0.577918;stroke-linejoin:bevel"
             d="m 290.5182,137.09193 c 6.63935,0.39792 5.8119,7.17705 7.07934,11.5231 0.81199,2.78431 3.5201,5.97739 3.5201,5.97739 -1.39706,0.27174 -14.16827,-5.47949 -9.51169,-7.89909 1.41614,-0.73584 -2.86439,1.98895 0.9952,5.02299 -5.64369,0.96979 -5.58165,-7.13447 -4.7897,-9.57448 z"
             id="path51259" /><path
             style="fill:url(#linearGradient51355);fill-opacity:1;stroke-width:0.577918;stroke-linejoin:bevel"
             d="m 287.21762,142.99366 c -0.21233,0.97396 -0.58997,8.19796 5.23737,11.94905 -6.2959,-3.04936 -6.04879,3.77316 -4.32621,8.49074 -1.35629,-0.43136 -9.80649,-11.60158 -4.55997,-11.49238 1.59556,0.0332 -3.4673,0.37213 -1.53489,4.88519 -7.17242,-4.69406 0.77112,-11.13018 5.1837,-13.8326 z"
             id="path51261" /></g></g><path
         style="opacity:0.324841;fill:#333333;fill-opacity:1;stroke:none;stroke-width:0.879101;stroke-linecap:square;stroke-linejoin:miter;stroke-dasharray:none;stroke-opacity:1;filter:url(#filter20792)"
         d="m 287.86221,148.94391 c 9.20506,-39.12561 43.67876,-38.80914 51.56355,-25.49839 l 76.50303,129.14903 C 376.13502,234.08561 273.17263,211.38115 287.86221,148.94391 Z"
         id="path51267"
         clip-path="url(#clipPath20798)"
         transform="translate(226.40495,-754.83748)" /><path
         style="fill:url(#radialGradient51357);fill-opacity:1;stroke:none;stroke-width:0.886799;stroke-linecap:square;stroke-linejoin:miter;stroke-dasharray:none;stroke-opacity:1"
         d="m 574.05502,-506.61944 c 3.71871,0.2401 10.67043,2.12188 7.97635,5.66295 -5.79554,7.61756 -17.2138,3.08062 -20.51823,10.32795 -1.88127,5.3303 2.82191,3.91934 2.82191,3.91934 0,0 -4.54642,2.66514 -7.83867,1.41096 -3.29223,-1.25419 -17.55862,-14.42317 -13.32574,-17.40185 4.23289,-2.9787 20.52859,-4.58798 30.88438,-3.91935 z"
         id="path51269" /><path
         style="fill:url(#radialGradient51359);fill-opacity:1;stroke:none;stroke-width:0.879101;stroke-linecap:square;stroke-linejoin:miter;stroke-dasharray:none;stroke-opacity:1"
         d="m 515.68504,-609.82823 c 10.34271,-38.84038 44.7925,-37.5182 52.28556,-23.98307 l 72.70227,131.32618 c -39.23679,-19.66212 -141.49289,-45.36105 -124.98783,-107.34311 z"
         id="path51271" /><path
         style="opacity:0.113861;mix-blend-mode:normal;fill:#333333;fill-opacity:1;stroke:none;stroke-width:1;stroke-linecap:square;stroke-linejoin:miter;stroke-dasharray:none;stroke-opacity:1;filter:url(#filter14350)"
         d="M 267.83036,118.0881 256.33929,89.80238 c 7.264,-16.858781 55.5673,-33.67666 80.26071,13.61251 5.2415,5.84195 8.92433,6.16963 13.25893,6.54107 l -10.78392,2.82857 c 13.23689,13.48714 -1.14853,29.4671 -3.71251,39.06965 -1.78716,-2.9786 -1.54916,-14.70963 -12.19821,-22.27501 0.5191,22.13657 -9.67817,26.18621 -24.21965,34.29643 12.65009,-17.25721 12.27459,-25.04125 9.54643,-31.11428 0.35425,11.02971 -7.24821,12.90535 -7.24821,12.90535 3.02545,-9.30049 0.36757,-12.40099 -1.59107,-16.26428 -6.97099,9.68253 -5.44451,15.15906 -1.2375,17.85536 -15.08918,-2.68592 -17.29378,-14.51761 -20.33036,-22.45179 -5.53044,2.53393 -3.56267,5.06786 -1.2375,7.60179 -4.62789,0.13057 -7.14413,-1.20077 -5.65715,-5.30358 l -9.89999,3.88929 c 6.95962,-3.86798 6.54107,-12.90536 6.54107,-12.90536 z"
         id="path51273"
         clip-path="url(#clipPath15088)"
         transform="translate(226.40495,-754.83748)" /><path
         style="fill:url(#linearGradient51361);fill-opacity:1;stroke:none;stroke-width:1;stroke-linecap:square;stroke-linejoin:miter;stroke-dasharray:none;stroke-opacity:1"
         d="m 494.23531,-638.86606 -11.49107,-28.28571 c 7.264,-16.85878 55.5673,-33.67666 80.26071,13.6125 5.2415,5.84195 8.92433,6.16963 13.25893,6.54107 l -10.78392,2.82857 c 13.23689,13.48714 -1.14853,29.4671 -3.71251,39.06965 -1.78716,-2.9786 -1.54916,-14.70963 -12.19821,-22.27501 0.5191,22.13657 -9.67817,26.18621 -24.21965,34.29643 12.65009,-17.25721 12.27459,-25.04125 9.54643,-31.11428 0.35425,11.02971 -7.24821,12.90535 -7.24821,12.90535 3.02545,-9.30049 0.36757,-12.40099 -1.59107,-16.26428 -6.97099,9.68253 -5.44451,15.15906 -1.2375,17.85536 -15.08918,-2.68592 -17.29378,-14.51761 -20.33036,-22.45179 -5.53044,2.53393 -3.56267,5.06786 -1.2375,7.60179 -4.62789,0.13057 -7.14413,-1.20077 -5.65715,-5.30358 l -9.89999,3.88929 c 6.95962,-3.86798 6.54107,-12.90536 6.54107,-12.90536 z"
         id="path51275" /><path
         style="fill:url(#radialGradient51363);fill-opacity:1;stroke:none;stroke-width:1;stroke-linecap:square;stroke-linejoin:miter;stroke-dasharray:none;stroke-opacity:1"
         d="m 494.23531,-638.86606 -11.49107,-28.28571 c 7.264,-16.85878 55.5673,-33.67666 80.26071,13.6125 5.2415,5.84195 8.92433,6.16963 13.25893,6.54107 l -10.78392,2.82857 c 13.23689,13.48714 -1.14853,29.4671 -3.71251,39.06965 -1.78716,-2.9786 -1.54916,-14.70963 -12.19821,-22.27501 0.5191,22.13657 -9.67817,26.18621 -24.21965,34.29643 12.65009,-17.25721 12.27459,-25.04125 9.54643,-31.11428 0.35425,11.02971 -7.24821,12.90535 -7.24821,12.90535 3.02545,-9.30049 0.36757,-12.40099 -1.59107,-16.26428 -6.97099,9.68253 -5.44451,15.15906 -1.2375,17.85536 -15.08918,-2.68592 -17.29378,-14.51761 -20.33036,-22.45179 -5.53044,2.53393 -3.56267,5.06786 -1.2375,7.60179 -4.62789,0.13057 -7.14413,-1.20077 -5.65715,-5.30358 l -9.89999,3.88929 c 6.95962,-3.86798 6.54107,-12.90536 6.54107,-12.90536 z"
         id="path51277" /><path
         style="display:inline;fill:url(#linearGradient51365);fill-opacity:1;stroke:none;stroke-width:1.38761;stroke-linecap:square;stroke-linejoin:miter;stroke-dasharray:none;stroke-opacity:1"
         d="m 514.50923,-641.28011 c -4.71491,-1.31443 -7.4574,-3.40704 -9.25487,-7.06179 -1.19706,-2.43396 -1.20841,-2.50668 -1.18629,-7.60274 0.0209,-4.81243 0.0946,-5.33611 1.13873,-8.09518 1.79804,-4.75104 4.0173,-7.6287 7.43137,-9.63602 4.38846,-2.58023 12.51071,0.43242 17.55979,6.51317 1.11628,1.34438 2.86586,4.17895 3.97488,6.43989 2.43583,4.96589 3.54097,9.30706 3.38973,13.31537 l -0.10711,2.83878 -1.66591,0.82743 c -0.91627,0.45509 -3.31185,1.25911 -5.32354,1.78673 -4.67397,1.22587 -12.75368,1.56733 -15.95678,0.67436 z"
         id="path51279" /><path
         style="display:inline;fill:#000000;stroke-width:0.151646"
         d="m 514.46153,-639.7916 c -3.03464,-0.41314 -5.84611,-1.48798 -7.58583,-2.90009 -2.65087,-2.15169 -3.94623,-6.12245 -3.553,-10.89123 0.0688,-0.83405 0.19083,-2.98364 0.27123,-4.77686 0.16409,-3.65963 0.36279,-4.9051 1.15639,-7.24842 1.76548,-5.21306 5.17015,-8.56836 9.62896,-9.48935 3.11201,-0.64281 5.22985,-0.60198 7.87859,0.15189 1.62012,0.46111 4.59864,1.93068 5.99058,2.95569 1.6119,1.18697 4.26418,3.95639 5.35835,5.595 3.46046,5.18228 5.4483,12.55227 4.7158,17.48403 -0.19261,1.29684 -0.71688,3.28679 -0.93751,3.55849 -0.28669,0.35305 0.0134,0.37534 0.52208,0.0388 0.45363,-0.30012 0.4436,-0.27869 -0.105,0.22413 -1.60435,1.4705 -5.78802,3.25484 -9.93283,4.23637 -5.03506,1.19235 -9.72166,1.56342 -13.40781,1.06157 z m 11.92513,-1.71364 c 3.33525,-0.59762 7.48984,-1.7861 9.62217,-2.75256 0.91735,-0.41579 0.93882,-0.43923 1.06152,-1.15941 0.0689,-0.40428 0.11924,-1.8269 0.11192,-3.16139 -0.0155,-2.82361 -0.29219,-4.38826 -1.3378,-7.56506 -2.46129,-7.47802 -6.66302,-13.08273 -11.98384,-15.98532 -2.40614,-1.31258 -4.50546,-1.96422 -6.7829,-2.10544 -1.7212,-0.10673 -2.43462,0.0395 -4.02143,0.82408 -2.46096,1.21685 -4.66638,3.50691 -6.16993,6.40672 -0.90734,1.74993 -1.77087,4.15214 -2.12601,5.91421 -0.66231,3.28616 -0.70395,7.82966 -0.0924,10.08447 0.73194,2.69877 2.30606,5.169 4.25386,6.67547 1.97366,1.52647 4.43429,2.47625 7.85757,3.03296 1.97608,0.32136 7.2937,0.20582 9.60729,-0.20873 z"
         id="path51281" /><path
         style="fill:url(#radialGradient51367);fill-opacity:1;stroke:none;stroke-width:1.0582;stroke-linecap:square;stroke-linejoin:miter;stroke-dasharray:none;stroke-opacity:1"
         d="m 594.00909,-498.72722 c 4.43749,0.28651 12.73287,2.532 9.51805,6.75751 -6.91572,9.08991 -20.54097,3.67606 -24.48409,12.32418 -2.2449,6.36057 3.36734,4.67689 3.36734,4.67689 0,0 -5.42518,3.18028 -9.35376,1.68368 -3.92859,-1.4966 -20.95245,-17.21094 -15.90141,-20.76538 5.05103,-3.55443 24.49646,-5.47476 36.85387,-4.67688 z"
         id="path51283" /><ellipse
         style="fill:url(#radialGradient51369);fill-opacity:1;stroke:none;stroke-width:1.07173;stroke-linecap:square;stroke-linejoin:miter;stroke-dasharray:none;stroke-opacity:1"
         id="ellipse51285"
         cx="515.53802"
         cy="-657.78217"
         rx="11.718368"
         ry="13.751404" /><path
         style="fill:none;fill-opacity:1;stroke:none;stroke-width:1;stroke-linecap:square;stroke-linejoin:miter;stroke-dasharray:none;stroke-opacity:1"
         d="m 532.59781,-662.90891 -10.78393,5.65714 10.96071,8.13214 z"
         id="path51287" /><ellipse
         style="fill:#ffffff;fill-opacity:1;stroke:none;stroke-width:0.915125;stroke-linecap:square;stroke-linejoin:miter;stroke-dasharray:none;stroke-opacity:1"
         id="ellipse51289"
         cx="524.52271"
         cy="-660.12097"
         rx="6.1878152"
         ry="4.625236" /><path
         style="opacity:0.113861;mix-blend-mode:normal;fill:#333333;fill-opacity:1;stroke:none;stroke-width:1;stroke-linecap:square;stroke-linejoin:miter;stroke-dasharray:none;stroke-opacity:1;filter:url(#filter16594)"
         d="m 502.54424,-644.87677 c -3.60725,-10.11856 -20.46364,-29.1827 -19.97679,-19.88839 -19.7149,5.3018 -8.83928,21.74464 -8.83928,21.74464 0,0 19.98993,8.9794 28.81607,-1.85625 z"
         id="path51291" /><path
         style="opacity:0.10231;mix-blend-mode:normal;fill:#333333;fill-opacity:1;stroke:none;stroke-width:1;stroke-linecap:square;stroke-linejoin:miter;stroke-dasharray:none;stroke-opacity:1;filter:url(#filter16620)"
         d="m 274.26419,130.83677 c 10.10987,-0.94994 -8.55286,-28.10468 -8.22619,-18.63832 -19.7149,5.30181 1.16123,3.99373 1.16123,3.99373 -46.44787,30.43659 -21.79655,40.17285 7.06496,14.64459 z"
         id="path51293"
         clip-path="url(#clipPath16608)"
         transform="translate(226.40495,-754.83748)" /><path
         style="fill:url(#linearGradient51371);fill-opacity:1;stroke:none;stroke-width:1;stroke-linecap:square;stroke-linejoin:miter;stroke-dasharray:none;stroke-opacity:1"
         d="m 499.00852,-648.94284 c 0.66585,2.00269 2.98257,4.00537 1.33998,6.00806 -11.48892,9.46234 -28.43831,1.48251 -34.22212,8.57676 l 2.12143,-9.10447 z"
         id="path51295" /><path
         style="fill:url(#linearGradient51373);fill-opacity:1;stroke:none;stroke-width:1;stroke-linecap:square;stroke-linejoin:miter;stroke-dasharray:none;stroke-opacity:1"
         d="m 499.00852,-648.94284 c -12.84541,-3.98292 -8.64823,-19.39124 -17.50179,-17.85536 -5.55181,1.22836 -22.3812,12.95728 -23.51249,16.44106 -2.26961,6.98919 -0.50666,17.30679 7.86696,22.80537 -0.42957,-27.36868 24.32118,-10.55542 33.14732,-21.39107 z"
         id="path51297" /><path
         style="fill:url(#linearGradient51375);fill-opacity:1;stroke:none;stroke-width:1;stroke-linecap:square;stroke-linejoin:miter;stroke-dasharray:none;stroke-opacity:1"
         d="m 489.3166,-667.62944 c 0,0 6.67964,2.42178 13.88758,-9.38375 7.06162,-11.56588 16.70272,-9.877 29.11811,-3.16794 0.16348,0.0884 -20.48991,-1.53047 -24.0989,6.81032 -3.18953,7.37138 -19.17863,17.41784 -18.90679,5.74137 z"
         id="path51299" /><path
         style="color:#000000;opacity:0.781316;fill:url(#linearGradient51377);fill-opacity:1;stroke-width:1.19443;stroke-linejoin:bevel;filter:url(#filter22046)"
         d="m 561.77086,-583.14928 10e-4,0.0559 c 11.72736,25.6518 37.60639,54.81167 77.93657,79.03818 l 0.1078,0.0313 c -37.92658,-24.59235 -64.34805,-55.96995 -78.04564,-79.12536 z"
         id="path51301" /><path
         style="color:#000000;opacity:0.781316;fill:url(#linearGradient51379);fill-opacity:1;stroke-width:1.19443;stroke-linejoin:bevel;filter:url(#filter22046)"
         d="m 335.36591,171.6882 0.001,0.0559 c 11.72736,25.6518 37.60639,54.81167 77.93657,79.03818 l 0.1078,0.0313 C 375.4847,226.22123 349.06323,194.84363 335.36564,171.68822 Z"
         id="path51303"
         transform="rotate(10.846123,4502.0333,1065.0426)" /><path
         style="color:#000000;fill:#058bf4;stroke-width:1.19443;stroke-linejoin:bevel"
         d="m 579.79675,-597.38987 -0.0123,0.0544 c 5.03042,27.95224 26.87561,58.87449 59.89884,93.19472 l 0.0965,0.0594 c -30.61092,-34.02289 -52.4354,-67.2341 -59.98331,-93.30857 z"
         id="path51305" /><path
         style="color:#000000;opacity:0.781316;fill:url(#linearGradient51381);fill-opacity:1;stroke-width:1.19443;stroke-linejoin:bevel;filter:url(#filter22046)"
         d="m 335.36591,171.6882 0.001,0.0559 c 11.72736,25.6518 37.60639,54.81167 77.93657,79.03818 l 0.1078,0.0313 C 375.4847,226.22123 349.06323,194.84363 335.36564,171.68822 Z"
         id="path51307"
         transform="rotate(-14.089279,-2527.7153,-1043.4508)" /><path
         style="color:#000000;fill:#058bf4;stroke-width:1.19443;stroke-linejoin:bevel"
         d="m 563.46765,-584.80018 2.9e-4,0.0559 c 11.17492,25.89724 36.42307,55.60504 76.22478,80.69031 l 0.10711,0.0336 c -37.39132,-25.3995 -63.13426,-57.33614 -76.33245,-80.77979 z"
         id="path51309" /><path
         style="color:#000000;fill:#058bf4;stroke-width:1.19443;stroke-linejoin:bevel"
         d="m 547.10569,-562.6566 0.0132,0.0542 c 16.83371,22.23789 48.19727,44.54934 92.60368,58.63277 l 0.11165,0.005 c -42.14168,-15.00847 -74.50118,-39.354 -92.72879,-58.69185 z"
         id="path51311" /><path
         id="path51313"
         style="opacity:0.246285;mix-blend-mode:normal;fill:#ffffff;fill-opacity:0.941043;stroke:none;stroke-width:1;stroke-linejoin:bevel;filter:url(#filter20908)"
         d="m 258.39914,129.45784 c -3.49364,3.2147 -7.58753,8.03074 -7.24488,12.75961 0.13033,1.79859 0.38463,3.57176 0.74731,5.31937 a 9.8999996,9.8999996 0 0 0 5.49847,1.67029 9.8999996,9.8999996 0 0 0 9.89989,-9.90003 9.8999996,9.8999996 0 0 0 -8.90079,-9.84924 z"
         transform="matrix(2.4956333,0,0,1.6481078,-157.86391,-840.88067)" /><g
         id="g51319"
         clip-path="url(#clipPath24284)"
         style="opacity:0.751592;filter:url(#filter26599)"
         transform="matrix(1.1280383,0,0,1.1280383,182.01477,-788.74056)"><ellipse
           style="opacity:0.159236;fill:#333333;fill-opacity:0.941043;stroke:none;stroke-width:1;stroke-linejoin:bevel;filter:url(#filter24262)"
           id="ellipse51315"
           cx="363.76855"
           cy="259.63824"
           rx="8.1254148"
           ry="1.6250829"
           transform="matrix(1.244269,0,0,2.000993,-88.857375,-259.33354)" /><ellipse
           style="opacity:0.218684;fill:#333333;fill-opacity:0.941043;stroke:none;stroke-width:1;stroke-linejoin:bevel;filter:url(#filter24262)"
           id="ellipse51317"
           cx="363.76855"
           cy="259.63824"
           rx="8.1254148"
           ry="1.6250829"
           transform="matrix(1.244269,0,0,2.000993,-105.60823,-266.58391)" /></g><path
         id="rect51510"
         style="opacity:1;fill:#ffffff;fill-opacity:0.795918;stroke:#333333;stroke-width:3.25581;stroke-linecap:round;stroke-linejoin:round;stroke-dasharray:none"
         d="m 517.27319,-655.28456 v 19.23711 l -22.102,-11.99788 v -19.23711" /><path
         id="rect51702"
         style="opacity:1;fill:#333333;fill-opacity:1;stroke:none;stroke-width:3;stroke-linecap:round;stroke-linejoin:round"
         d="m 478.28341,-665.71078 c 1.74316,-2.11207 13.20223,-3.78853 17.12574,10.11486 l -0.55676,0.90284 c -4.11856,-7.84764 -16.39879,-11.42294 -16.59538,-10.95458 z" /><rect
         style="opacity:1;fill:#333333;fill-opacity:1;stroke:none;stroke-width:2.74155;stroke-linecap:round;stroke-linejoin:round;stroke-dasharray:none;stroke-opacity:1"
         id="rect52359"
         width="41.863178"
         height="5.3119302"
         x="671.69531"
         y="-491.35046"
         transform="matrix(0.96575157,-0.2594685,0.27030328,0.96277523,0,0)"
         ry="2.6559651" /><path
         style="opacity:0.692144;fill:#ffe6d5;fill-opacity:0.818594;stroke:#ffe6d5;stroke-width:0.816609;stroke-linecap:round;stroke-linejoin:round;stroke-dasharray:none;stroke-opacity:1"
         d="m 547.32528,-658.98341 v -2.04163 l 0.72781,1.48017 0.12843,-3.16452 1.62689,3.0114 c 0,0 0.3425,-1.73539 0.51374,-1.37811 0.17127,0.3573 3.72471,14.34244 3.72471,14.34244 l -2.74001,-0.91873 -1.96937,4.59366 -2.39752,-2.04163 -1.15594,-14.13827 1.24155,0.71459 z"
         id="path52361" /></g></g></svg>
